<mxfile host="app.diagrams.net" agent="Mozilla/5.0 (Windows NT 10.0; Win64; x64) AppleWebKit/537.36 (KHTML, like Gecko) Chrome/133.0.0.0 Safari/537.36" version="26.0.16" pages="3">
  <diagram name="AWS - Cloud Fomrmation" id="aZEKCqolhBAyi9wqwAzr">
    <mxGraphModel dx="1308" dy="858" grid="1" gridSize="10" guides="1" tooltips="1" connect="1" arrows="1" fold="1" page="1" pageScale="1" pageWidth="850" pageHeight="1100" math="0" shadow="0">
      <root>
        <mxCell id="0" />
        <mxCell id="1" parent="0" />
        <mxCell id="V_hFDK-3DVVq3nH4Hdd5-1" value="Amazon&lt;div&gt;API Gateway&lt;/div&gt;" style="sketch=0;points=[[0,0,0],[0.25,0,0],[0.5,0,0],[0.75,0,0],[1,0,0],[0,1,0],[0.25,1,0],[0.5,1,0],[0.75,1,0],[1,1,0],[0,0.25,0],[0,0.5,0],[0,0.75,0],[1,0.25,0],[1,0.5,0],[1,0.75,0]];outlineConnect=0;fontColor=#232F3E;fillColor=#8C4FFF;strokeColor=#ffffff;dashed=0;verticalLabelPosition=bottom;verticalAlign=top;align=center;html=1;fontSize=13;fontStyle=1;aspect=fixed;shape=mxgraph.aws4.resourceIcon;resIcon=mxgraph.aws4.api_gateway;fontFamily=Verdana;" vertex="1" parent="1">
          <mxGeometry x="75" y="70" width="50" height="50" as="geometry" />
        </mxCell>
        <mxCell id="V_hFDK-3DVVq3nH4Hdd5-2" value="Lambda" style="sketch=0;points=[[0,0,0],[0.25,0,0],[0.5,0,0],[0.75,0,0],[1,0,0],[0,1,0],[0.25,1,0],[0.5,1,0],[0.75,1,0],[1,1,0],[0,0.25,0],[0,0.5,0],[0,0.75,0],[1,0.25,0],[1,0.5,0],[1,0.75,0]];outlineConnect=0;fontColor=#232F3E;fillColor=#ED7100;strokeColor=#ffffff;dashed=0;verticalLabelPosition=bottom;verticalAlign=top;align=center;html=1;fontSize=13;fontStyle=1;aspect=fixed;shape=mxgraph.aws4.resourceIcon;resIcon=mxgraph.aws4.lambda;fontFamily=Verdana;" vertex="1" parent="1">
          <mxGeometry x="225" y="71.88" width="48.12" height="48.12" as="geometry" />
        </mxCell>
        <mxCell id="V_hFDK-3DVVq3nH4Hdd5-3" style="edgeStyle=orthogonalEdgeStyle;rounded=0;orthogonalLoop=1;jettySize=auto;html=1;exitX=1;exitY=0.5;exitDx=0;exitDy=0;exitPerimeter=0;entryX=0;entryY=0.5;entryDx=0;entryDy=0;entryPerimeter=0;strokeColor=light-dark(#0066CC,#EDEDED);strokeWidth=2;" edge="1" parent="1" source="V_hFDK-3DVVq3nH4Hdd5-1" target="V_hFDK-3DVVq3nH4Hdd5-2">
          <mxGeometry relative="1" as="geometry" />
        </mxCell>
        <mxCell id="V_hFDK-3DVVq3nH4Hdd5-4" style="edgeStyle=orthogonalEdgeStyle;rounded=0;orthogonalLoop=1;jettySize=auto;html=1;exitX=1;exitY=0.5;exitDx=0;exitDy=0;exitPerimeter=0;fontColor=#FF8000;labelBackgroundColor=none;strokeColor=light-dark(#0066CC,#EDEDED);strokeWidth=2;" edge="1" parent="1" source="V_hFDK-3DVVq3nH4Hdd5-5" target="V_hFDK-3DVVq3nH4Hdd5-6">
          <mxGeometry relative="1" as="geometry" />
        </mxCell>
        <mxCell id="V_hFDK-3DVVq3nH4Hdd5-5" value="&lt;h4&gt;&lt;font style=&quot;font-size: 13px;&quot;&gt;Amazon&amp;nbsp;&lt;br&gt;&lt;span style=&quot;background-color: transparent; color: light-dark(rgb(35, 47, 62), rgb(189, 199, 212));&quot;&gt;&lt;font style=&quot;&quot;&gt;API Gateway&lt;/font&gt;&lt;/span&gt;&lt;/font&gt;&lt;/h4&gt;" style="sketch=0;points=[[0,0,0],[0.25,0,0],[0.5,0,0],[0.75,0,0],[1,0,0],[0,1,0],[0.25,1,0],[0.5,1,0],[0.75,1,0],[1,1,0],[0,0.25,0],[0,0.5,0],[0,0.75,0],[1,0.25,0],[1,0.5,0],[1,0.75,0]];outlineConnect=0;fontColor=#232F3E;fillColor=#8C4FFF;strokeColor=#ffffff;dashed=0;verticalLabelPosition=bottom;verticalAlign=middle;align=center;html=1;fontSize=12;fontStyle=0;aspect=fixed;shape=mxgraph.aws4.resourceIcon;resIcon=mxgraph.aws4.api_gateway;" vertex="1" parent="1">
          <mxGeometry x="56" y="476" width="50" height="50" as="geometry" />
        </mxCell>
        <mxCell id="V_hFDK-3DVVq3nH4Hdd5-6" value="AWS Lambda" style="sketch=0;points=[[0,0,0],[0.25,0,0],[0.5,0,0],[0.75,0,0],[1,0,0],[0,1,0],[0.25,1,0],[0.5,1,0],[0.75,1,0],[1,1,0],[0,0.25,0],[0,0.5,0],[0,0.75,0],[1,0.25,0],[1,0.5,0],[1,0.75,0]];outlineConnect=0;fontColor=#232F3E;fillColor=#ED7100;strokeColor=#ffffff;dashed=0;verticalLabelPosition=bottom;verticalAlign=top;align=center;html=1;fontSize=13;fontStyle=1;aspect=fixed;shape=mxgraph.aws4.resourceIcon;resIcon=mxgraph.aws4.lambda;fontFamily=Verdana;" vertex="1" parent="1">
          <mxGeometry x="186" y="476" width="50" height="50" as="geometry" />
        </mxCell>
        <mxCell id="V_hFDK-3DVVq3nH4Hdd5-7" value="Dynamo DB" style="outlineConnect=0;dashed=0;verticalLabelPosition=bottom;verticalAlign=top;align=center;html=1;shape=mxgraph.aws3.dynamo_db;fillColor=#2E73B8;gradientColor=none;fontSize=13;fontFamily=Verdana;fontStyle=1" vertex="1" parent="1">
          <mxGeometry x="366" y="476" width="40" height="50" as="geometry" />
        </mxCell>
        <mxCell id="V_hFDK-3DVVq3nH4Hdd5-8" style="edgeStyle=orthogonalEdgeStyle;rounded=0;orthogonalLoop=1;jettySize=auto;html=1;exitX=1;exitY=0.5;exitDx=0;exitDy=0;exitPerimeter=0;strokeColor=light-dark(#0066CC,#EDEDED);strokeWidth=2;" edge="1" parent="1" source="V_hFDK-3DVVq3nH4Hdd5-9" target="V_hFDK-3DVVq3nH4Hdd5-12">
          <mxGeometry relative="1" as="geometry" />
        </mxCell>
        <mxCell id="V_hFDK-3DVVq3nH4Hdd5-9" value="AWS S3" style="outlineConnect=0;dashed=0;verticalLabelPosition=bottom;verticalAlign=top;align=center;html=1;shape=mxgraph.aws3.s3;fillColor=#E05243;gradientColor=none;fontSize=13;fontFamily=Verdana;fontStyle=1" vertex="1" parent="1">
          <mxGeometry x="356" y="596" width="50" height="60" as="geometry" />
        </mxCell>
        <mxCell id="V_hFDK-3DVVq3nH4Hdd5-10" style="edgeStyle=orthogonalEdgeStyle;rounded=0;orthogonalLoop=1;jettySize=auto;html=1;exitX=1;exitY=0.5;exitDx=0;exitDy=0;exitPerimeter=0;entryX=0;entryY=0.5;entryDx=0;entryDy=0;entryPerimeter=0;fontColor=#0066CC;strokeColor=light-dark(#0066CC,#EDEDED);strokeWidth=2;" edge="1" parent="1" source="V_hFDK-3DVVq3nH4Hdd5-6" target="V_hFDK-3DVVq3nH4Hdd5-7">
          <mxGeometry relative="1" as="geometry" />
        </mxCell>
        <mxCell id="V_hFDK-3DVVq3nH4Hdd5-11" value="" style="endArrow=classic;html=1;rounded=0;exitX=1;exitY=0.75;exitDx=0;exitDy=0;exitPerimeter=0;fontColor=#0066CC;strokeColor=light-dark(#0066CC,#EDEDED);strokeWidth=2;" edge="1" parent="1" source="V_hFDK-3DVVq3nH4Hdd5-6" target="V_hFDK-3DVVq3nH4Hdd5-9">
          <mxGeometry width="50" height="50" relative="1" as="geometry">
            <mxPoint x="366" y="856" as="sourcePoint" />
            <mxPoint x="416" y="806" as="targetPoint" />
          </mxGeometry>
        </mxCell>
        <mxCell id="V_hFDK-3DVVq3nH4Hdd5-12" value="Athena" style="outlineConnect=0;dashed=0;verticalLabelPosition=bottom;verticalAlign=top;align=center;html=1;shape=mxgraph.aws3.athena;fillColor=#F58534;gradientColor=none;fontFamily=Verdana;fontSize=13;fontStyle=1" vertex="1" parent="1">
          <mxGeometry x="491" y="596" width="60" height="60" as="geometry" />
        </mxCell>
        <mxCell id="V_hFDK-3DVVq3nH4Hdd5-13" value="IAM" style="outlineConnect=0;dashed=0;verticalLabelPosition=bottom;verticalAlign=top;align=center;html=1;shape=mxgraph.aws3.iam;fillColor=#759C3E;gradientColor=none;fontFamily=Verdana;fontSize=13;fontStyle=1" vertex="1" parent="1">
          <mxGeometry x="707" y="446" width="20" height="30" as="geometry" />
        </mxCell>
        <mxCell id="V_hFDK-3DVVq3nH4Hdd5-14" value="" style="verticalLabelPosition=bottom;sketch=0;html=1;fillColor=#A153A0;strokeColor=#ffffff;verticalAlign=top;align=center;points=[[0,0.5,0],[0.125,0.25,0],[0.25,0,0],[0.5,0,0],[0.75,0,0],[0.875,0.25,0],[1,0.5,0],[0.875,0.75,0],[0.75,1,0],[0.5,1,0],[0.125,0.75,0]];pointerEvents=1;shape=mxgraph.cisco_safe.compositeIcon;bgIcon=ellipse;resIcon=mxgraph.cisco_safe.design.users;" vertex="1" parent="1">
          <mxGeometry x="653" y="441" width="40" height="40" as="geometry" />
        </mxCell>
        <mxCell id="V_hFDK-3DVVq3nH4Hdd5-15" value="IAM" style="outlineConnect=0;dashed=0;verticalLabelPosition=bottom;verticalAlign=top;align=center;html=1;shape=mxgraph.aws3.iam;fillColor=#759C3E;gradientColor=none;fontFamily=Verdana;fontSize=13;fontStyle=1" vertex="1" parent="1">
          <mxGeometry x="707" y="541" width="20" height="30" as="geometry" />
        </mxCell>
        <mxCell id="V_hFDK-3DVVq3nH4Hdd5-16" value="" style="verticalLabelPosition=bottom;sketch=0;html=1;fillColor=#A153A0;strokeColor=#ffffff;verticalAlign=top;align=center;points=[[0,0.5,0],[0.125,0.25,0],[0.25,0,0],[0.5,0,0],[0.75,0,0],[0.875,0.25,0],[1,0.5,0],[0.875,0.75,0],[0.75,1,0],[0.5,1,0],[0.125,0.75,0]];pointerEvents=1;shape=mxgraph.cisco_safe.compositeIcon;bgIcon=ellipse;resIcon=mxgraph.cisco_safe.design.users;" vertex="1" parent="1">
          <mxGeometry x="653" y="536" width="40" height="40" as="geometry" />
        </mxCell>
        <mxCell id="V_hFDK-3DVVq3nH4Hdd5-17" value="IAM" style="outlineConnect=0;dashed=0;verticalLabelPosition=bottom;verticalAlign=top;align=center;html=1;shape=mxgraph.aws3.iam;fillColor=#759C3E;gradientColor=none;fontFamily=Verdana;fontSize=13;fontStyle=1" vertex="1" parent="1">
          <mxGeometry x="707" y="631" width="20" height="30" as="geometry" />
        </mxCell>
        <mxCell id="V_hFDK-3DVVq3nH4Hdd5-18" value="" style="verticalLabelPosition=bottom;sketch=0;html=1;fillColor=#A153A0;strokeColor=#ffffff;verticalAlign=top;align=center;points=[[0,0.5,0],[0.125,0.25,0],[0.25,0,0],[0.5,0,0],[0.75,0,0],[0.875,0.25,0],[1,0.5,0],[0.875,0.75,0],[0.75,1,0],[0.5,1,0],[0.125,0.75,0]];pointerEvents=1;shape=mxgraph.cisco_safe.compositeIcon;bgIcon=ellipse;resIcon=mxgraph.cisco_safe.design.users;" vertex="1" parent="1">
          <mxGeometry x="653" y="626" width="40" height="40" as="geometry" />
        </mxCell>
        <mxCell id="V_hFDK-3DVVq3nH4Hdd5-19" value="" style="endArrow=classic;html=1;rounded=0;exitX=0;exitY=0.5;exitDx=0;exitDy=0;exitPerimeter=0;fontColor=#0066CC;strokeColor=light-dark(#0066CC,#EDEDED);strokeWidth=2;entryX=1;entryY=0.03;entryDx=0;entryDy=0;entryPerimeter=0;" edge="1" parent="1" source="V_hFDK-3DVVq3nH4Hdd5-18" target="V_hFDK-3DVVq3nH4Hdd5-12">
          <mxGeometry width="50" height="50" relative="1" as="geometry">
            <mxPoint x="246" y="524" as="sourcePoint" />
            <mxPoint x="366" y="617" as="targetPoint" />
          </mxGeometry>
        </mxCell>
        <mxCell id="V_hFDK-3DVVq3nH4Hdd5-20" value="" style="endArrow=classic;html=1;rounded=0;exitX=0;exitY=0.5;exitDx=0;exitDy=0;exitPerimeter=0;fontColor=#0066CC;strokeColor=light-dark(#0066CC,#EDEDED);strokeWidth=2;entryX=1;entryY=0.03;entryDx=0;entryDy=0;entryPerimeter=0;" edge="1" parent="1" source="V_hFDK-3DVVq3nH4Hdd5-16" target="V_hFDK-3DVVq3nH4Hdd5-12">
          <mxGeometry width="50" height="50" relative="1" as="geometry">
            <mxPoint x="691" y="656" as="sourcePoint" />
            <mxPoint x="561" y="636" as="targetPoint" />
          </mxGeometry>
        </mxCell>
        <mxCell id="V_hFDK-3DVVq3nH4Hdd5-21" value="" style="endArrow=classic;html=1;rounded=0;exitX=0;exitY=0.5;exitDx=0;exitDy=0;exitPerimeter=0;fontColor=#0066CC;strokeColor=light-dark(#0066CC,#EDEDED);strokeWidth=2;entryX=1;entryY=0.03;entryDx=0;entryDy=0;entryPerimeter=0;" edge="1" parent="1" source="V_hFDK-3DVVq3nH4Hdd5-14" target="V_hFDK-3DVVq3nH4Hdd5-12">
          <mxGeometry width="50" height="50" relative="1" as="geometry">
            <mxPoint x="701" y="666" as="sourcePoint" />
            <mxPoint x="571" y="646" as="targetPoint" />
          </mxGeometry>
        </mxCell>
        <mxCell id="V_hFDK-3DVVq3nH4Hdd5-22" value="" style="outlineConnect=0;dashed=0;verticalLabelPosition=bottom;verticalAlign=top;align=center;html=1;shape=mxgraph.aws3.iam;fillColor=#759C3E;gradientColor=none;fontFamily=Verdana;fontSize=13;fontStyle=1" vertex="1" parent="1">
          <mxGeometry x="186" y="556" width="20" height="30" as="geometry" />
        </mxCell>
        <mxCell id="V_hFDK-3DVVq3nH4Hdd5-24" value="" style="rounded=1;whiteSpace=wrap;html=1;" vertex="1" parent="1">
          <mxGeometry x="40" y="757" width="770" height="280" as="geometry" />
        </mxCell>
        <mxCell id="V_hFDK-3DVVq3nH4Hdd5-23" value="" style="outlineConnect=0;dashed=0;verticalLabelPosition=bottom;verticalAlign=top;align=center;html=1;shape=mxgraph.aws3.iam;fillColor=#759C3E;gradientColor=none;fontFamily=Verdana;fontSize=13;fontStyle=1" vertex="1" parent="1">
          <mxGeometry x="216" y="556" width="20" height="30" as="geometry" />
        </mxCell>
        <mxCell id="V_hFDK-3DVVq3nH4Hdd5-25" value="Cloud Formation" style="outlineConnect=0;dashed=0;verticalLabelPosition=middle;verticalAlign=top;align=left;html=1;shape=mxgraph.aws3.cloudformation;fillColor=#759C3E;gradientColor=none;labelPosition=right;fontFamily=Verdana;fontStyle=1;fontSize=13;" vertex="1" parent="1">
          <mxGeometry x="52" y="732" width="40" height="50" as="geometry" />
        </mxCell>
        <mxCell id="V_hFDK-3DVVq3nH4Hdd5-26" style="edgeStyle=orthogonalEdgeStyle;rounded=0;orthogonalLoop=1;jettySize=auto;html=1;exitX=1;exitY=0.5;exitDx=0;exitDy=0;exitPerimeter=0;fontColor=#FF8000;labelBackgroundColor=none;strokeColor=light-dark(#0066CC,#EDEDED);strokeWidth=2;" edge="1" parent="1" source="V_hFDK-3DVVq3nH4Hdd5-27" target="V_hFDK-3DVVq3nH4Hdd5-28">
          <mxGeometry relative="1" as="geometry" />
        </mxCell>
        <mxCell id="V_hFDK-3DVVq3nH4Hdd5-27" value="&lt;h4&gt;&lt;font style=&quot;font-size: 13px;&quot;&gt;Amazon&amp;nbsp;&lt;br&gt;&lt;span style=&quot;background-color: transparent; color: light-dark(rgb(35, 47, 62), rgb(189, 199, 212));&quot;&gt;&lt;font style=&quot;&quot;&gt;API Gateway&lt;/font&gt;&lt;/span&gt;&lt;/font&gt;&lt;/h4&gt;" style="sketch=0;points=[[0,0,0],[0.25,0,0],[0.5,0,0],[0.75,0,0],[1,0,0],[0,1,0],[0.25,1,0],[0.5,1,0],[0.75,1,0],[1,1,0],[0,0.25,0],[0,0.5,0],[0,0.75,0],[1,0.25,0],[1,0.5,0],[1,0.75,0]];outlineConnect=0;fontColor=#232F3E;fillColor=#8C4FFF;strokeColor=#ffffff;dashed=0;verticalLabelPosition=bottom;verticalAlign=middle;align=center;html=1;fontSize=12;fontStyle=0;aspect=fixed;shape=mxgraph.aws4.resourceIcon;resIcon=mxgraph.aws4.api_gateway;" vertex="1" parent="1">
          <mxGeometry x="75" y="816" width="50" height="50" as="geometry" />
        </mxCell>
        <mxCell id="V_hFDK-3DVVq3nH4Hdd5-28" value="AWS Lambda" style="sketch=0;points=[[0,0,0],[0.25,0,0],[0.5,0,0],[0.75,0,0],[1,0,0],[0,1,0],[0.25,1,0],[0.5,1,0],[0.75,1,0],[1,1,0],[0,0.25,0],[0,0.5,0],[0,0.75,0],[1,0.25,0],[1,0.5,0],[1,0.75,0]];outlineConnect=0;fontColor=#232F3E;fillColor=#ED7100;strokeColor=#ffffff;dashed=0;verticalLabelPosition=bottom;verticalAlign=top;align=center;html=1;fontSize=13;fontStyle=1;aspect=fixed;shape=mxgraph.aws4.resourceIcon;resIcon=mxgraph.aws4.lambda;fontFamily=Verdana;" vertex="1" parent="1">
          <mxGeometry x="205" y="816" width="50" height="50" as="geometry" />
        </mxCell>
        <mxCell id="V_hFDK-3DVVq3nH4Hdd5-29" value="Dynamo DB" style="outlineConnect=0;dashed=0;verticalLabelPosition=bottom;verticalAlign=top;align=center;html=1;shape=mxgraph.aws3.dynamo_db;fillColor=#2E73B8;gradientColor=none;fontSize=13;fontFamily=Verdana;fontStyle=1" vertex="1" parent="1">
          <mxGeometry x="385" y="816" width="40" height="50" as="geometry" />
        </mxCell>
        <mxCell id="V_hFDK-3DVVq3nH4Hdd5-30" style="edgeStyle=orthogonalEdgeStyle;rounded=0;orthogonalLoop=1;jettySize=auto;html=1;exitX=1;exitY=0.5;exitDx=0;exitDy=0;exitPerimeter=0;strokeColor=light-dark(#0066CC,#EDEDED);strokeWidth=2;" edge="1" parent="1" source="V_hFDK-3DVVq3nH4Hdd5-31" target="V_hFDK-3DVVq3nH4Hdd5-34">
          <mxGeometry relative="1" as="geometry" />
        </mxCell>
        <mxCell id="V_hFDK-3DVVq3nH4Hdd5-31" value="AWS S3" style="outlineConnect=0;dashed=0;verticalLabelPosition=bottom;verticalAlign=top;align=center;html=1;shape=mxgraph.aws3.s3;fillColor=#E05243;gradientColor=none;fontSize=13;fontFamily=Verdana;fontStyle=1" vertex="1" parent="1">
          <mxGeometry x="375" y="936" width="50" height="60" as="geometry" />
        </mxCell>
        <mxCell id="V_hFDK-3DVVq3nH4Hdd5-32" style="edgeStyle=orthogonalEdgeStyle;rounded=0;orthogonalLoop=1;jettySize=auto;html=1;exitX=1;exitY=0.5;exitDx=0;exitDy=0;exitPerimeter=0;entryX=0;entryY=0.5;entryDx=0;entryDy=0;entryPerimeter=0;fontColor=#0066CC;strokeColor=light-dark(#0066CC,#EDEDED);strokeWidth=2;" edge="1" parent="1" source="V_hFDK-3DVVq3nH4Hdd5-28" target="V_hFDK-3DVVq3nH4Hdd5-29">
          <mxGeometry relative="1" as="geometry" />
        </mxCell>
        <mxCell id="V_hFDK-3DVVq3nH4Hdd5-33" value="" style="endArrow=classic;html=1;rounded=0;exitX=1;exitY=0.75;exitDx=0;exitDy=0;exitPerimeter=0;fontColor=#0066CC;strokeColor=light-dark(#0066CC,#EDEDED);strokeWidth=2;" edge="1" parent="1" source="V_hFDK-3DVVq3nH4Hdd5-28" target="V_hFDK-3DVVq3nH4Hdd5-31">
          <mxGeometry width="50" height="50" relative="1" as="geometry">
            <mxPoint x="385" y="1196" as="sourcePoint" />
            <mxPoint x="435" y="1146" as="targetPoint" />
          </mxGeometry>
        </mxCell>
        <mxCell id="V_hFDK-3DVVq3nH4Hdd5-34" value="Athena" style="outlineConnect=0;dashed=0;verticalLabelPosition=bottom;verticalAlign=top;align=center;html=1;shape=mxgraph.aws3.athena;fillColor=#F58534;gradientColor=none;fontFamily=Verdana;fontSize=13;fontStyle=1" vertex="1" parent="1">
          <mxGeometry x="510" y="936" width="60" height="60" as="geometry" />
        </mxCell>
        <mxCell id="V_hFDK-3DVVq3nH4Hdd5-35" value="IAM" style="outlineConnect=0;dashed=0;verticalLabelPosition=bottom;verticalAlign=top;align=center;html=1;shape=mxgraph.aws3.iam;fillColor=#759C3E;gradientColor=none;fontFamily=Verdana;fontSize=13;fontStyle=1" vertex="1" parent="1">
          <mxGeometry x="726" y="786" width="20" height="30" as="geometry" />
        </mxCell>
        <mxCell id="V_hFDK-3DVVq3nH4Hdd5-36" value="" style="verticalLabelPosition=bottom;sketch=0;html=1;fillColor=#A153A0;strokeColor=#ffffff;verticalAlign=top;align=center;points=[[0,0.5,0],[0.125,0.25,0],[0.25,0,0],[0.5,0,0],[0.75,0,0],[0.875,0.25,0],[1,0.5,0],[0.875,0.75,0],[0.75,1,0],[0.5,1,0],[0.125,0.75,0]];pointerEvents=1;shape=mxgraph.cisco_safe.compositeIcon;bgIcon=ellipse;resIcon=mxgraph.cisco_safe.design.users;" vertex="1" parent="1">
          <mxGeometry x="672" y="781" width="40" height="40" as="geometry" />
        </mxCell>
        <mxCell id="V_hFDK-3DVVq3nH4Hdd5-37" value="IAM" style="outlineConnect=0;dashed=0;verticalLabelPosition=bottom;verticalAlign=top;align=center;html=1;shape=mxgraph.aws3.iam;fillColor=#759C3E;gradientColor=none;fontFamily=Verdana;fontSize=13;fontStyle=1" vertex="1" parent="1">
          <mxGeometry x="726" y="881" width="20" height="30" as="geometry" />
        </mxCell>
        <mxCell id="V_hFDK-3DVVq3nH4Hdd5-38" value="" style="verticalLabelPosition=bottom;sketch=0;html=1;fillColor=#A153A0;strokeColor=#ffffff;verticalAlign=top;align=center;points=[[0,0.5,0],[0.125,0.25,0],[0.25,0,0],[0.5,0,0],[0.75,0,0],[0.875,0.25,0],[1,0.5,0],[0.875,0.75,0],[0.75,1,0],[0.5,1,0],[0.125,0.75,0]];pointerEvents=1;shape=mxgraph.cisco_safe.compositeIcon;bgIcon=ellipse;resIcon=mxgraph.cisco_safe.design.users;" vertex="1" parent="1">
          <mxGeometry x="672" y="876" width="40" height="40" as="geometry" />
        </mxCell>
        <mxCell id="V_hFDK-3DVVq3nH4Hdd5-39" value="IAM" style="outlineConnect=0;dashed=0;verticalLabelPosition=bottom;verticalAlign=top;align=center;html=1;shape=mxgraph.aws3.iam;fillColor=#759C3E;gradientColor=none;fontFamily=Verdana;fontSize=13;fontStyle=1" vertex="1" parent="1">
          <mxGeometry x="726" y="971" width="20" height="30" as="geometry" />
        </mxCell>
        <mxCell id="V_hFDK-3DVVq3nH4Hdd5-40" value="" style="verticalLabelPosition=bottom;sketch=0;html=1;fillColor=#A153A0;strokeColor=#ffffff;verticalAlign=top;align=center;points=[[0,0.5,0],[0.125,0.25,0],[0.25,0,0],[0.5,0,0],[0.75,0,0],[0.875,0.25,0],[1,0.5,0],[0.875,0.75,0],[0.75,1,0],[0.5,1,0],[0.125,0.75,0]];pointerEvents=1;shape=mxgraph.cisco_safe.compositeIcon;bgIcon=ellipse;resIcon=mxgraph.cisco_safe.design.users;" vertex="1" parent="1">
          <mxGeometry x="672" y="966" width="40" height="40" as="geometry" />
        </mxCell>
        <mxCell id="V_hFDK-3DVVq3nH4Hdd5-41" value="" style="endArrow=classic;html=1;rounded=0;exitX=0;exitY=0.5;exitDx=0;exitDy=0;exitPerimeter=0;fontColor=#0066CC;strokeColor=light-dark(#0066CC,#EDEDED);strokeWidth=2;entryX=1;entryY=0.03;entryDx=0;entryDy=0;entryPerimeter=0;" edge="1" parent="1" source="V_hFDK-3DVVq3nH4Hdd5-40" target="V_hFDK-3DVVq3nH4Hdd5-34">
          <mxGeometry width="50" height="50" relative="1" as="geometry">
            <mxPoint x="265" y="864" as="sourcePoint" />
            <mxPoint x="385" y="957" as="targetPoint" />
          </mxGeometry>
        </mxCell>
        <mxCell id="V_hFDK-3DVVq3nH4Hdd5-42" value="" style="endArrow=classic;html=1;rounded=0;exitX=0;exitY=0.5;exitDx=0;exitDy=0;exitPerimeter=0;fontColor=#0066CC;strokeColor=light-dark(#0066CC,#EDEDED);strokeWidth=2;entryX=1;entryY=0.03;entryDx=0;entryDy=0;entryPerimeter=0;" edge="1" parent="1" source="V_hFDK-3DVVq3nH4Hdd5-38" target="V_hFDK-3DVVq3nH4Hdd5-34">
          <mxGeometry width="50" height="50" relative="1" as="geometry">
            <mxPoint x="710" y="996" as="sourcePoint" />
            <mxPoint x="580" y="976" as="targetPoint" />
          </mxGeometry>
        </mxCell>
        <mxCell id="V_hFDK-3DVVq3nH4Hdd5-43" value="" style="endArrow=classic;html=1;rounded=0;exitX=0;exitY=0.5;exitDx=0;exitDy=0;exitPerimeter=0;fontColor=#0066CC;strokeColor=light-dark(#0066CC,#EDEDED);strokeWidth=2;entryX=1;entryY=0.03;entryDx=0;entryDy=0;entryPerimeter=0;" edge="1" parent="1" source="V_hFDK-3DVVq3nH4Hdd5-36" target="V_hFDK-3DVVq3nH4Hdd5-34">
          <mxGeometry width="50" height="50" relative="1" as="geometry">
            <mxPoint x="720" y="1006" as="sourcePoint" />
            <mxPoint x="590" y="986" as="targetPoint" />
          </mxGeometry>
        </mxCell>
        <mxCell id="V_hFDK-3DVVq3nH4Hdd5-44" value="" style="outlineConnect=0;dashed=0;verticalLabelPosition=bottom;verticalAlign=top;align=center;html=1;shape=mxgraph.aws3.iam;fillColor=#759C3E;gradientColor=none;fontFamily=Verdana;fontSize=13;fontStyle=1" vertex="1" parent="1">
          <mxGeometry x="205" y="896" width="20" height="30" as="geometry" />
        </mxCell>
        <mxCell id="V_hFDK-3DVVq3nH4Hdd5-45" value="" style="outlineConnect=0;dashed=0;verticalLabelPosition=bottom;verticalAlign=top;align=center;html=1;shape=mxgraph.aws3.iam;fillColor=#759C3E;gradientColor=none;fontFamily=Verdana;fontSize=13;fontStyle=1" vertex="1" parent="1">
          <mxGeometry x="235" y="896" width="20" height="30" as="geometry" />
        </mxCell>
        <mxCell id="V_hFDK-3DVVq3nH4Hdd5-46" style="edgeStyle=orthogonalEdgeStyle;rounded=0;orthogonalLoop=1;jettySize=auto;html=1;exitX=1;exitY=0.5;exitDx=0;exitDy=0;exitPerimeter=0;fontColor=#FF8000;labelBackgroundColor=none;strokeColor=light-dark(#0066CC,#EDEDED);strokeWidth=2;" edge="1" parent="1" source="V_hFDK-3DVVq3nH4Hdd5-47" target="V_hFDK-3DVVq3nH4Hdd5-48">
          <mxGeometry relative="1" as="geometry" />
        </mxCell>
        <mxCell id="V_hFDK-3DVVq3nH4Hdd5-47" value="&lt;h4&gt;&lt;font style=&quot;font-size: 13px;&quot;&gt;Amazon&amp;nbsp;&lt;br&gt;&lt;span style=&quot;background-color: transparent; color: light-dark(rgb(35, 47, 62), rgb(189, 199, 212));&quot;&gt;&lt;font style=&quot;&quot;&gt;API Gateway&lt;/font&gt;&lt;/span&gt;&lt;/font&gt;&lt;/h4&gt;" style="sketch=0;points=[[0,0,0],[0.25,0,0],[0.5,0,0],[0.75,0,0],[1,0,0],[0,1,0],[0.25,1,0],[0.5,1,0],[0.75,1,0],[1,1,0],[0,0.25,0],[0,0.5,0],[0,0.75,0],[1,0.25,0],[1,0.5,0],[1,0.75,0]];outlineConnect=0;fontColor=#232F3E;fillColor=#8C4FFF;strokeColor=#ffffff;dashed=0;verticalLabelPosition=bottom;verticalAlign=middle;align=center;html=1;fontSize=12;fontStyle=0;aspect=fixed;shape=mxgraph.aws4.resourceIcon;resIcon=mxgraph.aws4.api_gateway;" vertex="1" parent="1">
          <mxGeometry x="55" y="225" width="50" height="50" as="geometry" />
        </mxCell>
        <mxCell id="V_hFDK-3DVVq3nH4Hdd5-48" value="AWS Lambda" style="sketch=0;points=[[0,0,0],[0.25,0,0],[0.5,0,0],[0.75,0,0],[1,0,0],[0,1,0],[0.25,1,0],[0.5,1,0],[0.75,1,0],[1,1,0],[0,0.25,0],[0,0.5,0],[0,0.75,0],[1,0.25,0],[1,0.5,0],[1,0.75,0]];outlineConnect=0;fontColor=#232F3E;fillColor=#ED7100;strokeColor=#ffffff;dashed=0;verticalLabelPosition=bottom;verticalAlign=top;align=center;html=1;fontSize=13;fontStyle=1;aspect=fixed;shape=mxgraph.aws4.resourceIcon;resIcon=mxgraph.aws4.lambda;fontFamily=Verdana;" vertex="1" parent="1">
          <mxGeometry x="185" y="225" width="50" height="50" as="geometry" />
        </mxCell>
        <mxCell id="V_hFDK-3DVVq3nH4Hdd5-49" value="Dynamo DB" style="outlineConnect=0;dashed=0;verticalLabelPosition=bottom;verticalAlign=top;align=center;html=1;shape=mxgraph.aws3.dynamo_db;fillColor=#2E73B8;gradientColor=none;fontSize=13;fontFamily=Verdana;fontStyle=1" vertex="1" parent="1">
          <mxGeometry x="365" y="225" width="40" height="50" as="geometry" />
        </mxCell>
        <mxCell id="V_hFDK-3DVVq3nH4Hdd5-51" value="AWS S3" style="outlineConnect=0;dashed=0;verticalLabelPosition=bottom;verticalAlign=top;align=center;html=1;shape=mxgraph.aws3.s3;fillColor=#E05243;gradientColor=none;fontSize=13;fontFamily=Verdana;fontStyle=1" vertex="1" parent="1">
          <mxGeometry x="355" y="345" width="50" height="60" as="geometry" />
        </mxCell>
        <mxCell id="V_hFDK-3DVVq3nH4Hdd5-52" style="edgeStyle=orthogonalEdgeStyle;rounded=0;orthogonalLoop=1;jettySize=auto;html=1;exitX=1;exitY=0.5;exitDx=0;exitDy=0;exitPerimeter=0;entryX=0;entryY=0.5;entryDx=0;entryDy=0;entryPerimeter=0;fontColor=#0066CC;strokeColor=light-dark(#0066CC,#EDEDED);strokeWidth=2;" edge="1" parent="1" source="V_hFDK-3DVVq3nH4Hdd5-48" target="V_hFDK-3DVVq3nH4Hdd5-49">
          <mxGeometry relative="1" as="geometry" />
        </mxCell>
        <mxCell id="V_hFDK-3DVVq3nH4Hdd5-53" value="" style="endArrow=classic;html=1;rounded=0;exitX=1;exitY=0.75;exitDx=0;exitDy=0;exitPerimeter=0;fontColor=#0066CC;strokeColor=light-dark(#0066CC,#EDEDED);strokeWidth=2;" edge="1" parent="1" source="V_hFDK-3DVVq3nH4Hdd5-48" target="V_hFDK-3DVVq3nH4Hdd5-51">
          <mxGeometry width="50" height="50" relative="1" as="geometry">
            <mxPoint x="365" y="605" as="sourcePoint" />
            <mxPoint x="415" y="555" as="targetPoint" />
          </mxGeometry>
        </mxCell>
        <mxCell id="V_hFDK-3DVVq3nH4Hdd5-64" value="" style="outlineConnect=0;dashed=0;verticalLabelPosition=bottom;verticalAlign=top;align=center;html=1;shape=mxgraph.aws3.iam;fillColor=#759C3E;gradientColor=none;fontFamily=Verdana;fontSize=13;fontStyle=1" vertex="1" parent="1">
          <mxGeometry x="185" y="305" width="20" height="30" as="geometry" />
        </mxCell>
        <mxCell id="V_hFDK-3DVVq3nH4Hdd5-65" value="" style="outlineConnect=0;dashed=0;verticalLabelPosition=bottom;verticalAlign=top;align=center;html=1;shape=mxgraph.aws3.iam;fillColor=#759C3E;gradientColor=none;fontFamily=Verdana;fontSize=13;fontStyle=1" vertex="1" parent="1">
          <mxGeometry x="215" y="305" width="20" height="30" as="geometry" />
        </mxCell>
        <mxCell id="V_hFDK-3DVVq3nH4Hdd5-66" value="&lt;h1 style=&quot;margin-top: 0px;&quot;&gt;Template&lt;br&gt;&lt;ul&gt;&lt;li&gt;&lt;b style=&quot;background-color: transparent; color: light-dark(rgb(0, 0, 0), rgb(255, 255, 255)); font-size: 12px;&quot;&gt;Create YAML / JSON File&lt;/b&gt;&lt;/li&gt;&lt;li&gt;&lt;b style=&quot;background-color: transparent; color: light-dark(rgb(0, 0, 0), rgb(255, 255, 255)); font-size: 12px;&quot;&gt;Template containing resources&lt;/b&gt;&lt;span style=&quot;background-color: transparent; color: light-dark(rgb(0, 0, 0), rgb(255, 255, 255)); font-size: 12px; font-weight: 400;&quot;&gt;.&amp;nbsp;&lt;/span&gt;&lt;/li&gt;&lt;/ul&gt;&lt;/h1&gt;&lt;h1 style=&quot;margin-top: 0px;&quot;&gt;Stack&lt;br&gt;&lt;ul&gt;&lt;li&gt;&lt;span style=&quot;font-size: 12px; font-weight: 400;&quot;&gt;Logical grouping all templates and resources&lt;/span&gt;&lt;/li&gt;&lt;li&gt;&lt;span style=&quot;font-size: 12px; font-weight: 400;&quot;&gt;application level stacks&amp;nbsp;&lt;/span&gt;&lt;/li&gt;&lt;li&gt;&lt;span style=&quot;font-size: 12px; font-weight: 400;&quot;&gt;combine multiple templates&lt;/span&gt;&lt;/li&gt;&lt;/ul&gt;&lt;/h1&gt;&lt;h1 style=&quot;margin-top: 0px;&quot;&gt;ChangeSets&lt;/h1&gt;&lt;p&gt;difference between cloudformation from previous and new changes&lt;/p&gt;&lt;p&gt;show preview (incrementally)&lt;/p&gt;" style="text;html=1;whiteSpace=wrap;overflow=hidden;rounded=0;" vertex="1" parent="1">
          <mxGeometry x="440" y="20" width="370" height="410" as="geometry" />
        </mxCell>
      </root>
    </mxGraphModel>
  </diagram>
  <diagram id="hw0P6qN6oZ7rdcZ6i-GT" name="Pros vs Cons">
    <mxGraphModel dx="1308" dy="858" grid="1" gridSize="10" guides="1" tooltips="1" connect="1" arrows="1" fold="1" page="1" pageScale="1" pageWidth="850" pageHeight="1100" math="0" shadow="0">
      <root>
        <mxCell id="0" />
        <mxCell id="1" parent="0" />
        <mxCell id="M_x_zIGCI7BnbwPZryQG-35" value="" style="shape=image;verticalLabelPosition=bottom;labelBackgroundColor=default;verticalAlign=top;aspect=fixed;imageAspect=0;image=data:image/png,iVBORw0KGgoAAAANSUhEUgAABCYAAAHGCAYAAACo14oaAAAAAXNSR0IArs4c6QAAAARnQU1BAACxjwv8YQUAAAAJcEhZcwAADsMAAA7DAcdvqGQAAP+lSURBVHhe7N0HvCZJWTb83kCQHCUJKEkkSZIoSZaoJEElJwOgoqgoKPq9vobXAKIgoiJBV0kLIiAICCIoIoogGQFRBFGCRMmbvvPv2Wuo7X2eEybszJy5rvnVdD/dVXfddVd13aGq+xxzwgknnD4VRVEURVEURVEURVEcAhx7xrEodh2OOeaYg5KKoiiKoiiK7WMzO6r2VVEU0B0Txa5DlNuxxx47pwOB00//6mNy2mmn7U1VpkVRFEVRFF/FaDPFDssx93Jc2lCux74qiuLoQgMTxa5BlBzl5/zkk0+evvjFL06nnHLKfH1/QUmifc5znnM617nONR9PPfXUsyhQ5+GlKIqiKIriaAH7h60ksY++9KUvzYm9dPzxx8/20znOcY45X5L7jrGtjjvuuPn3qgDFuoCF/EVRHNloYKLYNRh3MJz73OeeLn3pS0+f/OQnp8997nN7ldyIdcptHShVCe3Pf/7z03//939PF7rQhabznve88/0ERKAKsiiKoiiKowWxqRwtDH3kIx+Z7aJLXepS8zV2EZvpspe97HSxi11sDk6w277yla9MH/zgB6dPfepT8+/Pfvaz04c//OHpPOc5z3TBC15wDmZA7KpVtlttrqLYHWhgojjiQSFRVBSaAITgwTd8wzdMP/mTPzl94zd+4xm59g/qoDw/85nPTB/72Memd73rXdNrXvOa6aMf/ej0X//1X3tXAYAihirKoiiKoih2O2LvOAowWBi6zGUuMwchbnKTm8y2mKCE3RDsNXZSAgw5Wkiy4MO++qd/+qf5nL1lNwUbayyzlX1V+6sojkw0MFHsGlBEFJdI/dd//ddPj370o/cGJqKkotT2BaGRI2X57ne/ew5Q/M3f/M30v//7v/NuirzeURRFURRFsRvBFmJTSWwvizeXvOQlp+td73rTjW50o+ma17zmdP7zn3/HdldsLLso3vSmN8321b/+67/OthWwr5JnM2wnT1EUhxeOu8IVrvDzZ5wXxRGJKL1E0ymti1zkItONb3zj+QhRZFFUOcqf61slNHyvQuBDUtaKAOVrq+InPvGJeesi5Zz3J3eqkIuiKIqiKA5nsG9ic7F57Ia45S1vOd3jHveY7njHO05XutKV5vtsJnmSlEv5nI/Xga0lXfjCF56ueMUrTle96lWnC1zgAtMHPvCBeVdF6t0KqbMoiiMHDUwURzSWSicKjpL81m/91vk9xigxr3nkPClltpOURUPQQcrWQrskLn/5y8/K8+Mf//j0D//wD3s/4IQXZYuiKIqiKI50xB7Kgo8gxD3vec/pbne723TlK19572ut7KXlKxixp8a0vC6/BGhYYLra1a4277543/veN33605/em2csJ63CuutFURx+aGCiOOJB6YyRd8pSYOKmN73pdNGLXnRThbVThE5oSlHO6vJtCx/GtAUxyjn3G6QoiqIoiuJIRWwtdo1XK25wgxtM97///acb3vCG88cqXY9ttA7btYWSRz3OvZp79atffd6dahEodMJTURRHPhqYKHYFRkVHMdoCOAYmtoPNlNtS+S1pqjP12j3hi9I+3GS1wHVQZru8FEVRFEVRHA5g/0h2KST44KOW9773vefdDOMO0VW2TuwnZXOeI+R8Wc7vcXfExS9+8fkbYv7amgWg2FewLFsUxZGHPXuliuIoBEXoWxHej9ws5ZsSUhTyEgIQthzC5S53uek7vuM75tdI1DFuNyyKoiiKojjSwMaJTXPzm998+q7v+q751Y3YPo5LW0d+ybWc++6Ej4dLX/7yl/fuiEj+dXCPHea7E3e5y13mv/yhPNS+Kordge6YKHYFovgkwYPt7Jj4whe+ML3jHe+Y3vve9847HETfP/ShD03/+Z//OR+T/LZ1kEJEa/nOZOA3xez7E14l8R6kP3klv7SZwj3cEfkWRVEURXF0IUEJizXXv/71p/vd737TVa5yldneSUAiNs7SVhCI8FfL2Fnvf//7p3/5l3+Z3va2t03vec97Zvvqs5/97JxHebTYV6to5dy9S1ziEvP5W97yljnAgY/NsNvtl3WyP9hQ726XbXH2on8utNgVyE4GiYLzrYef+qmfmhUnJTciE+l//Md/TL/8y788/8lPuxsoXBi3Gsrn3DXpW77lW6bv/M7vnK51rWvN35BIvtBMfrQEJX7t135t+uhHPzoHSvKnrlYhdILQyfkq4AeixKVlW7eDse6xDfkdeTgfDYaDibRZXUv+INfG9p4dfBVFURTF0YLoYI6/xRy21QMf+MDZFmIDJZCwCmyxT33qU/Of+vQnP//6r/96+sxnPjOd97znne0K+jx0fZ/Cnxm9xS1uMdtXFpXcU3f0PvhtkUi9Xuc48cQTp5e97GVzXfKtsgNWXVtiVR70QlMa+TgQGGmOtCObzeB+bMDlOaRPttP2nSJ8j3LJbwgPq+4VxVbojoliV2CcAE3Qm+2YyCRJQb7mNa+Z/v3f/32+TjnaFkjp5TUOSTTe0X27K9785jdPl73sZaev+7qvm8uFfupH2w4Jylcdr3/96+evSkdxBs4pjxzHBOikXSP8XqZc3xekziWt8XzMk2sHC6k7KfIYf8cYWvJVFEVRFMWBAx3LFvEXyO5+97vPr3H4CxnRv0tYhGE3CUg8+9nPnpMdEnZGjHaNI9uK3SXIwBb7+7//+/nDlhe84AXn5NsVo353zsZTVt3Kq8eODNeSJ8i1VZBvs5SdINLBsDNCL3WMaTOM+fCFz/F6eE06kAh9INv0w1hX8ozyK4rtooGJYlfA5JgJMIGJ/LnQVZOiaxShIIOIPiUrOk8JLpNVga/5mq+ZlaR8gg1e8bjGNa4xBz5CL0f1R3FSsP68FUWdyRzcSz4BC8EQR0le94Ocp7y8eJePUrYVkmK34qD+8LIdoIEWI4ISccwXr7XT3wx3BPW7ry55o3QONLSJkUEW6rPjRB8xaiSvyOBJPvBXULRD/0VGY38URVEURbFzxKagj+1muNOd7rR3wWe0aYLYJa9+9avn3Qxvf/vbZ5uFDcV+YqfQ1ewH5dlY5zvf+aYLXOACc+DDtX/7t3+bX7Nle3llQ9kl2Ab/+I//OL3qVa+ad7+qc5XeH8+BPaUO151/8YtfnPnz25HN8z//8z+zrcHuYB+BMmwNchgd7iX97WC0ER3JLPZfEqhTntSRo/t4cQ/PPrSO7/DMRgpN9y2U7QufI1KenMkMb+y0j3zkI3O9bDJJ/XjBmxSZ6XM09pePYvejr3IUuwIm90x6JkHbDR/1qEfNr3K4Nk7uOfdNCa9a/PM///McdIgy2AzKmvBNwN6x/N7v/d5Z2S7pS3iySvAbv/Eb80qA705EeVLAPpJJYci3BKVL2VAAoZu84cEHoARHfKXa5P+GN7xhroeiDw9LuBZlh5ZzgQY7OuwwIQc7PRwZBehSPvgQIHjXu941GwHuAZ4g9aG3E6RtjunDKFPbOa95zWvORgsZ40u9+I0S/MAHPjD3Hx7JlNzwNMqqKIqiKIqdgxNO/7NXvu/7vm/+s6BsDLo6+hvoWr/lfd3rXjc9+clPnv7rv/5rtiWAzbIss4R76KiTs0vnf//3f/90+9vffrYB0HBf4OCv/uqvpuc973mzPaIOjm9orKpDufAosQ/YCewJC1lXvepV512wzgVCYkexLWJv/MM//MPsdKuLnYJPCV+xX1bVHaRe8OFOwRg2U8rEZkGbvUUGuS+57og3to6/ThK+Yx/Joxy+vU5sEQ1dPOIV1LFTKE9ejur65m/+5r3yYtsmeBR5Ceiwz970pjfNu43JTNnRPk27i2JEAxPFrkCUgkmcU5vAhL97DeMkmPMEJuyaMLGa0DeDMplQJUGPH/mRH5kVwzjpQ+oyMfuOxd/93d/NgQSOvnxXuMIVph//8R+fVx6WCsNvWxMf97jHzTxe6lKXmpUQx9sOEKsWdoPg2SRvBeJjH/vY9Ad/8Afz6gFHPjyOCP+OyjA0/Jmva1/72vOrKZQNetIYcMCPgAr5UDBWM974xjfOKxp2a7gX5Yx22r4dyKvP0KbYyFJAgtLDkzZndSV0067wE56snuBJQIdy1MYo+p3wVBRFURRHO0b9fMc73nG6173uNV3ykpdcqU/pf7qWbfCMZzxj1sn0t+tb2VZLoK8sXc4OeOQjHzl/cBMtH8886aST5oUYdhG7xfXYgCkfOMdX7AB52ROXucxlZvuHrcHuEPhga6g39g/gXT3oC2Kw6dgZdoL4Phmbju0SOW0G9NkmbBZtutnNbjaXHfkFNtXTnva0+ZsceA3/bDvBCN/3YCdlN4kUGxLkxQveBG7+4i/+Yg6qqFdd2rIV0NAmRzJje0Ze6haQiM245F8ZMhOkUqc+84oOmdmNm/zb4aM4+tBXOYpdAROhyS6TLqc9r3IE4+TpXFRZwMBWNMpoO5OkPMpSHOq0eiDy7bpJfIRrJua3vvWt88SciL98djl8+7d/+8yfyZ0TPSYK5ZWvfOW8MiB4QVFSYt/93d89fdu3fdtsHEQpQOoR0Mi1EXgWsJHPn/eyAnGPe9xjpimIg7coZHm1LW3FbxQ23gRKBDPs1nBPUMTrH6k3fbEV5AN5Kdjb3e520z3vec/pBje4wWw0qG8MSIAyKeeeFQLKWuT+ute97nSd61xn5kOfjsbKdnkqiqIoiqMd0Z0cTPaGP8/Jdhid9oB+ZQvYIfGc5zxn3lmpLBrR1zsFe4Vdkl0DdnXaHfknf/In804A9GO3pY7o+FW63jXOOnvqlre85XTve997uu1tbzu3yY4Lzj17Ql0jlHNdYnOx99gZbCDX2GgSe0TZzdpLdhx1dtid73zn6epXv/psvyS4kKRd2igIwo6BK13pSrPN5k+0snX0ibLsnVU8u4YO2wq/fnuteDtBothL6kZfW3303RhwTob4TDAk8k45KTajXSGCS3i2IIcPuzj0K/kVxRINTBS7AuOESFFtNzAhikuZRsFthigcE6u8JmWOPafYvUzS4LdECXi9QhoVOiVr5wNHH60oV0cKmWPtw5y2xFGGN77xjaeHPvShew2D5E09lB2lPQYmck9bKRgGhjq9fuK1DYotPLkvr7ZFjs5HuK9O15XTBq9aCCLY3ohnUFbewO8lksfxm77pm6YHP/jBc2Ai7666l5T849H1sf1AEeJJwARN71latRFEokTlT/miKIqiKM4KelJiF7BhrJDf6la3mvVr7gXRq/L56xhW+dkwS6TcWHY7QN8uA39i9LWvfe1sr3Fo2VvuBSPd8VwbJNc41RZ3ONiXv/zl99pKsSUgZfN7ibSXXYYe2Wiv3aNsLPaRsiMPAZ7tupBufetbz7tWR6AtkaWPpmuzoMkJJ5wwPeABD5gXbQRrYgMGY125Hlruaacdvuw0wY7x3iq4rk3quc1tbjPd//73n3dKqFv7yHNJwzHnSx4ArQQo2GOCEwI0ysi/TmbF0YedvRBeFLsMO5kIx7zOTdBLBZxJ1mScyRlWlTVRO6esnEvO89vxa7/2a2el4N1ORgGayiaPcylY1pkkQIOO7YMUKaU65kn9Y5nxvpR6U6drAjq+0P3oRz96XgHIayTgOPID+a2s+igpClfgBS2IDFJP6EijXJMvKWC0CJh4N1WUX1sFJ9RXFEVRFMVZER0r0ZfsG8muSg4yvb0Kyn34wx+eXvziF88OOqzLu10ojw+63Y4ECy8WG+j33NsK8uHNooXFmIc85CHzjlM2QewINkbsH+eBsqsSfnKOhp0MD3/4w2c7hp3lPjqjrTLCNUn51Csp54hXgQTOP5tPIMVikkUp90I/R3RGhLfQCy/sq/vc5z7zYloCNcuyEJ7VZUeJMgnipL6R59BIu9I2yf2RX9csxn3P93zP/CqzV0PwAqFTFA1MFEclMvnuC5QdJ9olMilTBhxiHzGiUE3k21Wmki1wXhW5613vOm/HS9lM/pD6Uybn45FBIWhgC6DzbOULndByVEfS8j6MtKOkKBbbG9G3I4NclHF/CflDwysh3lsViU/duZ/foeOaY+Qe2smXsrnm3E4OtN3TD6v4KYqiKIriq/od6Eu6k761sj8680F0raPvLdgxIHDgd9L+AG2Jk5wPLMYuGHlNvqRAPvzb7XHf+953fpWAvbIsv6+IjLTZXyvhxNtVkHodpe0ieR3J2yu3diywBdPu3B+xVR14UV6g40Y3utFML68jj9Ae9qF7dhz707DkrizIL/kdOSatguvJFygrCUroj/RD7bMi6Egoih1gVHwmbAlyLRNw8llt8OeTxi1+myHlKJKb3OQms2KgjJVzLfchEzy4P9JWF4XgPqUsAJBvVVDyoQHOUz5JWQpKeb/HulLWdeehJxDgHUgfZvJF5iialE9+oPhsLbze9a4353N9zA+u+daGFZj3vve903ve8575VRWvZ1idIdfsWAn9AC0fzvJFaPdE+xOQKYqiKIrizKBzk+hNR68r+OAi5zs6ekT0u4+I+94Ue+BAAg/qoOvZJSPC6xIpgy+LO+wouz7YUNrBDlpC/pSJ/RMbKsn9EX6TicROswDkFQ0ykD95luW2grbi23fI8vpM7L+Rx814W0J5bbJYY6HLd8ECZSNLtqrgiu9wsOmU077UK8kHaPhuhcQ2Y6d5bdk4YLupL3yF98CHMP3VutSLblFAAxPFUYFMpEuYKMfJMr/XpUyglIJob76JkIk7cM2ETsFwwjnG44S+GdChGAQmfC8BYhCMvIQPdXhnMfXnHnD8vU8pgCLviPASeuj4pgXH/y1vecu8dVIwQGDAO56jkgHlQyNHiszWQ6+LUHCuj2XAbzssBDBs61vyBeryNWlf337MYx4zr0TY/sfA8NGqn/3Zn53+6I/+aPqbv/mbOUiBd3TRkvDrK9T+ljpa292tUhRFURRHI+jQ0dbwDQA7G8fXOHIM/OaIet1itHGUX+bdH+yEljZYHBFQsePUcTPEduBM+1YWu4fj7COevslgx+uqHQZ4kmL/ObJ/LAbF5nA9abtgO/pgJdk7D9Bgz7Ct8GTxRWK34S/1rQP+9KVgR3ge4Tdb0rcs/BU5bVB/ZO9cUr+ggr8c4ttnbDM7Zi1MeYX213/916fnP//5sx2JT7JNXer1rQuv/QhiRIapoyj68ctiV8Ckl8nN5MwRHz9+mfuOmSA5r/4qRz5+OU6eq6B8JnPffuAk247mGqRsJljOsu2NnGfIdUcBDcpLlH2Ee5KoPt7xlXKQQIfJ3qQuQu0DSeqhSO0iyIqFIIG/cuF7CzAqGIgstJti8xXoV7ziFdNLXvKSOfk74YIT6FLOlBSFtorOCLIXWMEXGS/zO7cKY+ujb1JEfoH7giG///u/P5144omzsSCP+rXNuUi9wIP+YxQBWuRFcTMsXvjCF858k/FYf1EURVEUq0Gn07OC/hYQpNgikvvRqY7+IpgPiQtk0PfBOr0bOkk7xboybD/148NiEPvHzgO8a8+yXGwXNgZbyoc7/WlNif3jA5RsIB9q5LCza9hmS77Hc4stdiSg509jsluSH2+cerS8omFxa5V95Fp2okr4lNhT6LJ78Cf586xsLXacP+Gp3aGzRPrN68XsR7ZS5JJ6tNVCEBsN7+6DY+TlT7X+1m/91mzbuiafpO7Q+Mu//MvZdmSrkRnZyYPPl770pdOznvWsuY2uhW5RQAMTxa6AiS2T67rAxBImeROsSToBApPvMlESjiAoIBJ/hzvcYf6wYvLAOLlL8lmxNwkLZAgqyCvPusBEIF8UE6CHX442nk36L3/5y6fXve51s/IUVPBXRqIYHG3Fk8YPXQbykBMlQXH406R//Md/PP3jP/7j/Dv30fzgBz84Gx4UGQUvip8AgXxB5AAUkZUHf++booa03VE03o4Q+UakXvUJSqQ+R3Typ7X89p6k8mQieo/vvDv5qle9am5LZDjyWRRFURTFetCbFjp8LNFHqjdzyK2Ms0EEBEY7YMx7ILGOruvqZ3vh+W53u9vsrMf2WJZjF/iLZn/7t387/5lTjj57Qnn2WnZQ2DkhCSr4U+/sjNAajzl3nz3C/mHP5PpWgYkcAW/5jQY7lZ323Oc+d7Zv8GNRLfaPAIp6/eUL9hGM9ALX2JJsR21nI+W6egQr7DLx6kvKO+acXPChbewxdhkbM8k4YX+yvY0Hi0TsOeUEbCw62e1KxuGzKEZ8dQYpiqMEJl+TvgnYajuH22sDjib5ZXLdykEi0t77s3UtEzpk4h6ViWi5nQxx4rcL5aOs0ONoCw5QnD/3cz83/d7v/d4c7EDb9kn31ZEy2udPgdqOR4mOPAWuRdnZcoc2fikZisV9CU3KRqCHLJ74xCfOf0dcvckzIryr10oFPhg32p+8lBY5UmqrQIEJiDjikXKLMnfUXn3nvj5Bx3WBmic96UlzQENQwjVY8lgURVEUxeagzy0EWNXeDHQ0/TzaGUub42Ajtgc+LPz46xsWhFxLYCKITWCnqN0RbAaOPXtDe2OzKeucTSTQYPHmyU9+8mwTyruKJpCXv1ZmUcX1fZGFMsqycdRnhwHby/cc8MTuYZt5NUMwAn9PecpT5l0KsZ2Wtk9+C2AISrClAveUsWjE3lvarGkH20tQAV/qQcMx9lnsMmNCGXy+//3vn5761KfO/Hn9Q7CHTEO3KEY0MFEcFTChJkVR2VrmQ0W+1mz3g+QdOe8I5n05R0EI16Qf/dEfnX7iJ35iVjhLxQT5bVK25Y4zTzmazNW7XURJmOhFmwUjfvd3f3emZ+KnjCSTOyWYet1Txp+WyvcpljyCa5SLvwv+ohe9aD4XMIgyI58oplxznyKnIG0lVJd7I9CV8PSN3/iNs5ITnQfKKsD3Kr7APSsJPo4JYx2jEsMfGvhQn6CKDzC95jWvmYMslPeSv6IoiqIoNkd0Lb0f22XUv86jX+n26PfodffH/Acb4Udie7AfBBnwvsrWYJPZ6WGRx84DTn5shpFWyrqPlt0VbAzfSVi2L22WBAvsCiUXdHJ/u0he35AQkLBLlvOfXQbuh0f2pmAMWwt/XvXdDAIT7KzwKoXPMRCl7cv+VM5rwvhwL0Gc0WaElGWPsoEFKNibZK6eMW9RjOirHMWugAkzE6FJb/kqh+tBzikaHxg64YQT5lceBClE2Z07JnnlQvT7+te//ry9bXSqU6f6A8pDhNiWO9vWTNyZ1EH+rV7lAA636LgIs+8pyKs9ylMi6GkrmOT9Fr1G2zbBq1/96isVgHxoUxB/+Id/OO9oIAs05U3bRqQuPDjaaeIDl+oa6xhlgZ4Agd0e8kQOrvsYlR0dy7r8lig9tAVM7J5gRIRuAksj0Ad9Q6nKK4VeURRFURTbAx3L+b7pTW862xL06qh3o18hrzqwK5b69mDo33U0YwfEXuMMj3ljQ7jmOwgnnXTSvBthmWdpP0hsEHYSsJl8wHv8OGVoJK/rggpst9BwjaPORlz3jQnQDtfsahA4ecELXjDLXmI/LfOnPrQFKdbZvmmTo49PelXFgk7yOOJNnws+jNdTFg/sa7aWHbdkgd/IPmXkB7/xjD9jaFV7i2JEQ1bFUYFMkiNMliZ0yjQp29IclynOcWiZoDNhjxCtFhmmqDnYY5ntQn6vS3iX0IeN8h4fpYPv5BnhN969JnGlK13pjKtnRnihkLwj6P0/wYYou9xfJohRQgH5yx22DJJLykXZ5IhfOzcoonz/AuRVv7asgvt2s9ziFreYfuzHfmx68IMfPAcx1EsJUpx2buiP8BQ+tX9UkOGlKIqiKIrtg/6k49kH0bWjTo2O5aSO+j04O/Wvuuh+NpcFJDbEKsiHR99lsMOSzRD7IbzLs7Qt/CYL7fTqr299xSkfy40QePCB9Fxf3l+H0LPr1u4MbWJHuT469st6c9Rf7q2rzyLRcldEAgd25bJhtSv3QPvRlLyi6+PvdhD7wKggBnuVbaYs+0x5NJPCE7gnFcUqNDBRHJUw2ZpoTdAUTRIFuypRDPKOE/UIkyxH2YQsQu4jSpmEx8l4K2TiN8Fz/G3fowxN7HHEV9UfvkTM8UshQpTrCPSthLzzne+cXweJwtkO1BEl6TsOlJBrY9vCCyVn1wO5aU94d6T8GAbqXcol5ZWzs8Jf7/jJn/zJ6QlPeML00z/90/P2SB9Rsh1R+cgFT8qlLc6LoiiKotgZoq8tInDeR33qPPfBIgS7w+9lOjugHnqf88s2kNgP62BRxMc67WgAbdkKo42kHgtGdo66vmwn28c1uyoud7nL7ZXFMt8qoBd+/KUTQZAsiqV8eBnpsaPU68gO1WfrgP6yzalXsptW0GXJr9+pW5/blfLABz5w+tVf/dX5+14PeMAD5tdo2H14YffJz7a2AKY82QWhVRQjGpgojmrs78SoPEUgeb/Ptxee/exnz4qBYhyVw3KS3wwmb0EGZdBRz3Z4pVQojM1eEUFHYEJgQB3oL4MDmyHKhVJGZx3kE8RgJDBaKFdQP6XuL5YwelJ32pgE7qEjgOLPnorSC078yq/8yqwEfTHc6og2oC84QQY7kXVRFEVRFHtA/9K9XoXgxHMwlxh1rK397I4g+vvsgvrwQ/ezFcbXE1bx4hVbr5mC+zvhl+2jrb5L4XWQzQIA7DC8hL+krSA/ul6DJfssuqxD7gkG4I8t6riuXSMfyaO/yU9f2qlrN61FsSUN5dQD6mB7CcCwxe5973vPH0j/5V/+5fncIpJXSrRFEqBIWVjHX3F0o4GJ4qjFcqI3SZqck/zeLMnDGZYouZe97GXzR4r8BY8EE8Y6lvVtBnkpCUh96zDet33Rh4bwtqp9QJl4tYLCSzu3i9RFUSorMKGeZV25RjHb5kc5j4qScnrTm940K0DBkcgy9AMykHIdTUbBVa961enOd77zvJVQ8oHSb/7mb57zMKSW/BRFURRFsTXoXDrUgoKVc996GvUy5LejnY12MHKIR0d9WeZgIfqeDSGYgm9YxbOUvyrBUd6prcBWYb/4NoVvLKhzHSzMjEES2Eom8qpDYqORaX6H/yWUkfSbfLGpdgp9l1d7/ZUz30rTvthuI031sQMhvCnrVeJrX/va804Ki0gPe9jDprvc5S7z9zgs2KEV2zbHohjRUVHsKmTSjmLdCmOeTPpJmykC10zYJlrfavARJR+79GeQKLtM4NvhYRXQjzKQ0FnSyr2cq5MiFPFWdhXQkI/zzsFPwGAnfCYvpWnHA6xTMBQXnpQZeXXdayDPe97zphe+8IXz+4mRWZA2OSofGq5JfjNCfIRTdF6Awl9YsYOCMofwWhRFURTF1qBf6XTJyrndkaM9skyCEl5ZYE+Mety9A4XYAJuBYy1okFX5sf7wCuyfOO/j9e0gPKTMKp5cixz2JfiR/I5b7ZZYQr1jH6zCqvbqa9ctqgkweFXXn0dl37LzlgGYsf2x/1wbZWpc+BDpQx7ykOkRj3jEvIBEHj7quRWPxdGLBiaKXYWdTuAmSJNuEmXF4XaU3Jfy1yEEIuyOsI3vzW9+8/SMZzxjeuxjHzsHJuweGLepHQowHigQcohyWAdK3P3k3QmijFYZAEuEj2XfKOv9yd/4jd+Y31G0gyIftxyV20gbjaWidh8vDKN73ete0//5P/9nPgrQwLLeoiiKoihWg46lV+loiwY+ds0OGnVx4Bpn01+CsCq+2Q6CVVhFc4T7sTdGB3gVkjfnS+c35UaaO8VOy+2L/aEM3u38yCsyY9tWIW0bsVX+5X2/XU/yEfdf+qVfmp7//OfPHwq1mOT1DryxNaXIWFmJbHIOqceO1h/+4R+ebT1/9SN2nPtFMaKBiWLXIRPiVqBofQDJlrVXvvKV84cm1x0l+azw+8iPyZVD/ZKXvGR+X9ErFFEg+6LsRuzLRB1FIDjC2Tfpw5KW3+7hlYKxcrAv/KLDGLFCkt+rQGkJNKziwz182Prnb2//5m/+5vT0pz99/nioj1KNhpDjmEZotzag5+gvktg58R3f8R1z9F8bYVmuKIqiKIqzgtNJx9vxyCnN96To0dgb+Q2Xvexl51c6lDnQoNfZEZLz1B3gIfqfvrfo4lwKRp7ZHdnJOV7fCsmnPgsfdmyOdQTu53pebYmcdgJlpO3wOPK2FbaihYZ+ZJt5ZeXEE0+cAxTPfOYz52+TWZzTLnS0M3WO/AbO2Zz6x5iyw/UHfuAH5qPfKVMUwf55UEVxmGGrCRcyCYr+eo3gd37nd2aH+GlPe9r01Kc+dfqDP/iD6SlPecp8THL9D//wD+fXNUSR//mf/3l+bYNyy1+HMPGqfzs8bIZ9naTVa7XCzo/QWEWLIqGYrYZQDDvhN3m1leLSdlgq59RLeeVDTKuADj4ufvGL7/1Ox+Mf//jpcY973PSnf/qns5x9s0ObBFK0TxrppS48REle5CIXmW55y1tO17nOdfZG+Pe3X4qiKIpit4MOpTM5lIIBXufwPQXXgujTrHxH51qkSb5V9sdOgC5979WC/LUH9gSegtThSP/HRtisbjyy3cb2bAdohicf9RacWNo+QfKNvJ4dSL/AZjJIvhyXecmG7eRPg+pju2bYy3YI/+7v/u70ile8Yh4XdtQkGMQuk1bJFQ0gkyte8Yrzh8zZoevqL45eNDBR7AqY3KIgxol5M5g8KQ0r8455dcMkO6a81hEFQ0lyyE2qmbwzqToeqAlWO8a2bEXXffkpCPzCKlm4RqFe5SpXmdtCUazKtxnsRKCYfXF5iciAbLz+IuKOn7z2EahTigxtW6S8vC7j/UY7KB796EfPStBWwvzpLK/V4Fk5CVJnaMLXfd3XTbe97W3ntgpsHIyVnKIoiqLYjaBTOfGf+MQn9r5qOerd6NukG97whvM2fecc1CwU7BToo8FmoOvtgvSNgp/92Z+dP3pNl7PH5At9+dXH5mDHhccRsRH9FQk2XGw6ZbeCPLEz2DM+6s0GWto1IwRRpNS7L7LYCXZCf8yb81V9yzZjl7Gj/LZQZAfx//f//X/za7NPfvKTpz//8z+f3vrWt87BK7LX96t4QSeyuN71rjfd8Y53nOW3HfkXRw8amCh2BfZlYjNBUnBj4nBLy+u5p4yJO5Fh2N9JdbvKZLN60JDwyQm39dLvKIEl/OUOBgSlI5CRaPZWQJOhYLXBl5f9aa51fMnHoIliXtfOlI8yQ1vQhyIUGPqLv/iL6f/+3/87/eIv/uLe1z3e8IY3zFtLR0UaoCFpk3YyavRdrhdFURRFsR70Mn1pwYAjbrHAqjm9Dktd6rdXG3zg8Ba3uMXeXZmb6f7NQH8LHFhguPWtbz0HAmz/f/jDHz7/OUpOrV0aCQyoh573/S+vguZVg6V9ghevoLJf2Afr7JcRYx71+P1N3/RNc4BjnY0FnHh/8lOd+yKDg43wtBlvaZ9+d052bDS7V+wa9p01ttmv//qvz/aZna6CFBaYlBntM/WEHhpXu9rV5sWxBLGKAjoSiqMOUTImyTi2kt/La8uUPIcDRmUZnigNwQY7CyDBkyD5GA3+egVFvmo3wyqkPvS9ekGpMFrQXMWLoMIHPvCBWeEwWBgKI+TDH7nKg4aj384pLoEPH9RiBIBvgvjOx2//9m/Pr9bYjRGgl7oD7VSekRO6RVEURVFsDcEBel5Q4vWvf/3eXRNLXUt3uyaAcNe73nX+k94WSej9zZzO6GTHJPqa/WD13Uc1r3/968+LLmwPR78f/OAHT/e///2na1zjGrOtoIx7yuHVzkq0Rj5D37Vv+ZZvmYMeziXX1yE0wpeAxHWve91510VslxGxawRJPvShD+21PUZeDgb2h/5Y1rl2jjZb+NcWdiNbk13HNvN9EUGY173uddNznvOc2T576UtfeqbvkgAaSeAbFmxJct0f3ovdhQYmil0Jk9y6iW7V9TH/OHkuU7CO9tmNkScK0gRvlwLFLOAw8imvPJJAhBWD7//+75+VeQwNeRz9XgURcMrkbne723SFK1xh7+rJEsozYPypKcopUfHwy5Cw+uFLzQwfBkeMlxzxoYw65HFd3ZI2et+RErQjI/lHeQCDivGQ9hVFURRFsT3Qm3QvHe11yve+971nWWQI2B+c1mte85pz0MA3ngQX2CJ0cOyK6GL6OnZJbA+J3veahD8z6VsEdkawU9gNbBd5vEZ6u9vdbv4z4Te72c3m+66rw4q9P3G6rG8EZ/rbv/3bZzraBkv7AXJNvdohrx0c2oafZRl1kYN8dq6yT1xLOhgY6e5rHcppC77thrjRjW40v8Zj54P+Jkv39ZW8uebIRpNXP7lvwchH4t/+9rfP9/XnKr70GRsN3aUci6MXDUwUuwomv60m5uX9lNns+qr7hxPCG6VAWfhy8rve9a5ZQfo98k4B+G03gu2Qt7/97fcq3GCpJFKGErdVkyGQXRbLvHigiCgnf7FEUELZ5HO04oDOwx72sOkOd7jD3p0e49Y/+dCStAOi4NCk0AQ/KE4IjyM/oVEURVEUxfYRfepoQYCj7U+jv//975+vSetgJ8OjHvWo6Xu/93vnIIMV+Oh25Zxn4UFyzonlrPr+gD8t+V3f9V3zinr4AMfYNc7xxZYB1+h7OzXzbStIWXAuoeljnYIb6mR/pD3ux/ZwnkCD3/7a121uc5u9H/5eB7tWfbw7NMY2HGigu7+08amddj7YTfLIRz5y+rEf+7HpBje4wbzzJX03Im1S1rl+BDspvObhg+b6Fd2Rv1HOztHOtaKoxV7sGpjYxrQOywk8E+vy+pEGbaYAOOyUotWNfARqqVS0V0qggQFAOWeXRaLglIqy6PpTYFYvfHwqH0KyOhJE5o4Ukj/76chwQEN9wIjwfYurX/3q8/cfBCcYIZShAIXy6l3XT+C+um0bFd0H96XwAdpBBrlXFEVRFMX2EN3tSD+/8Y1vnD9+aEdC7IN18BcdvHLhQ4kPetCD5tc/OfQWFuw2kNC02u4vNXznd37n/JFL6cY3vvF8j+0hjRh1vNc7vUIQ5xlNixX+lLvXKPA45ge/5WUrsX/szPBqq3bKL7F/2A8S2wGP7B95L3e5y620KdB1jR3lO1j51hcc7vYH/thK+sHrM+w2gRsfuNQfPpae3Q3atEyup43kR17rXnUJvG6THSVFERx3hStc4efPOC+KXQEKx5Yyk2ucVhgnR+e+3uydSR9Kosw2U7AHEurG161udatZQedagA9K0esYvoTtnGLe7uSNFmVAOXuHUsr1sR7wmwKidHyLgULNSkPeD/Wdhpvf/OZz8IKxkNWJJS3AI+XGWHjlK185K54YNbnv3VMK3iqK35Sd10KssOg3f36K0QNe2UADP17ncC4pJ1Bi5SLfn1glH1+J/tu//ds5em+Hx9nVx0VRFEVxJCM2Q3Q9O4kepZ8talgYcC1Ivuhi+pb+p+v9uU863rcZvMbp3OsQN7nJTWZbyF/QshNTvnE3gvJLcHxdx8eLXvSi+ZWBBC8c2Qp2U1r4EETIAkr4S5vw5x77g0OOrt0WbCc2B1vGTgmLJve6173m3Z3spdBYBW23o8RHINkv5CWv63iLLcN2Ua9rS1rysvv8aXofzxwXgNYBDWUsMPkGB9rKjbTRTb4XvOAFsw2cHa1gV4vgkP7IIhH7j40lqKSvLXppAztMeedkxFaM3CSLT3aXGCdBeCF35//yL/8yB7nIPf1XFMeccMIJDVUVuwLjpGtSto2Qwz3eGyGa/rjHPW52/jnbJtYRmawPNPCBr1/4hV+YHfGRN+cmaRP7q171qukpT3nKrCwom+041SOtT3/607OC+rmf+7l55cL1pQzkR5dScFQXZS+K7ZxSoljskKCURvpLuEfhegf1xBNPnN785jfPStl10C8Mjgc+8IHTne50p7PQYWjIIzDh72PbBokG4yCrFmRDkQpuMGT8eTKygdQDzuW1a0QfU5jasuzjoiiKoig2B/1Lr9LTFi0EG+hyixbZ2RCdvtTto26GdfdTR86XyD26nVP8Z3/2Z3sdbPYJ3txjE7B/7Mr8gR/4gfmbF66hOdJFL06ysmwe38RiA3G80dQ2izZsRG1UJjSW52CXKPuHw80eGu0T5wIm+H3sYx87f6tC8EDdI/DEBmQjWljBw1ZAQxmvUdjVgbZyY3vJJvnue9/7zjYwG1QedpaAkZ0t5Kat8uI7/LGfvOrhGx5sK0ET5ZRP8IR9JpAjwMHuTMAhsoqc0HrmM585/fEf//HestuxcYvdj+6YKHYVTHwmN1HtdTsmMkFSDofDjonwNYKDvi87JkKLIrETgeKgDEW8VwUWnEuua788ZMfosNPCn9Oi6FJ/yqdMjkm+Qv385z9/VqbqRVMeoAzRvc997jMHOtxDN/f9xrfghd0Qgg4+TuUdULKS/LZzw3cx5InSg5EvtBgAr371q+fdG+hGyRZFURRFsX1ET9OhdDunlo3iGxAc0HGbPyQ/5JxelkbIH50tX9ISySNZaHj5y18+70qwiIKflIsT7ciJFhzwmkZeKwjGusIzB1k+gYjLX/7y844QNlDsNPlSZkSuC2b48+Z4U28cbpDHQg07yD0LK4fLjgnX5GVX2RWrL8nKdUcyVwb/AhlXvvKVpxNOOGHOb5eLVz4ktplXY9AgR+VTv6P608/ve9/75t0udpWow72igLPukSqKXYhMjjCej1heX5fv7IC696f+KCCKxJ9tEr2nzEXM3UsC+SiG7G4Y7zlSJCBfAgHjfUn0W1DCLo8o5dwPKDuBjzHKHqgf7ShB5ZwrI4jDsBBcsTWTYnRvFcKPrYW2d/7d3/3dXjppR1EURVEU2we9SmdHp/urFnT+M57xjFnve22S3o/+XiL2w9IRz3X2x3h9BHpsF/S9auoDnHZLCARwxIPU64ge59jKvrwCKeyUpR2gTjZC6l7y7reUfEukvXaR/NVf/dVs/wiWjHn3x/ZI/QcLoa8PfKzcQl2upV5tcT9tdQ4WrQRA7GBlnwlSkfs6RA5kxSYVnCDX0C0KaGCiKAaYJJMONfaHDxO9CLetfJSxrYUi5LYpRuFEGYxKYWy/a45R2rmWBI7qofTRlwQBGATZNhg49/7m0572tFl522qZOkbkd+pBB49Jro08L6G9/iIJxUfJWgmQvyiKoiiKfQOdS487Cv5bNLDibUv+s571rPk1zixKBNHXSUFsilH/y7tKr7MBBCF8UPKpT33qHGhgP2RXJoSO36kTr5I/Le6VATs82CvBsr6Rn9xb8ghjGfQFIgRn7Bb1PSuOe8qPbQ42o7cOq/hYh5HeKtq55hia+s13wZ7whCfMr9EKHiwhrzJj0j79I+W3YzDmIyv12FFLXsoUxRJ9laPYVTBxmgCXr3KYGDMBZ9LMqxwUybiiPk6qBwP4wNctbnGLOXCQiTz1OpqwrQx4lYOjHUW3XaStaZPXGvyVDHS9oiGqzWH3Wx75k4LxPMDDKCfGgvcNGSa2MLqXiDkltIRrggW+om3XBDngI6seaePIz7q0CpTeO9/5zuk5z3nO/H0KiOzWlSmKoiiKYuegX30XStBAYMKuSAsTbCo6N/ZN7AbXlrZB9H6cW3kcBT/Yaf66xcte9rJZr7/jHe+Yy7Mz4tj6LUXHx6ZxjJ2DP8EMOy79xQjXIXXLn/Kw/A1pB3rq81qGXSN//ud/Pi/K2DWS3QSQNgd4ZqNIXoXIXwIBtMckgDK+yrHkZRXwRe7+3KqdDLHFRrrqY1MK7thFm+9XxE5iN1nYUacdEWyz3JMAL6PMl+eOyZs+0h4BHEGJZz/72fN3PPC3nXYVRxcamCh2FUyKlIHAhHffHDNBwjixrvrGxKq8Bxrq5pD7ZoJ6R6jTfYpjfwITEOUgUVZAwdu1QKFSzt4vRFtestuqDvcpGEEF2/4ozj/5kz+Z3vKWt8xKBj150FsFMtZmdVF+5E9J+zClMlFUY/m0YYnkofjQ8NEp8nre8543B2Eo1rTJsSiKoiiK/cOok+l0el9iEwhOCFSwK+hdR3o9v6OTR9DloYlePsL97ne/e3494rnPfe6s063ic6RHhxu92AKxHfIb2CtsDjaQHRPsDjZDroUvWPI1Ijzij71hsUew4+lPf/q80OIavkJjFS11ySfg4q9yCEy4NvIbqOc1r3nNtgIT6nI/gQnfmPANrgRfgtBA2y4SgZoEJpQlBzazXTBkz15kfyZAEVnnqN5V7YTUha5+0w67WH0XJIuBoVEUI/pXOYpdg0yEFNGlL33p+evCosaj4jIJmpRdE932fqQJmGOsXCbJgzlZ4gVfD33oQ2clYOIe+QPKwLuRnGxBgHHL4k6QiV8dUZpR1L687OvJFJi/vCFYEiWtXMqqV6JMvQriz0UJmghGeEcQbfyFtvKbQT68oGnHBQXlo5j+dJg/SeXcx7SsuoQX+cNPeCIjBgwl6s9z+cjl2972tpkmKCtv2lIURVEUxf4jejh6mY6mcznewKbyTSh/FtRfIWNjJIBB58dOiH3BeeXsC0jYheBPSbIvOM90fYIIbIxglV7PtdgKgD4n3W82g98+4OhPlbJ/fC+D/RO+EiwIb8qpFy/sRjYQ+8fuDQtcaIe31LmKN/m0k4zYf+pfF3TAp7/KZgcDe21s1yq4T07ke7e73W260Y1uNJ/nHmiLfkL7l37pl+Z2ZFGIHYd22o9W5O6vdfjLJpET+wxteZPQUD4yU1Zb1WEXq521ztW9tOeKYkQDE8WuwTgxmvh8VdmugFyHHOWxa8AqO8ViInYtOJiTJX4oA5M8h37kL8ALJWgFwrmJ31HefQH6FI92Ss4pDU69v/N97Wtfe/4Stb+WITpO6SSf7Xd4ISdfuaZkrIgIquBfopB3wl/alDoEPSgsfOo3gRvKj0KWfFRJPcmLd1F3u13wIhqvfPhGR8LPvsqsKIqiKIqzIjp2RJxU19kEFlU48px/wQmr8/Q524GuZgfQ5/LR375VxYEFtginnS0Xnb60Mcb6x+s5H3l0dB1/bD+2hCCIetg/7A6veeDRkUMun4UOvAmasDcsfrA55JMHf4C3kZ9VUH/4sHgmWIOfYOQbPbtb2V1jns3qCG2LO6G9zO/akvZYb45k7jo5aT9b0V8p8Sqw/tSH7Fh/RpUs2GcCLmSGLlmxr+2gITtySn9u1oaiaGCi2DUwiZrwJErRJClq6zyR7EzwUXD+FJTJMuWWE/TBAn44/KnP5J/6c6TAR0f7QEC7IXKIfCgSSpqCERG3W4Fc3LdLgoJRxj2KCLKCgffQ3RekzehIDBXvPkpABhSiY+4zZChKvwUt8IsOHiO/oiiKoigOHujb6NzRvnLuSF9Hv9PbbA3X/Iboao60RRG/48Ci4XfstQC9dRjzBWN+tBJMYCP6zRYTbJCPLcEuZH9xsjnVFmbYSRa62D/uccTHRZAxbQV52FbkQQ54XvJNBuShjmC7tGP7Sssyfod25LsO7sWmCi2LQmQlWMFe1G+OaJKR6+SV71dYYCIrdEKrKDZDAxPFrsVy0l01+ZtsXTNZSsrAwZ481Uk5pm5wHPmjsCjNA4XUhaYjhRcF7V4UIOWSPFEmuYenGBThO1j+3i6UCz/4CC/pC7zop9QbfiK/yElyHhpFURRFURw8RH9HX0f3RhdHl4/J9ZQDx+jwXBvPIXRzPfUFrsmTfIHfygTOky+8hC/ANxso9PCf5J4Uvkb+nCeF/nh9CfYLmsm/BD6XMtguxnatAppop4+2QuikXbEb0YlMJPnS346pI/UVxXbQwESxK2CyHCfw7U7omcCDnG+n7P5iq4k6SuBgInIbeUm9qXuU5Xj9QALNZf8F7qWfkic8Oy77sCiKoiiKQ4Po4+hxOhro6yTI9WDU4+N58ue4FZb2wFhuVf3La8u6R3tkyfMS8i/Lh3aQ+8vrI7aqZyusqnfEvtBf15aRVvIk3/62ozj60MBEsSuwmSJZB2Uk+VM+x0yquxXLdu/29hZFURRFcXARuyI2xiosbY9lvpQPRlpjuc2w3XwHG6vaV2e9KNajT0exK5DJX6KQTPxbpSiuHGGVEtmNSBuPlvYWRVEURXFwsZ2AwGhzrcKy7Pj7SLNZVtmjRVGsR5+QYtfhSFJaRVEURVEURyNWOe4Hwnk/0gIYRVHsQQMTRVEURVEURVEURVEcMjQwURRFURRFURRFURTFIUMDE0VRFEVRFEVRFEVRHDI0MFEURVEURVEURVEUxSHDNgITp/uKzBlpz899Sxv/nW1pVf2LdAZW3doNqSiKoiiKoiiKoiiOBGwRmFi6uKdP/sjPztO+ltvXtL6+vThT0/aUONJTURRFURRFURRFURxpOOaEE05Yv8B+xp24vHuc+31djz87HectmzQ78tJpx+wGx35Pq77akvwuiqIoiqIoiqIoisMbKwMTp8/O7YZbO985w2k/ZuPH6XF84wrPl1Zij1Ocm37tubIltplta6hbGgmOv/e472e0dP59pALne/osbd74/5i0qyiKoiiKoiiKoigOX5wlMHGGW7uRNhzb04+ZTt1wcE/e8HBPO8dx06mnnzZNx224v6dvuMGnnZFTZCIe8FzszO7wnjBGrjnuKbcOxx5zIL7HucGnQAqkujOqdjhug+fjN9py7tNOns596snTuU47ZTqHoMvclvDqlAz2nIfMHmz8OvOFQwIsbHTRBjb6aePHaRuy+8p03PSVY46fTjn2+AYniqIoiqIoiqIoisMeZwpM5MTK+xxQ2HB0v7xxdvJ5zjWd4+IXnj5/+qnTqccdtyffaRvO/xk45lju70bauHHMGYGFOc+GY3zmwMQAQYCtcEaQYEXpLYD2Wemjc9zG5XNutON8p355usSXPzNd7Aufmi508uen855y8nSswMsG/3t49wGOBCY25HFWcoccp28wR76nbaSTp+Onz0/nmj765Wn6xHTu6QvHnnsOVGgz1ncuw6IoiqIoiqIoiqI4+DjrqxwbvxKYOPXYY6fPTadOp1/iItMlrnON6VMbLvAXj9twdo87bjpuzrzh7o4e77x8vyfNRPcGJs6K7LjYDHsCHvsCtJOCPbTOcdpp03lPPXn62q/873SVz/7ndKVPf3C61Bc/MV3wlC9Mx51+2kaJPS2DuSWr2NxXtg44zuinjfSlY849feT0801v/O8vTP9+ynmmTx13wTkwIUykCYcNy0VRFEVRFEVRFEUxYA5M7HVcN05mZ/wMh/eU44+bPn36KdMpl77YdJHrXXPD8T11+uI5j59OP/aY6dgzHPbT52BEKJyR5oBE4Jp882FbmF8P2S8oL2VXxx6+XDnnaadOFz7ly9PlvvjJ6bqfeN90nU++d/r6L358uvDJn5/sBTnt2OPmYITNGns4PysOlxck9rRo4/9jjps+d8y5pw8cc6HptR85ZXrvqReZ/uccF99o/fEbbfrqzpaiKIqiKIqiKIqiONxwpsDE7JDP5xsO+sb/Jx937PTJ00+ZvnKZi00XvN61pv8+9tTp8+fYcN+PtRK/J+ece28gwfr8Hnd5z5Vc38iX032AMMmqyEZeGzkzkk8p51Jadcx0rtNPnS568henK3zh49ONPv7O6Yb/867pSl/4n+mip2xwv5H11I2sNmpsFpg4XDC3foNnsaHPHXf89L7pwtOrP3r69K5TLzF97JyX2LjVwERRFEVRFEVRFEVxeGOVZ7/XnYc51LDxY/5g5GmnT8eeeup0nHTaafPv40/dcz3puFM3ru9Np07Hn35Gms6czrFJOkvejfLn2HCwl+ks+eaUexv8zGmD942jNJ9vePHaNLfLzo5jj51OPfa4+SOfghLSKRvp5I37h3M6JecbvH55g/evHHPcdNoxx09ad+xGm47bSId9ZKUoiqIoiqIoiqI46rHyVQ4np53htH/2tFOnky95keni17vm9DE7Jo73ccg9OybmVxoSwZih9Ea5Mxzir+5YWGDj/rrXIebcK3ZHbImB5lx64zRUcjxtg7FzbtC+0ClfnC73pU9M1/7kv07X/vS/bZx/crrwyV+Yjjnt9DlAgcqy7OGGPfs/cHfMdMp0junz03mm/5wuMP39R06e3nf6RaZPnONi0ykb7e2OiaIoiqIoiqIoiuJwxpk/frn37PTJn5q0r+BL/vLDxS88XfQaV5k+fdzp0xePP26OG+z5xsSGEz/nOzMEJr5KdD+wGZGh2iUHc7Hhw5n4nf/E6cb58Rv/ne+UL02X+Mr/Tlf+zIemK3/2w9MlvvzZ6fynfmk65vTTNtz4rwYmvhpgOWsdhwdwduy8T+SLp597+tjp55ne+rEvTf9xynmnzxx/gTnIcuxGi7R8XSCoKIqiKIqiKIqiKA4lzhSYyElW4nnmp3nV4TznnE47/3mmLxx7+nTyccfN18d3QJbBCaX3Et0P7AklrMZeR3vjkOrzFzTOEhgJQxsZjj399Olcp506nf/Ur0xf+6XPTBf/8mem85/yxY1rX9m4vScgk7J7j+o44/zww7HT6acfN50ynXv6/DHnmj7+lWOmz5x+7ulLx55zOnWjBccILDkexi0oiqIoiqIoiqIojl6cecfEXsxe/Iajzpk9Zjp5Om368umnzd81OI2TvuG873FzVzi77p9xRGUv8RW1HGioNxyN1QlY7LmX1x9On7+Zce7TTt1w50+djj/9lOmYjXPX5YAlu6dttP9wwx5ON/rimOM3DsfP35g4/djjN/ppzzcz5sBOAxNFURRFURRFURTFYYyVOyaccWQFJuZ/nNwNR34OSGRbwsb12fFdgbnMsXtCADAfN8pvB/vzp0L3BB/OivnaBtlwJLhymp0GrpyxQ2LPqx4bZ+ofeD8c3Xm87e2GuV/mT3nuad9pc6vmNLdnowGO7hZFURRFURRFURTF4YazBCakPY4tj5Yzu+e1DY7wHkd3b/azBVsFKlZ942ItzqA1N2ujXXNwYsOpP8OFX4nD2Z0/ozV7edxzPCMwkQYdzg0oiqIoiqIoiqIojnpsGpjY48eP35PYk2NPniMHczP2AudfbeWUVx4WOBLa91Wuvxqc2IOv3ulOiaIoiqIoiqIoiuJwxvgNyxl73NgznFmHY/bsJ9jz76sub86PhPRVxElPK931dzjO2GUwpNWUDq/0VX5XY931oiiKoiiKoiiKojhccKbAxBlxiL0ObRzf0wUnzkh2GBy5aW7UkM7s3O+etOffnl9FURRFURRFURRFcfjiLDsmzuzLLh3bOrpFURRFURRFURRFURw4nDUwcRZk/X3PGvzughYlFUVRFEVRFEVRFEVxdmMbgYmiKIqiKIqiKIqiKIqDgwYmiqIoiqIoiqIoiqI4ZGhgoiiKoiiKoiiKoiiKQ4YGJoqiKIqiKIqiKIqiOGRoYKIoiqIoiqIoiqIoikOGBiaKoiiKoiiKoiiKojhkaGCiKIqiKIqiKIqiKIpDhgYmiqIoiqIoiqIoiqI4ZGhgoiiKoiiKoiiKoiiKQ4YGJoqiKIqiKIqiKIqiOGRoYKIoiqIoiqIoiqIoikOGBiaKoiiKoiiKoiiKojhkaGCiKIqiKIqiKIqiKIpDhgYmiqIoiqIoiqIoiqI4ZGhgoiiKoiiKoiiKoiiKQ4YGJoqiKIqiKIp9xumnn37G2Zmx7npRHE445phjzjgriuJQooGJoiiKoiiKYp8Rx27dsSgOVxxtY1U7V6WiOBzQwERRFEVRFEWxY8SpsTPitNNOm04++eTpK1/5ynz0e8xT7B8i4+5COXAgyy984QvT5z73uenUU0/dVeM042R8/lzTzlNOOWX68pe/PD+rzsdxNeYtirMbx5xwwgkdeUVRFEVRFMW2wGnhwBx33HF7AxHnPve5p3Od61zTscceO9/70pe+NKfjjz9+zrd0dJaOULEekXVkxblM4KfYGcjQ2CM/YzMyzbXdgLRjfLY8o8bQ13zN15xpLHlev/jFL06f+cxn9t6DPp/FoUADE0VRFEVRFMWWGIMLzjl2l7jEJaZLX/rS09d93ddNF7/4xefghFXY//7v/54++MEPTh/96Een//mf/5lXaDk5krKj47N0guoM7QE5kOX5zne+6RrXuMZ0qUtdar72r//6r3OKTMd+KTYHeXHcOeBXu9rVpm/7tm+bLnjBC07/8A//ML3mNa+Zd0+c85znPKLlGr610/lFL3rR6ZKXvOT8rDoaT5J7Ahae1fe///1zcOJjH/vYHKgQsAgdsiiKswMNTBRFURRFURSbgpMixWE7z3nOMzvLt7vd7aZrXeta82orZ2bM+7//+7/Tv/zLv0x/8zd/M73+9a+ft81z+rJtXp5znOMc04UvfOF5xwXH6LOf/exMo87QntVswQfO5IMf/ODpRje60Sy/F73oRdNzn/vc6dOf/vQcHCLHYnsQkDAOL3OZy8wyvelNbzqPvY9//OPTz//8z0///M//PF3gAheYx9+RuoMi4+G85z3v9I3f+I3TDW5wg+m6173u9LVf+7XzeDGu8qzmWRSQ+fd///c5QPPa1752+sQnPjHnWbX7oigOFo67whWu8PNnnBdFURRFURTFWcBJiXPCcbv1rW893ete95quec1rzsEFAYVPfepT8zErrlaiN+zM6apXver8WseHPvSheYU2jpHdAIIS3/7t3z5967d+65znIx/5yOwsuX+0gwy8KmN1+/rXv/70Dd/wDbMT/e53v3t6+9vfvnfHRLF9kKnAhGCP3RJ2+5ChsfiWt7xl3j1wJI+9tOViF7vYdJvb3Ga6973vPQcm7JoAAQjPqKDh5z//+Xl8CWSc//znn3c9Xf3qV5/zChJ+8pOfbGCiOFvRwERRFEVRFEWxKeKYWHG9yU1uMt397nefHWVBiHe+853zKv6f//mfz7sj3vSmN82vb8jLkba7gpNj9wRnKKu2nKLLX/7y03d8x3dM3/RN3zT953/+5/S+971v7/vwO9kJIO/+Ok9jfTuhta7uJf875Y+MyILTeL3rXW+67GUvO8vuXe961/SOd7xjDuQcCCc6fI787VSeW9FY0kv+YN29VTwsaQXrro/IfUfOu+AZGZOpsWucRqab0dtOXdtB2rq/tMKPoJ5xcp/73Ge6053uNO+ScM8rVZ6tV73qVdMrXvGK6e/+7u/m3RHGkd0i8hhbdllc6UpXmmVAHoIcAo9nNw6EXCKT7eJA1FnsHxqYKIqiKIqiKDaFQIGggi3wd7zjHedAAkP+H//xH6fnPOc5s7MjQPGBD3xges973jNvC//whz88O8+2hb/61a+e73F4lHO0emtHxY1vfOP52xR2Abz3ve+dnaHk2wqciKQ4lPm9UyijnSm/XTrLPPntGJ5gO7RGKCt4w3m26n25y11u5k+Ah6z3NzCBn6TAOblvx0mTZ6SRlHvL/hvvwarfoblZXy5/BymX+6vyoc8BF1Czg8fYNOY44car+0mARtIS+mKr+jbDSHunZZfAB5595+Uud7nLdKtb3WoOCBojnsU/+7M/m17+8pfPr2m88Y1vnJ9R40iw4t/+7d/mczueBBLtKBG4kGdf27dVuza7rs7UuyptB2P/oQWurSo/0s35qnzFwUcDE0VxNmPdxFgURVEUhyPoLc6cbxpc+cpXnr8rYSu8HQ7Pf/7z5x0SXjfwcT2r0Jwj8FoG58YWeU5g3mcHTp2VWgEO7/kLTFi1HgMTsE5fxnnAm6SM474gdayis65+SL7ReYOcay964NpmtFYBXav5Xp35lm/5lnmrPbl5lWN/d0zgBf9jCkaam/GcdiubdobWWM75ut/jMcnrA+iN18YEI8+5BvngI4zXl8C7QBun3Jjz0UdImWVdkGuRj75JuyOL7SB0jA80glxfpq0QWXiGBA1vf/vbz8Essvinf/qn6aSTTpoDDZ5H3yjxfHpdw9FuHG2wo8K48kwLegk44s94S/sdV/Gz7nqw2X3Xl/cjF9dyH3LcDpRLP6XcWMcSZCCFl6Ti7MW+zWYL6MSkA4mR7oGmvUQHYTFiHA8Hakwsx3NSURRFURzOoAc5C5wdfxnCqir9ZYWZQ8PZAY4eZ9m3D0A+vwUgGP2jo5A/M8ox8uFM4EilfO6rd9SV0cvRoVLK5X15ZdQ3Oqnr4H4cEskuDrQgdGBpCyS/NqVd4Q0fca6szOMD0HIdlvS2i9S7rxhlF4Q/x8h8M0c77ZQ/stNmKfddS77Ulzpdg1zL78jG0TcQxv7MvfAlcZod3ZMPPzlfpiVc48jnL3DkCNkJkbrSv6GjDnUZ777F4Ny9yCJ0lsj10HH0vQc7FNzz29hHJyntWYfQ1G+ChoJ8vtuiDZ5Pu5nsBsGjHRRoGZMS/h21z3Mo+Cgo4RUPPMmr3CjzZZJn5M95ZAfyjEje9J2kXvm1F8gAb/ktT2hG1pshdcqnnpzDsnzaRw6e/dyP7MNjcfbggPxVjnEAHEiMA+FA0x6BdupyNCg7CI9u6H9pHHfLMZj7y3yrMI4xyPlW5YqiKIricAGdZTXWB/UEKKzGPu1pT5v/dCUHgP0E0XEx+v2OwS9xAjmFAgD3ve99p7vd7W6zE+AbFRKH1H3X4jyhEWfGde+9W/XFh50EdmxwaHwj4L/+67/mgEmcm/CzBF7Q5JR5L9/3LgRflEHHanr+fGLapow2JahyxStecebDjpD/+I//mHkTkEHLX0TAl3b6qKIt9eihj0borQPetEH7HvrQh+79qxx/+qd/Ojuctt7LsxkN0P7kcSRb3x7QZvJDUz14s6rumOAMjPRHWr5HYNXdt0bQc49DKxClrV6TICdQRpu1Hc/+VKcy+irfFbEz5Ou//uvn13vQNg7suDG+BCrwfZ3rXGfuIyv7kXf6TyJvdZCNV4fkyxiIfZ82eC0J79qvf+TX1/gzlvCAT7uA1GU8oIFP5Xw4U93yaofy6k1wJ3VBzslAGWXtOhJEwAsa2bWgrHyRs99kEf5HcOoFN9x7xCMeMe+YIAMBk2c+85nzt1/w43kZy+eYOsA1v6VlPWRlTOuDjGU8Q2iQm7q0yXcqHI2jt73tbXP/aZMyAiR2SpGrPylMru6R91WucpV5DGRMKqstgi6uGZvpJ2Ug9Ydviczs4MpYUoe6XE9esrvIRS4yj5v0BX71g6QuspVXXavkXxxYHJDAhI7KYBgHyb523jgAJPAbvf2huw4GqQdGXR5mA/9g1FMcGdD3Jk6TkzFgQsuHf9wLnEsZ81tB3oznjC3HjrOdY5QlRVgURVEcPJhz6UHO+s1vfvPZSWbwM97/+I//eH53nd7ktNCJo82WZK6Oc3XDG95w/q4Eh54TwjmGOANxzKxgvvKVr5ze8IY3zM4lRwLQ8tdAvEfPYUFHMEAejgTn0Gshr3vd66b3v//9s7M08oO2o2v+Yshtb3vbOYiADqcTnfxVAo7iX//1X8+OGDr4Jwv3yeC7v/u7p2/+5m+e/8zks5/97NmGRO/a17727HzaDaLd2mIFW3v+/u//frYxwsc6aCfnjFNI5mSG/gte8IK5rp0EJvAtXehCF5r/woeVdUEV7U3fqEswgdxs5U9fKIdGZIgHztzNbnaz2XHn1AkWgHaxqQUb/vIv/3LuB2NDOXLzOpD6fuInfmJuz5vf/Obpd37nd+ax46+zeGVFe8lNP/zVX/3VHIgRoGCPPepRj5o/BPq3f/u3c1CMc+vVItcESdDBrwAJZ5S8swNA/doAjv4qx53vfOc5UPCa17xmeslLXjK3mePM+dauRz7ykfNfqvAqxPOe97y5nRu+09y/Aiv5JoO+ELwwVsiO45zxCurDG5n7CzTGHd45xtpJ9pJxJrCjDUBuAjPk5P6yr7VJ3fr1V37lV2aH3zV8POUpT5nlDSm3LL8K6WcwRvEnIOkjteohK7JA230Jv+rV157J7/me75l5Ic8nPelJczDBfc+Nb6U84AEPmJ8b7Xr84x8/zwOCKuQqoGCMofWsZz1r7j/5BUbI+o/+6I/mOQG98RlyJHNyMn7uf//7z+MJzyeeeOL8HZzkl8/YveUtbzn3iTr5gJ4D7ULD2DUmBDTSxoyf4uDggHxjwiCTTF7Z3qfjttt5GVAjXItyMTANIBMZHKhBER4pIpOSAWnSS7S0ODqh7ykeytq4MCaMwXFMm5zkkwdMZH5n7C8hP0VtsqOYPCd+o+u82ByZI8g2ioHhQHaeV78pjaIoiuLggB1Gb5l3OWoMefMw54wOZK+xBTkx8kYX5miO5ti770OOAhwcFKuUHAygR9liHAmJDs6KqnJ0gevKfud3fud03eted3ZgONMcSUf1CHRw/BxdswuA7nAv/NDtnPPv+q7vmh11ullgRH35KwXaiA4HNTsx8CEvh4v96M+mWuVN+zjr/mqJNpEJB0e78M2Zt5LMvhUwSQBmHUKTrZG/yoHWTr4xEf0pH3lw/uxQEYjRb+RGPvgkS7sztEe/cpK1WX+mHm3nWHM8HckAH+SsXeTrGucULbR9wwENY0ceto+/GGEcya8suXF8BSUyfrSVQ8tBxKfreEcbDfpfGWXl10fagVfjirOrLeo3hrTPPXnJRXDLWBQgEDTy8VVjnFPrr8oYI3e9611nOvrddf3NedZ3+ld+fGZ13k4KfWunRhzn2C3aK5Bl3Hl2lDfejDv9jA/9Ysw5GiuCW54rgR5OefohQNd17RBo8fzg9cUvfvH8kUsyx6v2yrtTKKO8Z0QdxoW2CSiM/hL6+sc1PPtTpcar614lIU/ywCsaeCWrjGcf7BTQ85yQF8j/1re+dQ706HO7ZYxhfZ/gj/EYqAs9Y8zYE5ggQ/ITJDOG0CYjc4i+ECTVz+kLfKIhyKW/9L1rCRbtiwyL7WO/AhMeDkpDp4qK6TwdxvkymAyQ7SJ50+EeJJOwScOkYrAbUAZTBsb+pExMkmjZD/zAD8zRQBOFrYn4L44uGAug7ym+hzzkIbPRYwKkEDLhmfAFLigWY4cSNaFZDXF/1binzIxjk7qtmOiauNVJIZlYTfzhoVgPc8E1rnGNvSsWQGnsZL4piqIotg+6yRzLNuNAOeb1CSu+Vj6tOvrNyKfP5GOvZW52zvai7ziyHFYOTmjQtZwdf72Dgxjn20o5hxNN5eldTjGbkzPpzx9aUbeCa+eGd+TpY84Pp0R9dDjblI4OH3Qxx4TDw/lG58QTT5ye+9znzufq5kRxOOlv7fIRT/qeTueocMAFIdgBbAc8aYuPgVppxY82cfDVyXbgfHKavfqRAAis0v/KJDDBMdyXwIT72sxe52TblYAPMuG82u7vLzZYlXYNHwJGWe3WF65pnz7S7/e4xz1mmeBfObsSrEbbCZIgBNnIqyy54dW40Tf6koPPMRUc4QQaQ87Jzu4TvBgfyupnzqW+5LwKFBk3bCnt4rzaRaI9yuJBXnT1B37kwb9zIBPjgz2hP+1K0Fb84VM/o83B5iy7xlFVnlNMZpxd/SsQoU/lU58ACD7Yi/Ibe2RhvOlH48r4MNa8kvOyl71szk9G2qZe/c4f8TyQSXavjONEG4wHchIkYmMqK68dJdqgjHzKjWW3C2WUNx7sMCAr8g2/GX/GsbaSsWdP3xjrggR2WODFfWXIio8nyOC3fiIXciJbARX94bl0rl8EIQQmtI+MjLv4hak/Njoe2PF2S+g3zyEZu28c2Wnlz6kKJJmH9OMLX/jCeReSvNrHNtdnxrl2eKUEfxk/xcHBfgUmdLBO++mf/ul5ojPJm7g9/AaQBzMPw2bI/Tw0HiLRT9u8BAs4gAa09w5N+mhvNRFvhdSpLg8yxeJBMcl6mDcbeKva44FYdX1fcaDpbRf7Uuf+8LqTsmeHTFKHMWc8U8QUIsXoXhSMCfRhD3vYPEmaqCEBLWM+UIbBIqJvEmQUmIxFwyW0TNgmPZPp/o7rneLskOmBAj7xS1ai4He4wx1mRUlBMdAYeTGIj5Q2FUVRHCkw/wKHSaCAvuNQcAw4K5xm9pQFJbYa55deY7OZl1PekU1nFdzWd3klDopt+5w1jpj7/oShuoCzYSu3ldU4zf4iyF/8xV/MDgyHUh7ndLb6ORV0MBpoqRs/6uO40N944dS+9KUvnR08fNDjnB7OCNtQ0CWLEBwmOoaDo/3sBfcsbFk956B7vUVAhVOGDn7YlxxxOovjxgnnfOOHPb0KbIJVgQmy2W5gIjYJR5FNrX6yEISJ84oOZ5mDLXEY2ffax0Ebg/+O7HvXBHDY5njRH+TMiWQ3sXGUp7P1M7rKqQdPeCEPjqPgj3p8D+HpT3/67LR7nQRdfWIc2QlhzHltA3/OU+akk06a+0r9cYT1hUCCQAEeBBDszNB3Eh7sSjBejV/8oZHABFqcYIEQ7RDowEsCIJxXMkCTk2zsGW+CE2wR9/U9Pu36EDhgCxqXr3/966c/+IM/mFfojQO86Ad2pLFELvrdqypkwVaEZV/rC+NBPQIobFJ8egY428ql3/YVkZUATmRlbHtGl+MPL/g2xixaC07pbzsmtC+BCdfdlw+/fpPtn/zJn8zPjiBCXonxnKlDeUFEsiFf/YOP0d5Tf/xP38EReNCfxoe86lbngx70oJmWe8bbH/7hH87jV1n9gbbxhy/5PAvGlX7DL4z1FgcO++UFZbBn0OoskWwKwwDaarIcgYYBRXmZsE0ElIFBlPsGy/4+YEvgG01HyPm6esaB6HzMt66M68tySZsh5aR1tLfCWG5dnev4GK+vyxOkntSRtBlSZl3bVpVflllFYzt1r4IyxqxjjChjIWPDPddMsgwx45SyZIyYKBOIS94cBb0oIwYFJSbKbMKjOE2UJr6z25ke5QX7U/d2yi7r2ynGOsibkeEaeTMcKErKyxwy1rWdepPHMf0XqGN/ZFMURbGbYJ7kXLDxOOBWjek0jhHH0XxptZ2TJBj/4Ac/eA4i05fRp6FBj3IAoy/dc53tJ3HGzfdsy+hIq+pWuc31nH26lANKD6hD4rSyF63ec4jR4YCizfFQn4AEOvQ2/n0/AB150eCIcmA4m+jY8TCumHO+YhMkqZNMrLhqCwcUXxxVOsurBFZ/yQ7/7Aa8hs5mSB1LbFUudjVHzuqx+jhjr33ta2cn3D084g+/CRBwwDhq+pKctFld6NG1HEeBDfJnp6OftuozTrngR2TqPtlDdKojmvqXA42mwBR5CByxmdSbvl/KgC0mKCUwYeyxpbQDH3akcs4T+NHPAiV4WyWzXEs9OR+T/hWU0L9oahOZaZ+6BXkEN9iFrnGK8a6c+8YTPowdDneu49WY016yJTv0jTfBAG1i45A9PlaBzPAjD6DNkV7aNPuDZd3kFPqr7kVuozzxCbkP+DZOyNbzof8EAsmPfPMsmWMsfGuXshb5jJ3wkKOxIEAqwEMexoAAkACV3wJExjRe1KffyNp8pD/0hXEs2QkkyKYc3zZtUjb8FwcW+xWYAB0jGpiHwUNnVdhDadLI9c2wHLR2S4jKAdqQAZC8BxLjIDMJwrp6Rl6TIOVzf/zt3DF5nXuA8hCtQsoHOXdcpq2QujfLn+sm0bQhfOY8KXC+iub4e1V9uaa8dkqrkLqS3zFySZklfb/D5/LeVhjLGbeOxkPo5J5JVDTVZEXBUOK2VTpPvoDhYcuYSdVqia1iv/RLvzT50JNVIROmSZicd8rv/mCUo2PavhPIn3EsLcuP7TkQbQuvFDcDj3KivBmeVizI0fgdsaw3PI9Y5hnvp00Hgv+iKIojGeZB83DmRbrPyvFv/uZvziuOVkU5o65z6Bn5HAQrl7awc7zQkMyzHDjHXEPXHO665FxSJ+dXHgEGQQP2pdV0zqc8nBE6gdPNKWOL2tnAIXGfDlaOzqDfrYIKfuATHTpFHVJoObIBOJtZtVeGg4On8B7dhBZHx9ZwbfEbPbaBOl2zIs52AI4qJwgdPLof2a7CZvc2g/o5v4IMHHP6Ep/sGPfITFvJ1OIJW4VcyUDblM12ee3UFnndx1NkEVrOOdICMK65z/GLPT9CXsnqu2BI+lk58nN03zVplJF7ZMkmgPCgHDvNdX1hPOjHvNKxSo6hvw6p2zhBN78zVrWR7MhEX2q/NuPFffYJGcpHfmmbe86T3HcN7dih8m01PlzX/vG+Mstr+4NV8lkns/Caupe/tVNSXv9YqBMgxLP2L3l3LgiR13rct3vKDhF53EfLEV1BC88W2QnAmZOcu2bnkb6QHz330Mhzr3+Nb3x59j0LePLsm39SV3FwsN+BCdBBkofIgBBU8P63js7A2wryGGgUlxVmD7XOz0SGzlYIH6nPcTvlRoxlVyH0l/ny8ARjHhjzjefa6DgmSHn3QTvSljFfjqugvD7J5Aby5xzG6+C3pK5lXvA718NPyiStw8irsviC8fqI0FrWB67lurRsI+TemDZDaI4YfzvHAwOHwfOMZzxjju4zzLJCIo96HEWABSZsAaNsbb088cQT5/dfTYQmP5OdlH4eseQ9aX+gPN6SlvR2UseYl1zG8RBsh1boLNMS4ZexY2ujVRJH20gZWpSGOWTkY5lyPcfx+hLjfWkcf7C8P6aiKIrdCnMxnWVOZOwLRpiLH/e4x82Bd1uxBSkEBeg+TtktbnGLeRcF59A8jUYQ3QmO470RnE1JvZyGfEjQYpgPOtqZKDn3Ycy73/3u88q7OZne5phzbiSroYIXAhVWQu91r3vN+f2FhjF53cOryvS4epWzkstGRXe0PRwjm7ENzt1znf7i9LimLQIFcVIPNGJXcLgsFuoHbcC7bfTkJmmnD1EmkYXXUxKMsMtC2QDvZEh+zvUnRA5kkrERHrIDZgll2EAWGNhEykmhBepAZ7zmXD7OPz5APgnk17do55r2ZLEp12Ckuw7ySHySnKsf1CX5PY5tdRun+BOwEbggE2XzlyeUU8bRPe0RCCJf48TiFTrKbAZ1yp++MK6ys3Qpz51ilNUINJd0x2spN+YZaeXc+GQXk0GeJyl8R67GYT6kqm+NJ3/VhczkU9Z1wQp+KLkLKAp6uUeOjglQkbedU+YM4z7Pg1fFPPPmA7u+5AfPvr7Rp+nz4sDjzJb2DpFB5SjpdIPHBObvUttGY5CMg3IVDDodjIbJ0IBCy2BNHdsdAPJnwIQv5xnoWyH1bZY3dDOZ5Bq4Nt5DJ/klbR3T8v6YQtsRvbE+2KpNoZNyI21YVT78hPdgVd6RVpCykQOkXI5juWX5Ect7aQPagF5oJQXjeWQXjDJchbQ1aUnXNcaWrZC/93u/N390S6DBhKce/QrGcN5LFIUVeTWmGUeum0zHSVgKUu+qtL/AX2hFFql/p/QzhmGkuV06y7IZN0lLhE+KybuI/mSUaDgk/0gzCE/hd1kvuLauPUmBPLmX8sHyd1EUxW5C5lBzHf3GweII0YvepRcstovCu9vmag4Au9BKJac+OjJz7TpkLjXPcgjZlAIMrnOuvTr8/d///fPHy8f0vd/7vfOf1vQaicWBrMLHieVccDJAcMCuRnSk7/u+75tp5PwHf/AH53NbvxNA4NREd0PkAaNOcEyKDpE4NnQdR1m7OK3orsNWctoMZM1hVU+CKRxW32n6kR/5kbPI7uEPf/j8fTeBHfkSRNFecI4GfuOgaQc5C3Zw8DhzfACr1mSuTGQPo7zwhxZ7yXnkJy2xvOZ3bIbQc45GzgP3E5RYhZGnzZA+XPIC2pC+dT9jxNE9QQar7+75hpnnwXnaz18yFu0aNy4FayxoobkVb2TrdRhjFM3sEIos9hdoSktsV26rEJrKa39kuxnk9T0PrxmBV108m+GBrH1LRSARbQEPMk8djglMgDnEn4M1X5g3JM995hDndleRK95Srjh42K/ARB5OybnOt5Lst4nfn4IRAfVQRREtYZAYSCZmys1OC3mtgOZvRsO6wZrBqE5On8EDmYA8qCbWdfWPSFtWIfVoizbZApcJAG+hL59kgrFi7r7fFGNWyJM/eVM2eZNfdBUN+f0mk2yTk2czfsHkiE8RegnvkDLL8jlXTt3qS2Ap8g9/8mgPGeDfb33lWj62s4o+OlKix45jnhG5jm/8o6uO8BP66ub4j7Qc8eaesZA6XR/bsxXS3iB1ajMatjzqo0TRwXV8UixWCSDjhnLO2DAuM1GmbI7y49f9yDdbzJzvC/CNt9RBPupATx3qIuMxILgO4VkZ+fE78o5XYxZcV+8qmbsmn/xkho+xfMqEdvovcwZ+8RADYITfqZus5UUb1KWOGF0j8BAoK5/nSDtDk8zSd+qWb1/7pSiK4kiCOTNzsWP0FH3n9Q26z/zsewu+AUDXy+ue7deCGeZM15YYr6UeQJ8ud5THfG5XhoUBu+cEQ+xe9Lqk7154X93Rdbs58OIDyaGFBh7YFr4v4SOaaCmX5Jrkr304ou07CGxTZcNfzgHdtCH3k1x3pH/oC+fhxXGnUH4rJA+Z01V+e1dfv2jjSSedNP9ViLRfWyX3Ik8fUaQDx3ZpAwfP9+Ae+MAHzsEbgSCv7fjzq1ahfQ9EwGoJ5cNXjpHbWAcsr43lpNwb4Vrkuqp8aGwH6+jDKjqjLRC7xG+ystpv/NhhJOhjt48AkWCOnTmCOQ94wAPmZ4Tj7eOP7LQEd1bVF14E2vRrfAa/1cHmGcfnvmBd3TvFOhrakLG5Lo/r8hnH5Cdoo22ClXZIuEdWAhIZd2Rht4R8CSiEDrDFzSHGv/FuvjDezSfOkzKnmEv0IR5Cozjw2K+/ygEUjQifjhIN9FVj2+JssfEg5v0ckVoP57Iz/Zbc8+efbPcziN7whjfMk79omIFkVdSfzLHaHGcYMojVTyn6Iq4dF6LyiZglSmsihVEBeGANYlsCXVengTo6mjmiI3iiXdmWhiYayqrLuXz5kM21rnWtOZonrzwiy5yhURbKSeHLA6QOZUTqRP9EPuWn8IEM8iCHzgjX0FEOz1YrXOPspZ5lufCQLWCSftMm7Rzzawea3rciP9sls/1MPinGSibFlFeOfGLEyJe8QfJqgzzJq83GR+777T1N99StHrS0wYSlX/GnPjJPW8a6llCnic441lcmQeNPne6pI32snyT0Mi71G37dt82MkkHHtlaTGoUhDx7RDD/O0wei3drlY02eAbJVt3oT3IDIYTtI3vCPb3SNUeNMneqOEiRn8l0ifDpqgzGmvOcuX6TGq/4gEzKXNyk0YGwreWurvgwf+izPiqRePOE9Y8gzMdazhGvGsfy27Y3y9JyjZ8ygnfxSeEg/y4cX17XRc41nH2nyrKhfPxdFUexWZO43D2a+zdE8Gn2f+/QbvcAeMn96R983HWLDmGPpWzabvFY47bJAK3TN1eZWv60yswPpUq+McKz9FQjviufPDEq+5eCvMHhvnT3po3looqMeq/t4sgDjz2WihYZkRXZM6Iae70kJVtNvytJ/dvrSKdonAGIHJd0SOYCj++wfH99jF5AV2mjSydoJaTcoh1/l7EDQdnLbzp8Ljb4UxKGv2JL0LRn/+q//+vxeP3vXxz3JKW0lPw6d9pKdj3RH9wGda8VfEMJrM3SgewJQ/AD9QV5sCPpTH1v5z8c29QHeBDXYjq6pT7+7DjkGZCPY5eiveZC3tuPZmCI/PKTNZMhO0mY6Hw/yGQfKuS/vqr/KwaGVX9CKrZa/ymH8CNLwaWK/oaFe95Tjw6CpvLrI0nn6VL8ZO54JdgXbCX/6lr2KbnwpH2Ukq7RrHBeBa8aa+i1ceRWezU9Oylgsdj19F6yjl/bkXuwqR3LCI1npK2Mmdi8oq17X9Lvvy7CNLOrYYSy45T75s/PcZ/sZJ/w7C30jX0v+/FYXeo54YYtpu2dBYIbNrb88L64JJugXY0I9+kIfsR2Nu9/93d+d/zqKfjHePf+Oxq8xqf88E8aZ5yaLteGnOPDY78CEB8vOCANVhM+fthEQ4FCZvAxCnWoAGBjLh8Fv8JDaOqMMOpSNsiY/ZVcFJtAxICk0wRF/V9l7QR5MD7lkBwZeDGSKDK08sOBhGwMTonAeoAQm8sCBPPe73/3megxsfJjI0ia8kAclJZ/3k/BCkVJEtgyZ3Axsigsv6CtPNqBezs4973nPOXpq0vegqc/DhlcPlonGw43/kccAPybUn/qpn5q31SkvvwfVBL7sB0BLP3oP9Ed/9EdnWcqrTJxniULw55q00de2KXhJX2kjHsmGknIk70AdFKQtUiLFJnCTG0UfRQ54c25yEUm2xRBf6FF6ZAD4EW1+yEMeMvcPBUoJU1yi0fg0DvBHAZhkGBPambqWwC9ltiowgUeTm4n/QQ960Jw49lZifJDH+DXZek/N0bjOc2AC9V6hL2MbE5QR+sZcgiro49Nqg/73d77xbkyRLZqCQmSrnRk32wX5K08mxqftmp4dPKnDs6xP8GKMkbd2L8cKPhkj8nsf1djU/+gYr2gKDJF1lE36N7T0LXmQlbGkjPblWfFck5tnd1TO2nzzm9983mLr+UCXAaBtoS2f38avYIS2kqcxhD/PpWciBguFiVe0I1PPJ+PR1lZjST7ji8JVr1UhfJAlha1OY8X42Gm/FEVRHAnIHGt+hMx10RNS5nnzt3mbjrTVP/qbk8pecs+8msCEa+6tCkxwLhJQ4Myql6NgMYmO5dDRBeZ8+pSOd3RNHc7RSVCfDggdNgg9zH6jl1IeTfoSfSk08Y0WvTEGJvCXwAQ+AH3tcKSTOGT0BjuZzuH4ew8eTQnSbnBtO4GJscwIfOoPfNJ3HEV8C0gAW0awIu101G5t1QZH8lMnPvQh/tmV6LFDONAcQIkDlwAPnulfR/0aPa0PjB/2WQIT+iA7rrXFcYR2rApM8C+WgYnIQj3GFttQv8mHrziX8q4KTLBHtVnb8H4gAhMgP0c8wQO8eB7YWpxq49l4MIY4x2SdcmnTKqhfXnyzW9nY5KEOMmO36LuMxWAVTde0SXvyW9JvnmOyJCvPKB71AbqgnP5RlrzYc9sJTMjPv8vOqtBaxZ+2Gi/8OeW1UZBBv3mNjL+AR/za6eAZCR3lzAf5voex7oOrnn38kpmUeUTSd5L+9htf63grDgzO6tHuI9JZBo0tLx40nctR8ZAYkCYGeQIda0DqcB8bMTBMGB5kD6cBbHAtoRw67pt0bB+zlcy5AWRyMKEYhAYsh0nQw2SA/rpBNV6TR3nwwFOqHBE0PJQiaQa0e8nLUeOk4cWDoW2csmyv8hBw9jlUnLC0n8wkeUyQ2uO+B9o1D6CJUF4THoceL+SbyWYEuuiZpCgDAQoPP4fPZKBvlrJVxm8KSj4rCX6bqPGgLonD/qANZ1zgBC/omPhElk02JnF5tIHTy4nDI34g/OKDo84QQIMMpcC5+vGFJ2NDOyjOMR+ZqFP7yN+knEi+ycfYQl+fGX/4HPlZYhwDS7iX+2mDPpKMu/ClHrxQ2tqojPqNIf2LrwQ+0MgYkofs9a9xQnZkKlCn/zPGTLy2+3mutH87QF9ekzHajArvMZKpZ9MYYySRC8NPoEf/ua9e17UDHTIlY33MYcfHOA70G96NYf2A56WCJa/UI3io7VHOnhnyFUDw3KKTuSPyxxfZxaDKswrJow58klUMCwEOdQgikYf+wKPgiPvGuraET+fGl3nEM+G5JhfBMIYlvmMUU1rKjM9VURTFbkF0nKP5XqJPIXOmFH0hSBuH12/5OR/myNgtrodu4NoI+TMvs2voRbqVc+o6/WI+pwfGhK4jPnJNvegk8I43dOgLbRl5GfkIHfXgJwnGMs6VS8rvHNVFpwCdK7kXm0SeA4XwoA/YxNqMf3YXewQiJ2kJ7WUzK0POjuTH1qYPOZyCEb73ZNdFbF1y1Z708YjIH8LfiOXvEavyj1i2YVW71rU1yP1V+dZdH7GKP/nJGXxolM3D7vKXbJ785CdPv/Zrv7b3myxeI7DAIT9aGRebwbhlixhX+sFCWfrM4hFbUz96bvCSvgmvrhnLyqDFnvE8uOaefPjR3xnzbDI0RlnIJ6GT30HyOeY8+cd8kDzJN0L9eDPGBKXMKca3RSTtzGKTYINghXanHBuNDIxTvyV+DFsSz+TimrbmvuQeOnlWlvwWBxYHLDABOs3DYTD4awXAoLeqznkzkMaJKoPAJMeBANvdRQsNNp2/amC6ri6OMtpWnykrEddnP/vZkz/F+KQnPWneniPA4UEziQp++Kor5yl1L+lnwOWhkM+A57zgkxLRtj/+4z+eo9we/ChJQQl14Ms7i3aPmGwk/JiERPetDKDHyTHY5ffAc4w4PR4sv9XzW7/1W9MTn/jEOZnATFqCBdq/2cPhHhl6jxCf2qpeDy7nLHnGI16s8GdXikijqLoJSHkr+YISouVkKhr8rGc9a/rt3/7t6fGPf/zMn/o89JSvnSUmYQ91+CVPcI181RMs+yK/lZX8TrkxbyYOcuRoWhk3MQnKiNKSo8ladFe+TLhLRA4wnoPfY1J/jBi0klyzBcxf7PDOpgg9kC15nnTSSbMS96dCRXPdpwSU48Dj3Y4TSutVr3rV9JSnPGV6whOeMKff//3fn9uiHgEM401ARtlVBgBETso4F4ww9jwPVifwqP8kY80zg38Kzu4COzbINf3nKBhA2RmnDB0BOmPbljhjwLm26msrPMYBQ4jsA2216mFXhcCLcf0bv/Eb81fdjSXtFkEXMFEvWmmLIz4yFrTN/bFvKCDzgrZasRHsMDbNDZ5H21h9uBTvnmHziFfJPMcjn+lTNCkvKzwCJuYQc4t3QP0ddwrSCha+0AuvRVEURzrMZ+ZWoK8SQDe/m3vp8XE+dmR/sI3YHGwoMA+zR8ypmdOTHzKHm0dz3RFttqVzq8royGcuRp8DnXkaQhud8bc8+Hfdii97jn6zym1nLdsozltoqVM5WDpiS+CJDqED8jtAmy1lsS6rxJwn9pJ8eNwJ8JUUfYjPVUkeASEryvqF/uccc+jYJu6nXY5+K7e0z/BohwN7niwE+O0gQFuAh23gCNqkzyILiDxGuQRj/SBP0vJ3ro1Qbt29JbbKM95fnoe/dRjvpyy56R8LNmRvHJBNFqbYewJH2RnqnvzGor7dTp3qImtBjexOQEN9FjI9K/oVzQTYQlcd+FC/8cuPsSjkmUBXX/NJ2IwZLxZm9LXfIJ+Elvv8GffHca2+1BnZgDxbtTH00fbMssH4Jwns8aeMaTIG9j5/Ul5l8MX2JxcLy3xG17I7ly2LTuoJIqe0ays+i/3HAXuVw4NmEDDQDRSDRrDBIDeATVwUgUGSztfJVj7tMOD0GvgcJQ6ZAc3xsbIsv2DH+CpHgL6HxoPI6ePgcIpM+BwHkUMOigkATTx6r06AwsSLNkdQXR4OE7dtadqDRwOWw2Lwemjx5iMplAnnTXntsPWec4OGB4Kjx2GhhD0AggmCFSYF/JAbvgVTlLf1zwoyZe+37V0cNA41uajPwyQ/ZaAOD5KJSP4lImOThrbagpUJwlY797XRETx0Jiv1k4X+8ycwOW6UjQeaI2zrlDaYEE488cQ5Ws6RzesOtoy5n/fnyJ1zma12HnLOqLEhaKUN5J22hB9HiREhIJTdAYINtr+lf+Sh6DmfxhaFCcaKD9roAztwBFGMP7Ia61kF/WLcxVAZX+VQFh9kor+MbYpeHcacNlIwxp4+MlmKyJoMyVOAgTPrPrnpH21EzzjTVrJ/5StfOQc39BUjzPjAg3aQq/Y6Km+8aw++l+3S5/h2T7/abWE8GOcCCD5uRdng2VglW/3F+LCi4vnSLv1qDIQ+paNuz4NnFr/ka5yjYSx5puVTtx0fxq3ylC4lSYmg4Xm0UmB8GweeUbJDT73ajb+MH/TIVRDKubFFlmhrqz7Gu9c35NEeQSABIXWgRab6VZvJEa/a6p7gYZ4r41c/U3b6yW9zioCcd0DTj55XfJub8pwVRVHsBphXzWvsBLqYLcDmMQ/TXeZxc7F5E+iKBDDoHIEJedgN5ks2QvQ3XUE30ZP0Ol0nD93LRkhAQv2umaPpJw4XXaYMmxN9+kHe5Ddf5/VJ/Jn3HdVPJ1tAQcf8jh9BcnVoZ3SdNqEjCMP+UV59jnQ1HaedaLmGDtrsvugrtMgjeg/feLEIJ6Ad3bUK2sFWZW/mVQ7X6D06xznaZE5WY3Kd3pQngSK2mfaSLeAzwQsJouvYvexVZbMTQn+Tg/a6zkYkh/AZ2bM57VQkX7YZ242eJNvIOK9yKLd8lQMck9BQn6NyZIif8RsTZJ1yYEywqdgBxol8bCjX5VGXcWf8abP62RtkQp7apb3jqxz6jC0jf2hor3vKLV/l4BPpC3nw4JlhN7I3nJOlfiUvdp3ni2zj24z9sg5pr7GqbcaFPiZbclGfNpIdfwIvzt3Dk6Q+z4kgBl8GP+rVZ9pIFuqxMEkmEtuQvQTyyM/PMs7ZX5779Bs7z3MRHsmTbWUXL9lZdPNcjVBf2gb5LZk3jEkyNMYE2bRBu/UD+19/kn36CNTFTiVr8lFG+9mCxpOxKI+2kL92egYspKlX32ecFQcH+x2YMLlZVfUQ6jBOpoFo4nFNNNvRQ0zZGDAGgU43CJT1vrbBygmxs8AAMgAMuHWBiUz2HgrlPPwcEIOSo2ESd07R+O0hQ5PSMwHiB/CxDEwIcsgrqm3F1fuDBisnhHODRiKBHgwPn+gip9g9q84cIJOLtuKVDCQPMqeJcvAbLxwwtPBgldpDa1VAJNpD48FARzvIiZw9lORscsfrEmSjTBx+E4XfJiKOYxw9+ZQ3cZCD1W2ywZMvNONLXfrC9n9t4WRabUZHfxgDZG2iAQ6fyVVQRxuVMUGTIX4plASt8GHMOOITP4FzcmZYWGE3WZALWngH/WfSEETAK/oCAHar5PUHiRy0Qx4Y64H8Jgv8joGJOMfyuIeegBqFIshiDOhvfasNUmRC7nhHxyQpT2SlX/EjvwmaoYc+RWBHBf4ZB9oqGdP6SZDPpGp8Afm5hicyGseDc8mkTbkay/ilXDnr7hlX+Eg9xjB+tU85z5CgmnGBP8YN51z/J2igTdqsTVmFMTaMATx5NhNA0abIV78wVn3sCQ1ltQMt40VATn34wmv6IFv2XKNkBIacKyMPw0XAVF+Rj51UFLK2em6MSwoL7+YThoTnV7vNKY7o4VXf6C8y0g5BCV/WVpfxp08k5xlfyhZFUewmmOPYReZuc7Q5k66XBHfpJDqRfqJvODjsIzqAvrBrzRxqnsx8Sb8oz0Yz/8d+dE4HcSzpADqODWO+Vk499A2ni2MSG4v+MM/jEQ90AXvDfE1f0U10GVvUPK28MvSVNtAL6tY28z9dI5gQ/QkC59qEBt3AWdN2fJFPAibqQcc9DqvXKMlDG+glAf3wMdogI9DE+zIwQQ+mL9hn9CEHPMlvthPZ0E90rbrQwQ++yZ1jiFftZpOhyRa021X/ocPmlPQL+4H+5tSRs35M3+gP9Ng9XnfEa2zALCrJj44jezfjY1VgYgQ7iQ53TGDCuGD7JzBBLmN5fU0G2oCPZWACD2xx8tJ+9buvjfKzD4wNfa+t7Al2OVno2/Sbet0jX2MhQTbjDX+RgX7AJ7uIrNAkR+NOGf2IF/IXJNC3xqKgAJltBe3J8+M5M/bUQWb6Vh3GMx8kNrqj+jje5EpWaGgju5YvoH/wr73K4Fn7PYPag772GFOeFa/GGmfKuE+eFuS0wzXyx5s2Gi9kZ5Fru4EJ7UTfeMAHuWln5o/MNfol5fSTduhPtrV72mIeSx/gFT2yMr5c459mDjHe+If6dt04LfYfB2VpT2eZSA1ETqqB6GGIU+S3DjaQTXxxuAwkE5wJwkDV8dJmUA9HQn50HDmgKY8XEWlH9XqQTNQUg4cpA9ZAd1TOYDe4vVZhkgFR2ac+9amzQ2aSkdfAFgH0QHi4leV4Rmlx8CTOleSh1E4BGnx7QDyUZIIWvpXDlweCoiYPCgVPJhv5tFMePK97MFx334NqMuYUeug4fx40skibI6fsANA3nGMOufrQ0HfaqYzgAGfQw6sd2o1vidzwlmCDOk38JkRtV294Xsf7VsAvKB/+wVHUk9NogjPhyCNFMaTNm2Gz+6G3CuGHPCKTkZa6XSOzyM01MiMfz4M+9swYs+Rl3JhEk4wVspeHbI0hEym6q/hSvzooAf1gQiUb41n/qM+YTj3GmzrUT7Gpg6FiXKClDmPCWCZrbVC/o/HrudI2R/XgS3BJ25zjRV55jBNjmRGLP/Vrs/qNQfeVw7NykDbiYWyvcwntjDmywSeDx3NJGWqTROlqs+fX8yGphzLCE17VETgnK0aGIAi+PBeuG1sZX+GjKIpiN8H8b07mvNkpaS6MQ8qZsshk15+/+++VRN8GYm/QM/Ky7yz8RCeaJ82Z5lDODz1k/qZrHvawh00/93M/N38UmVPAQVO3+/JzHu2O5fiZqwUv/LnKxzzmMdPP/MzPTD/7sz87/cRP/MRsXwouoK2OtCF6grMcOsCJxf+jH/3oubyjD4GHjpVoQXT6CO9pS450ID3G2fb9pJ/+6Z+efuzHfmz6yZ/8yXmXCQeIHmIfWRigg6IvNtMdrqeOgFPFYbbtXhBBIMBx+TvBIe3Ft5VpfUEnsrUFTMj7kY985PyxdDz72LigEDmxBehLbYtDxgakR/El2PKoRz1qlj/Zaa9+k8+ig50hMLbPkfxg2a5VkCdphN/Ggz4NbXA9NkPgmjzyQ/gZy6VM8oxIXZvpedeWtopy4UcfsOfZOZ4LvoBkTBmjsb/Uw9626GZBUACHHZU2rIN78qiHTWPXrR3e7EV0s9DHB7AIaUx6Vn0rzPfzjHH8sXEs5ggWxG5TFt/Gjv5Hz7iyy1r/GzuePTuk8KA8H0J5KXyPchnl7frYtvSBfCP8TjIetU1b0WKLstMEVASJlmXRNI75gMa1BUC+Ef7IxTNrDvEMaMuP//iPz88PP00fyavO4uDigLzKkR0THJW8ruA3p9zAEOVNNNaAESH3W2TNKrEBZZBw/DksHgCOOMd83Y6JDFpHjp08BpejZICbQDz8ghEmT9dNkraeGbwGmDLqESU0uclvQJvwTezKCDRYgceD9rqGZ3Wjo322vKGlPLpWySlTTpegjHPHOOl+g4eKkhVpVD8Fy0njHIlqetDQ40CpF1J32rkO8pGN/jDhaCNarnvATCxkRPngy9YrfFCWtkFxLNWPL9FUBoP2ivJTOKLu+iIKBk/4QU8SDUWPXLRTsAM9zp8giPFAXiKQJkP1pI2B/CYMgR9jw4TI0TTxqktbTN5k675JntGUIApsJiNQp5QxpT36VB9pb3ZMAHlqG6dXG4wtclQvRY+vQF4yMBaMZ2Oc3PEztlUbGXExWow/Tq/glPGDjzExArWZ/EOXkbBqwkzb8OA5zbOFZ31DbpIxmWi6pG2OxiHnngHnGOPGMW3VvxJoF/lpu8kf/34zSBmneFGeYy/KbQwIfJj4E5A0JuSR12/ySh+6hp6ykj6jlMhfGfnI0fOILnni2zNFdnkel0nbyVN/6yOGmLbgjyw8P+YtrwYxcLUdb3kOpa3GWVEUxZEMcxw9a86lz9kIfpt7JXOiZN7lZFk0Yrf5ILp5MzQyX5o/zbPZ4k3fuJ48aJjb6Xy2mzrM/+wO9dMr7JvQi+5BFw/qt4Vc/Wgorx5HefCOjvakTrrMeehwxti27EZ07JxVjo2r/YIveZWD02PHLDuFjTAGrekWeoWNfNJJJ83yUAd+0uZVcJ1M0aHbyEjbEsR3zMKV5Dy/Hek/NgzHV/tcUzfZkoNrjnSaOvxmg9CDbL2XvOQlczAKD3jVFvYGueNfsgjErqMnyY/NfOKJJ85H19g4WVBxHy36nr1LTupjBwv84GWVLNKneGSfoalt6oi+liftca4/2FHsNGMGD+wlslGHfOwU9/HlPtmQkXaRL/7wqV7X2atsAb/RUF/6SB3sM7ZHxqj68Mam840vC57sCg6+73KxKazws48cJWXYxGTHlmW36QM+lXatkk/gniQfWwpd7dIWvGqn8YtfyTl5GMvsPAvKvqHneXF/BBtTPv2EljFDTjnK7/nwnHhNmGy1wfPN98OP8aNfyIDfQY5483zJB8v2jb9zrn60jAEyYuNpm2fea7bkRwZB5AKu63syFUgMT8q7l751jV3vmbWD3FjTlzDyVBxYHHPCCSec2RPcITg8v/zLvzw7Ggakj8p5eHVeJqBf+ZVfmbfBeFBFqH7+539+joKL0CrvYfMgiFx7AA0YD4pIni//++2+KLiVe5OYgWRggqP6THQefhOJo8lSPg6JCKF8FMYv/MIvzEouE7yIn8ihB8skb0CbWAxQTjpF4yHjPOFFuwxK9x199V9UU1tN1tqvXkke9SYpD3jVRlHzP/qjP5rbja4tUBIlp6xJw4NmsqRcTHQmRWXxq350V8F19yUThMi/SVP7nve8582vpZho5BMV/KEf+qH5nCL3IUKTBRnhwwcDOXAmDt9JEETiHKevtUs9gGdO7yMe8Yh5S5/6bH/XTu2mVPwJRtFWbdMfDIwETQLyNKmRr/GiLgpdFDh8qUuUU5TWJGJCFOnkgC4n1XVIneHfJCv6rx8ob+PS+AP8q0eQRhsEHihFCobC0o/pZ4rTX2AR5NJneCMHfKtDHnkF26wy6BvPiDGEd+MneYL0t3vkZXz6PoO68Qbup0yOghJWgIwZ9KOYAzyNcC/XGAzqEDH2XGXyRhs9fKibYtBfZJDAA4UOVmmMKe3SdkqJfD2X8qJnvFEUxgIDJgEXZcIPeahThF9yjfHko5v6xX2BhB/+4R+e5eqaZ9p1eaUgspSco0sJ6WtzmXYJDv7Ij/zIbNxQ7vqPrPPsQWRcFEWx22HeMyebV+kCtgUHw/xPD7AHzOUcBnqPU0/fmE/dM1+ajwP0zNOZbyU6gZ4y/3PU2Hz0SuZsoCvV7zpbgnPpXB1xttRNj/hNd5m3AzykbvfpJHpdoIF9QU+hz35hB9Dz2qUMPaKtdCI9Z7WYPSQ/O4pTb3t8Xk9Ei61JHmweNPEZfYQmrNIl7pE33smabRr7IXJM+SXQ1z6OpLqTn2zJT3vR1HZJH5AbO48OFsxwTX2pA03lJXaWRSN97742skk4uGiEZ33KodV2MtIe7WdTshlcExzS3+uAvn7Cj0U2Y0Qb6GX2fGSZNqbtgjlsATYTGbAvlItc2drGj/txuskAf9pjTLHN9COwwdUXGyD2A1r449MYi2Rm/LEpyMoOFHal+5xcHxvXbk4w4Ds0jHdytWvIuMKHj597BRfUtxnCkyN6sYEswpKFvmafaqM6jWtBgzjq+CJnbQytwG/Pg0CUsW8MeRa0Ed/8B0dl2U3kT97Gk3rIWb+QpzZmEZFvZsyoa9m+Ve11LfLSf9qFD+2wkOi6utbB+NBO+YxB/h2fkWw8/+6Rm2fAHOQ33xJNMigOHg54YMJX9eOYGzgmArsiOMXymMh/9Vd/dQ5UPOhBD5ppeGeLozs6uSYG33fw7Qa/l4EJg8qgNHA8IIIPnCAPgcHlofDAy2OQqTuDnyOML9fVw/FNYAJtk4lBaoB6kESMfc3fRIMmOpkEPQi2vWmjh00AwQTrfgYvOeTc9cjGg+zjliKT7ksGvh0CHHEKiIOvTvc8cGjbBiiwEH48MKseXBivcwQFevCgTh/X1FZKg5ytMpuUOHl2RJiYtAkNOyjI2YTMwdQfAgzp67QP8ENRkYudAGRsIubcosWZXxWYSH8FzlcFJny0Ud+hZVJ56EMfOm9fVK9ADyOB4hppbQb9CZGVcUCBCHZsNzARmZls0SMPecfAhC11HFtjXN/JI69niPNLyetjASgKEj/hLXBNyoRrIvfqCvmpL/nH/gA8CAS6LxCojvTdqjKpgwyNaeNUXcaO9itD+TJIKSd9yQjTLkkbpTwvVs2MG/1FIaJhPNmiaFcU5eR5YwTIw6ilyMwNVsyMIbJ1D33bEBOYsN2Q/Ck/bTC3kDtFRY4MibR11ZjQ1vQFw8gKhj6V33ZZcxcFa6wK5mmLdq3qn6Ioit0Mc2XsGDAnm3sdc928aH6MHpCUS1pCOWATmaOVpc+Vo9f8znVwVE+u0ydJua/s6FSvqhuf6pZXfco7oimv++yB6DV0XJOHHlsGJsjB9m/BfHz7Hb6l0FFndIfrsEouQXjHX3gOfym3io5r5KQN6YNclyK79F2uRXbpY+WWdCXlOM3op6wy2pj6ItfIWT7Au/wSuJc+3QrhWX7lQnfkMVCP/O4lLySv+2jhA99pSyBf7muD++pdV5d88rtPhuozru2UsNjKpucnPfOZz5xtoPAden5n7LM9vE7ODuUjscNgVd3rMLaXHPCCT7xB+AVjOuPTdfmWsnAv9/U9XskkbTDuM27kiV0mT8pC5K68a+pVV+4HY/1LoJv7GRPam7a5vwrKJIVv5fHrGLtVwvf4zK6jWRw4HJRXOQxEnaiTDVBOGUeOAyZAIHHCPJTucfo4SmgYpMo4ilJu9iqHASOA4L1GryFw6DmsghXocqIpDk6J+sEDzoGUx+A1kEW28WOQ2qpjh4cHjsPOwRZR5SiJvBugkEFtENsGjoYH3sow50WEjfOPnnNHW5nGc/cFAgz20FQvWZiA3PMbXffITfQZr8qQybpJMvzlHDivN7nJTeY2KScSaJuXdwy9i0im+OPoCtDoD31IRgIv+hovHEVtIBf3lFMHHpw7muDsluCw6q+0Wb36Pa9ykKv+4JCbUMZ2aCM646sc+YCSvlOXPAwCgSnnZMeZNS6WMlmH5IucyFPQRTSfQ4zm8lUOfaENZCB4Nf5VjtCTV+CCc2sMGj+cZPQjJ7S0Wz6BKH0uuGJnkXYycDKOkshRH0jokV36YAl1SHjQ92RkheHEE0+co++cf2MgdFNH6KtbfnJQhz4w5gV+BIwEFshJP+HDcyfwQRaesexaMvZs1cucoM3u418blVGH8eWegJRnXb+THT7z7CmvTgYhngTryD9yN74FKdHAh7YKXghKZuxK2qbNSWhkC6U68MqIEOhAy1g1DgQo8FgURXG0IXqGLjFH+m0+ZC+Yo53TfTHmR72kDCx1VfSUsqGBHjq5F1op61roma/ZBJwi5VLWdZB3M6CDrvzKoSWlTa6nvtSJR8H6vMohUE8/sp8EuAXSw4uE3nb5WSLtDm+OEt5G+qtS+B+h/vCgHckbupL60tZVUB5ddY/lUpexIY9+G68H6I/9vRwrmwGtlHO+WbnUo32Ofo/5lU/7w0dkE/5H+Sib+6uAnnzkkraza/gg7BLjgq3ElmXzkDFZxTF2jd3P7rVYyPZgI1mQZJdv1tZVCH3HtDW8oZUxNI4T7ZOWdeU3WmPZ0PXbdSnlXZNAnYFz8s74SbkRy99LjPVE5mMb1iF0M77lxQsaGQfhGz35NqNXHFicOTR1gKADk3Q0x9T7VJwWvzlhViDj5HLAsnUmnb9uQOZh8hBzWnycSCSSo8jZsCJtJ4AItg+y+IiJj7CEnzxQI/x2XbLCiievHVgp5xTZxeB1D1uxOKEGLRiwHCoryoFBzbmUODgmIDQpMI6N8/x2XzsgvJEPJ0/QwE6NX/qlX5p+8Rd/ce+fjjRp4cef9BEQ8Tv8bAa00eRYOc/ODCveAh3kp21Wi/GelX8Ppr6haPFI/sri0W+yizzHSQdPAg+uaaM2mxzzkEuQfsn5iGU/rcKyDIw0DyQ242eUw2ZYxRclZJy4Z2KVBNCW42VM7jlSVGRJzuva7L4+YDRlfKnT86geaawj5+qQPKdj3wraeE2H0jQ+BBy87mQnlF0Znju7Izj6nmkIb2TkHC/GiHNBB98FeexjHzu/CuaVF9fwLRDnr2sIAOET/xk7ARoSHt0zzrUBoqSMX4HKtFXKbymyJJcgdKV12OxeURTFbkZ0nnnQ3DvOl+PcmOtb6Ul5Rjrj+VZJ3jHleuiuSiPye5lnTBD+x7bH8ZNcj51D/+V68oTOvkDZ0AtP+b28vryf35B+SBuSB3INxvNVGOlLYxuXtFP3iJRfdW8rKDOmzeD+yIc0tj/XkifIff2obVLKrkPqSP7YwGwar4nwhwSyvILMhrLIk9dNLN4KXlhotfDjtwVff2mOrwFo7xRpa9qIr1yH8BxsVUfKhR445tz1pFxfymy877i/QEO7Qm8zmrm/zBdecz3nS96Lg4sDGpjQeWMH6lATNGfCQ2k3gY7m9LrGAba67UHl4CgbB2gcLEu4x6m3Im+ngsHICfInLJ///OfvDRRkSxGHO3xlsI0YBx4+7JQAW++zdYqD5HUP9/CrjKRuTo2JR5us5HLkwbb0RPAd/eYU+q0eCX+pX8qEYZISKUXTO3ucNa9CWL3GvwCIoALnzqQZ/oPwF8inXu/jczaVNwH6KKjAhLwmwHzYKcEO/YE25029+DGJ2vUgaLPMJ8lnpdlqObqcPf2lTu0lqzisfrs+Im1BhzzGdmwHS1nsBKvKbqf+zfJELjkfQW7KcpLJRICIMrLjw1jxrDgmGUOuGU9Snptl/akHfUkQglJ0XWBJH6KjvPG6pO884zT00TEm7ZKwQ4Uj731C7z4KLBg/8hojykH4SHn9bcy4bhz4bcVJXfra7gfPsBR6Alx4FoSLvEYYJ5LrZGheMcbBLh87K9BQR9pJdo7amuc08lQHoJdUFEVRrIZ5OnN9jvuLzLsj7e0g+VNmJ/P3ZnlHumOiLyTn0W/5PWIsc6ARPbVVWofwtFmeraDsqjYejPbCsp7ttG+JXN9MPrk+3l+XNzyFnnN2DhuDDW3nJl8I7EL2GrK/ZOJVakevWvtGiVdRLbyy/X3fjh/C7zhQSLvH42j37A/S9u1ip/mXSBtCw++krTDmUd7vAyWHYt9xQAIT44BYwj2TNYfBQyloIJ9ggS38tldzxjglKb+KToBeHFZBAoOIg4S2bdgcEU4Mx9iR48FBjsO/arCN9Tm3QqwMnHTSSfMuA8rGSrHgBAcnK7J4N+HY3s0hE1AQDeWMS5x8deOZDEwukt+OrmmDPOpFi8PvnNxsS9cm/HjvnbxcB8fwvu4hcj331EP+PszknJNpm7otiOq0I0M7vFKAb7SVteWebE2w5CDC6xUNMhidQpBHsitGH6CDbxMsuYEgBZrgmiCH9ocGepGbCZ2M8ZK0HWw33yqsKhveYDwfkeuO6/KE9liHtvrokF0TgjTGtW1/xkLkSRaSvGQnGGb8GCeur+LZNf2sz7xKkaATeQrouYeO8sZhxiiaGYN+O0+bjEX9Bfjz6hYa+PW8Ga+OHHzPQ8YqjDLBu+CBZ8S5fMa4MYkP2xzJRBvSDgiNVUfltNWYEojBt6CLIAq65hyy1Ka0Wd3hwW9p5LMoiqIoRtBJ9E0WVaxme22YnqXL6L5RN1WnHD2IzZJ+Z2tkgYeNbYHRbmw7xdkebBNBCAuEFozYLxZo7JKwEzUfNh9tqaLYzTgggYkRHr7xCJwBDxVHw6sWtn572OyW4AjIa5KHOCCrME7wHujkTXlOl8ShsroqYGELuA8whp8lfdfRzH1HefDsPF/pz8cFfU/DRySV4cxw8rTLyrF6OUI+zOc1CeXxg95YD6ceT76f4R7eTV4cOhOTiQqUjdMkWeG18iu/6yYv8lu2aQn1yqd8AkLKU6peqcEzR84rLBy7lElSH6dWgEY/CmT4awqCMOiEPn7dF7jw/QUTLKdVfQIeJme0OLTqIwvy80FTTqk2Rhbo2jVgRwd6gTKgzgMNtEM/SD2r7i3hfmQ2/h4x/nZf35Eb2frOAYPGjgl/StfYNY7JFpQlI+XszPFRJK/zuI7GZhAE0A/GjHFgt5G/xCLwI9ARXsnfOBaAEGAzTo1HfQL6V5Jfkh9/nhe84dcY03cULfqBvJJyGev6X3nX9bm60SIXeVwXYMCjsYnHpQyTIAaAFQZBPPL0rRrjSDvISUpbJc+Ur1UbhwIsoTXSLYqiKAqgF+gROoV+8l0x3ybzIXg6NnoIljqr2P2I7ZB+Z2ewodhHXpcWnPDqq492+wimBVAfiDeOfGg/93xXjz3VMbRzpA+KIw8H5OOXnBdOu5VxQQcOCufFwzhOzq7l9Q3RQg+payM4JBIaHAqvG4CPv/j7upxhCoGjYrWfY8b5UA/a6PmNL1u4/WUFTjKarnOIBUWU5zhziji+kjyUiokDHTwrI/DAaZKHI+W1DqvbrlNAJhxBELzZbUBZqRt9clHGSrIPEGrP7W9/+9kpFKDgPHn/nbPofTN/nSE7QeKI2fXB0eOIkjWefDTQqyb4F2Ag662AJnr45fxa+c6E6QOIIrTqGhEZ5P17DpwggrKOeNQ+TqSABYfX9y9EgOXnbHsNhfLGJ3pR6PloosBIFDlatvYLmPhLHNrsOh6UIy9OvN/ag387WeKg2yZn9wwafm8H6MvriKa+FzSy0o5vNNWZe+Slvb45os1kI6jjVQl8Zdxrrw9zkrXxZteJ3SpopG/lAzQ8D3YycJQ5yMaHfORMLsYAWv4Wtm+eGAscf7sW0CdH4yE0AS/qwZcxS87krg7jOK84ZGeOa8Y5R14ADj/4shqEjoQH/YO2IEJ2Ihg7xoXdMj6maqxkzHmurBaQnbpsY9QGu2pAO8kFDe3WRn2vPV7TMj5BHjQFPfLMer3JOBvliSfneDXW8mwqT5ba7TcagkD+qouPg2qHIJqxBnjVz2gI7njuxo9fjnUWRVEUux/mffqPHqAz7Aj1bSM2KNCzAf1ATxVHF/R7bIPYCcYB25Ed5FVVPpPFTzYm+9CRX2EcsdnkPZrHzoGwrdIPB4JWcfZgnwMT6WRGPsOec+NhEpiw6jk6XkmcAtdM5JnUg9Bz9CAuAxMcArsSOBjKc8jk4yBxqKwuO+cYcaY4GQIAHAurp+rliAhMCDyMgQkOlLrQM0n4+m0Ui3L45vxw/Dg62oyu9qKHl3zo0j2OJAcPHxwo34LgPMfZEniQ3wTEobWrgIOWP3nqKLAhkKE+uy/85QzJRKWcoARlaPIyyUV+65D7AiUcLDzjT3n121rGedTWEcqlT/CsX8hb+wUD8EbuHDwr7NqoL8hC21760pfOMiVrsgRH31RAh2NPrqGh7Zx53zHgnHNKOcVkaMzY4i9IkEAGWoIICUyQjcDXTgITIG/aaVwmMCG44vUXdULkrZ8Fxow3QQWOs8DEGCTCYwITnHtKR2BFHavknB0DaHOEBXeUF0gwjgTYfAhS8Ce7XNDzbEACP2gFOc9RH2pDHHNjP23Vl3YNeJ6NP+20Uwh9W1U569qhbv2Rce6ZlIxx49uuIs+V4KNAg4SO5xBN9ZKdOvOMeCb8Nv610X1yUrevnDP6jF3l9c8YmDBujRNy1373nQv4pa+MV8+T9iqrfQIOgoHaTXbqIE8GgzkGPJfkrj+MaeMggYmMr1HeRVEUxe6HeT/6ho5hz0j0Pv3jflJxdGLZ936zjdh/bAo2TcaIscQ2Yy8ZT/KwX4728XMg23+0y/JIwX4FJjgFnBTOE6eFYc8ZHQMTI/xWhlMcBy8YB4w8Hl4OnWT1UzQRbY4C5xg4ZpxsTihlwFHi4HKSPPAcRQ43x8Y9zglnBR2BiSgQDqAyrinjtQWOCuBLPu3hYFvhx78j547TytlzHz/4DG1OnLx4FlAA32XgPPsrJf7qBocPHfJzrq0mJPVzerWf82eycs+fONSmOKM7cY7kkV+yKs0pxLfdKD6wwxlLvy3p4UmfCBJkq2ImTXKlkJUlC+PAh04FTzhx+hpC05ETrr3uCVooS6bo6Dv3BKKe85znzEEMDqXdC+oXnAifkj4XDCF3ASTBMXTc2y7wJBl7Epp2KHBGBRTyQVX1GjP6Nbti9DsnXKAqYwrQM7bQEfxBQ3KdPMOfo9/KkS0nPtcc41iTj7HPceaI2/rnaOzgY50SyzX0yNCfPyVfZZTVJvKiKJ3jFR8CCcYoZ1zfoyN55pTDl/ZmnAo4kB156TcBPtfIyrNjVwNok6AaOtpkDAhQoeGIJlkKIBqXxpAy6nZUh/HrmdUefU7+MLbfGPOskZcy4H7mAnyRp2c+deHR/BXZyyswhEdzhx0v6LkfjHUWRVEURweik+hDiZ6Mrsr96oejG8v+j23B3mazsU3kiU3hWsZR7JaiOJpwzAknnLB9720BDxPj3spjnElODId8dNC2C/TyMCrL+eAgcgo4SpxygRAPLcjD0beiiQcPNmcrzhcnkNMovx0R6HE6OE5ZOVYfx99qqmCANvizo3FApUwa6KCPlmADWgIE6nBfPqvnzq32c2qs5HOCOEAcMU4nRwiPJiA8aC8+5CE3Dh+erCBrL4XHWcSb+vAuX/jfLvAn6Svb6L3m4nsPT3va06ZXvOIVc5shNOUd4TqetZGzzZHVTg6le9rHaRNI4MQJFGgLGaIdujlql4CN8uTESSUL5QVLBDgEY9RDFuokP45oJnHwrYK8/uK+sgI56t0JtBcNRwEFdPUxPow/9Nw3Dox7K/YcejziSZvxNbYT39qnvznbAiuho54xb36jhy7ZGgecdX2NBvnihYzQE5TLOFj21xKpyzijFNEmW7ITXDC2PU+eD7TVZ9zpl4xvMAaMP/IRnDG+XTOWBAIEEvBnnGkDx95vdPGQNhoTnknPkh0Y2owv8g4PxpTr6pbyPHpeJbAd0vM+9nfyoWc+UocgiXbmWTc+9ZmgSerSr+4pj0/jVz97lslC+zyH+g+2I/eiKIpi9yC6NDoJljo9WHWtOPpQW6Eotof9CkxAHAAPXZwyySS9P5NxynN4nI/0cnSNc8uB4jj4zUnjjHAi8MZpcnTNkUMlX5RJFEvqWTrnrjt3T1nODMdOwCAOGsiDlvJ44ry4xiHi7MhrBZdD5pxDGT6SyM8R78pmJ4j86tRO1+2wkC91Om4FedTHqbZT4hGPeMS8y8DW9cc97nGzc8cxdR9tkH8J9eHTTgIBCoEFjiP6ZOw6Gtqd9oXPJdCJTPQT2SnDkUQHbc6tdgsQCDa4L6XN6JIP5NoYBNkpIk98o4vH0AtN96RR9vKMv2HM4zg+H+sgH5AB+XKMjTXXyVVQyr1cx6OUcltB3eGDjMlV/6FFrn4LMODdOFsV9HCurxN4Gsc3ntHxPHoO9K0+VKfryiahIRDiuv4XAEEHX3mmBQlcG3nAG3rpB+WlVXJNnfggO+3UXuXTBkdjy/hPXUngiE7Og/BTFEVRHD2IHqAD6CCIrhl1RFEURbEz7HdgwkQcA92EHEchv3eKpbEfhyNpCfk5GZwgkMe1OIqcjuRxxF/yBOM5jPWk3rQpDhYHBnI/cI6egIIjvkbFNfK1LAdjWXnU41y9knwcVNdSZqSzGZTDw/3ud785ccqe/exnT8997nP3tgutkd9VkEc7OK1oSiB/5Jz2heaI8C6lXZHT2FZ0XXOOTvpuFT0J3AudfQUaY9tTX/gOfXnGa8kzHiHn8oXWZpBHmyPf0TEn98grY2NfgB762rCqDtddk5ayCH/po/Ahuea+68qhtVm/4QGMl8g19af/XUtZ13OeOlfRDnJPPeN4dU1Z/C7rCnKeozLpZ0jdY5miKIpid8O8D+b+6AR6JDqhKIqi2Des9jx3AJPwaLCbnPcHoZcUh2kd3OOkqVeK48bR4OxEWeAPrVVAw/1V9Sg7Oh7oJggCy/s5t3psZRvd5EHfzgf3Upfjsl6r1vJAnDR0tEeCVbyug7rRUNbrEF59Qc9qtW8UWE1erkynHavgHhlY1XZMfjS1D//Jt4rPXHNfnfhynr5zH53ILnn8Xkcv9yRl9gfhOzRHes7J0nV8jXnW1Rta2wU6xpnx45g6HcnbdXWvq287UJZMjTO00Cf7XCd/fLse+A3yKCMPZIwC/vAcGfm9rt9cV3/GyxgkGPsfckRnPE9aB3nRzHjNWHPNMXVpD4TWSBcfaYMyqR/G86IoiuLoQOb+HEedURRFUewb9jswAZmMMzEf6Ml5K5oUQ/LEiXAtztISq5yJUbksMeYf8yWNyG9OlgRj3s34CtyX5I/zC9spuxlslfdXM3w0kIPmQ36+B2ArfgIM4JjzdcBHHNm0Ldd3wmPqUn50ANEID47boRkeDhRSf+g65jz8raszeccy6/KuAvqjfMdxnev7i2UdSa5H3uP1EcrI43r6DMay8mzGp3vqH+lI4NqybH6nLsecbwX0xrqS0HQt9aWOZV1L5H5RFEVxdGGc/6M3qhOKoij2H/vu5W6B7ToMRypG52Zs606V06jUVpVdd32nwKN3/X3o0E4JHwv01yvywb+swB+Iuo4WnJ3yOrvqGusZx/XBRuod698K281XFEVRFAcL1UVFURQHBvv9jYkjEbtNiWzHgdTm/EURH/rzcU5/ScL2dlvxz04ntCiKoiiKoiiKoiiCozIwAbshOLHTYIL8XuFwtHV9/KZDURRFURRFURRFURwKHLRXOQ53HOnO+L7wLxjjL3740GX+8gc6u20HSVEURVEURVEURXHk4KgNTACn/EgMUOwPz/kIYIIRR6oMiqIoiqIoiqIoit2BozowERwpjvmBCCIon7+iIDjR3RJFURRFURRFURTFoUQDE2cgTv9Wjv+Y70ClrbDdfEVRFEVRFEVRFEVxpKGBiRXYSdDgQGBVPWc3D0VRFEVRFEVRFEVxKNDAxBYYAwQHM0hwdtVTFEVRFEVRFEVRFIcTGpgoiqIoiqIoiqIoiuKQoYGJoiiKoiiKoiiKoigOGRqYKIqiKIqiKIqiKIrikKGBiaIoiqIoiqIoiqIoDhkamCiKoiiKoiiKoiiK4pChgYmiKIqiKIqiKIqiKA4ZGpgoiqIoiqIoiqIoiuKQoYGJoiiKoiiKoiiKoigOGRqYKIqiKIqiKIqiKIrikKGBiaIoiqIoiqIoiqIoDhkamCiKoiiKoiiKoiiK4pChgYmiKIqiKIqiKIqiKA4ZGpgoiqIoiqIoiqIoiuKQoYGJoiiKoiiKoiiKoigOGRqYKIqiKIqiKIqiKIrikKGBiaIoiqIoiqIoiqIoDhkamCiKoiiKoiiKoiiK4pChgYmiKIqiKIqiKIqiKA4ZGpgoiqIoiqIoiqIoiuKQoYGJoiiKoiiKoiiKoigOGRqYKIqiKIqiKIqiKIrikKGBiaIoiqIoiqIoiqIoDhkamCiKoiiKoiiKoiiK4pChgYmiKIqiKIqiKIqiKA4ZGpgoiqIoiqIoiqIoiuKQoYGJoiiKoiiKoiiKoigOGRqYKIqiKIqiKIqiKIrikKGBiaIoiqIoiqIoiqIoDhkamCiKoiiKoiiKoiiK4pChgYmiKIqiKIqiKIqiKA4ZGpgoiqIoiqIoiqIoiuKQoYGJoiiKoiiKoiiKoigOGRqYKIqiKIqiKIqiKIrikKGBiaIoiqIoiqIoiqIoDhkamCiKoiiKoiiKoiiK4pChgYmiKIqiKIqiKIqiKA4ZGpgoiqIoiqIoiqIoiuKQoYGJoiiKoiiKoiiKoigOGRqYKIqiKIqiKIqiKIrikKGBiaIoiqIoiqIoiqIoDhkamCiKoiiKoiiKoiiK4pChgYmiKIqiKIqiKIqiKA4ZGpgoiqIoiqIoiqIoiuKQoYGJoiiKoiiKoiiKoigOGRqYKIqiKIqiKIqiKIrikKGBiaIoiqIoiqIoiqIoDhkamCiKoiiKoiiKoiiK4pChgYmiKIqiKIqiKIqiKA4ZGpgoiqIoiqIoiqIoiuKQoYGJoiiKoiiKoiiKoigOGRqYKIqiKIqiKIqiKIrikKGBiU1wzDHHzKkoiqIoiqIoimKJ+Av1GfYPp59++hln20NlvvtwUAITBlaSAXPsscfO6bjjjtt7Lh2Og2l8KHb6gBxoRHajDMfkelLkHRxq3rcDPI5tc57rRVEURVEcvhhtkOjvolgHYyT23m7CurG/L7bsKKPd/ExFNmN7+YjxE12XZzMZjvLZzbI62nDQZocMMIPltNNOm9Opp546J+dg8B1//PHz+eHijOZBCM/SoRrw4WVdwtf4QDvm3uGO8J/xYVyA30cC/0VRFEVxtGK0NXI8VLZScXAx9vW+IOVXpSMdGfMHqk3KjzYx7AY5BdoGfL/4LGlv/MPkiW+zSq6da3YvjjnhhBMO6Ig3kAyYL33pS/OASuAhDqdjkkH4la98Ze8AzWA8lMAjvr/+679+Ove5zz234yMf+cj0v//7vzOfy4fjYINcgLyWiBzJ7ctf/vJ8fs5znnP+fXbzua/QPnLGrzY4Him8F0VRFMXRCHqa/pais6u/dxf0JbuSTQz7aluGjrHi6Df7P9elIxH41o6v+ZqvmS596UtP5znPeebf//Vf/zX7DLBdeUUGZHS+851vOuWUU6bPf/7ze8sfqTJaIoEG7dPWjK20zxhzLp188smzPM9xjnPMv+MjOkfjwhe+8HTJS15ypvHpT3969tWUCa3iyMQBDUyMA4dD70H9hm/4hulrv/Zrp3Od61yz02wgfvGLX5wfOA/vu971rtkhdZ2DahAeqkGVek0u3/u93zt93dd93fTRj350+vM///PprW9963Te8553b/sOJvBBfpe61KWma13rWnuvLeHBFNj5zGc+M33gAx+YJ8IoDrLM+eEKfX3FK15xuvGNbzyPjfe85z3TG9/4xr1j4HDmvSiKoiiOVnDGYt/R2R/+8Ien//zP/5xtkmJ3gA3GFmOjsyfZ8Wz1nUB5Y8J4Yc9e8IIXnB3Jd7/73bPdyuk8UqEdfJnLXOYy03d913fNC5p+/+mf/uncPtiOHUtG5EtG17zmNWc5cdz/7u/+bnr/+9+/a2xh7eT/aQ9/6vKXv/x02ctedjr/+c8/+yzGgnbL86lPfWqeU/7t3/5tb3DC2FPW0Zi6wQ1uMH37t3/7HMh529veNr34xS+ey8m7W2R2NOKABSbiSBowV7jCFaZrXOMas9LyoFJcGXTuG3Sf/exn5+iWh/f1r3/9PPgS6UpE7eyGusFD8v/+3/+brnzlK888/v7v//70ile8Yp5QD3bgRLvtzPBA3vKWt5we9ahHzdciX3Ce3xQGWX7oQx+a/uM//mP6h3/4h+ljH/vYLEO8wqGQ5VbQ1ybiH//xH582xuAcmPiXf/mX6YlPfOL0r//6r/MEbYIqiqIoiuLwANuD7rZwcve733263vWuN9shr3rVq6aXvexlh2x3aXFgkX5OX0rsSnbZ2LfybQa23cc//vHZrmbPXu1qV5t9gac+9anTS17ykvk6qGsrWocbyIP9zef5qZ/6qenqV7/6vFD4m7/5m9Mb3vCGvTKEzdqGjsVIPodFUYEJcv+bv/mb6QlPeMJMMzuLjzTgOW3XTgEF8vrWb/3Wub0WgI0BNr9xwW8R3PnkJz85+18WLN/0pjfNPqKyfEh0vvCFL0x3utOdpu/7vu+bd0687nWvm570pCfNi8nGHByJ8iqm/f/GhAFnoDhe7GIXm51MA+VBD3rQdLvb3W76pm/6pjNtS7LdRl4Rxutf//pzlPHhD3/4dN/73neOnnk4Ac2zG+MDlDY57isv6OXB2MkDol6K3sTkobXzRBIY8eBKHjwRR9cFgUQNH/CAB0w/+IM/OD+sZH44T/QmH8EJSsoOFbzakiV66vxQ9H9RFEVRFFuDDZKt1NIFLnCB2c7JgkhxZCNBCE7j93zP98wO81WucpX5euzK0cZdB7YcOmx7Y+QSl7jEdPGLX3zefZEgx+Fqp24H4X/0GXaKtJ9c2PxkjM5Vr3rV+WgxF440OUU2aQ8fzzj60R/90XlM3eQmN5kud7nLzT4An8duB4Eec4vgxU1vetPpPve5z+zX3OEOd5jlkzE3ysL5kSabYj32y/vLABFwuMhFLjJHzw2i61znOrNTLeL15je/efrLv/zL6aUvfen0whe+cHrRi1407z4Q3RIJMxgFL+585ztP3/Zt3zZHxExWhxIZ4NqWaGcmnZ0OfjSC8XwrLHkQHbQi8dznPnf6sz/7szmJNpOt7V4f/OAH54n+hje84XS3u91tjkaKQB6OwQn8mKjw9va3v3363Oc+N/e5XSKine5H7kVRFEVRHF6Ink6Kkwk7sXWKwxP6V5DJ4hd78la3utW8oAj6dzt2ZfLIn5Tdshkj26FzuALvYxv3F3aW2PnML+JX2VGOLkf9QNA/O4HfyMY4EmT5zu/8zumud73r/LoKH1F77Ybg2/Bn+DX8xL/4i7+YfUSv+mQB0yK2nSSRuaSOyGUpn9xblYrDG8dd4QpX+PkzzncMzjpl5KG5xz3uMTvEF7rQheZr3jX867/+6zkQ8drXvnbepv+Od7xjDkb4roRvCXCmbVESdQcO9vve974dbVmSL4P/QECbtMfOD8EWk4MHx3teHP995Wvd+Srgwc6SK13pStPtb3/7+aEmpyc/+cmzjPJtDpOWb184FwSyY0USfbzoRS8685yAxWZ8L3ndSqZb3V+F1J9yAhOSrVr5RoaJSFu2g5GH7fAbbIfvJa9bYav6i6IoimI3ILqO3cZRyC5Htt073/nO2ami26MX1+nTnerZYJW+XdJaledQY6c87WsblrIIRnpb0c59q9fXvva1pxvd6EazXfyWt7xltiv1dyDfZrQ4oOg42kUt0GF8/P3f//3sE7D3ld/X9i5xoOgAWrCOHlvdeOcrWN332rqdIV5Pt9CWdsFII9cgeRzJiS3PJmYL86HyavY6Hg4klrJb/t4p8E0e5GJXvHFkwZTM9L1XvwQhyIsvw6cxjzj3zQj+i8Vqu3bQ+ad/+qfZt4zv6VWQ6173urPP4/o//uM/zq+SqXcco0tst01j+3cii+3k3als5YeRH9gJjWCsO+c75WfE/pRdhX3eMYEJE40Bcsc73nF+lcDEZcDZJeG7DM985jP3Os0eNKv+HP1PfOITs0Oad4J+7/d+b3ra0542BzDQlCJ0SKPVtUwG4KqHdiw/YqSl3JKW4wj5BQbW0YMlb+Ep55B6c74VxjzOJbL1cIogOprEbH0SYbULRbRRQEOd3v8U2FDnqvpybRW/OV/Fr2u5P+bZCqHtCMp5JQXv3jX0Ht3f/u3fzpOJPKsmFWWkkVbOpfASfle1cSt+3d9J3tDeKm9RFEVR7CbQe2PKtYAO9puOpCudRy9Hz456PHlGyJ8y62iN5TejtQ7ypeyYVtEZ+Rmx5HNJZ+RvHV+btWfkZR0PkLzJB0saOYbeEq5J7HV2WmzyJR0J1vECubfMs6renUD58BNepPglEmzGG7gfWsuUtm6HV3RSl/zr6nVvlCHwMVznbFu0tQj5B3/wB7P/5B6MtMPbyNfId+47jnnWYaSZctIoy2XajC5eldUei9VeL/ctGkEoO6TtkPid3/mdeQe4RWs+oev8Gq+t8GMEGl7+8pdPT3nKU6bf/d3fnX1EAYtA/SMP+S2t4jcJ1vUNjOVHWYyyWYXQHMuB62iuo+XeVkj5dTRCZzyHZTuTZzM6yqySz9i+lFt1ro5V5XeC1RLeBCpNxZL3gwQlRM+zU+LEE0+cI2ECERg2GDFsoEoCGL6PYMJDQ95nPetZ88B0n+M9NizCdC2veoQHv6U4supzbx3cB/mVQ0N+56nX75GGa6Oj7Dckj3vKSmAiSQDBvVWdNZ5vB8rb+RDeIk/XJPyLJvpwpDa65101cnYv8gNHvyX8kWdk6Ih315IvMoO0Vb7kgWX7liCTBFZGPtA2HtBNAMj5EuFBHvWrO7/RTdnIBT/g2lgmdS+R647alr5chWVeE2n4KYqiKIpij10QHR0bI7p51MuOsTtgtCeSH0b7wzl9D/Iqi6bkvuT6mCcYaTqX0FNG+dQfvnNtpBV6KS+xU+QJrdgceB5puSb/EqHjftriXLmlnTOWz3nqkiKfkR80Ir/kSTlpRGix32OrS8rgwzHXpM2w6v5WZZZY5vcbH3gkZ/w48iPYZO5B+iwInRz1GfkpG7nkHnlJaI8yXoWR7piC8b66jHf1jX2Qvo+Mx2uBe3hc8oXmKAu0Q385XoLQdVQfmrFnlct4cT4m+VN2SXdJ07cEb33rW+/97p1dVc9+9rOnf/7nf5754r/wAdjtGa92VRh3jha2/WVEu0fshljVjiXUk350Po73cTyMvEqRk/OMBzBGnEfmyRdeUt7vlJPP7/gurpNHeBtlmzphpOk8v5UNP2QlaKivlE9ZR7+l/A5SR/pZ3YBm+tz9yGcsG6CBtjIpj57yaTNos/KraGwH+/Qqxyg4HyS5xS1uMV+zgp/vSRiE+aghuD+Wcx3zHGcDUP44lGmMc0JKg334RCDEX/vwYRTvuwmI+Cgkodo9YCBHIKkP/EZLPvUqi5atQP5yiKiesuoyYQi2uGaS4/DbvraKtg4xadudgC/0fAjK1iNJcCYBl7QtHQ8jj4H72oKWVznwjKdXvvKV0//8z//MMnNthDZJPi7jy8DkZQuY11DU7+Ef+wLQxGP+egqZ+jARearDwNen+iewJUsdjiYTtMeBvK496JK3/pLHgwFePcl2UONFfQa6tkDkFdnhDb94CL/GjqQvJPkl+bUDbX2SIM1SdqGtj/BDFl6FkRe98DICfbxoEx7IYruTZlEURVEciYiOYx998zd/87wAQmfbgm17Nr1Jl7I3JLqUnoydxu5Ag651nb6lo9kUdHSMXHpXvuh/YD/Q/WjGIHbfVno02AS5j5Y86hsRWnQ+4Mk5GtriT5ij45UDPLKR2CvsoSU/+Z2EjjazR7QNndDy4Ud2GFral/KB8sriVzvxoi3sQLYvebPF2FxoRD7qdK4cGuwj9TnHMxmwrVwj69hv2useGzVALwlN9Xmt2XfgOCIWvnwXQDvI1331R5arYCyw69jJeZUDb3mVg12ddjhuBuXkwTdZxa6MTxD7lazJKfabciN9x5yj455+JnN02PMZs7EbY+tKgXN9QZY+5EiufmubRdplffjGm3rwqpy6ydaRHUk+PjKqfmMTPVAXXmMDGxMjX+jGjndEG+/6F315wg9EHo74QtczhDdjTv1kYuyog0+SXe+O6Onb8DXSdg3vxqxvQ6CnH/77v/97/lOqXtnX71mUlJbAl3FmjGmH89SBPp7RtRMDLa/OkDs7PL7iN37jN85t8jxpC94zP6XtOaYdZKXNfAbPChrkSb7mA8+ZOvCuXODcGLdbXd1oyIeeNvA5zS1o5mPBZEK2qT/tc8RLeHIMXc+i8Ukm2kUO6RvjXRvxqM5RXurQJxl/xgn5mStdwzte1Je2KZ+EBtmhTaaS74ZknBg/7tvtkvIShI/tYsd/LhTTUToa85jHPGZ+x4fwRcB+67d+a96e714ehiXC7FaIYAjCx08EQXRIhAjueU1EFO41r3nNPPB1UAQJoYNn+f0ZTh/a1DkUiHw61ITrHSffcfjJn/zJuS6vnNhGJOCSQYCOAYWmzrjxjW883fzmN58nAoNRHh0s0uedPK8okImB5J5y6bSlfFzTNgrAKzL+7JCJycT+6Ec/et7alckv+QN1+8scvvWhPQIZtkEZqB7q1A36xgR429vedjYuDE55XJffRyhtKXv1q189tyWT87d8y7fM9A3E9773vfPrI74PkQc9iMzBJOGjN/56CBk///nPn98fU4bs7nWve80y9SFMO2fy0LuGRpKHSH4fzjEG5NEm/W8rmACS14GMAROi8vrMB1lNLvrSB3ZMXvhXlvzR1jaTmw+43uxmN5vb7N03Yyr1p03oAiUruWbM4D2KuiiKoih2G6IDGev3v//9Z53MHvE9MVuzs5jB1qLL2QsWelynU+l5+tiCFgeMLqaHGc10t/fNvebL2GYjAJ2qTh9hRMv1F7/4xfOfR0eL/cU+oO/dw08WZthfFnRCJ0ftAHUrS+/jB40Y1uwhtoUt5OhwfsayARrqdA8/3qVnp7B92FV41342CBuT/ZMP+6GlHL7Zlew77WEv4YWNSjbsMvJhl2k3+1J+tNku/mQ85+eHfuiHZseVDH1IkK1E1ux0zrB60NM3+iLfdkNH0haLW9qhfm3hfLApBZ8iA3Vrk3qW350YYSzgDY+Pf/zjZ0dSWefPec5zZrtZnaN9ug7u4509ij/fddB37D3tIk/J2CGj+AT6c6TtPLTY25w9fHG0OJ9x6rQZrYwjY0rbJe1VJxlwOPkM+XOh2sbO1K7Upy609e0NbnCD2XcwFtikghjGj3Z47cEuAzxz4slXWTIzBvDpL1oo/yd/8idzG9Fjm/OTjDl58R47Hi/Gnut4wn9gfJIhuvhHly+BZ2NEOQGk9Lt2o4Pnf//3f9/rW0Dkqg5yMDf8+I//+OxraINn9sQTT5znhtBKuSXcj/yCjE+JvPhI/gqkMaSNPiGQ8a5N/Bp5yU0/yqMf8YZW6o089CeH2x9w8PwJBpif3CdPfgI/g2/Fl9HulE3/6RvPGtk87nGPm+vRp/4wATmoA4wbfqGdIOYDtMg1MgHXEozQx8rrHzTIkJ/Cx+Qvql978CM44M+r8oXjS+kn49TY0jYyM871C3n4noe24YWsPBfpV5BP+zx3PoQruEK+8mmLMl7L8SdujRX5I59lP26FfdoxQXgabKXbir6JU8frLA+RxsJysKUDt8JYTieYfHS2I0GoX6PR8wCZjD2QFKUOMAmanHSe3xGKAZY/P2PgmHTdN9jQQkebHE3gJj8dP+6YAPR0Noeew01RKqNOHUw26qIcKCeDGx2T2vggOF/KCLSP0vFg5eOXBp0gAQWb4Iey8kro4VmgwYDBg7+jLFgUxSi/o3YYnN/93d89R8NNlng3mMnCg20AG7yUpAGHd3WqywNGTsq555siZD0OPvyoy8NjwhQ1JSPtMjkZL/ihCPxFFgPe4PbxGm0NLfXhFw2y1n8mXvzK76gf9T2jInTwhYbJg8HBoMGv+v/qr/5qzqc98uADn/rsgQ984MyT+66bkPWp/g6Uk9fXhU288uGbkjH2tb0oiqIodhvoOzqOjmQDMeTpxPHjl4xVtgSbgv61lZv+pWcZ19/xHd8xG//0KlpsFIYyG8GCEPuAYU+/pz66mt3BBmBbsXHofs4Jo51dxOZQN1pWJiU62QfD8cKeQC96P0EAutyKNxvKPfU6sm3xyxi3kAVssNzHV/hjL7IHfAieY8Tuk0eb5UcL35w/9XCY2Scpz6bQDuUtnsmjPfgmX221yqk82eODrSMPObJtlOEEsd3QBLTIn92kLraa8uxEslaGrJVPu+QPndjcyuGBo4QPbXHPAhWbO320hHL41C/Lj18aL+y7yMBxHdDGnz5j597lLneZ7UJ9rSyfAF32Kx7Z3tqY4AIZpo7Upz36yoKUvtNn+NRn7usT/c4xZGPiQZ+5D+gY53hgY2bRUNvIRH48yYNWvsdHdgJenGTyc18/GsMJIumvfAxS2yJHfab9bHQ0tJdtnGcAtEHfeJ4SuBFcw7d7gXGj3XwBzxVanj1jwTG+AH60D2+OkvErYDPSg/Qhn8Fzrqznm7P6ghe8YHaYtQWSN30yplxfItfIhM2PvjGkX7SHjM0t8UNdI0v9KL/nkPNt/sA7emiRXZ5fz4w+ypjLWECHf4CWOUWd+k0+fYi2Me65kVdbyQpNYyt51eU50DfGqmfcM4gfeQLP5j3vec+5TfodH/qcT4JvNMwH5i7zmLnWuev6RmApz7v7xgl+/MZvfCi/tYsf7ZnAt3t4Bc+OPNqBH3WSK79WPv3rWfOhXHwaG+Yn5fC5qh83w44DEwRDeAaZyUsjPXiYEPkzGDEsn7Qv0Aid4+hBePCDHzw/HIQsSOBhFgUUKfLgeth0OgVp8tBxHnYdQrASejrN39DVaQalB9VHIznvOtHAAIPXBIP/MTBhoONJWROz3QmiyQY1xzSBGbTUj18Di1IzSE0wBnIe5HWdRZ4mhgQm0DfZ4VUE1EPomjZJJl6DJpMG+h4aH5gRkRv7A+8Gz8Me9rBZyWdy5KxbqSALbZUv25hMToIc2qM+CthkgC7Zi7rnIVdH2mVQumZyokCUV48IbyZQ/epBQlfETpTbA0MG2qgPGT/3u9/95ofBA4zP8KsPRQvlNZF4uPBrbJhYPXTGBhr49UAbO3ngILIRMTYBeMjUD9pGlmPAAV1ykddkZeXjxBNPnMeKvtGWoiiKothtoN/pQjbHusAEve3INqFX2RwJPnDy0KDr2R7sJWXpfTTlkdg6krroa2XYC+wAOt6iFVro0vdW6thhFhPoaPcFQ+JEsBPQYpMkeGLlz44OxjTbAC9sOLxxXpRhQ7Df1M0msoJM56MVWwd/7MsY7WwAPFlMYqekjYx4NgKe7VJgwJMd+4UtyUFWnq1kJ4MdoPjJqihe2K/sD3Wy1fDNPnEkN3Ygfl3jaHAYlCVr7WLTkCv5cF7dZ8expfARexGv7FWy5nDJQ7baYmU0SbvUDZHHCGNBexzHVznYlNt5lcP12IPkJmCiz4w7dnJ2RuBLn3Gq5Nc2NrT+ZweTNag7tultbnOb2VnTt8YqGmSuz8icHb/sfzsF8pqGeowlcufYLwMT2qwu+SwCCqbwCfT9SSedNPcxucpnzJCFZ4ofowzfg3zDrz7BAwdan+hDzxe5sN3JwZFc2cr4JgeyIgPjAB28s9mND4u+xhzaxivbGl8WHMkSbc8R3vBKNmxo44jfl2czwLc+M8bQNlbVSZ7anLzL4xLL68v8xkMCE8as5DkGY8J8oE67zPFNDuRFfvxGbRt9OjK6973vPQc1jAUytJtBH5CFsSC//uNrKEcWaLtu/kpwEi19asygx182rowLPJk/0n+eP36Eeow1dB35SHwnQSh08WPHGTpoeF49n4JP6JC5+UDb3dM+MgJjT1AB34J02qWvw49y+ohszKnkgZ+MS+OPv29+Mtbl98kGvHhmyNg1Y0U/0AOekXXP9FbYcWACkxrAifdqhYcCDEJC0znyYGhfYaDrbBMKh1TnEqbXKbwGQJiZEJN0omCBSZTgTFAeTILSyQaTP1djIHsACdS2Q0cTCKEarCYMnWCAa+eqHRPumxgpNW2lOGwh0jnkQnHJr3NMyB4cA0ebDALIw7uq09xbBiaUFfjBnzL4MmgMaMnA4yibGLXP5KJtQQa7h9Nk4WGhTNAkB22nvKXIQuQMD3jXJjIlA7wluqr9HjJtZ1SoA/+AZ+W9qoEG2v5Si8kMz8aK+wlMoOOhQkPbHAUVKHvRb/xmDJgUDXw0yURQA78mdA+xeyZi4yJ9oO36joJSlwcI1E3GosYeSnyFB+1GH9JnHlqBFhOGvBQBvuQ3ZtAriqIoit0GtgQ9SN8LOLDT6FV22BiYoEMZ+HSlfPSy6wx8W9R99JweTzm6lv3CUKer2TGMa3aEOuloNl5e5aRrGfxeIWHHcB7YhWwROputwkHAJz2tLjYEm5D9xGHiKKIZ+9JuTg4znvAZmxDvHGp2JP2uDjTwoJ3q4TCzH/xmo3pNgXOkPHuDU+icvRn62iZpM8eBnNgrXsEgI3LRRrZM+NF2dg5e2D1sTraMctkBwJF0TXvZguSDJ+XR4bjg3WotW4ydFGdWH3F4yJJ9xf7Wdu1l45M3m4c80VNHbNlVdj96+tJxDEzgZzuBCWB7GWP8DXI25oyX9D1HmWzHPuP4kREb0jjEbxbQ0LKIxY7nrGk3WvEv9BVa+tk5GeHb+MQLvvUbWmgvAxPsWP1mrMhvwVBdaOgz/SsPPtxPsISDKzCBJ7Q5ffhwTx78800EsYxJ+fleZOB5kl/byYCvgR99rH/JVtsCNNmw+FYXR9OOBvWRrWScom8MaCPb/7GPfezs2Op3Y2zZ5/h0zXjU5gRZyJ+M9Uv6eV1/r8KyjOcsgQnPNFl4zvgzFmX5KxkP6jYWjBv5QB7lIP1krBjn7hnr+ijPauYP8jenSHxDi/EJTDgKTKgHPbwKCJKruQAtc5rnh3yNQb6RZ9r1PMv6mW9kp7k+1C6v7fA1jSt9Iq/AiGCC8QLq8OkBc4z+NUbxyweTz3NtjtMPnm9+Enrq5veRUeY5dWobOePRrjI8Gd9PfOIT5yCYMtrhqG2OnkXPDHkYC/uCfSt1BjysqZjSMLnD/jhmBrTkYbedxkSPtsHlS64ECCY5g0oiwBNPPHEePK4TnkgowWSyM+GjpbN0hAnIpOOBhAwine0B1SFLaKtIvCij6JEynFwKiALRbjTkQ9e9bF0iK8EACtcDm4d3uzCxCIR47UHbJANFkOGHf/iHZ6c6k7WHyu4NMsRjZOCc0jKpkQ2eycEgJzc8JRmw7sXh900OstN++ZUFD42HSxn31QHq84CZOChtg9mEacBC+hnkzXE8V54RIhkDJgbftCBX9Yz8kjHDgiKllLUT3x5MMtGvaLrnIUYv9eBD/5hAPYTGBXomfpFk9/CvHn2sD40xCpU8KHltx2/oFkVRFMVuxDrbZbweHU/H0p2ObDU2URwbdgdjnu5kvzFq2ZF+c6jo69CMzge02AEcMo43g9s15ehtBjIjnq3iOhuFvqbf2UXq5UAw2tGkwzki7AQ63n02nLKcUI4k3vHCcbRtXj30PrrsS7TiHLEhlUPLNXYqmhZl8MWBsFuVXYEGXtga8gmwsHPYXu7hQVltQ5Odwz4jG466e+y5Ecpop79m8LznPW+2u9DSJvyQlz/FyCbDo5V1MlK/36A8+4ZNk75kT3Hc3FMneSb/wYK24AGPtqOzc9UrgMQZZ89rl4R/44QzyC43RvSvwAD7XxvQ4hxbEGPzkSuZ8y+MQSBTtCRjQ3/qV2X1td3G8pDpiIxVMiErtPWtlWbOPVuUY2hnD1p4i2whxyXGPIGyxjffx3PgPHIwJo0R40ydwA5PkABvWcjTRv1pBZ39jK62SWihQS7amudLnwCenI8pyK6dYCmrAwk8a6eFT/5P5hbX8cymNyZcd83cItCin/JcCE4pL/Di+VPG86lNZESmaJOF8ccvMBbQH/sm58rZeaJ/+K/xIciE/I1d85RztAQOksezJUBAhniTDz/4dR/0A19S8CSL8HjMK0TpG+MvgQuBKc89/9Y4wDs5yWdusaPFvGSseNbcUyefx3hB128BGWMGb/Jok3M+mjlcm/YH+xyY0JAIiAAwS6iOubavQEPHcKDz0GiszhG5IVDCcFQPgRmUokfyErYBIwol8mQS8jsPJEUmWmQwEGba4r7OVmaVYOVznQISWXNuYqfMRJjwpG40JQNfQMGgxKfOxb9B5H5ktRXUqy1eHfnlX/7l6Wd+5memn/u5n5se+tCHzlF2WwjJS7SU0jchk0fqUN7RA+jdJ+02KRqIlF+iwOFbIlPKzH3tkkeb3fPbQ05BGZBka9VBu7Q/E5AHi0IgW8aGyV+92kIeGT/4yzHn+PXwCwJ52DyAFITJVqRyHAN40m94JWs8eLD0Ozp+e6gpWePJPe3DJx7QEXXNNzBM8nhVzjUJ5NfnypKj3x5wtPGKl+32aVEURVEcyVhl543Xlvfpb3YFvUtnx+7KKiqjmh0B7Ce2SmjIK8VG4ESx4+hc5dEBR7qbzYAWm4PeZ3uxV9hKaLPjlOOsMLTZD7EH1CmxLfDAGWF/oMmO4+Qqiz57Ju9ms4E5ChY28CDhN7yrX8KjevCmDrs38MRGYZc5ouueco5oscPYUhxu9gebzH10AvXhnU2CVmzB0JK0SXvRURZt7Urb5Yk8I39wLbRif6U/DhbUo8/YYexM40ZghXNvJwbe8YHn5I/9yj7nE5AbOzV2n98Wl9DS/3GmyFx5tLTLOXsTHSvw+kW/+0Yb256M0/5RTrkugGXXgLEmKGWlmqPPx0g/7QSjrPGIpkVCbTSu8CuPpD89I/LoY3wbL2SVPteP8pKJfOB66KBJxvj1nKmTA01u4SX1JeWaMQZoa+dO27oT4MvcwkfUvoxLR20RxDNmPDv44VNYNA3PeDNHkIHdSejpd+13HfQ3GhIaZEfGCV6MCdDUN2iqT34gR7IxH3n+jG1Qn3zK6R9jVV+gR/54QkObHCV+p/4xdpVL3fK4bpybm9DBp3GOlnrQi6zQMj7wKzCBRzLDJ5rai8/Iya4ltCF+v3zmMNfRRH9fsc8lMaKBgCGdr2Ea4HcEtFNojKRxOoYgKIMojXSa+sdEWAIEiYjpZA8QR1MZEwPeCJEDr9MMOnA/cK6TtGcJ9aDLsQVtVK/taXYwiDDZ1WC13m4Pr1e4ZwAqa2DrbHxsF5GlMh4qg8bRxGdyUL9JiTJ8xjOeMUfDtJkM5FGvNjlqM5kaNGgKHHj9A6/hXfJbsiskfWAg27mgnIeAwhNBJidytorgnjoD0VirAAa0vIIGQL6Qti2hPu11TMAHTKo+HIRX/I28OhdcyINELnhX1nhRt0nAdZFrPEd5uObh1U8mnWyfM75jhJCfsQPGpraRAwNEnxj78qxqT1EURVEc7aDTgZ6kL2Of0NESHRv7iH0WW0E+1x0Dv9Fh64QOoMPGgdEGosvpejYBG46+V9ZKc3ZWQOoPj3iQj8MiEOE6B1ZiU6mLXYe23+wHNprr6h15c0w9zuVh1yiPLzaF1U3vlrMf2TZ2qzpagGJPWrBjhwIbEB+pawl8p77xiCd1OfrNcVllD7sfyJeELsi7qt4DifDLnouzy07TZ6l/lDF7U99qH7tPMME9Oy2UN8bQitwsLgk8kEHkKKnXWGK3s7H5IHEQvXrDJg7kDfSjAArnzfcr2I9scrtX7HaxoAfhd7tY5vcbf8YA3nMtfeYc3/ktjzHqur52j79kvPvt+SAr8kEX8KqtbF7t8jyxecl2yc8I98g1TjeQ7SinA420Qx3O8ZA69Rk/Mnzr0zxDeUa0zTXtdY189JvAQuRI1spL5EGmnvVx/I0wdxhz7qcfQH3GT8oCH8KYBOXILu2wc8JR3zi6jl/88ePi9/itzWg6d117co3fYi7h2znG73MefzVjiSyUV1Zf8uHU67ed+l6xF6CLn2XuU6exg0f87Cv2KTChUh3rIc3A85sAMJWBsC9QFv18MIUwDSgPkMkmD4zr8gXKyZNgiQEqeuM3YRIynpQxyDIYwbUxwSjUnKvbADHBuaYOzro/mSX5hoVvYjj6iIqUzpNfh2ZyRcvvzZB68UoG/hzlr/7qr85/QvTpT3/6HBEOv+QvMi5fHh5IOyXyyMOId7sZvAbiPaaRZ3+1RDse8pCHzBOssia0ON/KqscOFQ+H695T0//kLQ8ebDN0zzVbfERv8ek+LGU+/iYb9Dyo6kdPwMfHS8kUj0nhG8+22OXhwacx5LfggQmVPAQ7tAsf7ulTvz308hgfZOtBVG+CWvqMDNVBHiZt+Uzm6sJ3+qwoiqIojmYs9aHfW9lewZjH+TJPrtHNyZMykGvqAzaBa2wCOp8t4l6cMdf9Th2hrxxjPfmAHSWY4B46ocU4Z4fGToUlX+B37CA7AeKQoMNZYMvElsw5W8dvr+3GPpbwgb+0N4ic16Uxj3ZwLiDtD5I/1x2TDjbUq3+1j/2vveTG/nQ97XBNwpOj/PpB8CI+ij5jrwoupc+UZ++xTeXzeyk39MhG/4/2rSRvIC+wBTl4+srrMcoKkHh9SV3r5LxE6h+xLJP7aXfuO0qhMabIk/0aexfPgmGxg/kSZCev71BoB9nLn+8XpJ51IH/yTr38Hv7PKLMDCXWQgZQ+DCKPsW9zbYTnVj8bC2QiWCNQ6DV8/hLfw06b9CE/IHIPrdAP0HTPtZGvZf3uSWRrbNkNlmCAhVM7ftQrKOf1JUENPpJApfmDj2NxHs+eZ/2LXsa5/vNNnXFuSeI/8WHtyjcfyS9wooxzY0JQzasg+lSgynjxVwy///u/f/6sgMVpMkvgDcb27QQ7HiGY1BEYswJtgnCNYDhwOoEw5NkXaIiOMIB1OhAEwaAL6lvCNUohD4IHj1OMH+dRHGjLo4PHgZHz/A7G39qko9ADtEXRbfu3g8A2GMkkZHu/axxyW868m+RjlCJPeEFrVTtGjLyJ9BkU3nUzQHwIRaAi9PwJT7sfDCYTDWivOiTnBpwBj16cb9vT8Bp+k/AtqdNfAzGp2iplwKPnwdVu7ddPtkWZ1NwHdXmQ5DXJ2QapjPvqT9oMBnnyUwi2aeWLwxKeR1lL3jvEr1dNElHXduPUx4DIkYyMVXJznZLHu4nUVicTk+i4SVj9ooyZsBOYQJfs8ZR2bNWfRVEURbFbEXtjHejK5Bnzrioz3odlHrTiFIxIOdeX9/ym09mrsS/ZBHE4YVU59+RhOwLbki3FHmRPxFFhV7kmwZLnVYgDAGyPvDbCnmFP5sjO4az4zS7LV/XjgOB5nbyWfKR943Vyye/cjw05YpV8DiZid5M3Hv3WZvY3hJ+MBfxK7E3Jde3Iohw7Dz12vHzsOn2bNoUGOCoL8uhf9Nim+i35YCyvjLEiyS+oMi6OJm0XYz3j+YjQXHc/15OPLL3C5Ht0VroFUx7+8IfPOz2yop6AGHte8MaObO3x7GzGv7rIOCvoYJeyhdz0xzo+9xVpF4y0V/G5qm7X8GU3le+PcNYf9ahHTY95zGOmRzziEbPj7vV59j/ZgaMy0hLq1daRJ2nkx3l+5xj5CjL4zh8fx9jRFxaRs8OBv/fIRz5y/riwcW4+4OPwa9CKv2VuUq9xb+7g8/HtnJtTMrc4umdO4a/ypZRRFj/u+7Cmb2PYYeS5EbDyRzDI6id+4iemH/zBH5x3CCnz/7N3F+D3LVd9/w+lpYXi7hLc3R1CCO7B5UIES0uLBmiapw3SltDmIQkkIZDci17c3d3d3d2py//Pa8P7dro55yu/3/d3f1fW53nm2TIza9ZaM7PWmtn77NPm1bXgmjYmCG1SYs6ujXuMhlfpbViYvBSSos9DHYsOqMdA6yAwwFvMH4P7knI5m+6hKaGPrpQMtRfW630eoMEg2pkCDk0H+ljKox71qMOjH/3ow3/6T//p7yX3H/vYxx6e8IQnbIOMUbuobpQjh7bthJncdvDsPhpAjApdue5nGa7VU2eFnWKDVR6D4QMvD3/4wzceP+VTPmVL5PjUT/3ULXkzQ57zJz3pSXd8ZMiAo2cbDgYrXZk4Jog2te8tEa8oGgsGvS+21od72Y/pmjGz8M+we53KV6rpOr3GX+dSuvYRGxtnaBuLJpHJiGcOyWYDZ+G+jQn6U57jx5/xLEDQx55IMKg2vuxQMlzq2ZRhrNuoGgwGg8Hg3o58Ol+69/dw6n4o71TdPVZ6a9vHIJ4QX5QvcF8fVB2LR0AcUV6LTnTEVAXhYju4TFAuLitmE+f40Kav3hdPFtd0r3OpDzyehWPynLqXDs7DRcpcFfBFz2IufSfF/yk+3NcXUrG/WFQ/W7tUBvSruBb29LrW5rrI07/u7cuDvvQdOw8PeyDnJ83iczFnY0PdY/WDdkrHsL+/0iNz+cfK4V3c6uHdU57ylI1Pdbz57K3kj//4jz884hGPONxyyy1bzGvBapHswWA8neLdffk2/6x3ervF5oZvblg7aKt+OQ9o0b3yZwGt6HW+p7/qwnk06cP6xFveFtkPfOADt+/3eVPCGPKWgvWuh8xifuVXZBv27a081PZaZj2Xv5bBmw/y0ru1h4e/3tiwUfJv/+2/3TYC/PzCmtQ/ZNgwYEvo2nwxVh0lsLH2aZ/2af/PGupUYmP8uwl7hCc0bMZ6g8Pb+k9+8pM3O+V7KR5wm1N+Ik9nH/IhH7KtkS5jA/e45o0JHYFpA881JXiVw+suFu6MdmXPA6GVr6wOMQgsCtEwYCQTXruVqxPBQLGAVE4+I4Q/kwCdJgc+JeW1E431uNJd+VdPx+cI5KGvLTtLBoh2DCLJedfy1SUrI7gf2McQL3t+1DVZyGMH086WMn6i4F87GEHtrbpSB994VbbdYm9B0I/y9JsMjp27rwxa8SMZ6DYmbHLQu8W7N13AucGKLqNGB6sRWPW6ovv0ZBMhfuszbeFn1esxXTsqry6oj1+bDc69yklfNk+8DWH8yUM73TLWDDfZTDSbFXYIyYiWHU1t6s90MxgMBoPBvR0X8YeVOct/rrHCeq78Wn9FeStN8YAYpDhCbAHFl3CMjnuShxdiAxAnSICOhK7FmKN44jygrawHPuIIEE9qywO/Y3GNGLJUGVjlvAgq73iqbrrY56ePOwviNfokq7hQXLv+rCOssiivL8Rq6gN9OfeAT3wnplVf33sTtnJ7kFV59MSAxhBexMfyareEpgWcN5t9jN5DOXWsjTzttsBDL9p7JAOs58ewz4+f1jZn1cencn0/wnrJGxRiejx7SGeD5fbbb98Wox7C2hxCU91TtMsT/1sfWmPoD/1l48Pbym0ynYdk0O/p7CKgh9JZSF9oe9LvjQTfdNHXvttncX7rrbcenvjEJ24Plv35gPv7+V07a3vo7q+lFfv8jvHF5hhzrq1PvKVu3eFNbZskNi5sTuojGybsR/U9LLYpxm40fq2p1jXealecr9fKrH1krKApz5rTG/uf+Zmfebjtttu2h9zaB5s5/Wul9vcyXwSX3pgAQmNS8tc37apQoB0cizebE+vkKKmLYUm+AUeZDI08CpTnd0wJRaEWkhS2Pp2OJjoU6NsPJr1zyvM6Pp5AXeVMQG8ccDD7iREtfEihc3xxaHhzDy0LcLxlBHUcWVw7rteSOmRc6a/AQ9iXcd29zg0Gxs9AxbtdK79B1CbdokdOefhnJNQz4P1Wyi6mc8aJcSaD5JwBj39l0AhoouOnD14fkkcPdkT9RtJC3uRloO2yMlLqnCdfiF/6dh9P+E2P6bbzeI5f40B9dSVG0aTz+hI+8GMDx++zjBuTlCEWYCiLd20zBsYcvfq5jDct9KG3ORjdVaa9PIPBYDAY3FNwUR+3+nk4q14++ixEb093j7Py89V8e//+4Z44R3xTvMS/iz/iSRkxgYcY4gooqBd/iOfEwBZbFrn+irBysOcped139MDIolk7Hq5pR8yBhrhGG86l4h1xbYuWNS67Kqz90Xl8a0/Cf8drgXpitFJ0jyXt0rk1gbJiTXqor+JBOff0hRhPfNtmkkWZB0quPQHXf3QuZtRnaCcfevHnWn9oU/8aJ+K/NqZAvbDyIzb2L2/ertVfPobprWa8qbPWW7HKU5n13ilU/rwyQA7jzRsC3nYXG3/GZ3zG4XGPe9z2yr7kybkFqNiYTukjPs6CNvQDPdvs0HfmibWXzRnjugfPq767ltQH9ejL9VlyXYSvUFnHYn4/3/D2NL1YU3mz4NZbb93eTPezbmta6xn9Hh/4hJUv510f48m9U/dXuuT2pwp+SkN2b+B446G+ecxjHrMdbRgZ2/qm+mSwHrK5wL6gZdzbNNDn5g5bUjI23TMXWlfR+Z5X80VZbek/60mfKPCmvb0AutS2dtSjq4uOmRXXZdE06KmynUGCU6YFnNdg+i0RRWFUUqZz911Tks0Mf6nTYjYFe/UeDQo1cTgQi8UETVgGhcHwF44ZDgOI46FEsHC3AULZJoZ2TRb0JYgvT9Crt+8UAxgthgktu2w2YlzrKLwkq3P32h2U3G/whGSprbXNFfS7L0sXdjgNCvKQ0eaAzQnGVFsGtbqu7bIZPM79Vspiv28x0H08xruja3nKaNexpK7NCTQ5Tm37SKVJwQnY4bN5gof0fEq+FfSsD+zckosDNtj1DSeOLzw1nlxrr3uutbfyi0fjgrE0pnxQhg7wLbCQR1Z16AcYZDSNa7/BMwbRZqg4ncqhPxgMBoPBPRn5uv0R1nv5+TX/LByjg8Y+Xjh2fZG2ynMUk/S2qIcyFiRiDL4exFWSGEIZr7N7kCFoF2yLFcQMYkAPvSw83Rd/in/EssWTLV6KrYqnHMUPyokz0FPfm8d4aiFejKO+WFKcg6fua2Mv915Hp3Cs3HoPXe06up8skAwX0f0poF3MJjnfJ7KKHy2wxNna9E8EvmGGH2XiLV2oo4x+pVObEH5S3FsTHip5cEmfYrq+h+Ya0HIt6QcPr8T5aNF/v7GvTahtIEu6srD1jTZt91azPiY7+mdhpQnHyq/31vN9XSjf2CaHDRnrJmNfWbrEp7nRIhyfIJ9caKh/CvLVEcOr4yP5dI82+HeZd3qnd9p+lh5NfaqO1FgoD4++Y2DdZv7FT9jL7HqfoGNQ1vwjr7WGsUIua8zeAKAXawVJnvnufE/rGC5SZg88SfRhrFlPWasaa8YhHeoXb03YKNE/8uhEnqNx52gtaK3jpxbyXNO79Y6+z7Yoqz10WkO5Jz/gyT3H8ukCTX2CF2/XWGNVToJr0cN1bUwQBnM60ev6BqJJ/9qv/drb70w8OWdgGQWdT7EU4VqHmxB+k2IR7fdXBh7l1Cn+XqdFrW8WmNDqyicsxVGSAeP1m/7WkQHz8UNlDCKd59UTRwPRAteTcm31ugol6pTeODAY9tCuTvAU/Xu+53u2exbgvnTKEaGHH3w5b3JxaGRj2LSFr4zWMawduXYw7Dub7PTz3d/93RtP2sfj/e9//01GPECD1SaCvlLHb5bwzoDjWZlkoCuDTB95LcdOZ4NY2yX95I0Ihoxu6Q9dtGxa2C01LvBJf6sssMrauTLRt/HFaaNhI8GXYPGLVv2fjpRnXAQG/XMKPmoTr/i0sWRc4FUil8ACvyYt4Bd9BsB4soNoc8zTDE7P/TbJ9jINBoPBYHBPRT5v9X3OS+dh9fXQ9Skop8y+XNfr/VM8iAX4er5f3CBu8TMKsZDX7CVlxITiIDT4esG3tyXFNWIcD0vEWzYk1BWTejgkVhUfWXR6+ioOE6doS7toihfEVNoSY6IttvHACF1lfatLPCy2FIOsNMRkymtDTCnu3Mt+CmflHQNdiAPxAOInC2syuifJp6PL0I5fsqtH3x4i0uea6NV9+fRmI8Fv2vt5LR32hLuEN3oWp3ngKW6lLzGvzQi61C66NgzQQttPDOjTegYdsqFF3/pYTCn+VFfs54Gb9ULx3yr/ei6ffvzk2pixBvLWrQ9MimPRP0t3e9pw7B7Qa2nFWlafyncEeclq3PlXBusfay1/ze9Ij9Zfxj9dtHg9D2iaL+bFV3zFV9zx4M9GENo+Jtk/StCLfqMPcbW+d7+HrBbU/qLSWgrPx2RNzu6t+Wu5gD/3tUsfjUfn+q0yxh++yO0bFMYcPRxDbR5rL6z9sZ6Da2066pf6ycaJNyfe/d3fffsHDOs2Y6h1nrFpzONT39Q+fRvn7Bxa+PcWhnUOncsnv/LZOmX8E4uNo3QkefvIz3DoxhxR3zxSDz22gV7kW2M5N0+1sZfzPDz1fe5zn0f83fmlgWmT3qaDnRm7yowpZiwMPY3HrHsMhGRwU6JdMwOeUhlwBo7xsJBtdwpdg1MdHUNRhKUESTtocgI2OEx0dHwEhCFo8FCK+3be0EA/A6sdr2gx8N7yaJOB4hkpyscTRbtGS0foTBshnItEXrrAp6PXYgxgE8tAIq/Xlyy08WLCrp2+wgAiO/0ZeBlKu669qVFd/JABPxbQeKcHMuKBw2QQbAQpZyAZKN4UkE8f9I8WXaNrM8mbCQYovdKvOvSgPfLFJ+BVP7SjTAd4thnkNSM0m/SrvGiS0UaWMjYHOGiy6Dv3GIN0bRyRjWEDOtSe/jNhjCU7q3QNNpDoDWqT/GRDj9xkZgS9juQNCHraTyQ6MgaNOXrlzHz4xS6h67XsYDAYDAb3VORL+U8LZDEHn+kBgtfB+VwxgiP/bcHjYZAYwNM7GwJiKPFIMUExTD8HFUtaEHiQYkFarOFBgjiN3xYv/MiP/MhWTj5aElqCc/yJYcRmeBFbiIXwJrbgv8US/Lv2tI0OPsUV4g11LUoF6gJzC2a/6/YQCI1iTDFQMap40CJBO3hBD78WpHRhsYem2NIiFx0yiD2UUV9b+BdfiPck98Uu6qIhziGXOIcO0cBzDwTpWMxoUaK+MumHri1iLMZbcFq4W3CL3ehBeXE9HYrT6MQ9b3aIhcSQ+LWQXBdDe2gPb9rw1inZipnIJE4Wj0nWBhafknObOO5b3IrT9Lk+Ecvru/RMx3RFbuX1l59M6FMyeKOYfHjBB171mXWA8esotoyWMuq6R0cW0miTw4PYvuumPD3iRZysDN1aDPaTb3EqnekHbeGZDGC+0Lf2zCEymCviafeMf/MKHdfakifWNd7Q1Fb6rQ8c9Yl+t+lCDnyJ4Y25ypifeKZP6xNH+qN3fHgYZ46bc/rJPFGPTumyfjwF+XSk3/BIbu0YS9oiizFgrBvbpR6Iiue1bbxZ+1gj0ise6M24ND7JyU6Y4+bVXhfmCRo2s/Q1PdKbNZP1GH7oSZ4+sE6gp9Z6eDR3fYPC2ERfYs+sNclE3+paz5BTu+yEtWP2KX6cm/f4p2fts03416by9KUsvdMP3dONeadPJP2DH31mHrMh5iN5wdijN/TYTvaB3vGJtjGkbWPSGirbYiybHzZL6VnbNkXc1wbe6cX4oXt8qEce+rcGpz9j5FpwXRsTBGuiexJtYFAEYQmuszBqt1nSsQRgOA08wupMk9NfPPotlg5TlyIlA5pimjwGKQXqLB1kMDHQjAjjZUfV7pyBpz4FmhgGHyXqAIOPIdGh6KDJGTJA2r/99ts348ToomOwtDEB+GNoDByLe22TEy1HBtUOIzklRoFDQ8PGhA7Fk7bocA86NbjQMjGVwQcnwyBon1wr1MGTwWSQ9nsh7RQskEmbeDH45eOdnNqS6EQ/0YW3UOhKm4y617HwQq/QOdqMqj7W9+7hhTPwkwcDWbshmclAZwa7c2PIh2XoxzgC40O/OjIOOef0bQwwTGhkdLTtZ0Bet0O39jrSAzmNT/dMIMZFPfoK5KAn/U4247zx6oMzYFLv+2IwGAwGg3si+Ez+nP8UVFtsuRbE8rv5b3GBmEts1caEGGh92hycqyfO42v5cTGbjQcxoDYlfr+NCfEmWhasfHUxBlraFt9oG3/8dpscyvHleFBXeWUtJsRO4jdHgb/4TWwhXrQI9LNlf8unLhrREp/19J0MYluLLosFD2yiJV6VJwazSLQYSQ9+J05merV4F9+oL4mXxTkWDsU5Fk9o0DsexKMWHsrggQ7amKD7dKQ9cQ2eLf7amBDf2TRqYwLwiV96F9uJK8WL4ifxIbno1GJRnWKsFWjTs9jKxkTjRSyury3kJHqW6Ejq3JrBv8/hRXyLlkWmPhEL6iuLLv0mdqVn400ZY8ciqbgS6jM6aIGNFr6sLciKFhp0LZGbHv37gYdtFl/GOHnREZcqJ5421ix6xbPpg/6ND+NG3ypnEwsv4ls02pggr7FDX8asOBbwqY/bmMCThbWfStAJmWrPUf+LT1uDuDZe9Je2AE3rKmMAbTw74ksZfYp344p+/ORF+zb1yKPcsT4P8ht35CA/uchpXYCucW5so00u/NKlPpCPH2PTv1NYPxmf2qRndelLjG4M6ud0oU3QPtmN3+aGsaCsOvox22NsK6dv2AM8GKPWmB4S0wUdKmt82ZiwdsUnvvBhzNIVHvWNNRA9pyvJmsF1susnY7UHs/LxZY7K11Z9Q+7GC1raxqux20+S9DFbQtddo2ecsh3abTNDHTpkC8w5ttVYJ6cjfoxZujMn1KMndc1/feYNL3YZX80R59eK696Y6KjzDVSG1qBtsUYoeQaiTqUoirXwNiEJ3w4kRSqjw+pEhsiOoQ6iMPVzIpTlns6ycGaAOA58oNOiVEKPETIQTVIwWHQSo+Rcx3sS7rcy7mmjNyZ0LBnQQdegICsZ1DURJAPWxEWX3PFv8HJo+zceVqAN6GnX5LDBYTKj41UweiObSQDJl4z4TC4waOlVQIA/PBkwJpSFuAnhniMHZMAxmvHujQuLdoa2vqxvSvpTnsloAuGdAcmAp7egDtAho2jyk5E+BRro1Q7oe3n4IZuEpv7Rpr4y6Yw7mwb49QYEOY2XkI7ojkNjgOjTmxLka8yC9gEvldem/rMLSj5tor/KNhgMBoPBPRX5Uf5TMGwhLcYQg4l1LALEGvymZBErrnDu6b7NC76ZH8938rfq8eW9eSleEw8UYwF/Ly5y7YGCJ6hijJUW/vhyCzcBuKMy/LxAuzJ45P/RkS+u0i55tCO+dC2PXOIKMY34Er/pQVuuxR9iSHGN2AB9sWoPw9yzaCK/eLCYCu+SONYiRnvKoo8ndfFjUaEcvYhz8OJBXLy3qdFCzcaFWKV4GD3Aa3GNhTz+9IfFn3jP/fSJj+Jy/S0G0kfaEZfRHV5sqqBfGyvQUlZdGxB04lqb4j7nXUtdl7QvJidP48KCXF38uSdmFUuKv/FKz/jykNLPum1qwDpG6EH/i421I5Zrw0Pfi4frf5s/+swGSXFotOjSGLN5REZ8WvTiUTnjw9F4EHPTL/3hU1t0p6xy5DGn2uAw/um4MWaM6C8P5Fxbz9i8w+M+1tWONiwerZPopJ8vmWt48CZIb958zdd8zbZ+EtuaV+jaTKAf4zr9aB9t41i9s4DH5McTOcmDF1BfPt2g3drIvGhu2lwz9/CkPFqgHFtAX84t7MlnvNQ/9TN+bYRYhBvHbeqRi47oWr/Sv3xlLbwtwtHXT2L/L/mSL9nGARulTD/rp9/mvXFg3aVPzHFrMjwAfiS8SeY12whkxT8ZldfHfq6hfbbLOhnP9GC9bGzoG+OHvvBAh3TivjFLNrqQjz65u0dOa2FjnXz41z948BmFNoGUxZM88hnj5LPOtRmBf/eNbfPUOKKr+uBa8FT3ve99r63m34CCA0W6pgDnJrWFo0QIwhg8hNdhnA0DQwCG08BUXxkgEMFAHZPCriglUCKlKs+goGWAmKTKopVCGgANBgOQMhkxxoSRZAzRMLB1KODbAMODjpKnQ/EnkTHaHIfyJjrDiLcGukFj8KOvc1vISg3WPdw3uQxahhzUNRg5P4OAnGRKrqAcuTgnjgwMKANaHWXXAUMP+oohxL9+QoNRyGBKtaee4x546k0GYND2b1isfDpHU3/iVRk6amLikZ7X9hxNJIbRGKB3/BoDDB09xzP9N35WoKeOMWAC0zNebXykn718+l1wxUDk8LR1rOxgMBgMBvdk8H2CYIG72IfvtKjmS/ljvtc9ga0HDwJ5MYLg2AaGmKsYCpzz+2IWiwexiEWYxQ9/XszCZ2tTjCXeE6Tz4eoXO/LJzsVByooX8IKWOvntfLdYgY8Xi6AvXiWbNi1+xSX4LoZTL747Ro+8FgjiKgE/Wi221nhQ7KtsPAAZ8ClGxLO4TH2xjkUQnQn+8UEnYjQ0AK/0QG+e8KqHd3GfsmLi9B2f5FaW3O6JgcQ2ZEyf7qsjPrRQIhddoW2Bq88d4+MY8GZMiLs8TRYj11fp7xS0b01hA4a8dNPYolcbT3gSx7fGwL91hYWZuD2Zk0eC7tOrPhNvtylgrIK1ivWJPpPIoY66El7o0VjzNNn4Rc+iHg/pXHIO+BZ/il/Vp0NzAt/kE0OLpfWZMVtsqj5+zDf9ho5xpC1xqfIr9Amd4EvcjIb5Qid04Qm57xboj9tvv/3w+Z//+Vu/kk9dZWzM0AU64nTljReLYn+fibfzkL4cJfoyno1vbeON/rVFRjomp3FrvljYu1efpE90WhzjT1kLePNg3yZ5tNlGnDJk0Kf1C5g/7E+bUmho2xjHR7x4S4Ae2BNvRegL+tWf9CQPfz3Udn8FuvRrzLGNxi9aNgbJbUx/8Ad/8DZf3PN3pTZHyaFuc5RMdMdG6BtvPJif/l3FX7y6r6yxUR06M4aMVeOWXo1Z45ycxi07A+kvfesr9VuDs5Potv6y5mO30VRHuhZc18YEYLpjjFA4QXUUwSmjwUIQ9xkbAlGiTlMnOpLrBkzXDU6DQF5tags9dNx3lAd7xbhWlgHQWY7KooEf9NHIECjTJI2feAX31EsWKTrRRUs71Y+nro8h/kG59HoWlFFWe+prE+KRHOlIfroAfNcmmQ1CvLvXIIOVrz2UyTjiwbX2qtsR9vQcldVuetnXUyY5GCLyqQPxqy4eHNf2gnvJry5aeI1OUC591/fac36M7mAwGAwG9ybkqwP/mN8sz1FafSoc86P8cmWd7+vw09Hlt4t1oDrgWArya3OtA+IAMYTYQSxUm9oTI8kvhlvbWdF9PKElbqqO++6h5Vw7exorXeVcFx+jIYl/inOKMUPnjvG59scxoK0cqEdOWO8BGsVV5HOOl2Knlc4eK1+ScqfK7lEdfEUHL/hItmJ2ZeIFbxL9V+8Y8CEfHf1D3+i5Tib6dnStbLx3jL4jPoBeVshLV2i7pkPXoG33Q23D2o4yteH+qgeIl/21ctWz+WBR+eAHP3jbnDDWHvnIR25vllhwru05bzxb0D/sYQ/bHth6SPr4xz9+W8QqU51TiFb8O2/tYXHtXhuMbTC1dmoewdqOPOXToTYaJ5Vbz6Hy7qkfjfhqDGlTHugnvCnTnHOunDrRiGbzRLnacL5CWSlarS2MPxsR+uUTPuETto2bL/zCL9z+GrSxqS/WuYhnGwMPechDtu9A4MvGhHo2WswDWMsDeujUNn23xnY/pD+8Zr/00Sq7o3bSyfXiun7KEVald27zICUSVsdSCAUQguAJ594xrHSBIoEC0EMXTTS0Bers663QVoOLkk3S+Kkzqq9D0F87Zg95Ojbeolnny2tSaXulcRafAW/pTFs6/lQ995UhB53gQYqGe1LlJLrAn3IGpuRcmQauctE/BvnoOtYWuBeiEdAqf60D8Rdc1zZ+JeXjN93gN12fwkq7dun0LKQzelF+5WcwGAwGg3sj+MP8b3519Y/uVSbfeR6UrXxAR1339jFN2NOu7cqv+fEa0BE7uC++FFuK5VwXw6lfvWNydE/MtNJCRxwsvzjzWH1wX1JfOfy3YCADPtc4RxvVUda1Ywvds/gFZdCt3jGoK0aSjw9JeTycFzuF+NNWyfV5Kd6ScQX90IcydCTuJrdr9+XDKdmhPEfyaJN86Ok71/UFpE9Y6bovJReUX17XaFVWG8YnVOYUHXCvfGmlC2ubED31lHetPfrx7QJvoTv3025PvBs3knKScwtc5b1xYCPBWwK+fyHvotB2/GnT+o8utEHf1nT1H57p3VhX1vVeVuh+PFfmVNnKldAuD1rHGQMrP+5bdygXbXx3HR1AN73Bno8Qn8p1JLM3F7w14+Ot/ZTIzyrwgxe0HTvHlzc0fPDVmxb60c+8bBqhF3+O2lSe3snGNknGobncmvwUz/SgnLbVyy4BurVzvbiSjQnYC4JZDBKCcrwpYbOCQjJmdcgprDSVS7GEpwR0V1ohmpVf4bp8vKCDhnsrP9Wt/p7OCmUrjyY58VadNX/FWTRh5WFN7p/Cmu+crhpo0orKSsrguUG75lX2FMpzXNNFUNl4PIXKxU/8NgaqW37HU7hom4BW5c+rMxgMBoPBvQF8Yf53nyB/eRm/Wdm1fOfRKp1HUz7+lD2GtT4/r6yYQoDewqk8UP68NpUtZlC/hIfyjmGlWzzr3hqXQTRqY8/PZfVTuVNlu++YboqZu38R1MbKn4TWWUmZFfv24kvc3cIpXJS39Kmt9O1Y2+v6YsVK3/maurfvq/U8HVS2o3td77HWqy6s5bUB7qXDyrpnQettdj8jsOngpz/y1aNHyQaEnxh4fd9PCvpwqZ9v+I6ABfQpvZzCymPrLffo2hrRQtw4x3MynIJ6JbxHu3t7VK6ylVl1FT94aDOiebfOSWmltdIor3NpjzWvcQ7oqEv/fj7ujQl9oK+sqZWnI/neetFHfYvCppEyvsfhJyQ2HqD2ay85tEnvtS/vmM6rB6uc9MIWNE/2OrgeXPdPOfbAEAZXAdfrGD7G+FoHCBvWCbCWO08BK40QrT1PIRkui+o4onEtvK1AZ50M55W/Xmgv3uE8/k9hpXFRnFdH/jHs+V3LXSv/e6xtnMfnYDAYDAb3JlzEL17Gd97Zfnbflvah+11fBvs61yLPRWicR/c83ldZnR9rszbKX+9dBsdoXwVWvuB66F4Lj7UfD6UQzcvwFa1jOCsP9ovooJ51hAWsDYl3fud33v6Bz8aEJ+y+X+IDiZ6EW6xaBFsA25Bw7nsJ/j3Rh/h7m+B6kW5WHZ0l2x5rvbOw10PY179efkDdtd7a3ikoI9G7/vPPJP6C03dyXPs2iM2g3pywcWJTQN/4No5vsHiT5bbbbtveQGkMnMKep8vKCNo4Sz8XkfsYrnxj4npwlqKuWcAjCjuPljrX2t5lcKozV6x8XKT8PRVn9cepcXJv1tdgMBgMBoOL4ax44c6IB68HV8X7sbITR10MZ8We8u5MPcbLqTZtTthY8IFWH2v0wUeLW28tWPD2loDX9f1ExscQfaTTP1D4qKhX/2vjvLbuSojHta9uNLR50fYqZ8Hv3FsT/qbTmy0+yOkNid5usDlhA8lHdf0Ux4dSffvDxzP1Y5sGNxPXqucr25g4poA7s/MH9z40vm725BsMBoPBYDC4mdjHQmsMLm9i8kForHgC37/d+MlAPxGw8LXo9VerFrvelvA2hU0LGxs9kW9M3eg3uu8toFebD32bxpsqfq7hOxJ+1uGarm0Y+eilf2bx0w3/hgF+XlHf3Gxcq72ZjYnBYDAYDAaDweBujNmYGFwGxoTX/i10vSkR1jcmbFAYN8p2P+zH1+DqoE/oXh+s34JwX+rjrM69OVEZfeLeXQHXam9mY2IwGAwGg8FgMLgbYx+H7xeOE5MP9mgxK1noHhsjFro2JSyUlZlNiBsL+k3Pq97Xvilf/+37Rro7z/V592YwuAcjh3N3NlKDwWAwGAwGg6vFuuhtobs+mXcO/T2mMoMbi1XPq97rG8lmxKm+cX53xmxMDAaDwWAwGAwGd2OctSC5uy9WBncOjJN1rMy4ueugvtn30T0NV7IxMTtog8HNx2qoMlzmZmkwGAwGg8E9F/n+NR4YDAb3LNyTY/or2ZjICO5/A3NnYjXE6/lgcE+Hsd7c28+B9X55p8DQeXVvNjEGg8FgMPhbtLl/T/SPySXBeXHCYDAY3Ehc98ZERs3vXXwV9GYYbW1q/2me5mm2Y2kwuDegQMI8NAclc6Hk+iJBh00Mf0/U79UGg8FgMLi3g2/0W3zpnoa9bPe0jZfBYHD3wnX9K0eLF4bNX5o4+ssZybn8G2nk0LfgcvRfvNq0CMvA+i/eG83DYHBXgQ2F5uEKc8RHcvy/sfN9vvlhnvjbKP+NbP5WdubOYDAYDO6t4AP9NZ9N+/1H5+4JEDeImcnZQwzxwGAwGNwMXPfGBIPGmFnQ+C/VZ33WZ90Mt/sZt3Vz4JjBu57Fj3YkCzLO4tme7dm2cxsVNiYyuHdn4F9qQen83uA49nKv42jwt6ATGwqO3o4QQEGBk/vuORZ0PO3TPu0deenTRsR97nOfLc+c+fVf//XDH/zBH9yxyTh6HwwGg8G9BXxePvIFX/AFD8/7vM+7+c/f/M3fPPzO7/zOPSK2JM+LvdiLHZ7jOZ5jixPI9od/+Ieb3IPBYHAzcF0bE8CAvdqrvdrhpV/6pbcd5T/6oz86fN/3fd+2UWGDotfCGcDK73Etxr066L7US73U4WVf9mUPz/zMz3x4hmd4ho2P3//93z985Vd+5bZouzuDvjhAerSwXH+ick92HmTTjxbFFsf623nj6N4Mukgfjk//9E9/eM7nfM7Di7/4i29H+mqcKGMu2mT4tV/7tcNv/dZvbdfRkIwv9R70oAdt89jcefKTn3z41m/91sMLvMALbBt9o/fBYDAY3FvA5/Gf/OO7v/u7H97szd5su//VX/3Vh6/92q/dYsu765sT+X0PJD7gAz7g8Oqv/uqHP//zPz986Zd+6eF7v/d774gt7skx5mAwuGviqe9zn/s84u/OLwUGi1FmvN/4jd/48E7v9E6HV3qlV9oWRD/4gz94+Mu//MvtCW67yhJ0vqbLQh2Gk1F9vdd7vcO7vdu7Hd7ojd7o8Aqv8ArbQuq5n/u5tye/3/md37kt6K+ljbsK6NNO/fM8z/NsC/V7wyLR2DJ2nu/5nu/wXM/1XJvcvQlwd+7Lq0Bj37j2dtDLvdzLHe5///sf3vzN3/zw2q/92tsm4cu//MtvGwzSy7zMy2xlnL/kS77kNo7+6q/+aktoGEvm6DM+4zMe7nvf+x5e9EVfdLsWnPzET/zEHePu3q73wWAwGNx7wOeJRcQe+VZv4f7yL//y4Wd/9mc3v8h/KnN384/4bWPifve73/Zgjyw/93M/tz3AaGNiMBgM7mxc1wo3w82gtUnB0AHDFpQ7K10GlbdAt9iyIWLh5dqbGl/1VV91+Jqv+ZrD13/912/3AI93N5AT316xe4d3eIfDLbfccniJl3iJzUmWd3eU6yLgMG0uvdd7vdeWbMy0MXFvRn1OPzZs3uqt3urw3u/93tumhE05Y8XPqbxmKrj41V/91cNv//Zvbz9rsolhw+It3/ItD+/zPu+zbeStG4freOq868FgMBgM7o3gB21C8JX3FJ+YHKvvF7M7uicNBoPBzcA1b0zsDZcn+zYmYG/YrtLIZUD9rMGbGn4f55W67//+7z/8h//wHw5PetKTDl/yJV9y+K7v+q5rciSXLX8j0QLUmyg2YZ792Z/9Dv4cpZvlQK5XT6fqk8dC2hP813iN19ie4K/fCrnedi+DU21dCw9XxTc9PP/zP//hHd/xHQ9v8zZvs70FYTPQTzW8XuonGLfddtvh1ltv3Y6f8zmfs51/xVd8xeE3fuM3trKe/HjTyFtFPfWBNhfpeZ3LV4k7s//uLrjKcTYYDAaDv8VV2ND8oeNV+8M7A6sO9vpIpjUpM77n5mGv+4v2xfTZ4J6C635jAkyIjBp03GMt0+4sMPr7BMcmWm1ZsL/Ii7zIVtZv477xG7/x8Iu/+Ivb7+f/7M/+7I7Xz0sr3bDeL7kHtQNrOef762N8roiW8i3+Ond/RbTctwh9pmd6pm1hDuvCMXqw0oi2e2itbe9T6Dp+zpInWm1ErW3vsW97Pd/Lrmx53o5A38K5N2+q67jWg5WudB6USZcroh0dZSB9rPf3/O+x0nFeHdeXRXpU3+aUtx787MLY+Ou//uvttVKbcY9//OO3jQhvC337t3/74du+7dsO3/AN33D4vM/7vMPjHve4wxOf+MTtuxG/8iu/cviZn/mZba7Y4INjsmh37ZfSKnu6OQXlpLXueoRTNJK5cmGlt57DWfyUt9aRtLHKdBnsaZUuSku5ZNzXvxZ+BoPB4M7Gagf35+zuKbtc3rH6x2z/Hsqe5SNW2+retaK6ezlqp+NF21nprHXXdBE6FwFa6WHVB6R7OKu9+gmqv6bz6kJtr2Wdrzx1fhHEe3XXVBsr36dQ/lm0zqJRPcfahWP0yo+vNVV+1UdJ/llQV8ys7srDMax8nVd25WFN59UbDK4HF7MAl0CDtom0DmCbBd5u8Nt2aJBbgLtnQSop10SFlYZzNHzo0kf/lPN7+R/90R/dXmV/uqd7um2xJa2TOfoWumhIzrUtyTv204/aVlZ+r/RVfl047+FeMu7rO6KBr8qt7YLvdPiYpwUoKKfMWq5rSRvoSuiuZV3X5poPju6X1/1TSH404Jjs0H3lVvprvVJwbkPCxpM+zEjjiXwdg+v4QXvNW1E7yitXiuZaBr14BPnuu6dO/beW2aN24iv51amdy0Cb9OEjVTYlnuVZnmX72caP//iPHz73cz9324wwD8yJdNbRxzCNve/+7u8+fP7nf/72JoVNC/xwZsm/An/qS3hW31FSDz/KrLrbw73GfnpIf9GQf0oX8ld7Acqil07xFa3yzwJ+lVUfXefJJakvHdPJMajTvJY6v0j9ZN/TcL3mDwaDwV0Rq51jt7JhbLKULdvbMfWk7meH9/Wz67Wzp5NvUTdfLuUj3EdjpXUZrO0es8WrL1p5PlX+GNBIdvX5PP7gWvhdoX0+BNBHuzbQ1275F0EyrbyW3FvL7EEWdSTtxpvz6/GfyqFdPydnfRBWvhojpbDymFz1g7qV7Ri9ZFBeXm05j050VxrqSaB87VcmeVyfFQvIV64UzT1WuvGrPMRzbYgLnctf+XeePtbyg8FV4po3JtaBuZ80TTpw37VB7W+IvHLuKW+/bzdBvPHAGHvN/C/+4i+2fwVwHc1oOZoo3oiwYPe6P6D9u7/7u9sTYIu1JlH1nf/Jn/zJ1r723G/COeIF/viP/3i7J7+kzXhEwz2bH/jzDySOTfg93JeUscnwe7/3e5t8aNCBbwGgiWft1CZo00LT2xIWlkAOP3OQp46jeiWypD/tRUtZ13ihN+XKdw8dsuAP/Qz+MaiLZ2X/9E//dLteeS9Z0LqvbXp1pDfltYXP6jZ+nJNROR9djJb7+oUe8ZrcgE8861t047+6pYCOcsYhHtRfZUWX3uUbZ/Lc07b7xmzj1JhYaYO2oX/CUI6RV881nZER3f28OYVo+ucMP8GwAYee8ePnG362hD9jhe6MZ23ayHDunjwbPur4sCUdxBdejvHhHl7JabyS23V6Vnev65BOlVGW7rSHF+WMIeMCvbD2A5CpftAH8tEzltxzbpzRceP7LGhXnfoGje6rr28aX9pe59hePsC7tpsHrtGU9mMUolHCC70Yu3Tknmu60b6xWtuDwWBwVwK7lG/KlrGZxSvsIL+Rn99jrcv+scHK8lvKs4Nosp/KOq423j31xDvZYLTYYTZe24Ae2pL8PZ3LINsd79rQNn4lMmtn9WvHUH180Jk66NIdmnxC+rgs0MxnpFs+G390gT7dOh7jc6+b5MULv1RdvLovPtBP8aqdlYYy9WcxtnvK8JN4Q1d8QGY6RCsaK631HE26U38dd/oj2aTGhDZWuoCP+KMnsriuH/LFaNDDMV7WWE85QM81WcRd4rDiC9AGevVT5ZVBV6yFB/ykj8rXrqNrddUzD4wbskZ3RfXoSj/gmb7Vl+Q7QjpTTt8CfaCPn3QCx9oaDK4H1/x3oQZjCxsfKPR3SuAJ7id90idtGwWe9BvoyniS6x8CLEy8Su737hYVfi/v3xcsup71WZ91W/CaMAyCRVSTCQ2T1c83TApfSdauyYvWwx/+8K0N18oq468RTS4fUvSNBhPsl37pl7Y2PJF/4Rd+4cMLvdALbU+f1fGxQD8HMfFaWDMg+LJQJg9+GRrG0KSVyKN+DhXPJfXxoi00fITQwpLByZj572jGjXzqkMO5uu/7vu+7PSHHu+8EfPM3f/O2IaM9Ro5Byrjgy9eVHen/13/91zfdabf21WVcvMrv69IMJh34wCQajBu9o619wFPGx5sq+sBCF090Rgb6Cuqpg0f//61/1SM340bunICPM2rLWCJ3b4i8y7u8y+EN3uANNv1+wRd8wTau2kDSp/SPFr78E4s2tIu2/jhmLMmHPv71OTq+Qo0WfeNXvu9auDZ+JPXo5z73uc82bujQGDJW6CqnAWiQQ3kya0cdzljZHIjxTWagq7OgffR97PL93u/9Nv3QnQ+9fuEXfuGmB/xeFLWHZv2E34/6qI/aPqJJ5kc96lEb/Td8wzfcxiwZ/IzEWDN+9IvxRXZ9v9LEr2v9QZ/mtrGnj8zPNZjUliNdpEP19Q2efEMDf/rUPDEX0TGW0DQmmov6xBFO6dTcIIf6aDmCesaiuc9xaxONeFn72D2gFzzqYzIqr18k8hmLxja7IE/9aID72i/pV3MKD/RsDq/jZDAYDO4qYNMkNpUdZA/ZVondY1PZM36PbWZTV1/hyEfwp2I0NpAt5TPUZ/v4GnYZnepkR8VVYhexjXPxjDrsKN+AJ0f2Ex32lF1mn9nw4ptTkI9nvDzkIQ/ZPkKuXT+bFJOA9snL/isvFso3Oo/XdNU1uqBuuqMDfpwM+MSzo/aj4XgRxDv/KGalW0dxG7p08Au/8Atb7PCwhz1se+DBj3qb8pu+6Zu2umjk61yL3cVa9FtMwC/il79K//iEeFWGbHSlL8Trxmj46iYAANhcSURBVINYAA280YG4ie/DE/3hh++Nh4AvbRhL6qmvn/lzuhJPpEOxhjbxIM8RvfojkAcN/eGINjr40Z/iXLwU55INLXGdeFKc656YUHmyGBN0bnyqJ4bxT2di/bV9dOr/1hr6Sb6Yh670mfEUyIAm+bRlfSPeBG3oX/nreKlN/IihzFu0jQM8KCtFm14b281pfGhT36hbbLLvo8HgenBDNiY+8RM/cRu0DJgBy2m8+Iu/+OGRj3zkds+C5ylPecrhVV7lVbZ/FJDHGZkMJk5G8+u+7uu2n2hoi2MyUT7iIz5ic2QmrgmGB4ZMeedNLMbPb+61/aZv+qaHhz70oZtBeMITnrA5lg/5kA85vNZrvdZmLBlIxo4he/SjH73JYNJaOLzqq77q9vq8BZLJydA3CRkl7fq+xfd8z/dsE1ednI4jI8Pok9WHOtGNR4bO4uVHfuRHttfsLZLRV/51X/d1NznJyGgpm7NSJj1xIj/wAz+wXTOC//Jf/svNUPqr1M/4jM/YDL/+sSnEgClHJ+p9yqd8yibTO7/zOx/e9V3fdZPHE3iv+2svByB1zgBy0tqwyfPpn/7p25HuydRRP/sXCJsqdIdnNIARzHn75sGP/diPbQ7g7d/+7e/4Sy70GUQ6ZZwZZfXpjtOxSfNTP/VTmyMXMDzgAQ/YaNu4+bRP+7SjC3XtvtRLvdThgz/4g7fNBwEPHfz0T//0xq8FqX8+edCDHrTl0+Fnf/Znb3rFm39/MU7xgC///uJjk5Dc+tdi3qYKGVY+jAf9/UM/9EOH7/iO79icXaBbdFd0L4cogPDBV3Tw/JjHPGajYfwqe1HUTnXQ4+A/8iM/ctuYoG9jB226MD+NQSCjceJfP+ja2DP/Gh/R1t/Guw+Y0jnHTRfKaQ8d/ehtD3QEryBfnvHgWxof/dEfvQUIAkF/Q0y35od5S9fK61fzwjjybQ1zEo14Atfmgn4hI94EWpWR0CCXcZAcxp12f/Inf/IO+6Rd4+P1X//1tw/TmkP1v3rq/PzP//zWzz7Ki399JK8kAKcb81ywZ24CfrRPHzYP6YctM95qfzAYDG4m2DB2nK/uY8r8hMVRcRi7zPaJD7ylxz7nx4E94xvYQbGCWImddD/6Nq7FVuIEGwvqSvL5Uv8w5eENf8FXK8+mitn4nN7QQ0t98SRaymX3T0E7bLqFmJjBB6ddf+mXfukWG4gH/LuVdtb4Bl/svrhQm9rXjrrgGvggvL7yK7/y5n/5R2XQ0SZfxPd8y7d8y6bHNrhPIbrqk5dPeZ3XeZ3NT/FXruXpFzGguBOf/CwexGTrxkT+RhKL4VU8TF606megf7EAXsWxUB5Z8PEBH/ABmw/+4i/+4q2NV3zFV9x4MwbEVdrBH//3wz/8wxst38/Ca3KjiTdrATE1now741CecvgSK9soEfPnm8VR6IobteEenYqxxQV0YMGuL4vlldMP4gr+XMytDW0p49r4e7d3e7eNnm95of8mb/Im25zwMAs9yZroEY94xMYbKO8+fXrQSrf04x7dg1hLPXNHLEAm9QB/4gSx0Md//MdvMT7erAHEDvW38vh11PfWam/3dm+3xS10bM1DzuSmL3p9zdd8zY2mOa0ttOTraxsw1izWSuK/88bmYHAZPPXfTJxH/N35pWCgmzwGu0CfYwGTzoC1kdCizORi2N76rd96czyuLbr9qwCjYPfNBOO0TA6LRIs6O4gciIkJ8hgyxkMZxgjwYtKgzRFJjCE+8Mfw2YSQjx580Ad90Na2iWqymVQmJ6fFQFt8eEJtAlt8oBmf+FGPMcWLRG6Tlcxo4Qd/b/EWb3F4j/d4j834MJIWewyd8nhjHLzlwNharKrH0TPkDAI9MRTRZADwgj/yWNwzVmC31SYMmmTBr/Y5T31FTjTwbvHGkeCRfIwyPQoi7LjuIQ8P+pEuOYYWbfSFLjD++NZui3ltr7rDB14ZbfQYNoYU74whvZJbf4O2yY1XxhYfyqPnvjY4Ke1YVOv36q6gY4afw8C/dgUYAgk6xXsOWJBET4ywzTMLYm3pQ/1mDFuschj6AU9okts4N7bMAfxYWNoEQQ9djlQf0YmxgG6OaAW5JcC3+ZK+8G0TiU7wU7lrAd7pnNzaoQf09LOxKCii6xyQuUcOwZQnJcYSGvLwQhZBhw0jesMzvVn4G/fmpnnifkGduUNfztFQ3rx9szd7szv0QKccvrGjzyTloiVfP5pj+HWOL8lGAFrGpDYFFDYPzB086RvyCBaNS/aHLvRtb3iZh/gzRgWpAmptsynmjbmIrrFrA087dEk29BsnxjA7hoaxYK4aJxKZjFO8yDOv0E7319vXg8FgcD3I/vBhNsr5O/aefeMv+Xg2lW9g62z229zP/heHWIz5u3exDlr5CDaw+DG7zq6yo2xj8ZC2+CebEOIhtlEcyraywfwWH6s9voA9t4jTNlttY5yvKnbZg5zasTBm6y3StCHuIVPtiH/wIibQjk38Hnix3fLy8fjXnpiLL7Ig5puKBST6U5cPsqGgDh+LD7KfQv2CR/7cQyExA161Sa82SugYr+JWPoavoT/0xX78J7nxy1eTmy+/3/3ut8lFn2jhUz8pJ+bDL75tJuhLbaLDB+pD/VRcpS/4cuNCP0WLDOIL99GM3/ihCz44X0429fjx3qp0TTa+nHz8ORnFZ8UG/Ckd8OVifP2g34zP+kG75FEfHeNRfWNRf+KFfoxB8bO+FydoC2/q4Vs7jmh72Ep+fUQ/xpWyYlJzAD3jidzmj3bogt6th+gVb9rGD1nFQ+kSvx7a6R/5gV7VAWNPn4odzYPv+77v23gytuhFPO1hpv7SPl6Uk7RvvBqX5qb4V1tkb74MBteLG74xYaAa9IwCY+KeyWNgm4Rf9mVfdviiL/qibTfSItfgNwFNUobCxLAr16QyKS2oTWqGJ4P7qZ/6qdumAjp25y1cORBGVFucIH4ZSUYEbWVNSk+fGTVGBw8MiWRyaqPdQRPevxzYZWbAGUhPO9HiCCx02lyhHxPcTqp8BoucdtstaNGQOEc8cmAS40AvJjyeGFi64DTId+utt27ykxEPjCxDCZykTQgGnb44AbLShfLaRVM7dMoZ6g+LqHZbOUB09wYmJ6MfGVPGEO94ccwoMWyMpDcwOB95dptvv/32TXc2X9SxmDN28Ikf1/jRtmtGnQEkmzHiJwv0pa4deXLTm3Zt7NC1cw6KrMbNCnnawr+xgLa+ssDXLsdsbNA1Z+UIynnjw9joqY9+Nk7pU119Ro/Gt0CL/uncU35vB3lKY6zhXT+STTJO5GnXnKCPPfBN9/rHIp8zEeh4ywBN8qgflL8s9Nu6MUF36IInG1/+5V9+x5s59CDYlG8MkIEe8ESH5joebGpw9saDOeXtkq/8yq/cxgI65mybG/TlWt+pK3GANibI7Fo/KG+DBx1jQt/Rn8AGHX2GJ7zopz0/git86z9vBZnPeDcXPOUwPtoo4Yz1HbnJTMfsh37whhF7Z2zbHNLPnupp0xgxltkwwZi5L8BxzzjRx4IpmxICOYEUedgFT3PoRr+ibaywG+Yse9QcJM9gMBjc2WB72FQLEbbZwpcvY6/YY3aZzfR0l01kr/lpiR1l59l2dszCma/l4z295yMkcQ5baMPW4octZcv5fO2A+hZuFk8eSshXlv/iR9j2r/7qr9544n/Qksc/8BNoKcem8nfo7UFW98mrHXESG85foSNO4SP4AO2QgWzo56/Eq8ppQ11+xCKT/Se7a3X5EHLzZ2JNi3s+mQ/hJ/iBfEh+YI/4lW+zx4JX/MgfinPFn+IG55K+wAs++Ty8tzHBT2lLfGPhff/73/8OX0+vkg9o62O+kp8jN/+qP8VH9IYXMpLDGwH0In5wbQEuJjRmPLnHE1r6ES186TcxqSN+HMV69GfcGV9iS+OG/6U/Plg5stMhGegWv/gXk1ifGFdifP3A14pNxQV0pFzxHn6tA/BcnEIu8YIY0tiwBqpvnOtvMQVfTqf0ISYkC72YDzY7/GTZ+EXLmBfnetNGnEQfYhVj29jVvjjHeBbziAXNAToVa5HHGBBP4LP1FzRmWq+Jrcxh41M78vCEhthdX+GT3sR/dEGWdU5ro7dPTs2hweBacKduTHiabAGmnsnNCJiAJofyAnhBuAnHEDgqz0gzWNpkzEwOE8guI1ryPu7jPm6bMCYLw8o4qiugtxCw6GI47MYysHYuOQOGTJs2JxgBBko7Jh7aHCEjbILaoNAWQ68tBg5tvDCAFhkZEnrRpl11NMnJMeCPA3DkaNBrMa49CX10HBmt3rbAM6Njd5mhU5fR1xaQzRMMhoruOU9yfeZnfuZmfOiFLtFmrPUNnVhs2UVlHBlOxhhNegjOlec0LPK0gT8LKUZSvn62a/ve7/3em9FlNAUpXrFklPFNn/imK/dsMpAdjB3jgu61Qa9oe/WPs5DPQRsDOT08rePPWBIU6eMV+CMf/jltuuFUlNUX+owuy+dojR9OCZ/+ctMY0D4dSQVJdGVzxIJVfbJZaOpzY1rf0YX+Nm44GfoxZuhEn2gHf+mcXJ2jb3PEeCKXdm3SGAM2o+p/5atzGWhr3ZigW3PCT54EXQWU9N9ctdlnTusD9zlyjg4tCcw9zlbQIGhDR9/Vj3jvmyj6XGDAyZn35pZxaaNNG3jikAUxZMcHPdCf8WSscNxooWFc0Tudmgue9ghA1CGTZA5oV9/gDS3jSECEP/OVfUge8grQjA+08ctpG7/aNM/RFPRqlw1DC4xrY1lf2RiziUU/5qWxQp71aYn2bZiwOXiEdUwMBoPBnQ3xCVss7rEpwY+xWxZTbDN7yY6yY3wGW8gWW8CsDxOyY2wve25hKu7g0/hMddlL9lNMwfaKN4oP+AR1PSQRI7Hx+BAbipH4CjaUPXZk3/kIC3FxkrLiIHZbDJSNX4FH99lyi3MbE2ICdSxy+Uc88+t45vf5TbGFB1Y2MPCpbf6M7efb+CJxIV/F/vMhbH0P0hzRaUEv/lOWHPJW/a3QVnW8xWLxqa/ETvwdXusbfSEW4YMs8MVzdIIPbZMbPbKDozjFRky6jQ751deuDQU8KEtmNLQhr40JehDz0p+1At9Hf/rKuUWu8UVX+Ch2FPuQ34aWWIUOyIanxhYZ8IM/beoH40QMz1/Lx59+pCPxBd3KsykgXlYez478r3iHL0dLzIKfYl5lxKreGEJH3Ii++cCvi3vQMNaMbXqUL1byoERMoh493HbbbZtu9UtxkjriC5sskviSDPikD+0bZ942FruZn/s3Jhov9E6fHlaKrbRrbNp0kE9O6wBvkBjDrdG0ZT3Vuod+9V99bP4Ugw4GV4Hj77BdMQz6DL+jCWCxYkKYXCacyWVSm7AmqcGvnsljl5ChUJdhU4bBDcqZHMqVLPRMFoZxhfY4L4aKIUSXozHZ8QXqaIOxYixMQhOQUUKbg2MgcrrAmLqHPmhbefedW8gwnAyixNEydMCI4IF8EhpokT29gXoctaQ+nclPxurTBwPFmAsWGBD0tY8PcqY/ZUtdXxbq4AHfHIbFJvqcgx1xTofDYjglOiQLw8sJ4kv/MYZko7fkRldf1q/0wuDSqbTy3fmqs8tgrRc9OjRWGGcLT3p0NB6MHQnvAiQBBN16AmJDRjk64YjoA98WnYIwC2RyCh44q+TZA0/ut2kFaLlnfBQ4rPJfK5Kf8+fwya2d+sW4JwPnyWnpG8GDPH248m/jxsaf/iezeua5IFMiC4fNwRsL+lXAeAocoo0CGyDkjh/jiZ4Ft2jhCb/GCj3RCT2zLdokG0evnPraRs98Nx7ZHXKQC0/qqqdfBbWCK/1NfgGRYFTZ5jk6+puObMpoxyaOhE/zrzbp23gqyEEHn3jXpuCkgFa61nE9GAwG1wO2h41iU9mvfqrGvtl0sFAXx4jP2M38PP/Xoj1bxn5KfKqHDuKsfIQ64iL2XXl21uJLnhhiHxMFvPE56InJlC/e4G/Q98TXAivbj7e93zqFfCt/a4Fvoc8nsffawC//Jl7g/+kCnxasdKU+W2+xbCOFnsRHHjbhGy9sfrGQaz6EbiwIxVTenFDmGL/oa0++mKI3Mum9eJovEzfqHzpRhz+N11L0tOOBBb9oscvf2TjAHxpk5hO1oy97UMP/6it6Tm8QffLcfvvtm8/WBlr6nW7EUz0sMtb0k/iP7uiefNqldzG7GEI5fPLBxqb+QEef87nkpm/8qO+ejQYPGNzXVv2AX+V6qKEd+pOMQ7rFEx8Pyicj2kAuD7G0X7yobusLdT1oskFANusQ8ZbNCzFQcQ2d0KPNImslY1dbHj7iH9Jx/Qbr+Qr34/UYyEt/9OhcomMy6HO8GuN0og/xU5+WBoOrwA3bmFgnbAO2a8bXpDVBTSxHiTExKSxWLfqV52AYU5MbGDKGyKRRN7i30lFu3757jCzHwVkyWOgrl1FTRnn3nDMmJqVy2kDbRJUYG84FGCVGTrloWAQpz5l63cuuO7qMHj7QIAM+tKGOpH4yxju4j54kX4rXZA1o243nRBltsoF2yBqqu6+/x1n5+AQbJQwmebXPoHKIjC3e9U18o+c+I0d3e7lXrHnlu5bSD3rOu74skk995xKjLJjhMPQrXrUJjT19qawnRxy0azKT333jNr4lsjLoxpV+KIijm1NYeVtTvEBlrgLmp/lnYcwZrXrXLhnlOTeu6CW4hxdHMpK/sUdGtNNJzk157QhymoMr0NIXeDL26VCZeEKTzgWy+sV4FxyppyyajfnKVxedkvISmCf60/3qCBIERfoWL+YwupJ2tUWW6ilDZrLhB5SjPzTME0Gr4FV77Ik6Bc/sQrTQvco+HgwGg4siW8pGAVvNPrFjbVTLBzY6X59tt+nqHJ3smXO2UDl2DvIRjvLEaY7ArqMTVnvoXLzFD2gfHNGqHN75nmwraOcs5A/QkPAqduW78kPakZTFnwV68S0bz7+TT/sWmxae7L1NDD4EP9GW0Kq8jQW+j48RX6YnSC7tolE5m+AtxG2O20zIj6G/9o1z9/dyhu7ns/hScquX3M7xSf/K0y1/h452wXm01PEmgHpoJXf+2EZ9m1jkWOMLEIuph6Y6+hQt5SW05JM/ONe+OvqOH9cPyukvbSYXenhs3GlDvOMe+S3OG4er7rRho8TbEujhW3+gq7+1rQz/bv54COG++FKcnq/HAxm0p45yNttshGlLHCJuUL62HTs/D2geA17SpTJ49EaH9tCmJ2NSnv5t7QSOp+gOBpfFDduYgLMGqgkqmYiOyja5TNwcoEnd4mhPr+tT7UQzaEvgz2mg2wKlPEZm5cVEbaNBWYbCxHXfoprBaCGlTru2aKJjF5nBds/C9f3f//23LxP7baZrBpwRkGo3ON/z37WyK5/Vqw7gVbBAl9rPgOLVca13vYgeeThhoCeviaUv7e75Jje+VlRmRbxK5a38Rw/WshdFZdUt4Zcj5tQdlaFTefHsHhno1+aZPOPF7/0+9EM/dPv3Ev/+4oveJR9d9Qqf8UMWjlewoj1jcgV6yaJtY1AdbQh4BCLqxP9VIpqN7frFuXv6tfnCQbofv+DYhgAd4V95Y6HAhQyVRaPgFc1T0EbtrLK7p43aRTtaNkg4VfNS257MqNuYVNe1YKXxK3hhKypj042Dxj+6aPga94Mf/ODDLbfcss3t5rfk2zJei0SXDsgmUNF3bIIABi2vrKLxgR/4gdtP02zsaQuv9JYMyTkYDAY3C/k7/svRAlI8JV5jR4Gtyl65p45UDNJ9tpHdZ9/YbgtB5dhvdppvzI6Dc/YTVvorXLPZgK4E7qFdHlusnZXXY1jz0Jayx2x09Fw7R9d9GyrFDXRVHNlCmy48lPAdCP8sIvEbfIG4wTmf4Gcf6tB1i8HaC+jiSTyAP7EIveKjtxLDXp4V8k4l9PgrNIubXfNr5ItHoFd8rn2xR/0CtdE53dBd8YV20rk+JA8exNsWz/ly+dpUz/ihX3zz5TYWooV3PMtT3rmf4dK7+Kw4TQynDz78wz98+8lHmxH9pEOb2oLkFHN788K1Ma2t9OAo4UNf1kfe2BCjuC+fHM7J5dp4sYmlHPnNA5sqytFTcY90HqK/BznQtfnhDWs0yfu2b/u2WwzrJ6ze8LApg691Ll207cHgoji9ArgCXHSwmizBOQPHgHS9TqYmOByjL68Js6KyDIFJuNaN/j6ZfMoztHahLRz8Ls0HDi08OBP34seRQdG++t788Dq8V8fJZBHCEXE6jJ0P3/h9mo0XbamrXrTWYzxVZp8P1Q3piiGRoDL7skF5efv8tZ3QvWSmJ4s3oGPBCgNX/gr097JcC9QthWOyXbSNyjnimQOsP6O7P+eEOarOfZzJP3kIKhh031Yp+Wsu3xgoqDO+crxSiD5o35MggYf7BQOckjoXle0yiKb2nK9tpBtH7ZNlLaOO/tf3ygkQvL7quwp+v2j+vOd7vufm9OTtsdJZURAA8kqN7zUf0JFPbzYJBdA2EwUZfQVbcKDPvFppbnpd1mae35HSeTzYsBDwAXkFJ16p1MeOPvjqt69klHrd0gaOMYROgbDNLq9uCmDQ8ntPbQuC/B2yf/HxpAKv2ap9GgwGgzsLbA57ylZaFIlZ2H4+iI1n20Jls+PKrXar+3wfHwHsq5/Jsaf5CHaQHe3pe3QgGivwIUHl1vLaK5/PLSa6KNCKXnRWJDOdiH3EdMpbQPMzNpzJwubjhT/xEIO/8I2A4gVHiX/0/Sw0+TB1Qm0F7fAVaOsj1zZ64uMYkiU6XXcE51K+nE8S3+BbLOMhC18uHu7nIadQnvbwmg71a1h9eW1LXVukWzhbqNOpWMoYMX7UIzs+6NPPX9yzWeAhg3a1ye8bw21M2FQRD4jP/BPfmtwT84sP6J8+8bKOxRX5e4j3ztXRvrYlfUWv+smmQOWO0UVTOfXxrR+SB07xs0d9vUd0/azEz+y9BSU+TZfm4od92IdtD2PEOeIf7aFXGgyuCjd0Y+IsNKj3cN8EaWOiybYv333Y0zmV537OyESs3FrGfdc5FcaNs+jp6IMe9KDDAx7wgM2Z+I2aJ6fRqS44MjoWIE95ylO2bw7YvWZATGpOmAN+v/d7v83AM44M3lq/czh1fha0lcFa6XaM7+vFSp9jCAUCK7/KlmDNg67X/H2ZawVezsLadu07HuOhe/Jzpuh7Mu/3hb7tYVPKbzN93MoHuSS/02T43VPGb0g9AUDnGH/aoEdvn9hVBzo27jjjxun14JR8cIz2mlf+SiM5bDrYBODUHvjAB25vFDj30TRvDQm6BG0r0GjMRA+6lvY8reWgcugo69zvoP2OlK594NLXuP2ftwDYfHZtM0mA4LVKvylVvycs+tc5eoIPwZG+rE87X/vZ0W+ejQOva+IDHYGrn1l9zud8zh3fL9GPfrPt514CIvywC97i2MsHex0MBoPBjQJ7wx7agBCrtPhlCx3FbNmk7C+4t08t0JRh8yws+QXxFR/hXwEsBm322rTtSfV5WNsMtRmO2dKzoDxeJYjenm6ofFCGztj94iFwbsHsG0x8QB9kzpdI7osTfCSyD22m72NyuKctfso5n9IGwMrTilUOdUorXNtQ8RDNv2GIWT1c02eubaJ4O3D15XsaK+Thx3GvQ2ODrmDPG2iDLxdXiafFQTZG4sWbDx4Y2tThO5XxEXJvTACdGE/8vLZce4DYh+VX/dcHknMfs/yiL/rbfxC0URCvexnwekx+5dw3d3pIQQ94QEu/OR6rC/pef0IbgeRYY+5TQDN9HqPfPfkeytx+++2bvOIUMa1NNJsz5qpNKA9VrY1srpwaW4PBteKGbkwY7KWw3pNMhD3Kg/1kWuus91as+fu8EN1SyDCY8AwuI9wktKDw3QQG7MlPfvLhiU984rYIVQcNRkrdaLrPgJncj3nMY7YNCv+QwQF5nVt5HyliUBlSk5yRWvlZz5NHqs2zkPEPna/3wp7WsTJ77HnjbPtdHsTjKSd0DJW7SNkV55Uvf8/Hvq1TdPb6WK85i/rNkw1OzvgQVDDwFqeOnJqjj0JKvgLNadqZhmMGHk3jBH27/trilIxHG2O1i599f5+C8ns5z6q3L3sMK038CVQs/P1Di00IAYXvsdioIzv9CLY8+QjH+LoIqnOqj4xDztU89LaCINoriZ6SNPc8BfL6rYCHQzY/24igV4ENGmDD0UaD/pTIoV9L9bOkj9GzkYGfbIS3MnyE9/GPf/zhcY973HZEpw0MP/USnEuetGmTHIPBYHBng01if9ghtssiyT221JEfyn+dZcPRUI6P8FaYRSUfwRZ7Gu7bAx7i8BFiJb60RWW4qI84rxy+z0L5jqWuo32sjd5aYOtBTCQOtClOd3w432JjwsfVP/dzP3d7SCHxFeIFPsRR4kNc94r9WXIVAzhqo02KNa3Y09qXQ8fPJfhJC34xsQcOfh5h856P48vxKD65KLRrLKzt1eYe3XekW/GSj63a0HfPT2H9y4lNCf7S25nu+8j4rbfeun3gU2wK6nvA480H95TzZqQ+8KBgr3vnJTJKPUho0wcNCTo/1kfd91aC9tU1f7x9pF9DtEJt4L35I850vj7E3dc7hmNl8CTFn6O3OenOGkds4t85bMjgW/+L6WwG2bBgC/ByTObB4FpwwzcmjmF/fz+g1+tTNKA8ExW6bnKdqnsq3/0mud1hE8/TVRsSDNOjHvWowxOe8IRtspq0jJS/y1yN00oTPQ6Yg+KUfK3X5sRnfdZnbYsRu+UMnNeyOGY7vK5zaBA9tOI7rOfHoDzEV6l7gPeMYvzSQToFZV3LZ4DCSkseA9XiDY1+R7dv01EiZ8a2+6FzdOMnnuKltC/reAzur/zD2uYK9yt/qgwoQ+7eehBcOeZ4BCT6lBOk567R5NhyjsfaQAfIhI/1q+LeuvGKndcS1zGTnkrJIR8d17W510WIH+mi0IZERjxZ7Ntd53S9FfLoRz96CzSlJz3pSVsgIABtvJyFPR/pBc7jUVllBIo+GIU3T0g8AfHmio0hR0EJ3gQjnDLQX6B3vOozY5ZczutbxzUVtEjypfh2REOfCLI8CWNf2AVBns0bHxJjF7xZJTBEc5V7MBgM7iywoewP/+WDjewW22bTlG3Np2Qzs7sSP5MPA/7ST2P9fE3c4yEQH2EBJLbiH9hCi3b2mW+N1nnQ7mXs5EVo7nGMPjruk18MRS/FPvjv4YNFsY0KeZ7cFw/wm/TiWHI/H5JPOYtf7YtV0VGnJ/PFRCWI3/XeCvfQEMN5Y1jy8wNvK+if+snR38F72GbBje6aTmHNO6vcCuOHDsRYPhjNL9q0EofbyOI3bWS5Fmfz6f6uk44be21MqEen+oGf1T/pfD3WJ/nzjukNvVM63IOcfH7fvKj9fpZrDqG9Ij36qbC+0Jf4oet1znUu0Y9yK9yHY7zur/GkPlk9yBErWe9Ys9Cr71CQWx/46SvaF9XBYHARHF+Z3CCsA7eJcllcZvBfpI39hHXNmHOYnqpaYNp5tZvNKPsAjYnLSDMoGSbYt8dgMDjyOSp0GRiGydNbk9yuuXxOiuFhDI4BbYmBjVfoeBnEpyMjR0ZAGx9k6rqjduJhbTNaDC467Zpzil79oivG3bF66ElklceoQka5dlagr756zst35FTQkqdd/HcN1cvROK+NfTunEK09tIdG/85iweptBjvJjLv+VqbEaTjGU7x0fRZ8mbkn78aStxL6P++CETTk0YGEB/foWEAkzwZYOlL3otiXdZ0OnWufjtH3BoJ2Pa2w2Pd0hZOTb94IBuhKX14U2ulYWhF/x2TiQP38ytMVGwECKk8BPu/zPm/bJPF2iznZxg/a8eZan9GfoEYg7RXk9Ein8h07l9K/sd/4jTd6AG+S0Idx4p43smxYep0StGUsoUu/x2QbDAaDOwPsGDuVz2W/+mAvm7na4M6VU4f9yoaJDdRz35tj3hbzN5F+smjB5uciEtu5Irt/yg7mE8rv+hSidxbwDNF0rQ6/0D1HySKYLsSObLf4zyKUDth5mxT9e4WfIfj7STFBfqSjulJ+w33HY/x2XxlHbQLfI05FB6+rD3Ke/5dC15KYwRu94gz+ybfSvC3Ml/uJhJjDfb4czyud+NzzegprXThWVxljQ5zsZ5d+CooPcbTNCBtZknjDP2P0kXuyB+ONPmyu6Qc0+XEbZfRFh3y3cbf2g3LoKIMvYwBtZfe8h/191+qKsa0BjBXwsMTYoG9trPziR0yCR7FL8bSNCbpQVj+KTepP+qk/4qH+Vgf2vEHllSEfnsinj/HdAx0PWPGAN2NYfnNiMLgKnL0SOgfXOhD39Y5NklCeOsfOYaXnvuTevp2LQB2Gw2LAOeP1Ez/xE9uCxIdgLKbakTQxGYEMSW0HRpBRMYklddBGg7HzZJbxBG3t6ycHaEN7OR1GLENUmY4rjt0L6jJCeEQPf17TYmgYTcZGGccMOkclv/oBfzYmOC+yMqAcmvIcM76ViV/taYOB1r775UFH9xhV5eMjHQD+vXYvXzn95tsLAoCgHsPNyHJAGdqL4ljZ7qGJH5tWjvrW2zZ9RBF/9ZVzAZ37XsVLHrQaQ6dANrrylgF56UVA0Mc1OZGexpBdWcn4xZekDIfuJxY2NABvq96P4SK6qoxA1aKdHowDmylezxVkmjc5THnmghTcv0qgR8d449j74BS9NZeNQTpz1Bd0qI/w15hSRz975dPmimsyepsBbXWUr68bo+hoX3lHUL52lNEuPumGLrRnk0uA7n700s1F+mIwGAyuEuwPH8ZmskEWKd4gEzOwg/wdO8UGypeUl9hGtlA+O8gPtWBmB/kItPgO9NnC7K6yfAZEN1t4DPL2+eqcQjQvCvLyBeQkF3lqs9frvZlnEUkG/oKutEE2vpt9V1ds5G/k1aEHvoC+0HSOnljBOT8gHeNV2+rRn7L8lCOgT9d0X3300SaLb3jwh+ksWSTl1BUvqUsO/Os3vspRH5GTbGK+6JyHvRy1eR6UsZDnz40Lm0B+usEf44NPzbcac3w7WclPz9qlJ7JI8sWLYjZ5+X79S6fquSeOcp7+YD0P58kg3/gWL9ocQdM48BFP9Og5mtrHO3n8tBOf4OGfdYN8OncUezuCzQJjFO1AH+JCutOndKU9WHlGo/iUbvCin9EzF22I0Bva6ilfu4PBVeG6NibCeZPxsmjCXCVO0ey+o0QWRqmFoonPkJmInCcDYJKb2Iy+37ZFQ911gemJgIUgo6I8o2PCq68NT5W9kq8+42fSr/W1pyxwAAwOY8yhMBI5P4ZhleMiSFbJAtbv69Fl4C1aOSN08SMxip44twiuLjBeEpqeRkv48tTA65p+DkN298DRBoiv+/rdYkbZfW0VyLhH/+QmPxr40h+gTf3CUDKm+Lfg9BMCzlY+mu679tFFX5FWP973+tpfr0jmVXZHfekrxjaw9I83JnzYVICC7/oULww8HdOLnwp5YmJMKHOqbW2oS1Y/57Brrc/oxhhDx+90jUVjQr+RHZTRng+J3XLLLdv3UujHV7VtFuRgzsJZOgnRUJYs+HVP4OBc/7QBgDeBBR44yYsCvT0va7vBeeOxfPNW0j/mrS9M0we9+ZCXb8kYi/Tj95PGETkat+gZZ57umafGr7nt4542JwvQtKcNcpHPJhB90wMa8o1nc8mrkIIU/WWeGwfK6EOvqeLfPW9p0VtjpDQYDAZ3BrK9/Al/96M/+qPb93DYJfGND/Za5LKDwBY6Zyf5Hj7Kgwr11UELTYseiyVl+XyJzWMT0fPmKhqgvLRif70iG3nKXp5VdwW7W1l8imdsxuTb5EsW53ww/8EnkOWHf/iHt4157atrMerNPN9WEsvQjYcLZNQGOumOf+47HGIXMVi8rPK4pq82esRfFq58Sf8Q1sJdLKQ8v4PXPhJ5DNpQVlK3TSJ+1EKdPxc/qM+f8ZnKQvXCXv/y3NvfD2tdiBdytlnjnrcm/JuVj6by33y5D207+ogq38uXJrdEtxb3HvLw5eJB384Qs/G9YjTyxoN+FaP66KNvbegXMWrY83oW8KwPfafCmyf0KDYVl9ocaVOufsa38SHOMF606ycrHgCipbx+sGEkT5/79pi5o6+KOcA8NQ/FHeim+3RrXuNFXI4X41seuhK9m6se7mUH8GGdApfRw2BwFp76Pve5zyP+7vxSMAhNHgOXobYYc87gCt4ZZRPDPcG9AW3yG9AGuNf2BNyMqTIlNNUV1FvYMUAcoElsEppQnsBrjwNQHh2/MTNx95NR2ybka7zGa2z37CbjD128aDMkkzwTuw0FYPDRJoenAwweeVwrI9kd5xTUt6PMmfjqv4UI49auIydEZ4wcx2FR4reU+EoHeOHElGN8yY0mHXAE5LHAskDlhJTnDDlybTAk6FlMtcmwR/Iqy9hmzMikDjraYog4Ho4M6Bcf+sFrXQxTtPBDHn+NyrC1yHLOsUpe49R3ghmbIOr5LSAaksBEHbJrq36lNzwwrPpc+/qQc7QJos3KSfSlffcFAIy7fPLK4xS+8zu/c6NjHLrvjYuMMj58Q8Rv6vQdXvbAr77nrOXj26JUu2SlSwk/xhMHx/BzNsa3DSEbGtrXR+idBbKSHdDkVOnHGKNXshovxgYHJRkT9O3JArk5ZXJ5Y4dzAeNTWbyT5Xu/93u3fDIoU9+YT/QkMOuNAa9T+hgV2uYJebVP1+RSXz1Or3+k6YOTytCt3XybLngz1jlbmzZ4pxd2hUNGh8yOK097/gXOfiaVfWFT8GcsO+pn81gfGE90g2f/1e2epxj4oms6R8PRmDHPBHp040gu5/pccGbc0jf7ILBEBy/62pwyl/wTiE0lfWcuSehou3r0bH4JZJ3Ty2rbBoPB4M4EOyix8/ye+IDdYgeds29sKz/IlrHJHmbwqWw6X8Gm8lfy2XJ02Ge2TRzCjvKT6mWHLSb5APGVeEPMwM7zJWy2OMCbF2Ie9jF/jVf0xZxss3gDf/jnT9hkPuKYTXVPff5LO/jli7SNf3zyBejxu3wV286uq8uvf/3Xf/3GtzoSWvgXX/CFdJYvQafYgW9ET5wgFqbjdRGILzjGt/iLHvWB/kAPXW068oFoSoAnPlHcimdv66FPVnXE2trPlytXHGqzCY/+Tco9/SRuQkc8DPwzXvQTfZHBNynwiWbQT8YIGvpJTKdffX9E3xoreBIr0BW9kU9CX3wl9sGLpD39IikjNm3ckkPcRwbjwlE8IKZy7qhPikH8Qxafrs/4Y7E53vhlsQMdkZ/cYivjr75Z+6jxSCf0pA1tkVXfkFH79ZN50EMu41lc42eneBcP0BU9omvc6Sey6jexhXGAZ/FEHwbVtrEo9tLXYozminWFfwQTE+krZcRWzo0jc1Isjb6f6fqmh7lFF8fG4mBwLbjmjQkwuA1mBkAw7tyEsenAaZic7jECJp/JbTKZkBaEHBTDZFKAsiYtA2Lhb7KrK6jnRExaE9Eup/Z8/A8PyvuteAvY6Jko6jMuHKRri3ibHIwrWsquEwp/jB/+OYccT0avDQETl3GyIGNcTFSv6Nkht4AhF0PHuDAqHCwaDDknx1HbCGBUGDL/BsDgxhOQDR00GBwGwuITHfIzZhZydl+VxWtPZ9FlcDgzhopMIXkdJf0hMCBnsmiTQdcHeNamTQ6/BdUOY84gaUOf6zdw5HjoV7voMYz6AD18Z8jJyuFYBNswAmMA78aONhlWsjunR33iHqdnl5gzoC8OjUG3KMY/3atDx8YnvanjbQPjCE8Wmf2VFD3j2TjliMhILxbL+rVA5xQah8aEfsIHZ5ljxDe5JQ4k5+1NiwItWMfiMdAv/ZDdGHUtqCATnvWbtuiXrsnPgeOJU/YNA86k3Xrt0rl8mz76Szn9akOQPsyh+OPU6Mk84Pzxy7n5Dgs+GlMcKx3rK2Nf3+kHDpIOtGeu0IMgj+5crxsT6ggG0BPc+Qccc0td47m28GTu6zftGsvkZDeyB/jQD/rERpN8fWXO0b/26VXb5gGe6UI+XdORPGWMe3rXx5w1/o1vumYjGt/GJh70cb/JNY70h7Gpr4wF5/qMXaBXcpNTACSwZbPMlcFgMLiZYAfZXEd2k/1mj1sosml8LTsobmAHLVp8G0mcw76zbew32ynx7+yysnxKvoWfUYfv4YdsIrDb+Uv+K3+iDbGOWALy1/hkq9lsbbQxwY7zWWJQdvoYkhO/eMKfeuwymnhkq9l9PIgJ+R++ywLS4htPxV74QZMf4Feca5tsfAD/hF4xEh3y6cWs4jzt4wnUD/HKT/CHYhq0xURo1Dfo45O/0Rc+/EyXdIM/i01xknMyigXU58s74lPfioPFse7z3XRJFnzoJ3TwJX4Qj/Fv/LB+E4OQZb8xYTzhh9/nV/WrtYJYpPgCDf4WL8YCvdARmaX8ubL40bYkLhDD0o+4QL8oV/yg7/h9PtkYbjyKW7Rp3aHv6YhM5BSD0QF9ksVPNMROxl/90xE6109kLXZGX0ytj8imn1or6EPjBV3xK1mLx/CAJj6cm0/ibmuDaBlH5ol4xTjSN/pbOW/zkIkO8KEtel/jE7LRATn1uVhTPIMX+lTvmKyDwbXiujYmGoQmlIltkhnodrUZnYJpRs5gZtAYJQaRIeMslDGhwNGE45BMTHU4I5PAE3WGySRgFLTJ2DIsFo4mLSNm8RA9YHwYHBOW4TSRMixo4a1JDslkIYRX14wY+Sx4tcFAkdFmgklugivDeDJMOSILGosfumihzgAxYAyJJ9KMrsWHxRJ+IP7R5BgkfMhnQKR0uP5TA2PIqGgLPTxq/yKLarIKHpTTPhn0jTz9ik//52wxTQ+CEQaSA9Y+/kocOdn1Gz1zCPqF3Gi67i0Yf49FZ6BdCQ38cPB00D200BV84JVe3Qc6KuhRnhzxz6jj206zTTPOCt10pC+UJXObFujIN1aMQf1+lg7xIeCwEDXG1KcXPAsQ1HevsWOjzULbfEmGjqdQPpnIzvEbQ+STyKE9Dg8v9GzM0zX59aExy5EbI+iQCV19Q27X+rXfQBr3xpuy9ArGIccmINGu4AtNMtIj3nL40Tbu6UE/4cdrlHSgrHmhLboWVBgr+oKT5GC10bxFc98XztkG9gCMA2Ud8S0o8eaSIIOtsLlmQ9GGAZ0YTwJgfNkg009shjFOj3RMp9rFl/lA93RLHmVAfuMNLQ7fx8LQNpbJ1dzEm3ru04ugwdjTf8aEsWG+tWGH7mAwGNxM7H0Q+8Sn8TX8D1ss3uAj+D8xgLcYLEQ9hGDf+Aj+IR/BLrJ94gp12VQ2l+1UV3k+RFvsqnZAWxZPfIu20JePR+3nr1yzu/w+H8GGt9hHS5vHoJ42HPkQPIo/xBHFLPwOP4FHPoL/F2OI6chAXvWlQHfa5TfFmXSHP2X4EPqIlvjKGwNo8iuw0lrhPpnJLmbpWxboO8YHHysG8ZFlflKb/Dz6rukG8IFP13SGLjn1k/Jk0yf61iaMPhATiN1WOuq6T//5N/G8c20HeuF7xWYWxPLQ5J/Rwo843s8ePIAzfnz0kp8U/+tP44Wu+F76M260jWf15fG55CAP+XxoWvyBb/1Ah/KVL84qZhM3GJ/yjV2y2cygD30mDjIO5ddPa3/VR5KxRQZj1hzCC57IXdxrfNCleED7xp8268v62z0xEnr4cI2G2IJOjUXjSD95kESP+Ce7pDx5tUdedfBDDvoTo2lP7CJuonN8F/vAxCiDq8JT3fe+9/2/q/hLwkA1GA1ygTVDY1IwiM7lKdPCwS5ck51xYjBNqmCSqaMuR5AhM9kYGZOkfJNFGfW1yQE2uQJ6ynryySHhg6GzKIg/91YegkmrjAWKHUf8K8soWRSjw4ipa5NE4gwYjmiSE88MhKcCnCjnhk+GSFmyMQKMUfwE5+mYfvFBPoaVDIx1RhI4WHJqQ9voZ+yOgX4CedFlwPUTnaGLV33F2OJFG8rYAKEfRkw/gvz6UD308KKv7D5z4GQlM6eMd/zRD7rJjg5+3CePtuRzHAwnPdM//moT1OeI6Fm/0ZX26Im+1EFXX3lqorw8/Kd7hly+I6MrX7t0uOrrGBpvxgVZ8W8Bb3GNPn2Q3fwQBOBPv6snkeWiWNsyNtHSFifpnG7IQ7/mBjlc0wcdrfJoF6/4bHzSVxsyrvEPaIA5b4xoiyzGSHmgPJrGkr7QHvk5RcGMtvFubOAbtIlf/KClj9os0QecYnMO6nvJ+FDW2NRvxr45Rjd+MuX1RPL4SzpPyvQvfiTAr+ACHU/APvzDP3zbGLH5529E2R+06ByMI3y5p1286nP3Cgr1tfJ0ROdAl2QAPAiqjXHzmxzkN8Yl84MO8dbYqM8Gg8Hgzkb2Ftgl9o1t4m/YXraQTYfsIJvG7rGD2TFQ14LHA6v8NZtngWXxrB57yg7zyXwXH1G8IS8/hK722E339/aST2Br+ZriI4s19/k4dfZIVrS0I4bDH5nYcP5CbIJ3fgOt/Bv/QJ7o7OGe8nSYD0GHn8CLdvgcfk/78XFRaJ9++Q/9wseQX3v8KP9IBjTpQ/v8qry1Tf2GTzx6i0BfoOm+mMKC3ga9vkFf7KUuHaATDTyIL9DRr+IF/OEH1JHSW+MIT2JPsRv4ebTvJODZ34H6m23t0Bl62pPwiJ43ZB784AdvvJPtoQ996OaX8QHKWD/gwzgwPoyn/LX4gK60b8zgr1g92ZS3VlGHPpSXj/Ye7uG18aacNsiMrgeyxkGxNz0aB8UbytX2nn5xbDEMWZQ3lzyYah6ibc4Zv/qwOaMsGfUl/YhPjG/y0Wdj34MZY0L7Kw/H5B0MrgXXtTEBJgIY8CYPQ9IANXnWCapM2A/q4F7GRYLaWO+v95zv7wcTbuUH1jL7Osq7p44JSiYLjsqQgQEwiTNele8cDeWTheFxrnz30TW56YtBquyK6CrL6DIW7uHBtTx1KxcNbSjj2jl+zkL1HHOW8QSMlfbowT3nGUhIZ9EAea7JLp8RlNcYyBgzotWF6rsmt2O8oLMfY6BM7eEVXXVAHf3omLNyLqGj7Ao0JPnKSq5hbTPs71U+A0++2iU7/pMhHq8V2kFXf+g37Rhj3QdyyBOEyMMP1A+wlk0vjZu97F3LR8NRAnJBfaFNTjA5lccLupxebQRtqCfJcy0/XvF1jJ/Kdd59/Fjw+7ClgEaA88mf/Mnb0xobOGvboB3jUnDwUR/1UVsQ5o0K/9Mu6KVfZbQhpXcySvgD9wv69nLGH96MEdAnjUPlGh9okiOZOw4Gg8HNQPZIWm0tO+iarWfL3GPH+EDX+cDqsolsafnqZSeLl1a/KU9SVxn3o7facWW6H2oT1jzn+ZS1fNjX0Q5e1HGvOIidBvnsPrDpyVNddfbt05E65JfkVT49iPu06d5FoL562udj8IxHvLpfPKQ9dOWDPFAP4hPQUbZ+kkd+R3STNTiPzgrlJXmStuN1bU99dN2r/+GWW27Zvk1GZ49+9KO3n+LysekOLUldmx82JD7iIz5i+1mEt5sf+chHbpsMxtZaXhvFpHTlXvnr2K58SZnkXu+dgnzl049rR7qkY3zVvqRtyRgoHnAfaqdjdMhh/In3tLPKtpc73mG9p7zjPjYxdrTjPjorP4PBVeG6fsoBDU6DleFy7D4YtJVZ89dyxwZ2k2TN63xtrzJNsLV8cE/50opT5eO3hR76tcEQMhKulT1FoyMajJry0cJHjsG9Y4iPDAoD49p97e8NFaztwinax6CsduKp5N5qiDKc1YF9uyCvxTDe0x/Z3dNO9/ZQl9xSekPbteOaVuB1rQOu6Tq4JgM+KrMCTbwdy9+3B/t76mhvXZSuvKw8wjGaF4F66JJFW3hujKAdfe1xbHgpfw+0JGVWfjpfj8p03vWepnvalR8vzt3LYUrpWV7oHM3o1yYcKxvWcuhz1N7aEJiQ3dMVT908NfEkQZDins1GvCjr407eTvKEwOuhXqVc6QblyeIIyahv3Sere3vduEZPn6066v5ZY3MwGAxuFlZ7m31yj3/h09kttgzYwfz8asuUz9bxk9WpnntsYNfya1e9lQfn8ktrXnCvpEz39sfOw3ov+sU+EtudbHveYdXPSqtz+asPcV2d7tMfoL/SOwvlK4/H+iXgb42Hki2+VtSm8nha+0n/SqCcuiudfZKHhrTyA5VBJ1ol7SlvUcwv+24CuSzkvbHroQF/zpd7K0Di973B4Tt0vq+gvE0MP7UA9JINfe2svrw85eivPo2nFa6V298/BmWiXT3X9LiPFyV8m1trvfL2UA//6Chv00vM43wdY64l2B/LRyM67qUjusBr19UbDK4S170xcQpNnHVgm3TQeXmnBnc0oDKO0t4QrPkr9tfnQfmVVryuxrTF3Sna+/vKrzJL6eQsOrCWPVb/rLqXBVpodl57tdX9U+12bz0qK11W9spJ+7rlH0P56pSiA9Xr+jzU7qn2YJ/nOrn30O4q+1l0LwL10TLGYNVVtLXHSdXmZVGdlSbs6bmG7iV/9ST34jWoV91TqP5ZWNuR0PS0wZs+Xl30Kq7XEr1WylG7755XJ73q6gNPvjDuS9jmu9+2+tmHQCd6jsH1agvSPZBTWsuHaK1l1N0HRYPBYHBXw2rT9vYO3FttXPZxRfnZutVvVW9f5yI4Vie60V6P5V8U8Qudqx//qx7CKfruJ6vjqgMobpQnrXkXxcpP9WvzGK3uKQNdrzzG50rnGK2LYN/Oeu28+9q0McFH+okCny3x3xbQFsw2IvoulZ8y+PczGxN+ZuktSd/C8LOTPa+1tfpyqYV8sldvX3/FWm6P6CoDa3+7t8ZwJfeL3cBROtZGdOrvaMBehlMoHy/x417prPYHg6vCdf+U4xTWyeFcaqet++ehsscmRvWdd7yqybLSiX7tx9O9AXt9potQ/v7+nYFjfQR7nuEU38dwLbKc1+Z+zFxk7N8Vse9vR/e6T871XuXKPw+rzo7VWWkeQ22v4FwFLP4q1qaDoMZrir0lUbDjiZDfrfrNs40IH6wUyPRtm9UWrTjGT2U6KnMW37Cnewzn0RgMBoM7C6tdY79KN9NOrTZ3xcpXfK88h8vwvtaD6IZ9/rUimldF7yzUxl4Pq2zKXC8v1c+violqQyp/bUtZi3S+3E8z/eRSPd+4klZfbrPCAwi+3scd+XJvS6h/VvyVjLDKuJ6fwqqflU5IlnUD4ixE4xSts3CVMedKKxkGgxuJO+WNiY5NjotOkpXGOiHcd95xvXcVOEUnfu4tOE+fV6Xva8Fl2l77Tb217lX06Xm87Nu4mXq7HhzjO30m41rGvfIvgsqeKn8enTVf2+yM5Peofr7hI09e95TXExZPXWxIgJ92+Nq6L2977dPHstRf++88HsKel2hcRobBYDC4q2K1Vc7vCrbrFA/s7z4vnq+V72P1rpfmKVw1vVO4SDtXId9aP3rS6icrsx5tLPjpho828uUWzTYifCjT2xI2I/hsDxc8VODL/fuIjzYqG61TqN21zfPq7HGq/J4uHIst1ntQvTWdh2M0rgfVv2j7g8H14Ia9MbEaGHC9D/LPw1p2nQwMTLS6373BYI91x9cYWcfSZcbjtWLfxj3FsDf/pFXG7nfvriCvMeCJig0J/+bjpxx+v+nJimDH2xN+s9q3J5T3htcqwyovrDKfwr7MXUEXg8FgcFU4ZiNvJuJjxcojrHyu9wbHsermRvavduqbfTuuy+fLbUjw5b7BwJf7aSZfblNCPl/uHyR8b8KbFOrz68do3xmozVWXyXrVWNuAq2jjRvE6GOxxwzYmbiSOTZCZNINTWI20MbKOk70BH1wMdJju1nO4q85FQYsgBX9e8RS8rBucNilsWDi3KbGXC1a59nnHcFfVxWAwGNwTccxu7+3w2OW7JvRLfXOsf+Tx2X4Osfpyb0Xmy+X1MVZ+XKpuuBl9X5srH4PB4O/jbrkxMRgMbi442Rzseg7Ob4bjPw94kgQunpysfDqub9PcHeQZDAaDwf8Ltnq134O7F87zt+WvGxHd75gvv6v57Rmbg8H5mN8+DAaDS2N1rncXR4tPGxKCFk9RvArqw5bS+oZEmxYr7i4yDgaDwb0ZY6vv3jhvMyE/3YYE391foJb66cZdbSzM2BwMzsdsTAwGgyvFeYHFzYbgQLIBsaaCBvyvMuyvB4PBYDAY3DzwyflxmxSlvS8fDAZ3L8zGxGAwGAwGg8FgMLjLYzYcBoN7LmZjYjAYDAaDwWAwGAwGg8FNw2xMDAaDwWAwGAwGg8FgMLhpmI2JwWAwGAwGg8FgMBgMBjcNszExGAwGg8FgMBgMBoPB4KZhNiYGg8FgMBgMBoPBYDAY3DTMxsRgMBgMBoPBYDAYDAaDm4bZmBgMBoPBYDAYDAaDwWBw0zAbE4PBYDAYDAaDwWAwGAxuGmZjYjAYDAaDwWAwGAwGg8FNw2xMDAaDwWAwGAwGg8FgMLhpmI2JwWAwGAwGg8FgMBgMBjcNszExGAwGg8FgMBgMBoPB4KZhNiYGg8FgMBgMBoPBYDAY3DTMxsRgMBgMBoPBYDAYDAaDm4bZmBgMBoPBYDAYDAaDwWBw0zAbE4PBYDAYDAaDwWAwGAxuGmZjYjAYDAaDwWAwGAwGg8FNw2xMDAaDwWAwGAwGg8FgMLhpmI2JwWAwGAwGg8FgMBgMBjcNszExGAwGg8FgMBgMBoPB4KZhNiYGg8FgMBgMBoPBYDAY3DTMxsRgMBgMBoPBYDAYDAaDm4bZmBgMBoPBYDAYDAaDwWBw0zAbE4PBYDAYDAaDwWAwGAxuGmZjYjAYDAaDwWAwGAwGg8FNw2xMDAaDwWAwGAwGg8FgMLhpmI2JwWAwGAwGg8FgMBgMBjcNszExGAwGg8FgMBgMBoPB4KZhNiYGg8FgMBgMBoPBYDAY3DTMxsRgMBgMBoPBYDAYDAaDm4bZmBgMBoPBYDAYDAaDwWBw0zAbE4PBYDAYDAaDwWAwGAxuGmZjYjAYDAaDwWAwGAwGg8FNw2xMDAaDwWAwGAwGg8FgMLhpmI2JwWAwGAwGg8FgMBgMBjcNszExGAwGg8FgMBgMBoPB4KZhNiYGg8FgMBgMBoPBYDAY3DTMxsRgMBgMBoPBYDAYDAaDm4bZmBgMBoPBYDAYDAaDwWBw0zAbE4PBYDAYDAaDwWAwGAxuGmZjYjAYDAaDwWAwGAwGg8FNwzVtTDzVUz3V350NBoPL4P/7//6/vzu75+KuKCOejqXBYDAYDAaDwWBw83Glb0zYsJhNi3sm/s//+T+zkLsk9vNhXQyXdy3zpTprn9zMvlnl6ny9B+v5KVyLTo7RPdb2sXRPBLmuZUwNBoPBYDAYDAY3E9e0MWFBdAwF/LOIvWdgv0isfwcXR/pLb//gH/z9KXfZheRKS6qfSnBZmhfFsf7fjwttH7t3DGsZ55e1HSvd2qx+58qkqzXdKB3dDCQzJHNpMBgMBoPBYDC4q+O63pgo6HVcg/0Jhu/+2C/u9O1TP/VTT/9eEumxOZIO02vpMqj8uri+M/uk9rW5yuX4D//hP9yS62SFs2SMxnq8DKIdD7Xd9bF72jiLJ3nxU7orYi+H871cyux1usoWjX29wWAwGAwGg8HgzsJT3fe+972maLQgtqC3tyjc3wfBF8G11IGVj8Hlcaq/uu+4P7fwdBycjb3+zBFHi8H1fsewvz6F//W//tcdbxi06FYvmjcSLWr/9//+31sCbbrXOeClzQD8HpMtfslS/YtCvWhGp+M+D5/o46cx/D/+x//Y6FRmj7XPHNM3HCt/VwA56Rp//+gf/aM7eI9vWHUT9teDwWAwGAwGg8Gdhae+z33u84i/O78UBLECXkeB/j/+x/94C2qf5mmeZguMC+jlXwSXCYgr69jT2Yu2M/hb0F0LxmO6W/tOfz7zMz/z4aVf+qUPz/Ecz3H4L//lvxz+23/7b9uiZ/R+NswDen6GZ3iGw0u8xEscnvu5n3vT33/9r//1/9F9+laWXruWnIf1/KVe6qUOb/zGb3x45Vd+5cMzPuMzHv7wD//wjgXpjQC66wJdWxb2xsLTP/3TH57ruZ7r8OzP/uzbORnI2MJfGXM1mdFIdjL/k3/yTzbbkezG3GXkQONpn/ZpNxpdo+Vau3T+Z3/2Z4f//t//+0YX787lx8vanms8vfALv/DheZ/3eTdZ/vN//s8bXVD2MvzdGfif//N/bny/1mu91uFN3/RNt/FGzl//9V+/Q69ABvP4RV/0RbfzP/3TP/17Y3EwGAwGg8FgMLgzcek3JgStBbACfguP137t1z68zuu8zraY+N3f/d3DV37lVx7+/M///PBP/+k/vfBCSWB8WeCjxYJFycrb4GzQk4WMBaZFSwuuQJfywKL67d/+7Q+v8iqvsi3mvv3bv33rY3XaiJrFzN8HHdONBfv97ne/w6u+6qtuOqc/qc2JQIcW8O5b3NNvY3rVr2v19MkDHvCAbR5+//d//+HTP/3TD3/1V3+15V1lf9R+i1djwHx7kRd5kcPzP//z37Eh8UzP9EzbWCKzMha8v//7v3/4jd/4jcNP/dRP3TGeyBVNZW3W/I0d2o7kJ8sP//APb3Ipdx7YoOd5nuc5vPVbv/W24KY/tEuArs0JfNmg+MVf/MUt6Q+bqhL+yOj4dE/3dJtNe6M3eqNNph/6oR86fN3Xfd1GA1/4huSIz9q7LC4i5zFoL73G20Mf+tDDW7zFWxz+8i//8vAFX/AFhyc96UmbbhtPL/iCL7htXLzMy7zM4Q/+4A8O3/zN33z4kR/5kc1Wk3UwGAwGg8FgMLizcc1vTARB8Zu/+Zsf3u7t3u6OJ3Df8z3fc/iLv/iLbfEi/yLB+mUC+oLxnkJbGFko7Bd6g7+P9Gzh+2Iv9mLbwrIF29oHnetPOn6f93mfbSFqAWrD6bu+67sOf/RHf3R4lmd5lm1xd5n+u7eATiT6e9d3fdfDi7/4ix+e7dmebdPfz/zMz2yLdgvgFrmO3nxQzpi2sNQv60I+PTu+/Mu//OHVXu3Vts0hG4I/8AM/cEdfVO6qEE3pBV7gBQ5v8AZvcHjLt3zLw+u//usfXuM1XmN7e+OFXuiFtvEk31gh90u+5EtuyZsH5mxvdTRP3fNGwru8y7tsdJ7zOZ9zk+Xnfu7n7pD7FJKxjYn3fM/33DZ//sambW0b33QpedvnFV7hFQ4v93Ivt/GDXwt0ddmNoD2JDO/wDu9wePVXf/WNtj77zd/8za3P9nyturlWXGtd9bKxZKFXfWNsuP/TP/3Thx/8wR/cxpVr+a/5mq95eJu3eZtNTzYs1P2lX/qlbVPLxsZgMBgMBoPBYHBn47pW8QLdgt0CdUfXLTyuJ1g/huhZ3FgEPeQhDzm83/u937agKTAfnEb6s/C1GHz3d3/3TY/rYjEoW7KAlm/hYkPIE+bB+TAf6M8mXfrrJwf1RbAJYfHsifdbvdVbbeVt8Cnb/Ko/XDf/Or9RwIc28I6/937v9z688zu/8/YTEpsKnrL/yZ/8yeHXfu3X7ngT4bd+67e2ha43GDyZv//977+Ntdd7vdfb6PUmFbqSe5J7Fv6XBfnTDfzxH//xHbz8/M///OGXf/mXN/7++q//euPplV7plbY3LN7//d//8Lqv+7pb2yFdklfCj591kDN+oeNVId4vg2M8rPwdGxdkaTySTer8WngYDAaDwb0T+Zmr9oeDex6MkdJgcArXtYovmG+QrUFt58cGorx9uiiiZWFjUeTJqDc1BNueOF+G1r0N6Yb+PLn3FNmTbW9P7Bd20Pmv/uqvHr7pm77p8Du/8zuHX/mVX9l+hmAR7bsT87bEadAzvfopw7d+67dueqS/7/3e791+5mBzh/6Cp/KeYusXm0VAz+ui+c6GvjWvyGGDwWaWn27Z2ALyfMmXfMnhyU9+8uEzPuMzDo9+9KMPj3nMYw5PfOITD7feeuv28webFBbC5qn52s899vYjaOuigU5jdh2D3jTR7id8wiccHvvYx2784O0zP/Mz7+Dp937v97Zx/4qv+IrbG1/eotAX2kTLTxz8pMSbGzY3nOs/+aW7Elb5w143bfiQyVttNmt+8id/cvvZzPqdibuabIPB4M7FaudWe7DalH26s3Etbd5Mfu+p4Fc8POHX6XX8x+VBb/zvzRybtX0j2/egxzhxvFlyDu76uO4VT4OrSeW4LizOc2ryO49G9Y+h8uDJpwFuk8L9FlCO0lmIvjZLcFbbeygXP9Fw7l7pPBwrt9KDNb/zte3KO5Z3DLVFX74H4M2HkNzpcIXf5N92223bwu6zPuuzDl/7tV+7LeLO+r5EfCZH/MXD9WCV91rpxfNl6l6krX0+Pi36vvALv3D7rb8FvN/0+wZLT6jjRX8867M+6x1ygWPjuT6XqlfdjuXDVei9MeFnD94w8MYEx+JtiO/7vu/b5Pnsz/7sbePqR3/0Rw8/+7M/uyU/H7AB0CZF3zGwCPbTCWNnHWd7Wa6VX3Xx6ycXfsbgbYlf+IVf2H46o/2v+qqv2jYpPvdzP3fbVMGHn3r4+YOfJeGJfH7e9G3f9m0b7/rNN1X8DCX68RbPK9a89A8XlUe5+joaEnQ/7Gnu87ruqL4Nic///M/f5HL0EyA2AcgG2j1LtrN4OgvKKQ/HZAsXpTcYDK4W5p45yQ7uU2+RrQsMqbeu1vl9o5Bt0s4pO7UH3tqYzba4t687dudyoC/+3JudYoL8yOjx4jAG6YvuLjKWrwr1kXnR3IDmxY3oQ2PFesLDo8bKYLDH30aE14BTg/bUxHJ/Teo7cm4mgoDYYtfRYsHT5NVxrEeTyMLBU39OsfvqeHOiV5Uh5wXxXFlH7Zkgkvbcx1N1Ou7hPj7xoo1oaMO91VmXVlrO3VPOuXqVc04XUvdC19pWV9nad9Qm+Y/x7Z465PO2g3LVoS+yS2hDtJW3kPamhCfHjApa8pQJneNPO47p1zFaq35PQb76jqVkRyd5o+f+yst5UBZNsjuewtpuMp1C9CpfXUc6swC0YPezh1VX9K0M3duYqL7UWHYkp3rxLq1wXf9CYxLcl/Z1zgMdGys+Tun7DXgUhHzN13zN4XGPe9z2UUhzEbTbONKOusp+53d+5+EJT3jCthlgsyDZ9v218rbPOwuV7ZjevIHiJ0h40i/yJRtF3/iN37jxxVEq540J38igr8pxoDZb9JtNifp2j+QJ6Xkdp/Ibp2dBPe2stsXckeS5v6fjfrpLB0F9KchnV7z9RC790QeEo7Ei2pIyyda8dh6vsG9/j8aneqts5DFukkv+YDC482Hu+Vksn8V+S2zhPrGjjvLZEPag+d08Ps8eXAuiyV5ANnuFa4ksEpvn7UP32CrHbHNQTt6N5P2ehHTpAaEHF95g5nfT++BiMAbpke4akzdSf43rfLl5Yb4H1/n2q5wDaIklfb/r+Z7v+bY3VgeDYzg7Sj4DDdj94HW+v9ck69jEE5Ba8Foc+DibDyt6aszh+QDe6jgcJRNIvsWdp/7l+e24V+b9jlxSv7orL6A9gbn2PSWV0EIbDQ75FJKBo7NYUdbCxyYJGUx2CzX3OWv/BtA/AqCffsAR3/IZJkc8WSj1Twd0kNFIDm378CQ9WBTgXfsmOn16dR6UX2VXT3vK9M0I+ejQmVfVHelGWfxVv8Ud+VpIQ0dwLuHZb/z7uQfe8Egubes7fVPdlcd47h591Pfph5z6jCEXGNEFoLfSOoZ4VI5e9Quae8hXTrvkcK4svaS3PdBRVh1lMvxSizGJHqXkMk6MV3V9KwVt9/HnJwWe7BuX+ikasOfBtbGtnPbpnf6Bnugeqn8WlEkOH1L0kUt6x5OfAniD4Ld/+7c3OYylVT5Qzz11HPW5v62kI9dwio9jur0s0qFjSXvGLhujH/2Mwdghg3vGqL4I+JT0Y30JHaNrvNN77Zlj6BvvxqmjsautxtIxuC9VFh26ZQfYFjSNB0+mkucULVAGjpUjjz4q6ZfKVdY9bUpkwzs55dNVb5iwg3itbu2u6D79Goto0jkaZFTfeHIEPMXHYDC48Wjempv8xsu+7Mtu3xHyPR7HfXLfG3R+eujjxuYxv8//oAGn7MG1gr1hu7TpA77+XcjC2P0V2mXXtS1PGf8qprx/LPI32xbTlSmxeey5Y/cG/y/ohH71Md9Gnx/6oR96eOADH7j9BJXuYOz3adAhH2eseRj1Jm/yJoe3fdu33eZVG275wGPpemHcF+v4SLh/IHuzN3uz7WetPvjNN9fP14tokJWcvqH2QR/0QdvPaGHm2WCPa/5XjiYWo8/g+9o9CJy/4zu+Y1uYt3uqjMnXU1cD1GJLHudm0eOjeP5hwO/YleV8LJCVQYcRdE8e46ccg+jaYsmiS77f6NuRs7BXt4UAXl0LrDlQiy2TxO/lOVcGoa/vK+M36CbnHmihiR/1fDgP775079oktyC0oNGOBYXFmaNFkbqMgt/aa98ucxscFiCv9VqvtemDLvCIH4s6i2Jt440s6tNlZZ1z1r6yTx/4bwMhw2ARQDeeDOO5J8SCCWVcy+9L/RZI2sJvsvo3A46nBV30a0MdPBsTjJ06eBPk6DM6pYPaRH+FPqI/f9OoTWOHLDZG0NBfkv7yzQILeaBDZVv0ngJ5G3N9m0RdY0fbK1zTWTpu46c+DMmuv8lKZjrsSZI28E4f6U+baOBX0ET3HALZyKqfJeNbAGXMGx/GHR2rq7+NEec2o8w7ecaQAAwt81J9/JBdu3R+TN4VyURmzor87lk8ftmXfdnhx37sx7Y8bdP7KWgjOdWXatc5XZCLbvS7ce5nF5J6ZyFadKLuG77hG279Rec/8RM/sb0NQJfaUBbwSn51JH3LVpgzynsDRFDu2nilR29TCBb8Kwc6ZEEnvukYr8aGtowr41eecaq+ea4u/aONr2P610fytK2+n5gYF8aPMUI+GxP6wfzWj8mErjaap8YpPfgJi3mnjDbZIv+AYpwYF/SAd3Ul5QpWjDtjymLD+Dav2Q51BRZ4Qo/O2TB6Wvt3BT71E52wl+ibL3hld9AnGzpkA7T2dAaDwdXDXGPHzHXz3MeK2Ue24lhilzqyBTYn+ASw+ciWnWUPLgv12Tj+zF9l21zgA9kKm975xdUesntsjI9Js+XO+Uz2Vb4Nf3YSbXzyueiwq+fFEvdm0C+9iU982No4EIvxNWIR+hu7fRr0J1bg68VXfiYrLjW2PaSyjrpR+kNX2+KcNkTEDNoXy/hpq/UZHvB5vUDD3OLbtSWm4e/NWT/7DTNeBuGGbUwYhG1MMGAG4gd/8AdvToHD8tvv+93vftsX/gW5HIyAXhKEo8fhMHK1xemZSO/4ju+4LUIExQygZEJzkIJdSX1vAJjkq4MRiJsc/T1hH88UiFtACJp9EJJzsngmH2eHhya0BYnd+nd7t3fbJjQnpz46JrVrMlhY0w2+LOzUtfCxuBDc+2cDbfkNPH35S0l0OXkbLP09p7/yszinT9d2Nt/pnd5p04E2tLnqjhzaEmBwvuSnP7rTJv2gjx7d6Rv8kUWePtIe3Qss1Od8OHc80cuP//iP39G/ga7oV7kHPOABG02LDnxpz5Fu6Fzf4s+CpoVehkmA877v+75bHxo7eGHM6EefpW9JGfQsrpTLCJ4ycsoJTgQ2+po+GUcByQr10aKLW265ZesTizQLQgZ1L7tz8uGRHo1VPwOwOWHhps/okP5s6lgEo2Es6HN/t0tfFm7GG4eFngWcDQb9YnGLV4tIdelW/yvvmwp4E3wZl2RsXNCPcuaLcbY6nFO6cl8Z88q4ITsdkemrv/qrt37Rh8bZKV1DeauuoPv6nczkE+Ro4zIbE6BP1d1vTKBBj9oI+3ZtINgYMk9+6qd+avsGhrcB6Ak9/Ul/7IG/yKWTaBp/bBH7ZQwLctkxNs38Nk7pX3LfvCQT/eMZL437+DJ/bOA2T6Nh/tTf5qv6ve1TH+oT/LUxgWfzVLBoDGpbeRsxxhv5yG6zxJtSjQn1zDMLE2OmtyGM38YpWfDlaA7a1KV3eksm6MjOKM82RAOPzWN2yxwjf5sc/MR5Y2AwGFwN2BHzzYMQdsd854vZVn7SUWI3XbMdEnvi1Ww2Sj3z2qKH72MPrmoOsyXstDbYSHaQrUbf2282Q9iZfI222RmxniPe2TbyKSsG7S0+tsYmBn9rw0NbLQ7R3/uvezv4Cn2hn+lWfECHPuztgSKdZfsHfx/0Q3/mkQes/Kjxx097AOI7UKsfvSrUb+JHsQ1/zP+K5Zqv4lMPnsyRYoLrARnMH/GKeEscgK4YWCp+mfEyCNc/6v4GBtaaQoPNPQPRjqqJJwh98IMffHiv93qvLRBlyCzYLXpMBo7O7t17vMd7bME5g6c+WiavxRKHtNK2MGAk5VsUamddPKJhQtzyN4tMgbFFm0nIkPq9uY/3cVIMhQ0T/FlMmKy1w4Fp18aGoJ0xsZDyEUAfkfO7e6+54wP/eJcE+Zw2Hi0ewNNBiyhOnvO3UBYICPC1B+RiRKpDL+/zPu+zLTzRx4uNF0aE/uiR3DZC6Fagj2d0JMaHvsnoPDCSaOEH75LFF5kl/KCrnnKcPwfvPuMJ6FvAfcAHfMCmXzLJp1M69nt2jl77Fk7+4pVh1EcM1spPfUk3ZBBY2IihG5slvtNg0Uk3dEJeOhFUtFDDzx74kWwEWfgIqmwUGAsWemRJXtfktMAXdJGbTIIuuqmd6khrvrFl7ESPnOQxPldZ5dGtuaEMvqujnPLalryJAnuH5dymxXu+53tuelKHjPTEwaEjcKB3C17zp/47Bu2Tj37JbnGqTXPTWKM7Ml4rtJvO9tfr/cviVP3kdKRf/Uon+t44Iyt9kKtxo/+NQ3OCPvWNeytt+frOOBIsv+VbvuVmFzj6xqmNJAttc8dYNk7ZF3OuMSSxT/rFWM8+uWeD5Ru+4Ru2j4fqU7ZNUP6gBz1osyto7PsxmiVI9s6NpeZ7TzXdd2xskEv/23gxVz3ZUVZAbwPHhqlybJuNN2OrDazaQk8dm4A2bJQzZ21K+l6ND+n6do1NNWPYkyN236LDhsgsCgaDOxfmG3svgXn4Ld/yLYfbb7/98BVf8RXbG3PSl37pl24xj48Es03slfnPD7OD5nu+BtiKa0X2iQ32YMTmvHM+yrWjfDyzPfwvn2qDmE+GPtbse0c+4t33kfgD9Pg0thnvfAO50WODBseRbXZs3MD19PW9AXRlXJkbNgKMZeAXpcb7VQNN89QDUw/7+Hcbdeayj5j7IPbnfd7n3bG5dJUQqxgfjRVpMDiGK3ljQtDpqRlYfPqoHMfQ4sWkE+QKOjkBQbFFnMFvQijvqZ7dM68QKWsRZ/GOhg2LnmhzID0NtRAWqJtY/rKQs0RDwNsrZetGgN1BjseiBE11tO1JqWDbrrvFJN4ExsqhlYEwoe0OWwAK6NX5gi/4gu0NEe1ZBKJlgSNYJyvHd+utt24bH55KMkTu05eFSgaIM6dLCxB/LWkBiJ4jp4+OhbnNCwsK9/zOX1BgkUAn/taQMREMkFc7FkcWlPREdxZKdIyWJwj6yRNw/6Dg6Spa2qQ7CyrQz/iz4KJPMpIXTfwzOBbOFsWertMbXuIPPbpFXxAheBE02KTAG1nUAbQsXAQUFoRSm1df9EVftD211nc2gDyhlk8WY4oetWOsWDTuDZ989wQxFpKCD+AY1KM7KeONDzJZVKpDn/qP7PjWZo7YOUOvT+n0u7/7uzeaYFHrzQuLzfRn/JKZvHRCJuO4eWShRl7jBh0bO+r0tJ18Ns48QUdHf+OBrunduEVTXU/EjVf93TjwNhHeW0CGxqOjdnJg7mnb+ESPLtR3/1qhLhrmurdCHK/1jQl11zcmyI0GnYB26BoaH2wB+dAxvgTf+oA+lWHXzHd9by6yFRbZEnrGnfra1MeuBbOCdZud+kJfq6s9dk0fsGn0r0208BU/bJR889kigG0hi3lrThlb2jHHweaA/lS/4PzUGxP6zLh2Ti4bAexddle+flfP/NAnxoexow4+vvzLv/yOsU02bymZy2QzF40N8xkfkr7Br7eC2mS2UenfURzRQIstVdYmGL7oEU90g4fG5WAwuDEwx9hc9sT8tyFp3rOJt91222aLPM1li0psksResWn8C3/J7prH6LF/7BYbpY3LYJ3z2QH2iR3hS7UpJmAr3JOvHDvkARh7yjaJvb74i79484v8Pf/NXgK+xGxsqrcl8G3Tgkx8Qb7uKpBdvAyyfddS9yxcDy06pj9xnwdDvTGhL44taq+X76uWfcWe7lW0dZH6dMjnmRv62BjkW8VtYhg0mi8XoXdemWiZP970FDu6xw9bC4mnxXjm//XGdiuSw7zzUMU6guzFNeGq2hvc/fH3HyvfIOwHnYD58Y9//PY0UHDKsXBwFuW33377tjDjECzwOQwBKsOn3Nd//ddvu9+CVwPeop0TQcviwRM4k82Cr3a9YWCxywlpxz8E+C9/bxxwUpyvIN+iwmIeLDosFhgPsPiwGcLRadtkFmCbzBYy2rNgxr9FkcnHCOAHz8qhQZaMhIUJA6Hcp3zKpxwe/ehHb3Kga9OGI20h5XV9bXo7w18e2oix6CAPB01m9wQP8crJqs/QuI8Xmw+MD3DueLXgtIlA/3SoLc4Fn/Ea6DS9oosG52RBpA49+mtRGx6MLN4kfeY+GRhji0lPmb150qIKtOec/hzJ+Kmf+qnbQg2vggwGDa/u0Ts92mgwVtpQOYaCDItGO9MWgZwqBwva1L4jvmyKGF8CHbLZYbYQ04euJefGhA0toFtjSJ/qN+2hdwx0Rxa60teBk9IPFoL6jKx0SU/RDGiTWR8+5SlP2cpa6Jkr5KRvfatOi1IyaLs+XtG1dui1fjD/tIPO2lf7+heB+tda9zzgz5g3R+mLnJJ5br7bSLBJaqEs8FTOGKMzGzz6c4+z5JUnmV82Ko1JTtc4NV5tLnkKoZ/p2xg1X4w5tIxJ9snvuQX05goa+gwNY49TN8/ZBH89Sx6bD/oSzbVPjiG+zyqzB5r6ni6NLU8bLU7wgS82HD/kww952iw2v9lNY8abHfh0bl4YjwJ/Np7dNX/ZbwsH+erTj00+PMBl+B4MBteHbBqYt+aomIAdklxL7KmNBzGF+eufmmzK8oFsmVe3be7zm+hkOzuyL/mX1Ua5B64rwxaw1/yqBbCnu/wd2+1eUMdmqodLNkvZc77Qwss5v8bmaqcjn2ADVTzgOh6k/PxlscqoPpr7e47Q/RUrH5133z1JvWN14by6ne95uwz2dVY6a9sSXafvs6B+/mzlFbrneC387mnu21rp4tW9i7QTzRI6a1t7Gq4l41G8bD3yaZ/2advcMb/wVBlAax0vK23JNXS+bw8qY4yLa80lMTA/7lgbyQ37ds7DqbL4aZxBx8HgGP5Bg/96Ehy7B52baCaha4suT+gFow3QdUALfgW+8jgRDsMCQ135AuAcSPeUs+gy2STX8gTMrj3xt5NvkSmY5tjwg67AuwUXh2px70kgp9YTVU5Vm3iJrsWHJ442AfAAnDEHyBE2yS1E8KBekNc12jYibJSgm1HCE4erfeXxrozXnxkzZTL26OPDosYTS/Ljxe6kI7roKKP83vCpHy115e9R+TXRoToWVZ4G49nTfTu/2qMX5ZzjA10LbTySiW5sGEVLuZU3i0mbRcYK3kEZsPCxeKdvtAQXghGLneqvKbr6HI/6GO+e0toAE2hF12LVT38sVNHTvsWWgMfTJDyQNX5tbtiYoGdvm1ikwp4HKf7BNR3hvzG+8qmscad/0iVUxlE5441TS6boqocn44Uc8vSTvihQPJbQxVPjVkov6skvVb5yl0lw7B7s759K+7LGrz61GLZ49+TMPPb9DT9J8DOigmVzX9+yOeSyEQP0LkV/Re2s8tMtGoJkdOovvKBjvDe/Lbzb4GQL2RkbE8aPAMEGowU63ujcODP31bUQsMFnfLGDxi16ymkvxOMqRzx3LoXypNC5sWMzwRijH+Mi2dhLb1wYF8aWOUh2vKPJ5tK9eYN3b6VYxJDFuHWkL8mGh805NG2ckQ0tebDyPWnSpBuTjs01WO2h+b/aG/OUPfCQyWYBv8xfslGekq5xFETL/M8GsDdiAOfusWnrebYL2EN+1uYm+7jyyK6wqR7KiBnQZFezSfJXeuiDOuRAQ54ylVUGHeUvkrKddEQGcRxazqMnaYs9rc56BG2u9Urquod+be5T5dSPn/QpyUe/8/rzGK1jqbJorzzXt9qNd0f6d5QP0TmW6ATNeFUPj450iWb9VNsXTenS0TV0rzbi13XynEr0hofqo1WKFhyrC/rAQ0uxu3Gq3h7uGfNkVx7qO0n7ruXj4VhfxpP4T1xLLvG1N1zwGP/O06nyteE8nle6JXXqK2XXfgExZ+NVXjx3vpafdO9O/9ezXAEiCgb9mlYYgC0eOQJGSAKBr8W+gB3kC25zKoLf6qxwLY9zlF9CR/teezcp0LHD7z4+TCKT2f0mPOeKP+VtdphQ2q7NysVLwbq2TfgmH2iD44Tqr/owgQX8FhsWoN4iAGVLyjuim/HRJkfqqC1GS0Dvmw4W6vHb65TqRS9aAf301jEZpH3/JZv7kgWVRR5ZLe7pTxvo0BFayrnu1VBPkvFMZpsn+02HjvRDf/RaGahthrzdXrpAP0cQjZA8oL8FNXimc29bMKry8U4eCyP5HIY3GujVItBCl1z6AbRpAWxRZoFmw0oeeePlLOBTmyE+3a9PJHrET6ice9o1b/CFlrrKN0bpsDHtHjmit9dToPvGelBem9DxWhDv10PjGNAzVmx2feAHfuD2O2cfUrUZ4bsxUt85oBMbADZJe8uILlae9rpxvd6rrLFsU4hjR6dxry9cGw82QNgdfWnMGfuu2beeYOhDmxjmEV0bp/iUtOGeNuSjb8GvLYsA12fpU14pHCtPPnyjB9r11ob75pj2KuOobfyhJZ/+8encHLLJIE/wZfNBWfpwVNfYJRN6bBjZ6KxNDnXjZTAY3LnI3jmW9tdsQnPfmxUePrCp5q6FkLembFKY72xDfiXbJ8ZCR3n5Nm39lM4DJb61fGA/2W9xg9iD/y0vm4QPPg5faPJl5bsnOdcWH60MOsUY2mCfs3XsT/xBx2OQpx7abKdzD7Q80PDNKm/I4l/72XXIxrkvtcAT55FTPZvt3iRjG+lQfcc9P+rTO92q7xot5fSDhy42w/3E1EMVfccmnyXXRaB+i1t9wP7rR+3QLx7EWel0bc+5+/TF7ylLTrySGb8eOMhvsRzO4xtd/cGf0An/W0ylHUf3teMnjHjmt7RFHvWlEK/0ig9ljDf8iQ/1M37zffSxj6VAHj2JP8mpz9B0v4RP80RMSof6Ci18u6ZjbTUu1METeaNBPrKAMmis8siXtK1c8oovrCEk8q11AO2OaBrXHjaSG621vOsQX50PBiuuLNprAF5kkDXolTV51nNHky5jYDAb8Ca2fJBfWahuBlqqrnOTNyPD2fhw3Cd/8icfPvzDP/zwsIc97PCxH/uxW/roj/7ow0d8xEds9xhrE5UBYxScM5acrnN0/HSBI/N2B0PAwQi8OSHfEwDG3hPHjN8eePYkUXDOaCZjckgr0IgXO50WNuTkfBg4Dp3hSX58RuNY+7BvK92iAet5qLz7dKUd9QQeFiBkIXPloD5yVIa+8MjgZVCjWXuOyjiq133lXEs5KHlkrD2oPHTuqI6ns8YZXsmg31zLEwhIeLTRYlGpn4xFzkf/aqvAo9/NkV9ZO9EcCnlXHuAYT8myYpVROqafFe6tdCrvWl9IQJ/kODUeQroI5GkhDNqrjcviGP9XAbzgz5szgjgBBqctWHBPgKvP/OTKzyW8QmmTrHGZ7vY6PibjMRlWnUjoOaJvA83GgzLshuQ+nbIzyjr6/efDH/7wzR6xRf/qX/2rw8d//MdvNsr5h3zIh2zjzbg1b8w99uC8/lz5ki6KY7oo4Z9tNk5cG1v4cq4f2CO2SX3B10Me8pDDIx/5yMPHfMzHbPJ83Md93HYk3yMe8Yjt46BsNVtGF+gZt2v7g8HgxuLYfFvn/THk6/gWcZC3JryWbg77WaT5z0axC+Id930Dgj3zbSr2UKzmDQsf0baZ7EO4D3zgA7fvXbAD4im2wXeP3FeOP5aHpja8FedfwbTJFmnPwpht8VFwSb6HVRaD2nZtMdlDKD8lQ9vGNh4cbZBANv2YHtwrLrBpwP75sLkNcfzecsstG92HPvShhw/6oA/a5MpeAl7ZU3GERaoNdhvr6qunvvTP/tk/2z6UbCGobLqv39CkI/aW3HyEPBs99Or++7//+2+08EE+8Y72j/X9RaCejWXwhszaDtn/xb/4F9t5P90txk92enMPDWPDBgH+0CC7uv7Z76M+6qO2bxaRPd9wFt/oy0fXpgy90T/68ujZt9usC1YdK0N34gY6Ln4CbRUfqU/Xxkk0yK7f6NZ4s3mgfDS0S0Z6kKeMByk+fG18J5d+NZ/8JMoYMJZA/3oDFH31tIfnD/uwD9s+3iqeNU7zn3SLhjw/n7amQd/Rv4L4qL48fMgXk+DRhqK++9AP/dBt7Gg3PcuX0NaWNr2Jqr/EMGisWGNJUBei13EwuOaNCYMxnGWoofuV6Vq9U4Oxcso08Ne60L2w5jvKFxTbaTRBuy+oZ5QsWEoMqR1Hu9IWMxygxbONCMAnZ+NVbU/QGXoT2m/VGUjGSUCNBsPH6TFmnp5bNLRwjxaDE4/a6loeeSXnyQPuuTbBGRS8cqr+JYQxFOQL7m2Y1FaITjTXVFtQuZXXfXl5kjyyMUDrxkSbN9FaoY6+UI7cwBCjQQdhbYth3TuF+I2Xyq/pGKqnba+g62NOi1O2EBJICZBcc2KufRtA+55k23CwGORcLTLJqV7f8vD2iydFAhx8hZWnjskhlb+XB7qG+F/Hx1pnj+h3Ht3Ou7+He/WTgE9Z/dSGXTSuF/HguE8XRWU7mh82HvzkybcR/MTFd1tsRHzO53zO4bGPfezhUY961PbdB5uGAoZ1vNb+qbTK7TqcNebdF4SkS7o17pzbmBOQOzf22CcBAZskWLbB0rmAWYCsrHlWECd4yYbs04p4L28/duS7Rmu1UVL5K/Zlo2O+mGPkIZ/7bLENIgEOOci4HsnoaYt55O0TY097+zYHg8GNwzEbsc5tWK/zRY7mPXvEb3oL1GY+mPviFb6TrWCjlbPBLxYTN7F7NiX8u4+fhnrDgJ9Vj9+xMc5Wq2czgj1kO/glNoNt5bMt5v2DEHrqKI+WeE2sZFErbtO2OM1iUJvKtEnATr3DO7zDlqesesqTkz6O2aT0IY//9zFmC1WLSd8zQlMsKl4UY1oMW2zbFBA/kA1tPCvbRoo3/MhqgayunwGSEc/iPnzne6T6QgzDd9AR/ZLF4tkClW7olExsr8WoBagNHHWT4ywkb+2CNumNTPpS/5HN0eKdLrSDL/1SG/kXdPBmUY+Gj5Hyd2JrY8dGEv59gJ7s8mwAVf8Y0NSWeE3/6nMxMh6MLRtZYnZ9on/wi64+0+/awn96CWiiJV8y5vQTHdiQ0k/aoQ/yKJueAD0+UuxL7/pJGXTNI/nkck0n9aWxoS9tphkHNjY8VKs9mwLGlXVNvhn0tTlAf+YJaNtcQ6+5od96UIIuvfDZva2SDI5SfYgmfeITj+Zl/aIMmda6K84ba4N7F655YwLOGkzyTuXv76/XBuzeADRBmwjHsB/wjugWIDtHQ8D7RV/0Rdtf41iYWKj44nTp1ltv3e55kuroexP9VIDDsJj1G0qLT0bMTqPda06EIfUk0CRnTGxi+HaEycxRcTxhlSP53Vvv78HAWMAw8Nqyo2unlCFiXPyjA6NokYJmadVd9Nd2ah/W8xCdPdCw2ALyuiZjC/azoCx5oi3F074t90vnYa17Fj0OCq+e7OgfGz0WRXjSr5y9cn7u0avlFrs2MhhcDlI9GzIWVPqlJ/HGGIOfc7kIVvn2Ryg/XZWOYa0HlVvvr/WP3defxpFX+L2ZA4JLT6TIbUwpt2/rFJTbp5WHqwJ6AhXfMvj3//7fHx7zmMdsGxE+uuqjsX6S4/sn+r2ndvocPxBvK47xeOreKXnKW8cDHUr02ZMImw1sjg+7ZY8kNqfUPYk8NssEBcbbsfZXmRwrs8q5loH1PByjHdb6yeVana5t7OkHf9XHtvqYZmkvn6M+ZLvpRv3BYHDjsc7li6Dy5no2wpF9bdFoDltYu28TobKSuhadFkwW4Rah/K4PN3so4ON8fqLKVhdnqAfOszV8MF/lo8G+IcWWsony3ffxaD/d65/H3OPf+kc2m7zoSN6C9U2gyjry/bUF8QDuse0dLWo9gbZQFC+wfTbHfSCUH2LjtWkB660J8uNVPGVRaDOELiySxZpsoW+j3X777RsdPyvlj8V9yrH/eFt5oiu8yGuTha/h/9CRfJSdrOIbGxQedImF8JKc56E2xcc2HrQDvuNGXvG2hwP61DiwSaKcdhoLwA8bIzYJLJDJTm9iaLE6f+jj0uiKTSzKbajQHTrkPwVtlO+cbBb7Fvf0bwPNt8zw63tK+t5PX+lYH3qzhx7rX7SMN28t2ICyySNO9BMm/URmD0I8qNL/NhRsROnbtY/QS8+OqwyNJ6Bb1zambC7ZYDBWfHjax7D1Jf6NaWsNm302dYwBfY6Ocez7VX0Tyj3zUyxkfEvWLOYcv6tuvMZX/OzhvlR5x1VOwP+avx4HgxXXtDFx3mAq/6xBvOJUuWvByptzE49DaeIwfiagCW2SMkCOjLW0XnsVkWG0u29SSepzbr5TYcL7XRoDyTkwUDYGbGQwcAyUJ7LKQXIe0x/ap6C8uowag20zhBNnuMmGT8aU8bagIZ/yjEl1S6txDuWt2PO4z8/IWJgzYnTUNT735UNtMZ6coXMG1qK+Niuzx56nY6jMqbLRZeg5Hv8OABwQh4l/DtPGhCe2jLn+5AgdBQmcqx115f2Uxi539ARQOZFjMgR5qxNaZd/jmCz7+qeg3EVprsgpcXQCCtBndsQ5dIGAMucBDbowB9LLjYY5ajzpG8lGmcW7Y4GQfpac0+NZujymv/09dCQ4pnPXdGDMg8DPxpg65k58sVd+WpItEoR17ui6e469kUW3x/gM8dZxhXulUyjvVBv7usaGOcM26AuwUGCrfCTU01QyJIf7Jff8zIqNpafz5tJgMLj5MEfZAbaUnTNv2TN2zjkf69iiN5ujvDjKwhgsvG1MPuEJT9g2Mj0k8nNK5ZRf60L2m3/ig70pJxZiG9lW7alvMxTNJz7xiduDKRse7lvwasciEh30bWz457PK+wc55eWx43s/Fj/a8mTZAt9TdrLbVLAZqx3/smWRbiGJB/csYMVx4gpAg99i/+jCxq36yvkrcPXUtznBxnow4kFJ/jhe8rcW0OJSGxB0qU0b2pJNYLGjhbk6nvh7Aq/f8OEemc+CMqA9sosX6B+fNmC0Q3/aEk8oL44QQ9F3uuSPX+d1XmcbB84tktERR3vzkW/Qt+jwEXSrvM2Z/F+8nAdlbSZ4GCUGxKsFvk0Qsbux4ttT+oWObSx48KeehGdjS1xh3OhTfOkn/Nrw0W82ocSExgy5vNWQvPG6HqXaWB+YqC+vvrSZVl/SCV79q4cNETwr740JZflftPzEmD71iTea0MY/Xo1zawfzgPz9C92eR/21ovsQr7DKMRhcFleySjD4MuinBuK+jNTg7f4ea1lQfp0IsOavzmJty+4gQ8+Q2fXMoMizKGaA5R1L0a5dBtCrShZnDDBj9B//43/cJra/yvp3/+7fbQ6NcfL0PJ7QWXmPtxIck881fiUbIHZKvV6FtrYZvxwV42jX1GYImjmWY9i3L604j1dHZThTCz4LEOBQPPHoTYo91GMkvVHgFW/9pKw+ois03Vv7D9y/iCxnlQvRxDNnrR8FUl51s6liV9rmBLk4AOXkOwp2GHoy2pAQbNkgomvOnePlPLSxjseVx7C/hn05x71Mq272ejqGfbl9+WP6Kp8OjCebNJwdRycQcO4Jk2O096gd+ep7omBOac/95Kpu5a8H1TdPjUVjzBML4xSv63zE1zHEx5qOyVj97u/LrPc5eU92BM/um8/GPLSJ4j4ejTVzhK4cjS3HNXUP7fgI6JS6hvQN671T2NM5hpVO54707Gj8tDFhzluAZG+PyZU8e5kGg8GdB3N3TWfZiRWVY8f4Sz6Cf0eDDW7xHV3z3JFtcN6bAR6u+Mks/+uJLv+xx0oje+GavRHftSCDYj4PF0r4wxu/xG8rHz/as5EqT1kbHmisi7WgPHtX/TYK6IDvtJngbQ00bCKjg74FrY0KC3d5aKDPF4jlLHJtGog5LBT5C3ZTWRsnYhfX4g+bCXwexF96YWe1byHroVqyS+Rzz2Y43vgoi3V+Mzrp+RTSGV5sOFuM90DHBge6Fss2F7RFdj5ZPEtP2uEnvI3pSb+fRacbT++L3etL/8ZiM9tR/GUB7s2Tfb/sgUdlKoemRX3/OIVP/Ep0a7Hf2wNiQu30s0R95b5NdpsDNjXIbszoJ3n49gDUhgDaxrh+ag4E/Ox1vF7LT8d0YFNGe+jSpfGkj41vGys2QtyjE2+gOFeXvMaoOsqjiR7dGwfGlQ0LdKoDHcG5tOr6GP+nZEqO9f5gsMeVbEycQoNvHcTgfveODdKLDNoGfnDNqJdcm3QMlyPD675rv5lyNEkYGGUl56WVfnkmKyfgVTUBNodhZ1Vi9O1GcjJ2ehkiO60thqRoSSvW6/QhVRYt9b2axWgzHoypHXQGlCEFcjKIjuFYW6veQuW0g+cVexohPumWEaZf/Nk1Z5x7Il2fcJxoc0oMJv3QKWOuvraP8baiNtd0Fvb5yeK+McAoC3zwx5Db1bbhwIhzVgICjkR595S1AWHxaHOKc+2VROUZ9/R3StfQfUdJ2VL36wu8OXcsr/o3CjkQ44kj1Meu9angwWuJeFNOP8Zj/Eo9xeAEzRdPC1wbr8rWxo0AuuiXXK8prOehfitv7Zewr1cb5F77TAIBnw1NG6OCYePKmLFRYWPMPFbf/LFBln6aMyXXbbKcxd+K8/LPw7XUxz/5LC4EOuoXQLdQSVdkasxI8sgeXCfrYDC4sdjPteb+agPOsgfqm//sPv9ePOKeetXdt2Nh963f+q3bIkke25A9WOG6e3s+XGdTsr3gvI0RSf6pssE9efxbsZw6a/tBWfGBBxvelLCAtQAkE9uOjnaVk8iFVnYOvc7pi0/w8IkutMvvxgufoYxYg35d8yvx1jF6fLi4RXyCx+TAB7o2j+SL2dxnpy3EnYNynR+DdrSHFz9l6O0W/ErgYQ0/YCHP94HvENgEUdZYoTc/o3VtA8PmhjoW03iTOvdzBEks4WGJ2G2V+RSSwxEdb0fTtf7Aa+PBtZ/kakM/uqcdeqkdNMSCYiMbL+6LC/WR8uLLNr4c9T8+j43pPU7pm57EYzbs6svGEh3ra3w7yhN39TAElF3709H1XnblS+cBjX25U/wPBhfBlWxMXGTwXgTrZDkFbcnP4Tk3mRgDhsbENSnlO7cIZhS8ruWaIfbWgQCZMVFWEkSXGDuTlBFRR3KtPY5HXZOXEbVZYKHm4zUMK+NlccFocEgW3Bmxs+QK5FN+1alzjo7DkGcnmjHFD7nbACCntynsQgODE6LnqB6ZgBwMF32RPX1APO95X8/BRonXHMlMdvpgJBlk7eBL4lTwTn9e5UOHU7Sbr67rY46l9lYZLos9/xljGxP6CX949v2OfsbhqY1defrFH+TEORly2MigP/3sPt0aK2FtF98r7/LWfFBfGfT1Db70jYSHy+qgNvbtxMtZdOTRk7FmE4wTds3Z+fqy34KaD/rU2MGrsVN/Nx+9AukjXj4E5iNK6B7r56tC8uJ1lb90Eaxlz6pTnoDE5oM+Inf2hx4cvTZqY0K5NsOMJQGl+SOYE7C5tnFqbMmnT2MC3eYo+to114xhOIvHFXSvbOXrf8fOL4M9nRXyBEk9jWvjjx2jA/I0XsjX+GHTeuvoRo6TwWBwMTTPV9txHsxjqTikeb4HeuwDG+jNBeWlbBIbIK025hgP3TtW3jU7WuwjRX+9Tr7KVWeluW8br/LYYnaeT+S/2XVPr9VXp/prUi4bHpTl++lOLEFvYic6crRY9zBH/OqestGILuz5VCY+pPgiZ74axDPKnqKzR+XQxJ/y9bk87eDRPZsp2lKWjRefa9cbqGJX+nCNBz/TkHwDQkwp+UmFGM3bC+qCeIQvhHg5hTU/eenYfWMz3QC+/XSXTIBf/lm+8uSU6EpSPh9tDcHHOaovTztiybU+nKffNd85HxmfJbLIoxOxaLLZHLF2AOWKI0F5fCjrniM+lYNVV9eK82QbDI7hSjYmYB3Ezksr1vv7dAzdb3A7ds5gNMFMRoE8QyC49wTbE3kGnTFgEC1+vcng3CtjFlYWCgwHB6KehbSJ6VU8+b7WawFtorrPaGpDsM3QegLsy8A+fukve/xNjsWXD1L68JHvQTCg6lvoZqxDsq+TV9nuJz9kNIBxYySVzVlZxDBCvtTsd4LK1156q60WBK4tlCwcycPZ0RddMrTox9vKU3Sk9OvVQ3qhI/rzUSGvrlm0kp1u6douuQ87WZzg21sn+kX7K4+1A6tOVsQbrHn7csfqgvpoe5IgIDKObEoYP/hdf+MOjoIBrxHqC0GI30k6t4Hh6TD548txz6O06jW4b7zqT3kcoDc3nNOhRR2+0oX70VvTHuu9fZlj5ffQv9rSR16zNc7owaacOWKs+wCUt2Q4QPILKmzQCSiMRx9r8v0Vm3cW3cauuZteId72PF4Ua91T4+WyWGnu+yvI057AKBmNd/ZEvwnC2KL73e9+24YhuY0TT4PMQfrS765t7sFqn5QRiKJjTLq2ASrfB3fZJ2hMHRsXx+5Xx7njMezLnUI0HEuu2Rbzx6YwmQXabBPejR9ySeyvgJUubFywu74QTm/onNL9YDC4cWgud34RKGe+ijH4dLa+RS7/v/pTqA12jd0spgvy9vZnPS9vbyMq47ie77HPL6F7UWi78ny0OIKMbBp/CfJXmvG7byte5NOHRSY64gIb396ms0Dve2baEX/Q8aqD6Kz00/ux9tYjOsWbrss7hvJL2iiWC87lsf8g7msc9OayWJF86oo5fHBSbN3frJb820R/yclXiIXpW7xEB6ew8qg9R3zxOfgoL8SzmJbunWuLT+Ovq49fY5Z/5sf0GTnEbvrJP3VYJ5BJu9pa9Q+16xhvK1yXtFlfr/dXmuZedJSViuPA/Y6S+2te+WG9V7lTOFZ/j8qcV25w78X/9RDXiSbCqcHm/r5ME2KdGI5rmY4tgME9xs0iERgMby7883/+z7cNAcbLByK9ap/RtlDw8wcBMkPm45E2E/wvssWVv/th8PwvsKNNBQsDCy71GSNGiKHyKhVDpF2OiOGxGGeI+rK0p8looyXQZqyOGR1YZU0P4FoiO+OIdzqws+yrxnaOBe82PwT72vOKvTqCAGA08Z2zcMS7BQEwzHahbarQA0dAF5yeYCGDF4/gPGMO9OBpug81WTzRiX8KsWFDfl+E1h/+rxyPnpqj61VFdVrsupf8aK9tur/qpmupco4rjbOgrHL0YVOhr35zlEDXNiz0m75PXvq0KWbsCbrk6xubGAIINJSLp7D2/cpjzl8/oNNrhRytRb3/pe5/zOmRA8dD/ERzPd+jPO1K3UNj1d8e8Wj849Pmkw8j2cQxJr3WaAwWLODR/GksScalxTOZ/F7TK5poqV+78bfyoe3aP4Wz6msjWWGffx7Wtle9nYKAhZyCJ+PeHCK7AMrYF2gZW3Tn9V5jLpvmaOz4Da5xZ4OHLaFPNsomX3Oo/3S3cBeYsU/qAx3HN1nxnMyO6XTVRcc1DyrT9Xk4Vo5sxrX5YjPPnGEbbNKwBf4bnZ7Yx1tuuWUbQ2T0RpsNDJsXzafBYHDXh7nKHokdgM3jPyxE2Tg2wQJ1b5uzsc5XGxZOna84Vm/Fag/3cP9U3kWANhnFlmweiGssVuWtthXW9vLD8Y+OxSU92sxmH8UB/oWNT5D4AXEUX6FeNI6htspf+XBvn+e8+91b65xC5Y6VdY8tJ1tvEOC5eEt7xoUy8vgKMSX9rUkcLznnKz0wEY+3FkiOi2DV2Z5v9/UbHsRl4IGLOuLnyrYBZ63hAQzfL8YVB/Bn4iEPaNQF9WFta9/2HvuygD9pX9d5bcAqI1R2T2ePU/ePYW1/MLgKXMnGhInZBOCEHA3WBnaTpTxH16XK5ThaVEP1youuBaHfq3kNX/sW0oJar4z73b/NAgt4i7ja9w8bPhbJmDH6djUtHtQT7PsLThsSfvdm59NXgH1gRt2ci6eZnpRbrFpo+UCPD072F1UW2wJxxswrff3nsL81YpTRQa/FBOAfj7WRPrpn4Y+ejyhZ0DDgPkDYQtBRgO/pvTcQfDyqjQe0oqtdNBlTvOJf216js9CxOOj/v73RwEGkb3WDOiBP4oi14UNC9OuDTxbQeGSs6VeyWeGJsj6xULn99tu3PtG/0Up+NB3BUV5YeYGulUuXl4G+7u0I7Rp/fsPH2Qk0yBZNDka+caEtfeEtGj/7oNc9r50rq8/jESorCTD0sd88cnza9SaLRanAxELV2KNX5aMjNZ7c28O9krLreW2fQvnK04uAwMeVfDHdvybYhKIbi2ObW75EblPOJqFFszdvLNg5d29b+Ksvby6p01iEY7w5nofKOKKnXterPpKjdFGoH61TPEVPEGrM2KxiU2zK2FCyQSkw0b82utgL/7BRQAOOkrl76623bnbHWDAPbUCyaeY3+2QO9VMjfaBONOgVmg/RXeUmg/xSssGqG/fMy/LCMR2kI/SiH5ybLzZdyMbmGEvGi7FNpjaGbViwrTZv2Ids+2X6bDAY3DyY7+wQeycesXmdDWCr2Ml8e7bEMRtVuiiOld3TiH5+vFT7K8pbz9d0DN1HT2xT3MR2ZRNLp7DmO9qQYBctctlItlEsKe7VhtiELsm01gvreTjF/wr1Ssnc9Smcyqu96MDqG6CYCcTU5CGfWNK/RIgnSz7y7oOgkjzJOb/C94rfrgUrfyvwauPEUX5rid780M/8lYcGPYzxt6LGvfiND/cg05uT8ZYuV52tba/392Uqt5Z3vqfZmANH14397nd9Hi5SJpqDwVXhHxh415Kgo91Li1HJotyEFag2+BloO+gWoZJyrt1XtnKSaxOf4bVYlPzEoAC1ZMFjceijk14VFsRaKDECXon2lzjaiY+Mi4WRhZV8i3NPygX5jIiFl9859pdEfldvI0B9k89v2SwUvEnhN+L+icPHLtHyJWIfwWQ8/TWSv5iywOCQLVa81WCjInk9PSCbXV/tugerjFJtkxfv+OrrvxYODKdyNkR8fNPfBVkEWCinE7pDR9sMpPI+6mMDgw4tBJTDkzYsnhh6AQSoZ3FJZjQLLtCMR2Xo0YLCV4rRoF/666cm+sPutnYtUv32XD3yoZOBszAnj7GiPc6rzSlQtmSjAO/K0qf+TyfnpfjncLRHdjIaT3gVBIRkBLJYFNKddr2Gr+0cQHQlMtE5B4W28eb1zPoElDNO0aczi3/9ow7Z9I/FrA0wc40ulJWHprb1j3u1W4ofOtQX8UDHq8M6laovkcW8JbtAwXi3OWix6a/L+t2rduiPHs0hc8LbStpGQ0IPomkeyNffbappv+OxFO90ScfqajcdN0Yrd16C5KRj/Ywnc4Fs6NHZMT0ra3PSHPRWiDlNLnMKTz4K5kva5od5Ur10of/BGDSHJWXVJYs5RC+ubfKwe+YYmaOFN7rIdtoIsWnGdshPD8aC8SKf3vEO8oCc2iS38Y2ee+m59iT36UP/44WelGHD0735hQ92C9/GhHGube2wkfTFHhjj7IevmRv/aMPa5qRJk25car517By63qdsS/bcgw3fB+hjgeyN+S7OAuWg+q4duxe9fVrR9Xpcy3R9KmWfVqxywLE6+3uS8uwjO82+grceyc+278tDR3COhsW5DWmLXW+O+ekGO+gvHfnRT//0T9/iS/6Xf+XHVxlWmrC2dSydkiccyysdAx9UX0roZ8PxSj4P2ujKWODT1OEHnPMV0SA3n8K38OnSel4ythpXsPJYCsfu7++lEzyK+fky13jUDv7B28oeFHio52EBH9YGvD7y15v+oc/Dpnw+1E7XYX9vve781L2uOx7LO3V9VlrLppf1Xvf396T9vf31pEmn0lO9yZu8yd+OmEsgox0svBkTRkcQLNBlnN2TNORoQjsX9Ms3yd03sCuHtsC2VwDdk4+mIBjWCcLoo+u1X7uUFm4MFTRhog3oM354BmXU1Z6FHuMSf+RhnJTBkyd83gBgaB/72Mdui4d+8iB/BT2g+YhHPGIrI8BnrCyALabbdS3g13Y8dlyx6hxtRtHv2unFYiAHRTbwxIJe6IdMkB6Uk7RLZ55s44ORt0iAnKt21euVQfUdORHH+OqIrnM84oUOvJFBP/h0Tz6dOa797hh/+gD/dG2cOObgawuUFQCsdTmBFnoXgXrk1y/xhd94lV85CS/6j4z4j0d5x+Rx3qt8zpWh5+i7Dq7JrW9tZJGH3sjUOEs2NBufaCiDpnsr8EA+qfbQEUTF30WhrLorTUkApq+1ja7xaIzQi3mEx/h2Xpu1L49OnbtHP8qh5/osKNd4AeXxgM/0E93zUDl11nkKNr3iVb7vZXjTytMtGwbmt41N41E5b2wpa24LaswpPNFXPEHn+sU5kMc9Ywwd5/ofLbpxnXyA5xI9ZDuNB7qoHPrayTaA8au/Vn7IXX/I1yZ60Qny3KMrbYJxSFb05WtPUh898rvP9gj81KNb44VMknxl1RsMBjce5r25aPHnLU8/HWDXbTSLY8Qu/JL52XwG87S5zdY7+o6UnyLaoGC3bLZ7Q9JGLT9hs92bqR/90R+9vV3n/id90idtizgPBLLbIdvDDvk5mCfUfkaozMMf/vDtIRB/yebwOdrwpqE3QNkmD49sDBcboJeda3H8MR/zMdu3G9gnf/1u412cyE6xo6u8e+ANbU/L/UTN244W1v5K3kY+HrSRTOlLSpclP0emP7x5wOThlwV6MZ4y6ijjjTw21MaFtweUIR+/QUfeWmX/+xc3dlld6Ehf973vfbc3/LwBgF++zDjIB2gzOK8vlPfGrp+VoKMP8ZwvUBbP+BGHekv5Iz/yI7eFvLhGO8obD94OEWOLNY0VDxDV1VYyO3YOq/7SzR7u0z/frH8/9mM/dot5rRP8vb9xDfUrGsaAsUx/3oQgpwcwNoY8rOA/bRx5UGm82mj3M1cPZvPz6NGJeeB7UOJgDxuMCf2EJ5v+3tIWR5hbHnbhia7oQd/pX2PKA1H41//6X299VN9IdKRdvBsTNkzMEw9ZbWjlvyXrET97960qfewBa995g/QA/YzUm7oehHgAa5yjQ6+AD/TFQ8Yc3dLDJ37iJ27H5pv+/jf/5t9sY02f2cAxLtFJjsEAriTqE1RyXowLY5wxabAZhAJNk5AxMEBXAxmUNYANZE/YDGq/uec43GvgRldiAExiRsfTRk8KLdZzntWBJpP7JpdNDLwwOCamJ4hk0fZaXx11OVkGqQWCMuRQxuRkfB3VU6agXD4DhbZr9fBIX/S2bhwoW1qvte+IF07cE3XGyVNGOsKz9uhdPQshtOl8pQFdK6+/GEPyM1J0XXAhgXLarH/xvqfnvGvHFqZ4o9+evKpLFxnBtU5tOq8u3ZCZoyt/hWu84UtfkptTuQzQIHM09JNABOIPlKNbvMgnDx617760lg/41z/GvoS+e7DK755kbHq6pE+8jWHDqDr0Vlmyoqdf2thq3q1IPnzGgzbc35c9D9ogp/loXOhP48x49ASHgzaezEO6zCGqE/Ztmg/kS/94uwzIjEabkuisY+wyMuJVefwaw3SLJt2hl5M9BvWSRR068fqy/jOesweOaEj6sXN1A/7ViQ77JiAiG/0o23iLRnwba8ZlZdODcvId8Ug284uc7qcnR/2mPjrKQnRW0Ad6dG8c4NdYU9b9aMajhLZxoyzbQEfGOxoCMWVWfgaDwc2F+Wiul8zvEpiz5r3Flu9s+TmfhRiIq3q6zzeb18qvyDZcFJcpq71syXn14kMiG1+fnCudFcrSD5ssZuUrnNsosWktZpQvNkx/ztFkF5V1FFPYCPKTTYtSttubkmK8/LV6xTfqwDGergcrvXRxUZCFf8NjuiOLONk932LzIW9tFN+hr454im+gKxs8Nq7SLVqO6KHjnL6MufR3USRP7aJZf0jieLT1mzedbTwou8aGNqwswG2A4dnbkvyzc0AjHZB1r9PgfL1e0f2O0Tirzims7cP+eg96IKcYhH61Z3OCTPLIZRy7pnuJzMk7GFwPrmtjwmA1IA1QTwnt+Bmo7hucUpPIYDawleG8yoP9QHafoVAe3WiWIPoMFMOnjHO0GRITJOzbUQ7P6uHHhHKPIWJw5NUW+TJYAnXXdtD9btxrdiYvoyuotjhsIWCH1U6op52CbcG3SS4PXfxqW3vdK4X1PN6VxTf9yMcrGj2tTi9kco9ce6Q3denYUV3naB2rg199Eb8QTyvimf7rP+f4dY6n+mZff62rD+lHnfrjFMiqvPYaK5dB+mjs6N9jsq3AE94qb1ys7XYebXylD3WVd1/+Ws+1/NVR4ksb+/LK6Q90V50ekz/5lG2sHCt3EWhDQgNfZCKf6/h3LW+9H/bnyuNLfycL3uRdhEdltEGuxgH9BXQumugp4H0ds/JX7K9hrxOy1X/yIJkaM9FxdC1Vr7bTqWvzH5+VDZ2zY/RgbKgTkg0fjXW04gvwIJlT9KgMesdkBW2ii47y6EZPHXlrXefpFX/JRj+u9Vt1TrU5GAzuXFiciGMsvGya2mRwLvYBNsJCzZNaT4f9HIEdsFD3syybE4Hdg9V2Nd8vO+cvU2dtD6qXXbTItVAF8rgWs5GXnC3Q9kBHPTaMTjwgEwuya57Qe5tAnGjhLT6ULHLRtAD30WR2HQ1HbePJNTrKoaUdfYAfi3s6ZnevB8fkCek2PZ1C+XyGp/psuk1nm8/0QW4PUXxfzPff+BQy0JPxYTzw/R5e2YQno2/E+ZC7+Jm+0PKwDz2bGfTpQaGn9GLt+vA8XlfQnTFLz3hEX5/bWMKTGF/f6Feb+H6K2APA/JV+UVYd9/kv99DCs7cWbLCsfhji0/Ei/m7NO6vP9qis457+We2Zu2Qgd5s/dOVtC30gNT+U8waMzUh9e0qW+mgwOA/XNVIagAa9SWmC5nT22JdZJ8o6iFeaazKoHY8BvWg4r51j5Ssnr7LO3V+vg/Pa9iTY009GyVMBr7D52A0DZmJKnJBXvHyV1weL1PWbc78xhz2f8Qpru8cgX6p8E921VP1kqdwxrHroqPzKT1BWPuMkyXdvTwPWe8m30o7+WmeP6iq3lj1WR3vKxJsyZ9E+hurU3trmKazlL9LeShvSU0dwvtIN3XOUquPequPSMbi/6v96gV58Ot/LEy+l/b098FUfOl/1chZWmsl2jL57aJ6XwLE5v9fXMdoQfWWP1Smt7cB6vkJZNFZ5uhetY6jMnocVaxlpTwtPlYnGKT5D9KJ1TM6Vbvy5Lq3Xg8Hg5qL5aKFsAei1drGOD9eKc/wEw3ck/F20D/76KYDYx8eQLdC8QeVnCN7stBAtXgF0sw/r3D8PlTlWx3lpf929PdBoA9lC0oIXn+Qlm9foLZL9S5A3IFbaK9gzdNT1jTOLbBsKFnN042cnFtJoSDYWLNJt4txyyy3bk3n1LfRs+qBH7zYubFb0U0B8umcDiP5tBpzSXfelvT1eUZlj6VQdkB+c49/i1DcXyL3KSpd+ouLnA2Tw/SJvg9I3qGvDwTerLIbJRWd+lqAv0LDotYGhT8hOd35m4YPbLYjPQ3LRjU10H6W3eWRzAw0bCd5a8SFvDxa1ha4+tWmiXyzaLcxtoNRPNl3Iqu/IREYbR/reWyKu135yRFe8o1/RKQ/KVye54rty7pfA/T2N6oBy5Xe/vD3kk9Mc9mYL/ujFZlGyehDhrSh96yfubUpFt7YCerW78jEY7PHUL/IiL/KIvzu/MBrgq6MJTZJTWCfSeajsRWiuuCz9Fd3b55GX42I8GSK7oF6586qeryVzXJw2h83JyLOL6kN1fttoBzkncr04xfMex+7tURnynVf+VDsr1jL7shepHyp70fJwmbKncC1tXrT8ZWmv2Ndbry9D9zJlL4pT9C7L1x6X4fOssubcZXhZsdbLiXbPt2nMew7aXPcEyDzngC+C8/g5ln9enRCP14uroHFR3JltDQaD/xfFdJ4KW0DagPAQxqLKN60sEEsWW5LzV3zFV9y+HeBpqqfQ6nuI45sGffgPXfQl9tFCm920OPdU3MaFD2NbBImTKh/YBvc8pbWg1Lb2wGv0HhiJy9C22LMxIi6zOLRYshD2kwiLwOwzmtqQr31vcXm4ZIGKNxsSnpj7RywL4Z4gW3hmq/ZHtNESK7Zws7i1UEfLoo7P8GDLRo+3bvHrJ23eyKUXiz5xJX4sBtGw2aO+xbrf6KOZrujcN44snukHL2TSjnr49R0FOrDA3POsfe3pR5sgZPTdB7ygcwzk1Ja3BvQFX2ixbmOFTBap+BULW/hLNlSMJ/3gH+b6tkPjQv968xiPxgS50TUWfbNDEl/Tnb/f1ld05CfIZNP+MaDdxgd90Ls+1k/kIzt+0YtfZcT4eLKx5ntyeAOy25RojNCB/sCzIzr4s2GCNv7MIbq10EdPnxij3ohRxviiG2/SmAdk0bfGKxnJjT5YU4gzyKQPyeeoH0H75iN6jQt5yoiF8G2tYpwZp+IWY2+dF/oAf94kcZ/u8W/jBr/ou9c4RssDWHOQPowDcrAF0SWLsuYCvfp5qjEQ/9JgANf1xkQGRQr3tAFGlhY2joyKj8XYbPB7+l4rM2k5CMbOa4vf8A3fcMffHJn0Jvmqp7saxigM7u44Nr+uYiMwrLbN0e9NBXAcsJ9qccIc7mAwGNwdsdq3kgWQjQkLTosSi33JtQcwFmMWXhZdPu5nEXfbbbdtsVLfrzkF9OVbvLSAOQX2XVmLyWi6hz/th5Wmo+tjcD+f4dx3kdhzdt2izoLY02BHCzWLReWVLa1Y8yz2/EOTNwAs/iywbfTYWJB620G522+/ffMffJV2bOb4mKcNHU/yvXnrbQMfUbRoRv8bv/Ebtw8R+ilE0H7yrKCD9AV7vtN9vK+6PYXy0rN6YmF9Ly7Gt00n/NrYsRgVJxsfPipKz+smCTgXP/fX4n46YTFrnFnoWwTTHT3aWBBn+yCjf8LwYOAi/HbUlv4Up9s40EZ9g1/9Rf/6z1j2/Qj9o766zi3E9RO/720Ydb3FoZ+8OaJ/vSntn6j6yYq66QstY7cNtbUPJGj8lrfqGzpC59qpXqk+VRdWuuUd0x8Z9JWNJDLgt40X/WFTip5sQvoHkuRc9Ry0ZZ7GT2ktMxjANf8rxzqIm6xgoBmY9ySQLxnJxqCasHYPvVpm00GSb5LaLWT0OGW7yiazOjCTcDC4OmSH2J3VDjVnJXlXDe2Y130XQdAlAPVUbeb4YDC4uyFbaaHlbQNPVS3Qs6Owt23iGjZPvGNh6iGM+McCUx3l1zriJ4uT3gywmLOoU96i1ZsP7Gr2HNb67KwnyBZENkVAPT+daOGDJzR6k8NGhtfwvcWBV+XirSO+3PeTAW+BoO1Bk/KelKPv6TM5qxd/e8gv3rOhgxa63n6wCLXYtvnh6Th5Pf12b61nYYx/C3o+BvQL/Vok+1iwp+CepFtU480HRsWb5JBsfthAIps3Mjyhlh+K1bWJBp3SrTZsjljs98bEKqtzddGyQWCc6EP9byHPH3rzIN61ob89fbcBY/FKVjxGTxlAt/6jAzR6c0TMTWZ9gEe6sxlGd9U/BnnGMfmNt4c97GHbBht+/XOEtx88/SdD/GoDbXX0TzI74r2+8hZDsnqTRz56ZDVmbHpYE+gnG1zecvFBUzzTrTxzTV8Zb9ryBhAadNBbKTYC8Ie33hCiP3zEkzzzw1s5xg563iSx+VW/K4ueTSPzz5gybshKPkArNEbI5o0XbykZ0/RJR/VpfxXuJzDmnP62aSMmii6ZbWYYk9owH73NgafBYMWVbEysOCvv7gyTk2xNWgbShGvSBeXIn9FwZCzcW+sPBoPrR7amedXxzrBB61y+J9q8wWBw7wNbZtEkdlnt2t7GiX0szlpUu3ZUrmPne7ivfG8/KCNO6nX0Y1BGfKV8mxfVW2MsR0DbIhnQtTgrb8Vax1E9izqLLxsTFo/qy5O0W9lTiKYj/YAHWWi67jsSxYsrD53bZLEob3PIYq/vGlROH9FF/RDk1Yf41Q5ZaiN0rS101JOUJbPzU0CzerWRjtX1FrHk2iJWcl/ZdBjio/bq5+SysWNjwjXe3Et3+3G6hzoW1vuNCYvqT/iET9g2ddCyYNfvytsoW3UgndWGn0fYdFJGvWR1nbz1k3xwT7vrOK3+CuWUiQ90yZ+uVqCHFp10rTygHT/oQfTMnxBdR+U7Kqdum0RkNCaTUzkJbePCWCBvUEY9ZZKdngeDPa5pY+LeiHWCNrGcl0KTUzLx9nmDweBq0Zy8s9E8b46vc30wGAzujih22ccvcCyeyf5aDK0LovOgXm2oL6aK5llQvrrH6snr2Pl5tJWTL1lMSZWXR66uKxftY1jpWfShFw9rWuNI6L7rFnVrO/Is+hzXPorWivLLc4TKr+eOysIxWscQX47Rqf/bKNrTSY/V3aP71WvRHP8SuK6tU7QCuWxMeLK/bkx4O+GTP/mTt5/wrAtoiPfa2GOVrYV5fMTnKuvaT8nQsXxwL7or5EtrfvX3WNtTdk9vz498x66PQRlyrvMinm1E1IZ8910f05020nXtDgZ7/P0ZMDiKJtA6KU0y2E+uJn6QPxNwMLgxuFlzq3numC0YDAaDuzPYMjbVwsIieE0WIaX1Xosw9nCNfc7C2kb1T2HNc25Rc6pe1y2OLrIAKj/Zk0/9tY213FlYy6HjKXb0HCV85T+UL4V4///bu6+g65Kq/uN7HBUzmHWUoChGMOLIwABDcFBH0sCAIxjKWN4YS7mwLMOdN1YpQqEX6KAyRGUEBWFEMiiYxZyzqCgqKhj+fPrPb6rd7vM85wnzPvO+7+9b1XV26F69enXvc3qt3Xuf6BA7yx8bz21c41jqnOVubfuMnC1ZWygjzTrQLW22QiBtdV6C87uIzMhRxl12suYxN9e1D/KRm22Jg8zZBtmz/Nh6F2sdUy7JMefm/nWM3mljyLmc3yJ1+FyXXxN58m/Jm89HXo7vQjvImm2kT4xr5WILeXbVi5yXDqqvXNzs9w1U9sbFOdOLr5RSSinnG3E4DksnYZ/yR63jNOZdZCRl/zjERpFlOw4rZrnJG1Im5c4X1u3AcfQ/LTlhtjWnfE1sfRSiz9xPWzoepPeuMuGw82tOWx5SZi63ljGfX5/DQedKCQ1MnBL5Ujrql1oppZRSym2NeV5zWDouJym7D0eVn/xxnk6jfbvK73ucLufCmTtJO2ciZ9b7OLKVWZc7jhw6uLvvjr2VEt7RIG3Zdb1/GFv6RO912sVh53HY+ZnTqG/NPmXWeWLfdSrlIC69y13u8h3v3C6llFJKKaXcihzkrGV/1/lydDw+IDjhBaL+2cQ7J/zlqJdNcqZr51JuG1xy1VVX9UospZRSSinlHDE7wnGOZ7I/34nOZ53oo+HxGcEJ76yYV07kfR2llNsGfZSjlFJKKaWUc0gCDuugQ7DPid51vuwP2wlGWDHh71p9NihRym2PBiZKKaWUUko5YwQi5jQHI6ySSCpHgx1nWzbIU8ptkwYmSimllFJKOUPqLJdSLnYamCillFJKKaWUUsqZ0cBEKaWUUkopZ8j8qMacSinlYqGBiVJKKaWUUkoppZwZDUyUUkoppZRSSinlzGhgopRSSimllFJKKWdGAxOllFJKKaWUUko5MxqYKKWUUkoppZRSypnRwEQppZRSSimllFLOjEvuf//797+ISimllFJKKaWUciZ0xUQppZRSSimllFLOjAYmSimllFJKKaWUcmY0MFFKKaWUUkoppZQzo4GJUkoppZRSSimlnBkNTJRSSimllFJKKeXMaGCilFJKKaWUUkopZ0YDE6WUUkoppZRSSjkzGpgopZRSSimllFLKmXHJ/e53v/9553YppZRSSimllFLKOaUrJkoppZRSSimllHJmNDBRSimllFJKKaWUM6OBiVJKKaWUUkoppZwZDUyUUkoppZT/wyWXXLK8y7v8/6ni//xPX0lWSinl1qOBiVJKKaWUMhCASHr729++vO1tb1v++7//ewQpSimllFuLBiZKKaWUUsogKyMEI970pjctf/u3fzv23/Vd37WrJkoppdxqNDBRSimllFJu4d3e7d2Wt771rcuHfuiHLve5z33Gaok3v/nN47GOrKYopZRSTpMGJkoppZRSykDQQQDCIxzv937vt1x99dXLlVdeufzHf/zH8s///M/LpZdeeku+Ukop5bRoYKKUUkoppfwfPM5x+9vffrnuuuuW66+/fqykeMtb3jICF33nRCmllNOkgYlSSimllDJIwMGnZGXEB3/wBy8Pe9jDlmuuuWYEJaye6DsnSimlnCYNTJRSSimllJ0IQLz/+7//8vCHP3x5yEMesvznf/7n/3qso5RSSjkpDUyUUkoppZRbEIjwGEdWRGQVhZUTj370o8fKif/6r/9a/v7v/37kSSqllFKOy6V3vvOdv+Od26WUUkop5SLHSoh/+Zd/GS+/vPzyy8e/cwhOeIzjvd7rvZZ3zB3Hp78S/fd///eunCillHJiumKilFJKKaXsJCsiBCcEIv7t3/5t+biP+7ixguIf//Efx6MdDU6UUko5CQ1MlFJKKaWUnVgpYXXEm9/85uWP/uiPlic96UnL93zP9yxvfOMbb3lBZh/lKKWUchJOJTCRH6T+KJ09ngn13Oc6tW8ufPIMsL42DpLOV9KOeRyfz+0ppZTzAd+9+TvQ/I786q/+6vKUpzxl+aVf+qXlX//1X5e/+qu/Wv7mb/5m/DOHvxPtP3SUUko5KSd+x0SeOUwqZ0MmEpZSvvu7v/v4r/GkLq+8cMlEMJNI+NTnJoq25cm58wltMn7n8eyYSfL52qZSSrmt4/vV78db3vKW5Q53uMPykR/5kcvNN9+8vPSlLx2/LZ/0SZ+0vMd7vMdYOeF7+D3f8z1v+S0qpZRSjsuJAxOchDxv6H+t/WgdJ0BxXCfjYnVOMgmIvdnBHWV3Mt70pjct//AP/zCe+/ynf/qnW/5vnGMXe9Wxu3DIWNCftl2L/sbtrW9969jX767Tub/tI8GL9fmzgK7Gc/R429veNsav5cMZy55jvt3tbjf0ljdtn21Qzg1szt5JOYb2QynnL/N17Lv393//98cjHL5/zfc++ZM/ebnjHe+4/PZv//aYawge99ovpZRyUo4dmPDjwyHmIHzYh33Y+H/r93mf9xnHOBSOJ98+6Sh555RyFyMmAiYKJgz+susDP/ADl8suu2z5gA/4gOXDP/zDx10Odzsk/fIXf/EXwwHl2F2sNrvQWF8LMA7ucY97LB/yIR8yJpG5Ho2XBA1TxnhIUGJXOleoiy7eBC8Zx9rgbfAmwdrlLfAJvglMSMikOJxLvS9WYmPfQZL9eXyVUs5vXM8C3JIA9/u+7/suf/d3fzfO+Y3x+/I7v/M7Yz/BiV77pZRSjssl973vff/3jH5PMgnlOHzhF37hCEpY9vfiF794ec1rXjOciLe//e3n/Edql4OyPr5GvjnPev/W4Lh1KMf2Vkjgoz/6o5e73vWuIxAhIMF5c16+3OEQuHB3w3Oif/3Xfz3Oz3c5zpJzYetbC3rT/6xQf/paAMLy2uuvv3751E/91LFSxvPAN91007g2neP4yw/jxzVqf05rzkXf0D/jwOT30z/905eP//iPXz7ogz5oLBOml7Fs1cSf/umfjnH8m7/5m6MNxrt2hMgqtz76K7bP6i3U/qWc37i2Jd+x+U51U0Ngwnf04x73uOUjPuIjlh//8R8fwYncmDoXvxellFIuTE70KIcfIY7Dwx72sOEU+7/r3/qt31p+4zd+Y7wMKT9oh5EfvTmvHzf7+Vyf32JdfsvJCpGb7bCrjsPkHcZcH7K9q74tkpdzyRkQkHjIQx6yPOhBD1o++7M/ewQnBCb8fZcVLO44+xQ8MoH4mI/5mPHJYTW5uK04Eal/baM1h+m5Pr+Vn+2w1Zepf5ecfCZfZGHOk+0wt2t9DvOxg8qG7Kt/Pmdf3z/mMY8Zqww49IJPv/iLvziCUa7P6OzaNFbufe973/J3bwJY7oqp81xDL47tJ3zCJyyf//mfvzzgAQ8Y49VqLEFO3yfGsn3/n+9v6rTRYytWDCk/j+e1zW4rbPVnWJ9LP2jXba099DGGjLHP+qzPGs+c+14xjpy7relbStmffPe4jn3/JDkuEOzxOqvwzDu8BPMP/uAPbnm8rpRSSjkuJwpM+NHymMB973vfcTfWHdtf/uVfHoEJTsS+gYmwzhvHa18Zc751uXnfj2ucgHzm3Drf1vZRmOWFtax95UYWu3DMHv3oRy+f+ZmfORy3937v9x7HvSXbIxt//ud/PpJ3DajPpIFzJ0hxl7vcZTipJhQcu33rvzWgmxSncibt3Zd1/myTH5JnPpft9SdsR8etfGu957xJM9mf89ieWe/PMrby55jrzThwPbqjBePh5S9/+Xj8wYQy6Pe73/3uI4ihzO/+7u+OYJU8R71ut1B+Xxl0N3YF2h7xiEcsn/IpnzJ0ovMf//Efj2Cnl6x5lpnMBCnyqIrvGzonqHKUuo9KbD/Lz3bq3hd5Z3lzyjHIc1TZtyZ0Me6NIXdJH/WoR42AkvGjv+LElFLOT9bfRZj3zSd8P//e7/3e8md/9mfj+7dBiVJKKSflVAITV1555VjiJzBh6bgl1u7WH8fByQR8TiGBisPIxHmezCsLxyQ/otnOJDryk1I+MjBvH0byRs68fRQ50VEZzsAnfuInLo997GPHUnd3LB23vP1FL3rRcsMNNyw/93M/t7z+9a8fDpvHal7xilcsf/mXfznyuTuuzzzD/2u/9mvDsYutZmadzwVzXbazT4/odpA+zs1tiP4pE/utZeRYymYshLnMXHY+HsjIOMP6vP25LdmPrvmcz8/7M7Oceds1Z1+g0ITx1a9+9XDq8+LT5Ld/z3vec9ztFrwSUBTEENA4jcDETOrdBX2MSask7nWvew3dOLg/8RM/sTz3uc9dfv3Xf30kOnocyZjlELsWjHN58xgBWXM7cdS2RMaa9fHUk+2wq3xwPrpmG8rkWLYjxzbW9WBrzO5DyoeDys31J5+x7t0fV1111egPL8iT6LPWqZRyfjJf8z59F/iO9t4JvzFWSlmZ12u+lFLKSTnVwIQfKM6DwIS7+EdxcPzY5UfPpx86UXk/dn4EfTp3UHCCcxIHLBNpn8pGXs7HgbQdeY4lL1nyS9CWlPEZ+Vu6pE51KS9P2uLcXDb7W3KCc5J673SnOy3XXXfduNvtmLsWb3jDG5Ybb7xxeeUrXznuWgo66AvnLK12p9nqCYEIx+R53etet/zJn/zJZr3qcTz2ih3SlsN0di75bQf50w9S7DFjf90Hs9121en43PeRS4axGcdV2zIu57zqST7JsTj5yRscI0t90S02U3bOn23yc25GOTJyfq5PcoxesUPqW+sVnXxaYWBMSJbYqiN1Ow/X7eWXXz5Wzxgf3tngPSRZeYPInPtgX9SnD5UjT9noGrIv0OCxEqslBDQF0QQlBNpMfo1lnwIogieCEx5NEZAQsFBefekD+kr7oNw8bjC303nJsciXtCvtk1J+zrOGnOiVOpR1PLJs+1zrkjpm5n3n026JnOgkbenjmBS9kj/9H718SpEFeQS/PMLxGZ/xGeO458y7pLuUC5Nc+/ku8b3pxojrvZRSSjkNTj0wYcXEG9/4xiMHJpBJspUXXtbHEeFIx9HO5HsXHBR5lSeHPD+ecdCdk4dejvuhlSc6kq8eL9hzN5YzpKyX7slvIq7+pEzWZ+zHsaC/OskhT91gq3CYfSKPzpyEq6++etibPnR1x/infuqnxl1x+tAx7xaQx2fqk98dDssvOXZ5k/7cBtuxXZxBn0nKQJ4tIovdlJ37LC8vnGWRIw/SVsf1lzyz3eY+m3FMn6uPnaIbWWQYS/Sx7RibpK6gn6Tkc57d5ImzOdc9jzU4nnNrHbUnYwGxB7mR7zyZ9qM/Odo/j0eykid1+IwzCTp574L6nJM3OqWcxyGsTvCeBgEJ160xITDh/SXJb8zQzTH7s822UA4pl75LvVKYt63+eeADHzjaJ7Dykpe8ZPQbPdXJZvqfHH3sXzkEMMgnJ/X61IfsFfuGdd3Op7/V6xj5iDxy5LFPljw+2ThjWR7tjZ5bqCuy5Es9trWBraIL2cmjXmnWfUY+55QhQ/kkfUYGndKeMO9nLLOrvGQ6H718kp/vTXkk14fVW/46MP3mkaDomjp26V5KOT+Zr2nbvcZLKaWcBpfe6U53OtHLLwUm7nOf+wxnz+TcXVoTVIEJk9V9MGk3gTb5dTc/jmOca+f88KlPHY6bJK8xEc/5TMY5uMhEmoyk2Zkjz2TeMeU8a8/Jzz653slAHqcvjp8gAFmZhNs2kZc/OpODtMlkX7uc22rHjDLykedlgI985CPHsml6CUb85E/+5Ag2ZGIQPdYTBTIc0ydk+ZQ3+YM8+oFTyF7ROf0gQR7H1zJsq8unPGQoo2/YF2w29+ksg26S4wkEpQ84duQh+UGOfNrkvESGNpDjHFnKyCNpD/QVveSTtAm2YyfH9FPqjN5x1tO/tuWZx5V9eX2SkUdvIss5+2wVWdmf7Zf2ORbbYa4rkOE42eoLylsdob1eIunFl97V4JgXZFpVM//DReqwTxabRe8tkl8eKXLShrWuya9Ofz3n3RLyeEeKlVf0VJYseWeb2c61k+NwLn2l7FwuOCapS16f8mY8z9jPeNEG6APoE4++OG6s+JQ/+s2y5jrVE3uQlTI5bl9e9Tq+JnIjT77s05Oc1Ec+3bQP8q8hL2NZm9hEOZ/0MUail/MCKFau2PY4kKCSOqyUE5QmJzaA/WyXUs5fXMdSrule16WUUk6TS6688spj/7KYrFoK/oQnPGFM0DncP/RDP7Q85znPWT72Yz92OH1+wA7Dj5uJMXnegeCFjl6E525pzgsCuBv32te+dtwt5ZzHMYG6POvsbxI5Nh5rMHkmw79W3O1ud7tl0s0B8+w6mbOz5TEJf1N42WWXDfny08sbqC0ZFwhQPj/KzpnAcwwycTdpd9fZ8mZ3EzmAziknqCG44bl/j1FwyMg6zEacCbL9+4m/Zk09/qbr53/+54cjQhf5tuSlfSH6h+z71BbbXmZnqb/+iLOcNugHASj2sPR+dp6UFUDwQjz/nmB1hpcvguPJvhwdugoceIRAn7KjOtRnebh+NKbI01ZyvC/DXeroHueH0xXZAkYeAfjDP/zD4TRJ9JCXo6s+79ygo/7VNv3EMbZ6QD5jyRj6hV/4heFo6c/UJXH22Yae9DE2fuVXfmXoD3lsp4yAkuAdPT1+YGwae87L5zl9qxeMBysXrIKxTb7kH2/Yix2MRbbguHMG5ZvHpLFwv/vdb4x37dVP5CWAZlx7aaQ2P/jBDx4BRDL1kQBXghqCFdqkfvn0j/cH6CtyM97TXpAPdbiGfQdoJ3srSweyQ+xDNnt+0zd90zjukYAnPvGJw676zthek/ambug33xtf8AVfMOpxjanbmI1jDvWqU/8//OEPH/YXENU2j4nob+e1w+ok33F08u4W9bGt8ek4++sH3zX5G1N2nK9tZXwPCQT5biHLWNafrrNP+7RPG7LoqC+NKePXo1dWhcSuIA9kulaVoY9Hu/zjTgJRkZOx6VrTZ+t+8xJc142X6Rqb/u7ZtUEvMtmTHdiWLHqTrZy2WMEln+9+9chDX8k40Q7XEj3nvi+llFJKKWXmxI9ycDLjdJnMc6zmFROZSO8i503cTXI9Z86p59SYaHv2XDIJ5qQ4JjBh8h9nwwTbJJgD5QV6nFvPOpukf+mXfun4SyvlBQk4n5wv71jgGJioyyd4waExSRegMPHmGKtTMvnn5F5xxRUjcTJM3rU1AQ6yPuqjPmr83aG/8XSe06Nt6ieXLJN9cJg4XbPjsYZ9tM2nd0uwBbtygH7mZ35mOEXKm/TLc5i9d8FJkzjBbMFh45RymGI7dbO/Y/JxUDgk0AdxltjDyznZiw05SJwvgRV3V9Ov5Mbp1p9sfO21147xZFu+1Mtm6mUzTuBsM7YXWPAogL+vNT6MgS//8i8fThOb63ey9I88nCXOI50+93M/d/SV/qGT+pSRlz3ppm1x6jj/AgkCYca5RyAEa5xjQ5/pB590/5zP+ZwRoNDfxoyxpw3Oq4vNOYf6U6DAtWAcsZfzs+2NKWNfva65uc/p5l85jE9BI845B5dzSVcrbuiivcYlHcjSD/pbwMKn/AIanPTP+7zPG/nZVH+TidnJJcd2ggMCU9qLV73qVSNgRKYxE+gtcYT1heCEa1EbyBMsUE7/sqv6bCtjzKTutN91wlb+X5+N2MZ1Tsb8V6ny05Ms483Y1E4BA33jO40sevhOYUt59YvvpXxH6QtjSqCH/Zyzb4wa8xmj9HQdCBhpo3YYw7GTII6xpo8z3v31rzFLd/LWY4o9jFXfd75rBObImK9VOukDNlE+3zeR4Zh2+37M42HGuuuAXgnqkWfssInzrqnrr79+2E196Rvjw3VrDOV6cp0J7un7fEeVUkoppZSy5kSBCRNvzo1JrUk8p8odWhNRk3tOyEET0UyOOSPXXHPNcAJMgk2eyeB8+3QnkmPB0eIEcKTcuYNt9XA0TKQ5cibAnDbOqkk33DE0yTeJdmeQw8KJtq/cQx/60FE3p9qdU+fdPeWE0YejY3Ie50o+KwYsX3ZenRwTE3pOC0fLXWJ6+ncMTo/VEuow2edkuivtzndWBqxhH4lDoJ1WS5DLkbNSQhDIvvoPs/OuBP1IZhxXgQF2Vq8+oKN+yPJtjj2HhE04qtoW54RNjQPOPufIcW3mzKiDk+quKsdNHfrUWFHGP0SwnXo9WpA6OU/ySNrL0ea0Oq4vOFQcOf0t6MRBIsdx45H9BSvsq08706ecdLanE0fcahq2JiO6GX/Kawu0k/MukKBNgmBswI5xRkEuG7ODO+x0J4f+xk/ysgPd1UdH44PTJ3jhLjQ7GLNk0cu1oA3Gs+P0cY4t6J67+dooYEI3diGbs+p6M15du3R07RibdKOXPmV3Y9s+h1ciWz8ZD8qzh8+g77VJ0IYzTy77y0+/df4Z5+gWR5fNsm2saCf52kRnbY4sdTpGN+U4645pk/Hm2tdW5ekhkcMegjgCAGxtDLCVPrdPprZwsJWRL8G2fD9ZvSKvMh5rc20Yl8YEvdldXb43BA+MOXrrPwEJx41P/Wx1AVmOkaWv2dx3kKCC71ht0CfqESARJNVmdfi+yng3ZtVjbCXAp1/1qbbQK+NFIMH1o78cc+3ksRrjwBhnC23Sbu0j13ly0kbvKhG8YW91GZ/Gn1UfxlwppZRSSim7OHZgwuQWefmlSfO8YoKTFUdgF86Z8HIQTI7dQTRxfuYznzkcCsuKPfZgom3C624cB4BjxulQVwIZJtWCEPKYMHNEyDNB99gGR57jIeDAMeQ0KGfyb4LP8TKxvuGGG5aXvvSlQw+BB06VejiLcQAEG57+9KcPJ4aTAHq5+27Fhcm95fr+KUMbOFXkaAsHg9PIWeDgmOwLUHAQ6D3by7bErvS0ioGjpk5yOSIcHA7Z7BAflTh1HDqOOieC3X76p396/DsC27EbJ0OwhQ3ciVU3O3PO3BnVL86RlSATB1LblNcPN99887CNMvqMHLbjhErqeNaznjUex3jZy142bKyvOHTy0Y294pBLbEKOl/CxgzycIfXddNNNQ44xxFHSj5w6unPGOFFPe9rThl4SB9HYMn6zugYe69A/uZsvMCEQpQ1sQm99FSdZgmMJTNCLo6cODijdwcnjCLqWOH2SIMkznvGMMRY9ZqFMHDy2MHbY1fgRpImjSb/cPdcP7MeZdN5+/p1FGY4xfQXxnv3sZ48xRR7n1ieHNM6ra0n/0llfc5Ydn3G9s6txqu+1lf3Zhj2NjXl8IzZzXbCJ69eY0k7216+S4IB+FjzRD+yrXOT5dJ0YQ/e///3HPnu5VgW6yNQWxyW60F9ggv2NA4EGfWmc0QUCLAIm6nZcm573vOeN5Ho2LowttnKNyiMAZaxlZQl99akxQD/fd8agtnhHjOtMMFQwzjWtbmOGLOXI8p2qvexPHr2sZBHEUI8X4L7gBS8Yj5v47tQW1wjIYn9ljQXfc7lW2TmBCW2kl3Zok0fyXKvGnnb6/lTW9UiOerVHPwlEeGzG94W65SWDvUL6qpRSSimllDXH92b3IM7ZLnLeRNxjCd/93d+9POUpT7nl/RAm8BwwZLINx6yMMLE22Z6dQCjHeeN8eQ8DJ9fEWoCBk21SDY6MiTjHBCbaL3zhC4eTEQeT80KOchycOAacCAEC+5wqAQl3Gu1z6n7kR35kOIEm/nFobZNj8s5JEqBwBzZ675q404Fz4bxEHkeKDHoeF7KUJ4ejLTDBqeJkcCjZQhsd48iwCyeFTTkd4DBqQ+wSfaIrZ5Wj+9SnPnU4fc5zuOj//Oc/fziP+otzozyHj4OTvudM6z92I48NLRNPgManfsoYUJ961MdxdJ5TSg4nn6PqGOdLu9RlbBmD8jmnjcag9spjLHEQjTc6hrRR0i6f8/Etci76rmF7gRTBOUEFsL0xYN+/VXBU2SfBHON4zVb9bKOsccnu2kIP49r1Jhgl6OA8pzl25RQb0/rY9WL1i/E8t5MsNhIcEnQTsMn7BQRFyNnSKXYgm1POwRbI0CZ9rX0CKIKHX/3VX718wzd8wwieCYBoT8bcrMvM1rGZlFuXp9fc1+oSqHRd+C4xnrRLYlNjS/BNGbq5JuhuDGlbUId9j0QISghIkK1/tVcAVoDBmDTeXAPsTWa+l6zUEXxxTpDOd6fvFGXJyThmT8cFCdTpO9MjQ4IZZEM7Yz/9J4BhnBl/AnW+K10P9DEG5KeHfpWMHce0IStbHDe+cl7d6edSSimllFK2OJXAhElnEtYT/INIXs4/B8inCbeJNafQZNnk37aJMYfARJqjzinmAMnrWCbAZHLwfvZnf3ZMsslwN5ozZeLNqeNAcCjUZaJuYm2Sz0F1nrwk503u1WWfc0aeusix7S61etTL2eAk0Atkc/7p55NTzzHhRLhbyemI7C2Ukwexc9qp/uwfBzLY16MD7gxzWDj2nBEOCJtJdPXJXvpI0EJe/cIJYxN3U2PbIA+HjpPCPtoYmchdZcfduZfk0+bk0+dkkBtbaC+bxQZwjK2teOAYyasPMn7kz/silBNQErxQ3vnUJ8mnnfJxGDnbqcMxyXaS/WAf8zHMZbeghzFoRYNxZNyxJ9v71B5jVvugbcmTOkP0ynGfsVNsi+Rhf8fpRm50dJydBJcEk9jSCgYrT+jovPLyCzgZR3SS1/UsD0dZ3bvajYwbgSNBPQEqq5bYg3wyjU/vaPC4kXccuOZm0j6kXevtmRyXlE1KXvra9ulacN36PmEndmBDfWPsGOdWAbkG2E/gy6oR9nHNB7KMZ0FSzn76Iolc+QUV9LNj5LA57Av+CJbRiY2NF/U4p246ScatfvDdpQ9du8qS5TpZ94e2GvcCY64f/aZtdPIdpw9iK6Tvk8hTrzY5RxefWNdVSimllFLKzIkCE5mQrjnKJDQTWpNYE2eTaXAiOWEcExNwAQOOokm7/O4ic4TWd4tTtwk2Z8pEOY6WCXMmzbDtvHMS54iDkSBCZJnEJx/USTd55M0z3M6btHPGLKV3XAAln1YFWBJvhYa7/fTgZGuzOqLXDPuoQ/tTP9Q9O1Fb/bAv7J7l6uwuMKENcZKS1BFbChRog2OcFjLcHXVurYu2xRFyLo6NNqgHjrEp27K1fnAsbaQXGcrEGQebOT/bhq5x5G3PdiLftnLkcdzsS2mjc+pL3tSZOhwLc70z83Hb8/5cfsZx7VZv7OxY7EAvOrIz7Bs77IVduiDnIg/KB8fIRvL6jC08iiRoxBbGusdYyIqOPq0QMO7JsvqCoz7XKx2EvAlCWTVg1YvHCaxGEBDQV5xvQTDvI/FeGqtn6J3xRd+0K7pt4dysG2LndZnIoZv+sZ98s80EJaw2AT3z6AtSV2T5TtOPdI0csoPVJoJ28utf33W2jQvfH44ZJ2zF1uoiJ3r5pAOdrXoQmFBXHlFSH3mzXnRy7ZMp7xzwsp+8cz05NpMyYa6nlFJKKaWULU4cmNjiqJPQTHAlk+04oCa/EkfEHVoOUXA+E+foIS/sc3gFNSInJK9PDrVl4/KZeHPOPZKRQIgUh9iz6O4g2nY30cRemaywyAoKDqxnvy07948gX/mVX7l8xVd8xS2fX/VVXzVeYsmJoxuHgrNBLnlr2IQ+nIXYVb4459p2VHsjZdTLuc2KDPuW9XOSyJdvdkrUx+HRVnd07dNf+x3Huh3yxu7kzLLYF84nGAF54tQ5Z1zkvProFr1mmVhvZ58c/UaGY/Zt+5SCbQ5ddFGPIE3ySZE51zWTepN3zufYmrWc5MnxfNKfbqAXO7CH/Gu7h1mWPLFbjudztkUS9INl+h5f0l/62mNLVizRhSx6eOTASoG8g8D4oFvsmDYcRPK4rjjmHif4wR/8weVJT3rSeOeGx7mMA/3hkQbXpbGb63EXaUs4aD/bdIk+83bIsRyns+8SuBZyTZAnz0F1RoZP16AgrEAMyLCKKLbOoxr2BRwSqEL6NvLYxXeh5Bg5gohQ/6wDeYKDuSb123pMbJG6cFC+UkoppZRSdnHswEQmn5mIriekW5PVrRQ4GybRnAzLwf11p+fJv/M7v3P5+q//+uXrvu7rxt8nZqIfUs9abibUcYpgX37Jcc6Uu40eW+AMWB79xV/8xaN+erizyPmii7/kgzu3njHPeykEDcgTKNAGDjTHwXkBFYmsbHPcOCzyCgB4ll+7OX/0m0lbJI6FumzTm65xyOLAH4XIVd7dVzrbZgeOpU/Oz0zKxNnkxGi7PnEHXfu0Kw5i8q/JMZ9rx0dKnzo3bycl38xcXpJvfRwpn/P5nHFeP7IH4sw7Tp/ISyJjlrt1ft7HLCc65Fw+MefJp77J8S191mlmPrY+H1vPOK+/1ZlHFdjCCiCBPOftG+9WS5BhtZIVFs5Fpu0t26xT8qhzDkwJBnqxo1UUHoGgj+tAgM91oNysvzL5XG9v7c9l13ZIHnVEv3V+xzj0ggS26S8IYNs4Sp6kWY7PNalLcn0JxJAviJggqH2y1RN5s2wpgSvXtDHNph7PyPfNLr2S9K08SVvIN3/ualMppZRSSim7OHZgAqc1+STHhNvfVH7Zl33Z8vjHP3783aQ3z3se2jJmd/lMsmHia8Icdk2YsaVjyvo04efweIEcvGiPDt/8zd+8fOM3fuPytV/7teNfBqxssMzZG/S9L0EgIqgjE3h3MH/4h394+b7v+75xp/cHfuAHlic/+cnjjm+SY0984hNHnh/90R8dd1kFBzhbW3BMyM5b9ulsCbs63eXkeBwVOnNC4kSoO3aMU+j4lv3kk2fug5D8kXVcZjlrWVt1zHraPqj+XefTHufZZkb+1DHXtQt5kg5iK8987LDys14HtRmRu5X/sHr0txUQ+btJ16R3PHByBai8PFUQT/BMAMO1kmviML3COp99Mlz3kjEp6OFFqIJ6zrkO8xhRnOqDOOw8Zp0Pyz/rTJ8EU3LcJxnzeLIfubvkx3YQfHCdCyzMQangWOTnXM5Hp9jG9nxtr8f5zNy2fZnrLqWUUkopZV9OFJjYl4MmuCax7tZbkfCoRz1q/KUeZydv6PcivO/6ru8aqyf8raM78pn87poEO5aJ+Nb5GRN3z85z+nOH3KdAhOexBQU4ZAISAgmWkucuJLKCwzJu2JZH8piIdqyTVRdeWid5RINjQY8tXR0TtHB31EvsIK+Ajb9HjVOyq/wW8knKaAfZ7qjqJ8fUF3nrvnMsdhJMUjeHif0sPyfvIGdnJnrMZH99fB9OUvagMZpzGVNsk2MnqXMf1LPVByHbB+kf9smDtXzl9KsxYlwLpLlGjUGrigQGbDvmnJcxGiPsdBTmcaNOdUcXn+RJVjl5zIGDbaxKrr+j1hdiF59JW8x2mclx10Mek3BNeAeLNpG3dU0cVJfjaY+ghGtUO33/ZZWWAKV+yXfPFgI28ltl4XuLXo4lECkd1q5SSimllFJubd7F5PM4KWyd45TEYc62z3UyKfYogzuv/gJQIMCd1u///u9fvvd7v3f5sR/7sfHYhBfKCR5YRp7ARJzENbMeM/OxOAn2yfOmevXT6bnPfe5Y8XDjjTeOv8UUDLGqwYoKAQp5lKM7OZZRcxpyB5dz4gWXce4lzsOckk/wI4GNOAhbSRnOhX8F4Pw7xtGwqsRfjrIvJ43c2b5zIl8e27GdY+DY5O8h5XE3nF7pw+gROErOWULvuH39w+nZ1Q7s2p7riE4heWa5Yb2dtJYxkzI+53qzL4X1ObCP9rKZ42B3x7fkOb62yUz25/Oz/jm2a3t9LJ/rc5j3fUZfZFzmeMZNtp2zbQx61wQdXa9eQumvK+92t7uNMer69e85sQlSxxaxTb4jlDP21jpI8tGT3BzXF5LjcD0bh+Rw3F1nqT923bUP26lrndQbO9if8zsuKJHHLDj/Hj/xKSAw1yXRN+3MsZz33eG6zuNixpqVWL4v6DA/amXFiKT+yJHIleQXMMoKr8iiT2yPlEOO70oh++s2wLH0Uc41NTU1NTU1NTU17UonWjFBQMhEFybMJtccg4OS8ibt/l/fhJ6Dz+mRyJCHTOckx+Y6Z3Ydj05rTORh4nyve91r3PF1h9Oz8d454a9Gb7rppvGPAPY9voGsllCfREcv6fP3oOriCHkxoOXtzifwEDgKynMOBDo4Uoe1ywSf00MHfzNId3L828eDH/zg8W4H8shSvzrpqQ+k3Cn1ngrOpL8oJY9DR5Z2CyyoS16BGttkKm87/UtXNrvrXe863pdBD/VywJzf1Y7DUG5ddu67Lbk5NucLu/IfVAbO7zoH59gl/ct+nD62ZRf2k4ddbHME9V/G21kzt822FN30rW16S0E7OcI+rVSwEsgnh9dY8sJY44pdBC6MK+eUOQh1s5lkDLsGMx59ZuzSK+PQOPZ+Fd8HYHfXXlYqqDNjUTn9QFbamPZBvyA2oYc6pC18P2mb8injU36y2MAKEsibl1em7pSRn57R0Wf0ci7XlwCnbWPIdwXs59+JfPcIYHgpsKDQ3GfkyeuY97/MAROBDXaJPsdlLk+2fXKhXt9DjjlXSimllFLKQZzIW1pPTCUTd6sH3DWV/O3dvJ1kFYT8nFt36KGsCbhJtUltHCUOj4m3Z9jnOuft46B+k3R3Jk2oOVNWIQhUcDActyrAoyacAKsj6ELH1J3P1772teMcva0AueKKK4bDxBbycBIkDq07qWRxFjhaHDH1O78m8tmCs/PiF794POdPd2Xcsb7uuuuGU8dJ82iI5/A5Lx6vsM/W9PJeisc+9rHL4x73uPHPIQlOwHsB6MoB5Ox4Aag6tIkOtukqgMERf9CDHjTy0skjJpww/RiHS/59SV6f2SYjbd9H1pwf8/aa+dxcXz6jx9wf8z47aK9j+oW9BISy6kQ+fcrubOy9Jc6TvdZr61gga/7EvA37qTPbM5E/12FbPn1nWxsEl+jsk95xhEPkuh49zuGRJOPPdcKJ5igbd1ZMyOucY9FpVyKP/TzGdf311y9XX331uOaMX/KMP4+H0Mm2vP6Jw/eGsSuPMa4Nrl/tST+4bjnl0DZ52EmAzyc5CSRAmRB75ZOjTZ6+T2BA/gTlBCXucY97jFUN6pqvp/RNoIdrxXeKNsF5siVtE/Ahy/ee9iUwSrbgj/5J0EFgl40yJkEvK8yMO4Ej9dGTXgKp+uekaBc7sJHvF33pO0i/pP/o7/zc/lJKKaWUUtacKDAxTzazzUG2tNu7Iu55z3sOp4zzbDv7VhRwkk2OOc8mr8qbaLsbKljg7wY59ibXHIKHPvSh4z0UJvPyZrJrcmw7DoRj0eUgkoeT4J0PHAJO5OWXX7580Rd90fKEJzxh+bZv+7bl27/928enl2Fy6jlO/qYwd5BBJ8/VW1lhcm4lg78EZQd3guXN0n//ZnDllVcuX/M1X7N8y7d8y1jxQAfnlN3C8Zw32X/e85437MYZYBv29Fek6mRjzoq7rVY+2H/AAx6wPOYxjxl/Vcr+9POPChwguqlfcEHQgx0FTB7xiEcM3ThHbEx/Tg6HST0+OSWcnFe84hVDztw3sJ20i3WeuS9n5nxz/qDM+tw6z8yuvOmD+XwcsOThbMZ51wfs6QWpbC4fWxhLgjtf8iVfMhxDY135Wc+Q/Ryb88Spzec67WI+H3kgB3Tk5EKQTHCBc60PjZv8wwZ7ZPzBtuCasc4BFQxQnkMqWCEowCbqUX4XOScvu7GVx0E8UuWfcYw9jr5AhICkl2sKhgnCyeu7gv1f97rXDTn6hO056N5BAe1xDbqm6c0x1w71XHvtteM7xfUTm8RmaWsg19gXsFTGNS2P7y328l3mH4Nch9rDBlZe0SXXNiKbzchyjfk+UL8gkbKuK3X4/oRAYP41iA5s7t00rjnBB8FTQUYBVcEHdpWHPdjskY985AiU5rvWi371H/uF6BU990E9dKK3curTFoEeNtGn6jc25Duq/FJKKaWUcnFx6Tsm/d/xzu0jY3LKceVom5ia/JucmqBzBiQvaMz2nNzle9nLXjYcPNsmsibeJtfumApQZJk4J8UKBM6xSbx87sh5/4SJscm/T043p5wjwYG3isEkOY4HZmeJvibsJuqWQ3MwHVPGBJvjLpn8O8+Z59SYcKvPygey43RySDhD8mmHvIIYnKsECfzzCGfJcQEA7efcczLUvYvo7VPAxp1WThUniUNDFhty5thMH/hXE3ZjF/XJC0GIF77whaPu6M95oL887EB/fSDQJHG+BJiuuuqq4TSxkTvCHnnJC0HpTx7H6IEPfOCwGTsJ2qiTTQWA5GMvbaFXghwcJ3nntkK/k2Wc0ZUT7BEbjqHxp2wcIdvs6a6ybfkDOdrEJmQLgJGj7Xn0wHG6sSnnkT3URx79OFowZvS1epVlM2Pvzne+8+hr456TTW+OMnu5RtiMo0mXjBt24TxaiaIP2JN8rG0R51W92u+xCnfBY1PXgjHAmdcPggWCfK4ZfUNO2kg3Y1PfGeOCEcrqO9tWOWk7veWHeoxV+uVOPDtr48033zyuSzruQ/Rgd3Z1rRnTrn/fCWyirQIR+sz1Q1+2FJR4yUteMgIASPvpqz2uPfZMH7GHY64LY1g7BSoED1w7+sPYs+JDm4xbMl1D+lYb9TNZ+lkydl1brum73/3uIxjl2uT8v/71rx/2JkNZ7dMeshzXBjYmT5voo33qM37oro1sSq98PyhLHv30qbEjkRPdXAdkuV5cq/K5JvybSf5VxTiJHmxMl4wnK9rYMmPuIGJfY0TfaQt56jY+6Klu9e0jr5RSSimlXJycKDABE1OTUM6IibPJu4l+kslqkn2Td84kp4xzbJKtnOMmuCbwPk3OTfY5KBwV71Z40YteNBxFwQ8O0Bve8IYxmVaeE2YizPkgk9OdwEScKsQZUn8cBk6PyTxnn7OTpepWUnC4yOLExmnSDnpwPqzooLtJPudGfk6E4ATbcBo4q5x7k3+OCUeBk8vpePWrXz3uXGvDYc5Azkv0UZeysS/ngC50S3LcMe3l6Lz85S8fjhNnVvsjl+PAhhwrDpt20j3OqzvqPjmwdOWoeyFo7ubSiQ0kcgSTlLXNGeJckScwkT6A/tXPZHBgBDByPm1lV31u6T2n05L1BCa0T15jhkOkfv1FjvbNgQn59QVHUhs412xBJ+OADtHLOBZc4CwrR54+03fykMvpYnPBjjjWHGC66H/1s5G729ppPAg8sIV+i27slMAEnZw3Fumo/ch2AhP6Q/36kTPpPNiHM6qvnDeG6U4/eiefNpHlenHONWlsaott40AfGwvGRvpDeXYyxrVJO/Wxa8bqheQ7CmzhUYX0p7FnzLrOjDfjxlh2jE21l13n6z/1sqnxok+VE2QgR7vy3gbtZWPXunZw5tmKnTjl+km7yfPdoE/J9J1AV0E613KuCfWwu+tRoI4doheMSXUmMEGWVQ/62tjP9WVsai9ZxnBksS/mPnBMYFQ9CZxKZESWfQhM+e6crwly6GWcZ4WMNgvMsMFhkJFx4NqkgzayBVu7FvQBefo2Y72UUkoppZQtThyY4PhzJtwJNpmWTERNmn1mf73tuWkOhgmrybJzZJhwm3ibOHPOTOCtrODcKee8CTongKMw30nkgNhWt3Im2Ou7t+RCvXS3BJoTbf+pT33qcAastuAQmNBz/CSTeneQTbzVw0HlZNKb46YNoLP8nFg6uiNLN84IvTjpnOHcCd03KAHnk099ZJv4k+OTLE47Z4WTIXijTrr7u1NBCc4cvdd10tG+gEecXX3EeVIXJ4M9BWM4Oa985StHnjhNM2zOUaED+7AFPdhMPWmHxBmnS8YEm2FtCw5UbC6vNimvD+NgkSP4whaCHI47Fsjk3CrD8dYeciDAkD6E8cCp1W90kpc946T7ZG/10Mk251ab6cBRZyfOPZsqo1/Iop+8sQNZdDJ2yFOXeqO7T3klerGZtrEDWeqD8/K6HjmNzusjjwNwdtfQyzm6uI7UqQ9e85rXjOvN9UgeHUN0ZkcBHteD+l/1qlfdcmf8qJCnbuXZy3XHFvQyvjLOrY5IME/Axbno4xM+jdX0mX5hd/Ygx/eCsSupT5+zJTuow3jXF+kfKxgEJsjxnaB+1xjbOUZvY1wQ1HeH61tZRC/y58CEcuz1/Oc/f8hSp7boA9cJWQkkRNYWxpo2apPvLEFS+pBvn708npW+yXdniH6uHXXnGtSfc76DUB+d2YPd6WTcCCRboaGf2D79U0oppZRSyhaXvMO52G8GuoEJN4eHkxLWE9p5Qjqf4xCY1PrkbMWJ5BSYyM4Ojsmu847JayINy7ZT3qfJv6S8SbgJeuSkbvqoh+PjLuG3fuu3jjvEnA6BCU5MJuryKkeGSbdj3q/gRX10etaznjWcEY64c+SCLuqPM+0cnTi/ZJrEa49zYV9HAMkbp5FzQ0dOYvTUL+qUxzanWt3s6zNtQ7bTB9A32pVl7Ug7OVLaQu5ab/vksSmd7LOFvtJP0TmwAVnqZjf2jwyfkuNkkQl5tRnJR45kW336J+eDcnTm2DseOT4jJ9BTvowfMtkk9kFkaJe6bcunjHN5DMK2ejO2M56hzlknbWVvdl7jvGRc6Qsy4gySE91cA+mb6K1czqedPh2nl3qhnLqVcw4+5U2Sl8P++Mc/frRbEOOGG24YeZ1f9/E+qEN7YhurFmCbTmSyXa7pjK11PfbJoqPku0l5dnKcHPbNtZHvE9sJ6Mmf8erdMh7pEXx6wQteMFZqkKl+Mtgptk5ZsuitPok9rSBgL49DCZA8+9nPXp7znOeMAF7GBX2Vl5+O+jh28Zn2pY2xCR3IMIbsK58+9T1HV+MwtlJ23taH6gI75Ro8iOhDN3nJjz7aAHLg+GHySimllFLKxc2JVkyYbJqYchZMyk2QTahNSJPsO7c+Jm8mqyauJrpkOc+RkuSTx3kJ9slzTpk5kakcGSbIKTMjH4eDzhx5z9PL526hO5XkJ/Ahn5T6HbdM3tJv9bir6W4pR5ATQDaSH5yE6GRbG03c4wggdtiXtDdwQshUR2wdG3M01JlAwrrsGno7Tz/b5KQv0kay2CVyIjP7UHf0oEPyr/PqJ/kk21vElpHpE5HBfmybMWg742ZGfraQL3lzPGTbJ90z1naNJ8fUJY8xRb/UnwCFbbaTR9rSTTnl6eT8Lpxjz1kvx9STupzXZ/Kod0tvOK5M6o48x+b+DfbJ0/9eROlRDk62lTjujDt+EsgnQ2JD+mgHm9Ar105snnbPZF8ebSBH2yKH/nAuOK4u8tNux8jwKIdHE9hIG62qcF5+yXHlkLL2fcbu9ucVE8pYWWHFl+8UOuYai/1zra6Zj2m/OnOt6ncyfJIJctJWZbdkaqv66ZVr/DDmPLbprbyU8U+nfWSVUkoppZSy7bEcAZNPE2PJBNi+zyT762NJayLLnT93JXMnc03umIbZSSHXOeV2TYpNvsk3geZYcew9N+5FdlYW5BEMKwMs8ba82R1Ud4kFJpSz5NxxOsaZCLPDRA953O33OTurSSchMsgk291PdVnOz472Y+vD6pttHZnKcqrI4uTMbMlSRiJrTiE6pGzyxi6Y8+TYnI9O9ufz87l1nWvki8M216NMPjHLTL4tlJFP/+6yuRR5s+7Zdi7XkP3DmGWtiT5x4lMPtmTLl2uODpAvCZHD8bXSyHsJnLNs3+MiyslzUlIfO7gu6WT8Rb7zHP0EAw6DHIEO7cv1Fzmxi335tvSPPjPKRC796Jmyu/QiJwnyp/6MncjKGJjzz6Qc5nyO0Sn2Sp5dpBxd6KDew8psERl0X4//cBy5pZRSSinl4uHSO97xjif6V46QSe4+JK/yUvbX5df7M1t5o09kbZXPcRNxy/hNpL0QjyOfFyh6275tydvy/YuGvwl199SjDd6ZcOONN45VFpyJ+S7jrnqRc5yXXXmOy1xv6sj2fA7r/bDOu0+eXRw33zr/+vicNzbPJ+bzu5hlKTuXXxN5u/LkfLbDvB3mvLs47HzYkpX9+fhWvjCfO8yGzjtmvOefWTyS5DEO7ziJU7sudxzm+tfb4aA+m5nLbDHLh22yrTrw6TGOvGMi763x3bEmMpSJbjnmWhQs8F1y2WWXjVUF3h8hOY61DidB+aSZXcdnDjsftvJlf31uK28ppZRSSikzJ7/F+Q5Oc9KZSewumbvOHeSobJ2LDC+G8+8gVkoIOvjnh2uuuWa59tprl+uuu258ekGmv9/jkHjx3jOe8YwRlBDUiAPD+dgKOETfOd2anHZdpy3vIA6Tf5gOR9Fx33z7chryjirjoPYedG6L5N9VJoEuwTqPJMBqIqslnBOYSJ7TYtblKG05DpGf7wrXuus7q4QctypAip3mdBjKgRz5Y6uUPYqsgzgNGSdhbsdZ61JKKaWUUs4fTvyvHOcL6+CECbNjnq/2ngj/BODRDYGGPGvtkQ2PcHhLvefBveHeHWL/6LB2wjoBLxc6rhd/2+kuv3+o8Q8tVhB4lCmO9/lMviN8ao/HIjxiYbWEx7a02Uswkwf7XvcCHR518N4PK64EdLyYMo/OlFJKKaWUcjFzyb3vfe+LxqPmTKwdCccEIRznOHiGnvPgbql3NVhJIUBhXx4py9YFJ47qoJRyPpLxnfdWwHXjGrhQx75re37vgrb6LtB+x/J9gOTZQh5lsvoCjvmuUe5CCOqUUkoppZRyEi6qwATiUGzheN5oz1lwl9M23NmMU7ZVfpfMUi4UjPEkuBZ2XQ8XCnPgZR1EyKopxw8KTMzMZcg9StlSSimllFIuVC66wATiFKyZHYT5/NpxuJAdsVJ2EUd63p6PXYikjbnm5/bPx/axwZwn5fcpV0oppZRSyoXORbmGeJdDEGdBmpmPr8+VcrEwXzPZvtAd6/l6X7d/Tvuw/g7Zt1wppZRSSikXOhftw82cgzoGpZR92PquOEpQopRSSimllLKbi/qta/Pd0FJKKaWUUkoppZx7+jr4UkoppZRSSimlnBkNTJRSSimllFJKKeXMaGCilFJKKaWUUkopZ8YlV1xxRV+0UEoppZRSSimllDOhKyZKKaWUUkoppZRyZjQwUUoppZRSSimllDOjgYlSSimllFJKKaWcEcvy/wBzHWrPCLqAmQAAAABJRU5ErkJggg==;" vertex="1" parent="1">
          <mxGeometry x="60" y="50" width="701.76" height="300" as="geometry" />
        </mxCell>
        <mxCell id="M_x_zIGCI7BnbwPZryQG-36" value="&lt;ul&gt;&lt;li&gt;&lt;font style=&quot;font-size: 13px;&quot; face=&quot;Verdana&quot;&gt;Stack Name - for managing cloud formation&lt;br&gt;Define paramteres (dev, test, prod)&lt;/font&gt;&lt;/li&gt;&lt;li&gt;&lt;font style=&quot;font-size: 13px;&quot; face=&quot;Verdana&quot;&gt;based on parameters, change the vlaues in th cloud formation to deply the right resources&lt;/font&gt;&lt;/li&gt;&lt;li&gt;&lt;font style=&quot;font-size: 13px;&quot; face=&quot;Verdana&quot;&gt;do necessary tags&lt;/font&gt;&lt;/li&gt;&lt;li&gt;&lt;font style=&quot;font-size: 13px;&quot; face=&quot;Verdana&quot;&gt;set up proper permissions / roles&lt;/font&gt;&lt;/li&gt;&lt;li&gt;&lt;font style=&quot;font-size: 13px;&quot; face=&quot;Verdana&quot;&gt;&lt;b&gt;stack policy can be defined for fat-fingers (so that accident deletion or modification can be avoided)&lt;/b&gt;&lt;/font&gt;&lt;/li&gt;&lt;li&gt;&lt;font style=&quot;font-size: 13px;&quot; face=&quot;Verdana&quot;&gt;&lt;b&gt;setup notifation options (SNS) to manage status&lt;/b&gt;&lt;/font&gt;&lt;/li&gt;&lt;/ul&gt;" style="text;html=1;align=left;verticalAlign=top;whiteSpace=wrap;rounded=0;" vertex="1" parent="1">
          <mxGeometry x="30" y="450" width="590" height="250" as="geometry" />
        </mxCell>
      </root>
    </mxGraphModel>
  </diagram>
  <diagram id="hesODz7BUwBuflFXu-iG" name="Page-3">
    <mxGraphModel dx="1232" dy="1105" grid="1" gridSize="10" guides="1" tooltips="1" connect="1" arrows="1" fold="1" page="1" pageScale="1" pageWidth="850" pageHeight="1100" math="0" shadow="0">
      <root>
        <mxCell id="0" />
        <mxCell id="1" parent="0" />
        <mxCell id="LrljOvKmcpQCXU1IfWjG-1" value="Source" style="rounded=1;whiteSpace=wrap;html=1;" vertex="1" parent="1">
          <mxGeometry x="30" y="110" width="110" height="30" as="geometry" />
        </mxCell>
        <mxCell id="LrljOvKmcpQCXU1IfWjG-2" value="" style="verticalLabelPosition=bottom;html=1;verticalAlign=top;align=center;strokeColor=none;fillColor=#00BEF2;shape=mxgraph.azure.github_code;pointerEvents=1;" vertex="1" parent="1">
          <mxGeometry x="400" y="540" width="50" height="50" as="geometry" />
        </mxCell>
        <mxCell id="LrljOvKmcpQCXU1IfWjG-3" value="&lt;ol&gt;&lt;li&gt;Require x Reviewers&lt;/li&gt;&lt;/ol&gt;" style="text;html=1;align=left;verticalAlign=middle;whiteSpace=wrap;rounded=0;fontFamily=Comic Sans MS;fontSize=14;spacing=-10;" vertex="1" parent="1">
          <mxGeometry x="10" y="200" width="150" height="30" as="geometry" />
        </mxCell>
        <mxCell id="LrljOvKmcpQCXU1IfWjG-4" value="Build" style="rounded=1;whiteSpace=wrap;html=1;" vertex="1" parent="1">
          <mxGeometry x="240" y="110" width="110" height="30" as="geometry" />
        </mxCell>
        <mxCell id="LrljOvKmcpQCXU1IfWjG-5" value="&lt;ol&gt;&lt;li&gt;Compile Source code and dependencies&lt;/li&gt;&lt;li&gt;Run Unit Tests&lt;/li&gt;&lt;li&gt;Check and enforce code coverage % (90+)&lt;/li&gt;&lt;/ol&gt;" style="text;html=1;align=left;verticalAlign=middle;whiteSpace=wrap;rounded=0;fontSize=14;fontFamily=Comic Sans MS;spacing=-10;" vertex="1" parent="1">
          <mxGeometry x="180" y="160" width="290" height="130" as="geometry" />
        </mxCell>
        <mxCell id="LrljOvKmcpQCXU1IfWjG-6" value="Test Env" style="rounded=1;whiteSpace=wrap;html=1;" vertex="1" parent="1">
          <mxGeometry x="520" y="110" width="110" height="30" as="geometry" />
        </mxCell>
        <mxCell id="LrljOvKmcpQCXU1IfWjG-7" value="&lt;ol&gt;&lt;li&gt;Run Integration Tests&amp;nbsp;&lt;/li&gt;&lt;ul&gt;&lt;li&gt;&lt;span style=&quot;background-color: transparent; color: light-dark(rgb(0, 0, 0), rgb(255, 255, 255));&quot;&gt;check businesss logic&lt;/span&gt;&lt;/li&gt;&lt;/ul&gt;&lt;li&gt;&lt;br&gt;&lt;/li&gt;&lt;/ol&gt;" style="text;html=1;align=left;verticalAlign=middle;whiteSpace=wrap;rounded=0;fontSize=14;fontFamily=Comic Sans MS;spacing=-10;" vertex="1" parent="1">
          <mxGeometry x="490" y="160" width="290" height="130" as="geometry" />
        </mxCell>
      </root>
    </mxGraphModel>
  </diagram>
</mxfile>
